<?xml version="1.0" encoding="UTF-8"?>
<!DOCTYPE svg PUBLIC "-//W3C//DTD SVG 1.1//EN" "http://www.w3.org/Graphics/SVG/1.1/DTD/svg11.dtd">
<svg xmlns="http://www.w3.org/2000/svg" version="1.1" width="1920px" height="1020px" style="shape-rendering:geometricPrecision; text-rendering:geometricPrecision; image-rendering:optimizeQuality; fill-rule:evenodd; clip-rule:evenodd" xmlns:xlink="http://www.w3.org/1999/xlink">
<g><path style="opacity:1" fill="#110000" d="M 1005.5,522.5 C 986.833,522.5 968.167,522.5 949.5,522.5C 931.5,522.5 913.5,522.5 895.5,522.5C 877.5,522.5 859.5,522.5 841.5,522.5C 841.5,516.167 841.5,509.833 841.5,503.5C 835.5,503.5 829.5,503.5 823.5,503.5C 823.5,510.167 823.5,516.833 823.5,523.5C 816.833,523.5 810.167,523.5 803.5,523.5C 803.5,511.167 803.5,498.833 803.5,486.5C 797.5,486.5 791.5,486.5 785.5,486.5C 785.5,492.167 785.5,497.833 785.5,503.5C 779.167,503.5 772.833,503.5 766.5,503.5C 766.5,492.167 766.5,480.833 766.5,469.5C 760.5,469.5 754.5,469.5 748.5,469.5C 748.5,450.5 748.5,431.5 748.5,412.5C 742.5,412.5 736.5,412.5 730.5,412.5C 730.5,357.5 730.5,302.5 730.5,247.5C 736.833,247.5 743.167,247.5 749.5,247.5C 749.5,235.167 749.5,222.833 749.5,210.5C 755.167,210.5 760.833,210.5 766.5,210.5C 766.5,204.833 766.5,199.167 766.5,193.5C 772.5,193.5 778.5,193.5 784.5,193.5C 784.5,186.833 784.5,180.167 784.5,173.5C 790.5,173.5 796.5,173.5 802.5,173.5C 802.5,167.5 802.5,161.5 802.5,155.5C 814.833,155.5 827.167,155.5 839.5,155.5C 839.5,149.5 839.5,143.5 839.5,137.5C 895.167,137.5 950.833,137.5 1006.5,137.5C 1006.5,143.167 1006.5,148.833 1006.5,154.5C 1018.83,154.5 1031.17,154.5 1043.5,154.5C 1043.5,161.167 1043.5,167.833 1043.5,174.5C 1049.5,174.5 1055.5,174.5 1061.5,174.5C 1061.5,180.833 1061.5,187.167 1061.5,193.5C 1067.5,193.5 1073.5,193.5 1079.5,193.5C 1079.5,199.167 1079.5,204.833 1079.5,210.5C 1085.5,210.5 1091.5,210.5 1097.5,210.5C 1097.5,222.833 1097.5,235.167 1097.5,247.5C 1103.5,247.5 1109.5,247.5 1115.5,247.5C 1115.5,302.833 1115.5,358.167 1115.5,413.5C 1109.17,413.5 1102.83,413.5 1096.5,413.5C 1096.5,431.833 1096.5,450.167 1096.5,468.5C 1090.5,468.5 1084.5,468.5 1078.5,468.5C 1078.5,480.5 1078.5,492.5 1078.5,504.5C 1072.17,504.5 1065.83,504.5 1059.5,504.5C 1059.5,498.5 1059.5,492.5 1059.5,486.5C 1053.83,486.5 1048.17,486.5 1042.5,486.5C 1042.5,498.833 1042.5,511.167 1042.5,523.5C 1036.17,523.5 1029.83,523.5 1023.5,523.5C 1023.5,517.5 1023.5,511.5 1023.5,505.5C 1017.5,505.5 1011.5,505.5 1005.5,505.5C 1005.5,511.167 1005.5,516.833 1005.5,522.5 Z"/></g>
<g><path style="opacity:1" fill="#1d1e1d" d="M 913.5,175.5 C 901.833,175.5 890.167,175.5 878.5,175.5C 878.5,181.167 878.5,186.833 878.5,192.5C 871.833,192.5 865.167,192.5 858.5,192.5C 858.5,180.5 858.5,168.5 858.5,156.5C 876.833,156.5 895.167,156.5 913.5,156.5C 913.5,162.833 913.5,169.167 913.5,175.5 Z"/></g>
<g><path style="opacity:1" fill="#1d1e1d" d="M 986.5,176.5 C 980.833,176.5 975.167,176.5 969.5,176.5C 963.5,176.5 957.5,176.5 951.5,176.5C 951.5,169.833 951.5,163.167 951.5,156.5C 963.167,156.5 974.833,156.5 986.5,156.5C 986.5,163.167 986.5,169.833 986.5,176.5 Z"/></g>
<g><path style="opacity:1" fill="#3b3c3b" d="M 913.5,175.5 C 913.5,182.167 913.5,188.833 913.5,195.5C 919.833,195.5 926.167,195.5 932.5,195.5C 932.5,206.5 932.5,217.5 932.5,228.5C 926.167,228.5 919.833,228.5 913.5,228.5C 913.5,223.167 913.5,217.833 913.5,212.5C 907.5,212.5 901.5,212.5 895.5,212.5C 895.5,212.167 895.5,211.833 895.5,211.5C 895.5,205.167 895.5,198.833 895.5,192.5C 889.833,192.5 884.167,192.5 878.5,192.5C 878.5,186.833 878.5,181.167 878.5,175.5C 890.167,175.5 901.833,175.5 913.5,175.5 Z"/></g>
<g><path style="opacity:1" fill="#1d1e1d" d="M 913.5,175.5 C 919.833,175.5 926.167,175.5 932.5,175.5C 932.5,182.167 932.5,188.833 932.5,195.5C 926.167,195.5 919.833,195.5 913.5,195.5C 913.5,188.833 913.5,182.167 913.5,175.5 Z"/></g>
<g><path style="opacity:1" fill="#3b3c3b" d="M 969.5,176.5 C 975.167,176.5 980.833,176.5 986.5,176.5C 986.833,176.5 987.167,176.5 987.5,176.5C 987.5,194.167 987.5,211.833 987.5,229.5C 981.5,229.5 975.5,229.5 969.5,229.5C 969.5,211.833 969.5,194.167 969.5,176.5 Z"/></g>
<g><path style="opacity:1" fill="#1d1e1d" d="M 987.5,176.5 C 993.5,176.5 999.5,176.5 1005.5,176.5C 1005.5,199.833 1005.5,223.167 1005.5,246.5C 993.5,246.5 981.5,246.5 969.5,246.5C 969.5,240.833 969.5,235.167 969.5,229.5C 975.5,229.5 981.5,229.5 987.5,229.5C 987.5,211.833 987.5,194.167 987.5,176.5 Z"/></g>
<g><path style="opacity:1" fill="#1d1e1d" d="M 878.5,192.5 C 884.167,192.5 889.833,192.5 895.5,192.5C 895.5,198.833 895.5,205.167 895.5,211.5C 889.833,211.5 884.167,211.5 878.5,211.5C 878.5,205.167 878.5,198.833 878.5,192.5 Z"/></g>
<g><path style="opacity:1" fill="#1d1e1d" d="M 784.5,193.5 C 791.5,193.5 798.5,193.5 805.5,193.5C 805.5,199.167 805.5,204.833 805.5,210.5C 810.833,210.5 816.167,210.5 821.5,210.5C 821.5,204.833 821.5,199.167 821.5,193.5C 827.833,193.5 834.167,193.5 840.5,193.5C 840.5,199.5 840.5,205.5 840.5,211.5C 834.5,211.5 828.5,211.5 822.5,211.5C 822.5,217.833 822.5,224.167 822.5,230.5C 816.833,230.5 811.167,230.5 805.5,230.5C 805.5,224.167 805.5,217.833 805.5,211.5C 798.5,211.5 791.5,211.5 784.5,211.5C 784.5,205.5 784.5,199.5 784.5,193.5 Z"/></g>
<g><path style="opacity:1" fill="#3b3c3b" d="M 805.5,193.5 C 810.833,193.5 816.167,193.5 821.5,193.5C 821.5,199.167 821.5,204.833 821.5,210.5C 816.167,210.5 810.833,210.5 805.5,210.5C 805.5,204.833 805.5,199.167 805.5,193.5 Z"/></g>
<g><path style="opacity:1" fill="#1d1e1d" d="M 1041.5,229.5 C 1041.5,217.833 1041.5,206.167 1041.5,194.5C 1047.83,194.5 1054.17,194.5 1060.5,194.5C 1060.5,206.167 1060.5,217.833 1060.5,229.5C 1054.17,229.5 1047.83,229.5 1041.5,229.5 Z"/></g>
<g><path style="opacity:1" fill="#1d1e1d" d="M 932.5,195.5 C 938.5,195.5 944.5,195.5 950.5,195.5C 950.5,206.5 950.5,217.5 950.5,228.5C 944.5,228.5 938.5,228.5 932.5,228.5C 932.5,217.5 932.5,206.5 932.5,195.5 Z"/></g>
<g><path style="opacity:1" fill="#3b3c3b" d="M 840.5,211.5 C 840.5,217.833 840.5,224.167 840.5,230.5C 834.5,230.5 828.5,230.5 822.5,230.5C 822.5,224.167 822.5,217.833 822.5,211.5C 828.5,211.5 834.5,211.5 840.5,211.5 Z"/></g>
<g><path style="opacity:1" fill="#1d1e1d" d="M 840.5,211.5 C 846.833,211.5 853.167,211.5 859.5,211.5C 859.5,223.5 859.5,235.5 859.5,247.5C 847.167,247.5 834.833,247.5 822.5,247.5C 822.5,241.833 822.5,236.167 822.5,230.5C 828.5,230.5 834.5,230.5 840.5,230.5C 840.5,224.167 840.5,217.833 840.5,211.5 Z"/></g>
<g><path style="opacity:1" fill="#1d1e1d" d="M 895.5,212.5 C 901.5,212.5 907.5,212.5 913.5,212.5C 913.5,217.833 913.5,223.167 913.5,228.5C 919.833,228.5 926.167,228.5 932.5,228.5C 932.5,234.5 932.5,240.5 932.5,246.5C 920.167,246.5 907.833,246.5 895.5,246.5C 895.5,235.167 895.5,223.833 895.5,212.5 Z"/></g>
<g><path style="opacity:1" fill="#1d1e1d" d="M 767.5,229.5 C 773.5,229.5 779.5,229.5 785.5,229.5C 785.5,242.5 785.5,255.5 785.5,268.5C 779.5,268.5 773.5,268.5 767.5,268.5C 767.5,255.5 767.5,242.5 767.5,229.5 Z"/></g>
<g><path style="opacity:1" fill="#1d1e1d" d="M 1041.5,229.5 C 1041.5,235.167 1041.5,240.833 1041.5,246.5C 1035.83,246.5 1030.17,246.5 1024.5,246.5C 1024.5,240.833 1024.5,235.167 1024.5,229.5C 1030.17,229.5 1035.83,229.5 1041.5,229.5 Z"/></g>
<g><path style="opacity:1" fill="#1d1e1d" d="M 1061.5,248.5 C 1067.17,248.5 1072.83,248.5 1078.5,248.5C 1078.5,254.5 1078.5,260.5 1078.5,266.5C 1072.83,266.5 1067.17,266.5 1061.5,266.5C 1061.5,260.5 1061.5,254.5 1061.5,248.5 Z"/></g>
<g><path style="opacity:1" fill="#75380d" d="M 1060.5,412.5 C 1054.17,412.5 1047.83,412.5 1041.5,412.5C 1041.5,424.5 1041.5,436.5 1041.5,448.5C 1035.83,448.5 1030.17,448.5 1024.5,448.5C 1024.5,454.833 1024.5,461.167 1024.5,467.5C 1018.17,467.5 1011.83,467.5 1005.5,467.5C 1005.5,473.5 1005.5,479.5 1005.5,485.5C 993.5,485.5 981.5,485.5 969.5,485.5C 963.5,485.5 957.5,485.5 951.5,485.5C 951.5,491.833 951.5,498.167 951.5,504.5C 933.167,504.5 914.833,504.5 896.5,504.5C 896.5,498.5 896.5,492.5 896.5,486.5C 889.833,486.5 883.167,486.5 876.5,486.5C 864.5,486.5 852.5,486.5 840.5,486.5C 840.5,480.167 840.5,473.833 840.5,467.5C 834.833,467.5 829.167,467.5 823.5,467.5C 823.5,461.833 823.5,456.167 823.5,450.5C 817.167,450.5 810.833,450.5 804.5,450.5C 804.5,437.5 804.5,424.5 804.5,411.5C 798.167,411.5 791.833,411.5 785.5,411.5C 785.5,375.5 785.5,339.5 785.5,303.5C 791.5,303.5 797.5,303.5 803.5,303.5C 803.5,291.5 803.5,279.5 803.5,267.5C 882.5,267.5 961.5,267.5 1040.5,267.5C 1040.5,279.5 1040.5,291.5 1040.5,303.5C 1047.17,303.5 1053.83,303.5 1060.5,303.5C 1060.5,339.833 1060.5,376.167 1060.5,412.5 Z"/></g>
<g><path style="opacity:1" fill="#110000" d="M 821.5,301.5 C 840.167,301.5 858.833,301.5 877.5,301.5C 877.5,307.833 877.5,314.167 877.5,320.5C 883.5,320.5 889.5,320.5 895.5,320.5C 895.5,326.833 895.5,333.167 895.5,339.5C 889.5,339.5 883.5,339.5 877.5,339.5C 877.5,333.5 877.5,327.5 877.5,321.5C 859.167,321.5 840.833,321.5 822.5,321.5C 822.5,327.833 822.5,334.167 822.5,340.5C 816.5,340.5 810.5,340.5 804.5,340.5C 804.5,333.833 804.5,327.167 804.5,320.5C 810.167,320.5 815.833,320.5 821.5,320.5C 821.5,314.167 821.5,307.833 821.5,301.5 Z"/></g>
<g><path style="opacity:1" fill="#110000" d="M 1023.5,321.5 C 1005.5,321.5 987.5,321.5 969.5,321.5C 969.5,327.833 969.5,334.167 969.5,340.5C 963.167,340.5 956.833,340.5 950.5,340.5C 950.5,334.167 950.5,327.833 950.5,321.5C 956.5,321.5 962.5,321.5 968.5,321.5C 968.5,315.167 968.5,308.833 968.5,302.5C 986.833,302.5 1005.17,302.5 1023.5,302.5C 1023.5,308.833 1023.5,315.167 1023.5,321.5 Z"/></g>
<g><path style="opacity:1" fill="#110000" d="M 1023.5,321.5 C 1029.83,321.5 1036.17,321.5 1042.5,321.5C 1042.5,327.5 1042.5,333.5 1042.5,339.5C 1036.17,339.5 1029.83,339.5 1023.5,339.5C 1023.5,333.5 1023.5,327.5 1023.5,321.5 Z"/></g>
<g><path style="opacity:1" fill="#571a00" d="M 1095.5,374.5 C 1090.17,374.5 1084.83,374.5 1079.5,374.5C 1079.5,368.5 1079.5,362.5 1079.5,356.5C 1084.83,356.5 1090.17,356.5 1095.5,356.5C 1095.5,362.5 1095.5,368.5 1095.5,374.5 Z"/></g>
<g><path style="opacity:1" fill="#571a00" d="M 766.5,377.5 C 760.5,377.5 754.5,377.5 748.5,377.5C 748.5,371.167 748.5,364.833 748.5,358.5C 754.5,358.5 760.5,358.5 766.5,358.5C 766.5,364.833 766.5,371.167 766.5,377.5 Z"/></g>
<g><path style="opacity:1" fill="#75380d" d="M 1079.5,374.5 C 1084.83,374.5 1090.17,374.5 1095.5,374.5C 1095.5,387.167 1095.5,399.833 1095.5,412.5C 1090.17,412.5 1084.83,412.5 1079.5,412.5C 1079.5,399.833 1079.5,387.167 1079.5,374.5 Z"/></g>
<g><path style="opacity:1" fill="#110000" d="M 803.5,375.5 C 809.833,375.5 816.167,375.5 822.5,375.5C 822.5,381.833 822.5,388.167 822.5,394.5C 840.833,394.5 859.167,394.5 877.5,394.5C 877.5,388.167 877.5,381.833 877.5,375.5C 883.833,375.5 890.167,375.5 896.5,375.5C 896.5,381.833 896.5,388.167 896.5,394.5C 890.5,394.5 884.5,394.5 878.5,394.5C 878.5,400.5 878.5,406.5 878.5,412.5C 859.5,412.5 840.5,412.5 821.5,412.5C 821.5,406.833 821.5,401.167 821.5,395.5C 815.5,395.5 809.5,395.5 803.5,395.5C 803.5,388.833 803.5,382.167 803.5,375.5 Z"/></g>
<g><path style="opacity:1" fill="#110000" d="M 969.5,394.5 C 962.833,394.5 956.167,394.5 949.5,394.5C 949.5,388.167 949.5,381.833 949.5,375.5C 956.167,375.5 962.833,375.5 969.5,375.5C 969.5,381.833 969.5,388.167 969.5,394.5 Z"/></g>
<g><path style="opacity:1" fill="#110000" d="M 1023.5,394.5 C 1023.5,388.167 1023.5,381.833 1023.5,375.5C 1029.83,375.5 1036.17,375.5 1042.5,375.5C 1042.5,381.833 1042.5,388.167 1042.5,394.5C 1036.17,394.5 1029.83,394.5 1023.5,394.5 Z"/></g>
<g><path style="opacity:1" fill="#75380d" d="M 748.5,377.5 C 754.5,377.5 760.5,377.5 766.5,377.5C 766.5,389.167 766.5,400.833 766.5,412.5C 760.5,412.5 754.5,412.5 748.5,412.5C 748.5,400.833 748.5,389.167 748.5,377.5 Z"/></g>
<g><path style="opacity:1" fill="#110000" d="M 969.5,394.5 C 987.5,394.5 1005.5,394.5 1023.5,394.5C 1023.5,401.167 1023.5,407.833 1023.5,414.5C 1005.5,414.5 987.5,414.5 969.5,414.5C 969.5,407.833 969.5,401.167 969.5,394.5 Z"/></g>
<g><path style="opacity:1" fill="#571a00" d="M 785.5,411.5 C 791.833,411.5 798.167,411.5 804.5,411.5C 804.5,424.5 804.5,437.5 804.5,450.5C 798.167,450.5 791.833,450.5 785.5,450.5C 785.5,437.5 785.5,424.5 785.5,411.5 Z"/></g>
<g><path style="opacity:1" fill="#571a00" d="M 1060.5,412.5 C 1060.5,424.833 1060.5,437.167 1060.5,449.5C 1054.5,449.5 1048.5,449.5 1042.5,449.5C 1042.5,455.5 1042.5,461.5 1042.5,467.5C 1036.5,467.5 1030.5,467.5 1024.5,467.5C 1024.5,461.167 1024.5,454.833 1024.5,448.5C 1030.17,448.5 1035.83,448.5 1041.5,448.5C 1041.5,436.5 1041.5,424.5 1041.5,412.5C 1047.83,412.5 1054.17,412.5 1060.5,412.5 Z"/></g>
<g><path style="opacity:1" fill="#110000" d="M 913.5,449.5 C 920.167,449.5 926.833,449.5 933.5,449.5C 933.5,455.5 933.5,461.5 933.5,467.5C 926.833,467.5 920.167,467.5 913.5,467.5C 913.5,461.5 913.5,455.5 913.5,449.5 Z"/></g>
<g><path style="opacity:1" fill="#571a00" d="M 804.5,450.5 C 810.833,450.5 817.167,450.5 823.5,450.5C 823.5,456.167 823.5,461.833 823.5,467.5C 817.167,467.5 810.833,467.5 804.5,467.5C 804.5,461.833 804.5,456.167 804.5,450.5 Z"/></g>
<g><path style="opacity:1" fill="#571a00" d="M 969.5,485.5 C 969.5,491.833 969.5,498.167 969.5,504.5C 963.5,504.5 957.5,504.5 951.5,504.5C 951.5,498.167 951.5,491.833 951.5,485.5C 957.5,485.5 963.5,485.5 969.5,485.5 Z"/></g>
<g><path style="opacity:1" fill="#571a00" d="M 876.5,486.5 C 883.167,486.5 889.833,486.5 896.5,486.5C 896.5,492.5 896.5,498.5 896.5,504.5C 889.833,504.5 883.167,504.5 876.5,504.5C 876.5,498.5 876.5,492.5 876.5,486.5 Z"/></g>
<g><path style="opacity:1" fill="#00498b" d="M 841.5,522.5 C 859.5,522.5 877.5,522.5 895.5,522.5C 895.5,528.5 895.5,534.5 895.5,540.5C 889.5,540.5 883.5,540.5 877.5,540.5C 871.167,540.5 864.833,540.5 858.5,540.5C 852.833,540.5 847.167,540.5 841.5,540.5C 841.5,534.5 841.5,528.5 841.5,522.5 Z"/></g>
<g><path style="opacity:1" fill="#75380d" d="M 895.5,522.5 C 913.5,522.5 931.5,522.5 949.5,522.5C 949.5,528.5 949.5,534.5 949.5,540.5C 931.5,540.5 913.5,540.5 895.5,540.5C 895.5,534.5 895.5,528.5 895.5,522.5 Z"/></g>
<g><path style="opacity:1" fill="#00498b" d="M 949.5,522.5 C 968.167,522.5 986.833,522.5 1005.5,522.5C 1005.5,528.5 1005.5,534.5 1005.5,540.5C 1011.83,540.5 1018.17,540.5 1024.5,540.5C 1024.5,546.5 1024.5,552.5 1024.5,558.5C 1030.5,558.5 1036.5,558.5 1042.5,558.5C 1042.5,564.5 1042.5,570.5 1042.5,576.5C 1048.83,576.5 1055.17,576.5 1061.5,576.5C 1061.5,582.833 1061.5,589.167 1061.5,595.5C 1055.17,595.5 1048.83,595.5 1042.5,595.5C 1042.5,601.5 1042.5,607.5 1042.5,613.5C 1042.17,613.5 1041.83,613.5 1041.5,613.5C 1035.5,613.5 1029.5,613.5 1023.5,613.5C 1023.5,607.5 1023.5,601.5 1023.5,595.5C 1029.5,595.5 1035.5,595.5 1041.5,595.5C 1041.5,589.5 1041.5,583.5 1041.5,577.5C 1035.5,577.5 1029.5,577.5 1023.5,577.5C 1023.5,571.5 1023.5,565.5 1023.5,559.5C 1017.5,559.5 1011.5,559.5 1005.5,559.5C 1005.5,553.5 1005.5,547.5 1005.5,541.5C 999.5,541.5 993.5,541.5 987.5,541.5C 981.167,541.5 974.833,541.5 968.5,541.5C 962.5,541.5 956.5,541.5 950.5,541.5C 950.5,547.5 950.5,553.5 950.5,559.5C 932.167,559.5 913.833,559.5 895.5,559.5C 895.5,553.167 895.5,546.833 895.5,540.5C 913.5,540.5 931.5,540.5 949.5,540.5C 949.5,534.5 949.5,528.5 949.5,522.5 Z"/></g>
<g><path style="opacity:1" fill="#00498b" d="M 841.5,540.5 C 841.5,546.5 841.5,552.5 841.5,558.5C 835.167,558.5 828.833,558.5 822.5,558.5C 822.5,552.5 822.5,546.5 822.5,540.5C 828.833,540.5 835.167,540.5 841.5,540.5 Z"/></g>
<g><path style="opacity:1" fill="#00aeef" d="M 841.5,540.5 C 847.167,540.5 852.833,540.5 858.5,540.5C 858.5,552.833 858.5,565.167 858.5,577.5C 852.5,577.5 846.5,577.5 840.5,577.5C 834.5,577.5 828.5,577.5 822.5,577.5C 822.5,571.167 822.5,564.833 822.5,558.5C 828.833,558.5 835.167,558.5 841.5,558.5C 841.5,552.5 841.5,546.5 841.5,540.5 Z"/></g>
<g><path style="opacity:1" fill="#008fd1" d="M 858.5,540.5 C 864.833,540.5 871.167,540.5 877.5,540.5C 877.5,552.833 877.5,565.167 877.5,577.5C 871.167,577.5 864.833,577.5 858.5,577.5C 858.5,565.167 858.5,552.833 858.5,540.5 Z"/></g>
<g><path style="opacity:1" fill="#00aeef" d="M 877.5,540.5 C 883.5,540.5 889.5,540.5 895.5,540.5C 895.5,546.833 895.5,553.167 895.5,559.5C 895.5,565.167 895.5,570.833 895.5,576.5C 913.833,576.5 932.167,576.5 950.5,576.5C 950.5,570.833 950.5,565.167 950.5,559.5C 950.5,553.5 950.5,547.5 950.5,541.5C 956.5,541.5 962.5,541.5 968.5,541.5C 968.5,553.5 968.5,565.5 968.5,577.5C 974.833,577.5 981.167,577.5 987.5,577.5C 987.5,595.833 987.5,614.167 987.5,632.5C 993.5,632.5 999.5,632.5 1005.5,632.5C 1005.5,644.5 1005.5,656.5 1005.5,668.5C 999.5,668.5 993.5,668.5 987.5,668.5C 987.5,662.167 987.5,655.833 987.5,649.5C 981.167,649.5 974.833,649.5 968.5,649.5C 968.5,631.5 968.5,613.5 968.5,595.5C 938.5,595.5 908.5,595.5 878.5,595.5C 878.5,613.167 878.5,630.833 878.5,648.5C 872.5,648.5 866.5,648.5 860.5,648.5C 860.5,655.167 860.5,661.833 860.5,668.5C 854.167,668.5 847.833,668.5 841.5,668.5C 841.5,656.5 841.5,644.5 841.5,632.5C 847.167,632.5 852.833,632.5 858.5,632.5C 858.5,614.167 858.5,595.833 858.5,577.5C 864.833,577.5 871.167,577.5 877.5,577.5C 877.5,565.167 877.5,552.833 877.5,540.5 Z"/></g>
<g><path style="opacity:1" fill="#008fd1" d="M 968.5,541.5 C 974.833,541.5 981.167,541.5 987.5,541.5C 987.5,553.5 987.5,565.5 987.5,577.5C 981.167,577.5 974.833,577.5 968.5,577.5C 968.5,565.5 968.5,553.5 968.5,541.5 Z"/></g>
<g><path style="opacity:1" fill="#00aeef" d="M 987.5,541.5 C 993.5,541.5 999.5,541.5 1005.5,541.5C 1005.5,547.5 1005.5,553.5 1005.5,559.5C 1011.5,559.5 1017.5,559.5 1023.5,559.5C 1023.5,565.5 1023.5,571.5 1023.5,577.5C 1017.83,577.5 1012.17,577.5 1006.5,577.5C 1000.17,577.5 993.833,577.5 987.5,577.5C 987.5,565.5 987.5,553.5 987.5,541.5 Z"/></g>
<g><path style="opacity:1" fill="#00498b" d="M 822.5,558.5 C 822.5,564.833 822.5,571.167 822.5,577.5C 816.5,577.5 810.5,577.5 804.5,577.5C 804.5,583.5 804.5,589.5 804.5,595.5C 810.5,595.5 816.5,595.5 822.5,595.5C 822.5,601.5 822.5,607.5 822.5,613.5C 828.5,613.5 834.5,613.5 840.5,613.5C 840.5,607.5 840.5,601.5 840.5,595.5C 840.5,589.5 840.5,583.5 840.5,577.5C 846.5,577.5 852.5,577.5 858.5,577.5C 858.5,595.833 858.5,614.167 858.5,632.5C 852.833,632.5 847.167,632.5 841.5,632.5C 841.5,644.5 841.5,656.5 841.5,668.5C 841.5,674.833 841.5,681.167 841.5,687.5C 841.5,692.833 841.5,698.167 841.5,703.5C 896.167,703.5 950.833,703.5 1005.5,703.5C 1005.5,698.167 1005.5,692.833 1005.5,687.5C 1005.5,681.167 1005.5,674.833 1005.5,668.5C 1005.5,656.5 1005.5,644.5 1005.5,632.5C 999.5,632.5 993.5,632.5 987.5,632.5C 987.5,614.167 987.5,595.833 987.5,577.5C 993.833,577.5 1000.17,577.5 1006.5,577.5C 1006.5,583.5 1006.5,589.5 1006.5,595.5C 1006.5,601.5 1006.5,607.5 1006.5,613.5C 1012.17,613.5 1017.83,613.5 1023.5,613.5C 1023.5,619.833 1023.5,626.167 1023.5,632.5C 1023.5,663.167 1023.5,693.833 1023.5,724.5C 1017.83,724.5 1012.17,724.5 1006.5,724.5C 999.833,724.5 993.167,724.5 986.5,724.5C 980.5,724.5 974.5,724.5 968.5,724.5C 962.5,724.5 956.5,724.5 950.5,724.5C 932.167,724.5 913.833,724.5 895.5,724.5C 889.833,724.5 884.167,724.5 878.5,724.5C 872.5,724.5 866.5,724.5 860.5,724.5C 853.833,724.5 847.167,724.5 840.5,724.5C 834.5,724.5 828.5,724.5 822.5,724.5C 822.5,693.5 822.5,662.5 822.5,631.5C 822.5,625.833 822.5,620.167 822.5,614.5C 816.167,614.5 809.833,614.5 803.5,614.5C 803.5,614.167 803.5,613.833 803.5,613.5C 803.5,607.833 803.5,602.167 803.5,596.5C 797.5,596.5 791.5,596.5 785.5,596.5C 785.5,589.833 785.5,583.167 785.5,576.5C 791.5,576.5 797.5,576.5 803.5,576.5C 803.5,570.5 803.5,564.5 803.5,558.5C 809.833,558.5 816.167,558.5 822.5,558.5 Z"/></g>
<g><path style="opacity:1" fill="#1eccff" d="M 895.5,559.5 C 913.833,559.5 932.167,559.5 950.5,559.5C 950.5,565.167 950.5,570.833 950.5,576.5C 932.167,576.5 913.833,576.5 895.5,576.5C 895.5,570.833 895.5,565.167 895.5,559.5 Z"/></g>
<g><path style="opacity:1" fill="#00aeef" d="M 822.5,577.5 C 822.5,583.5 822.5,589.5 822.5,595.5C 816.5,595.5 810.5,595.5 804.5,595.5C 804.5,589.5 804.5,583.5 804.5,577.5C 810.5,577.5 816.5,577.5 822.5,577.5 Z"/></g>
<g><path style="opacity:1" fill="#008fd1" d="M 822.5,577.5 C 828.5,577.5 834.5,577.5 840.5,577.5C 840.5,583.5 840.5,589.5 840.5,595.5C 834.5,595.5 828.5,595.5 822.5,595.5C 822.5,589.5 822.5,583.5 822.5,577.5 Z"/></g>
<g><path style="opacity:1" fill="#008fd1" d="M 1006.5,577.5 C 1012.17,577.5 1017.83,577.5 1023.5,577.5C 1023.5,583.5 1023.5,589.5 1023.5,595.5C 1017.83,595.5 1012.17,595.5 1006.5,595.5C 1006.5,589.5 1006.5,583.5 1006.5,577.5 Z"/></g>
<g><path style="opacity:1" fill="#00aeef" d="M 1023.5,577.5 C 1029.5,577.5 1035.5,577.5 1041.5,577.5C 1041.5,583.5 1041.5,589.5 1041.5,595.5C 1035.5,595.5 1029.5,595.5 1023.5,595.5C 1023.5,589.5 1023.5,583.5 1023.5,577.5 Z"/></g>
<g><path style="opacity:1" fill="#00aeef" d="M 822.5,595.5 C 828.5,595.5 834.5,595.5 840.5,595.5C 840.5,601.5 840.5,607.5 840.5,613.5C 834.5,613.5 828.5,613.5 822.5,613.5C 822.5,607.5 822.5,601.5 822.5,595.5 Z"/></g>
<g><path style="opacity:1" fill="#1eccff" d="M 987.5,668.5 C 945.167,668.5 902.833,668.5 860.5,668.5C 860.5,661.833 860.5,655.167 860.5,648.5C 866.5,648.5 872.5,648.5 878.5,648.5C 878.5,630.833 878.5,613.167 878.5,595.5C 908.5,595.5 938.5,595.5 968.5,595.5C 968.5,613.5 968.5,631.5 968.5,649.5C 974.833,649.5 981.167,649.5 987.5,649.5C 987.5,655.833 987.5,662.167 987.5,668.5 Z"/></g>
<g><path style="opacity:1" fill="#00aeef" d="M 1006.5,595.5 C 1012.17,595.5 1017.83,595.5 1023.5,595.5C 1023.5,601.5 1023.5,607.5 1023.5,613.5C 1017.83,613.5 1012.17,613.5 1006.5,613.5C 1006.5,607.5 1006.5,601.5 1006.5,595.5 Z"/></g>
<g><path style="opacity:1" fill="#110000" d="M 803.5,613.5 C 803.5,613.833 803.5,614.167 803.5,614.5C 803.5,620.167 803.5,625.833 803.5,631.5C 803.5,643.833 803.5,656.167 803.5,668.5C 797.5,668.5 791.5,668.5 785.5,668.5C 785.5,650.167 785.5,631.833 785.5,613.5C 791.5,613.5 797.5,613.5 803.5,613.5 Z"/></g>
<g><path style="opacity:1" fill="#75380d" d="M 1023.5,613.5 C 1029.5,613.5 1035.5,613.5 1041.5,613.5C 1041.5,619.833 1041.5,626.167 1041.5,632.5C 1035.5,632.5 1029.5,632.5 1023.5,632.5C 1023.5,626.167 1023.5,619.833 1023.5,613.5 Z"/></g>
<g><path style="opacity:1" fill="#110000" d="M 1041.5,613.5 C 1041.83,613.5 1042.17,613.5 1042.5,613.5C 1048.5,613.5 1054.5,613.5 1060.5,613.5C 1060.5,631.5 1060.5,649.5 1060.5,667.5C 1066.5,667.5 1072.5,667.5 1078.5,667.5C 1078.5,686.167 1078.5,704.833 1078.5,723.5C 1072.5,723.5 1066.5,723.5 1060.5,723.5C 1060.5,717.5 1060.5,711.5 1060.5,705.5C 1060.5,693.167 1060.5,680.833 1060.5,668.5C 1054.17,668.5 1047.83,668.5 1041.5,668.5C 1041.5,656.5 1041.5,644.5 1041.5,632.5C 1041.5,626.167 1041.5,619.833 1041.5,613.5 Z"/></g>
<g><path style="opacity:1" fill="#75380d" d="M 803.5,614.5 C 809.833,614.5 816.167,614.5 822.5,614.5C 822.5,620.167 822.5,625.833 822.5,631.5C 816.167,631.5 809.833,631.5 803.5,631.5C 803.5,625.833 803.5,620.167 803.5,614.5 Z"/></g>
<g><path style="opacity:1" fill="#93562b" d="M 803.5,631.5 C 809.833,631.5 816.167,631.5 822.5,631.5C 822.5,662.5 822.5,693.5 822.5,724.5C 816.256,723.542 809.923,723.209 803.5,723.5C 803.5,717.5 803.5,711.5 803.5,705.5C 803.5,693.167 803.5,680.833 803.5,668.5C 803.5,656.167 803.5,643.833 803.5,631.5 Z"/></g>
<g><path style="opacity:1" fill="#93562b" d="M 1023.5,632.5 C 1029.5,632.5 1035.5,632.5 1041.5,632.5C 1041.5,644.5 1041.5,656.5 1041.5,668.5C 1041.5,680.833 1041.5,693.167 1041.5,705.5C 1041.5,711.5 1041.5,717.5 1041.5,723.5C 1041.5,723.833 1041.5,724.167 1041.5,724.5C 1035.5,724.5 1029.5,724.5 1023.5,724.5C 1023.5,693.833 1023.5,663.167 1023.5,632.5 Z"/></g>
<g><path style="opacity:1" fill="#110000" d="M 785.5,668.5 C 785.5,680.833 785.5,693.167 785.5,705.5C 785.5,711.5 785.5,717.5 785.5,723.5C 779.5,723.5 773.5,723.5 767.5,723.5C 767.5,705.167 767.5,686.833 767.5,668.5C 773.5,668.5 779.5,668.5 785.5,668.5 Z"/></g>
<g><path style="opacity:1" fill="#75380d" d="M 785.5,668.5 C 791.5,668.5 797.5,668.5 803.5,668.5C 803.5,680.833 803.5,693.167 803.5,705.5C 797.5,705.5 791.5,705.5 785.5,705.5C 785.5,693.167 785.5,680.833 785.5,668.5 Z"/></g>
<g><path style="opacity:1" fill="#008fd1" d="M 841.5,668.5 C 847.833,668.5 854.167,668.5 860.5,668.5C 860.5,674.833 860.5,681.167 860.5,687.5C 854.167,687.5 847.833,687.5 841.5,687.5C 841.5,681.167 841.5,674.833 841.5,668.5 Z"/></g>
<g><path style="opacity:1" fill="#00aeef" d="M 860.5,668.5 C 902.833,668.5 945.167,668.5 987.5,668.5C 987.5,674.833 987.5,681.167 987.5,687.5C 945.167,687.5 902.833,687.5 860.5,687.5C 860.5,681.167 860.5,674.833 860.5,668.5 Z"/></g>
<g><path style="opacity:1" fill="#008fd1" d="M 987.5,668.5 C 993.5,668.5 999.5,668.5 1005.5,668.5C 1005.5,674.833 1005.5,681.167 1005.5,687.5C 999.5,687.5 993.5,687.5 987.5,687.5C 987.5,681.167 987.5,674.833 987.5,668.5 Z"/></g>
<g><path style="opacity:1" fill="#75380d" d="M 1041.5,668.5 C 1047.83,668.5 1054.17,668.5 1060.5,668.5C 1060.5,680.833 1060.5,693.167 1060.5,705.5C 1054.17,705.5 1047.83,705.5 1041.5,705.5C 1041.5,693.167 1041.5,680.833 1041.5,668.5 Z"/></g>
<g><path style="opacity:1" fill="#1eccff" d="M 841.5,687.5 C 847.833,687.5 854.167,687.5 860.5,687.5C 902.833,687.5 945.167,687.5 987.5,687.5C 993.5,687.5 999.5,687.5 1005.5,687.5C 1005.5,692.833 1005.5,698.167 1005.5,703.5C 950.833,703.5 896.167,703.5 841.5,703.5C 841.5,698.167 841.5,692.833 841.5,687.5 Z"/></g>
<g><path style="opacity:1" fill="#571a00" d="M 785.5,705.5 C 791.5,705.5 797.5,705.5 803.5,705.5C 803.5,711.5 803.5,717.5 803.5,723.5C 797.5,723.5 791.5,723.5 785.5,723.5C 785.5,717.5 785.5,711.5 785.5,705.5 Z"/></g>
<g><path style="opacity:1" fill="#571a00" d="M 1041.5,705.5 C 1047.83,705.5 1054.17,705.5 1060.5,705.5C 1060.5,711.5 1060.5,717.5 1060.5,723.5C 1054.17,723.5 1047.83,723.5 1041.5,723.5C 1041.5,717.5 1041.5,711.5 1041.5,705.5 Z"/></g>
<g><path style="opacity:1" fill="#110000" d="M 785.5,723.5 C 791.5,723.5 797.5,723.5 803.5,723.5C 803.5,729.833 803.5,736.167 803.5,742.5C 797.5,742.5 791.5,742.5 785.5,742.5C 785.5,736.167 785.5,729.833 785.5,723.5 Z"/></g>
<g><path style="opacity:1" fill="#75380d" d="M 803.5,723.5 C 809.923,723.209 816.256,723.542 822.5,724.5C 822.5,730.5 822.5,736.5 822.5,742.5C 816.167,742.5 809.833,742.5 803.5,742.5C 803.5,736.167 803.5,729.833 803.5,723.5 Z"/></g>
<g><path style="opacity:1" fill="#110000" d="M 1041.5,723.5 C 1047.83,723.5 1054.17,723.5 1060.5,723.5C 1060.5,729.5 1060.5,735.5 1060.5,741.5C 1054.5,741.5 1048.5,741.5 1042.5,741.5C 1042.5,747.833 1042.5,754.167 1042.5,760.5C 1030.17,760.5 1017.83,760.5 1005.5,760.5C 1005.5,754.833 1005.5,749.167 1005.5,743.5C 1006.34,743.158 1006.67,742.492 1006.5,741.5C 1012.17,741.5 1017.83,741.5 1023.5,741.5C 1029.5,741.5 1035.5,741.5 1041.5,741.5C 1041.5,735.833 1041.5,730.167 1041.5,724.5C 1041.5,724.167 1041.5,723.833 1041.5,723.5 Z"/></g>
<g><path style="opacity:1" fill="#00022a" d="M 822.5,724.5 C 828.5,724.5 834.5,724.5 840.5,724.5C 840.5,730.833 840.5,737.167 840.5,743.5C 834.31,743.823 828.31,743.49 822.5,742.5C 822.5,736.5 822.5,730.5 822.5,724.5 Z"/></g>
<g><path style="opacity:1" fill="#004870" d="M 840.5,724.5 C 847.167,724.5 853.833,724.5 860.5,724.5C 860.5,731.167 860.5,737.833 860.5,744.5C 853.833,744.5 847.167,744.5 840.5,744.5C 840.5,744.167 840.5,743.833 840.5,743.5C 840.5,737.167 840.5,730.833 840.5,724.5 Z"/></g>
<g><path style="opacity:1" fill="#00678e" d="M 860.5,724.5 C 866.5,724.5 872.5,724.5 878.5,724.5C 878.5,754.5 878.5,784.5 878.5,814.5C 872.5,814.5 866.5,814.5 860.5,814.5C 860.5,791.167 860.5,767.833 860.5,744.5C 860.5,737.833 860.5,731.167 860.5,724.5 Z"/></g>
<g><path style="opacity:1" fill="#004870" d="M 878.5,724.5 C 884.167,724.5 889.833,724.5 895.5,724.5C 895.5,730.167 895.5,735.833 895.5,741.5C 895.5,765.833 895.5,790.167 895.5,814.5C 889.833,814.5 884.167,814.5 878.5,814.5C 878.5,784.5 878.5,754.5 878.5,724.5 Z"/></g>
<g><path style="opacity:1" fill="#00678e" d="M 895.5,724.5 C 913.833,724.5 932.167,724.5 950.5,724.5C 950.5,730.167 950.5,735.833 950.5,741.5C 932.167,741.5 913.833,741.5 895.5,741.5C 895.5,735.833 895.5,730.167 895.5,724.5 Z"/></g>
<g><path style="opacity:1" fill="#004870" d="M 950.5,724.5 C 956.5,724.5 962.5,724.5 968.5,724.5C 968.5,754.5 968.5,784.5 968.5,814.5C 962.5,814.5 956.5,814.5 950.5,814.5C 950.5,790.167 950.5,765.833 950.5,741.5C 950.5,735.833 950.5,730.167 950.5,724.5 Z"/></g>
<g><path style="opacity:1" fill="#00678e" d="M 968.5,724.5 C 974.5,724.5 980.5,724.5 986.5,724.5C 986.5,730.833 986.5,737.167 986.5,743.5C 986.5,767.167 986.5,790.833 986.5,814.5C 980.5,814.5 974.5,814.5 968.5,814.5C 968.5,784.5 968.5,754.5 968.5,724.5 Z"/></g>
<g><path style="opacity:1" fill="#004870" d="M 986.5,724.5 C 993.167,724.5 999.833,724.5 1006.5,724.5C 1006.5,730.167 1006.5,735.833 1006.5,741.5C 1006.67,742.492 1006.34,743.158 1005.5,743.5C 999.167,743.5 992.833,743.5 986.5,743.5C 986.5,737.167 986.5,730.833 986.5,724.5 Z"/></g>
<g><path style="opacity:1" fill="#00022a" d="M 1006.5,724.5 C 1012.17,724.5 1017.83,724.5 1023.5,724.5C 1023.5,730.167 1023.5,735.833 1023.5,741.5C 1017.83,741.5 1012.17,741.5 1006.5,741.5C 1006.5,735.833 1006.5,730.167 1006.5,724.5 Z"/></g>
<g><path style="opacity:1" fill="#75380d" d="M 1023.5,724.5 C 1029.5,724.5 1035.5,724.5 1041.5,724.5C 1041.5,730.167 1041.5,735.833 1041.5,741.5C 1035.5,741.5 1029.5,741.5 1023.5,741.5C 1023.5,735.833 1023.5,730.167 1023.5,724.5 Z"/></g>
<g><path style="opacity:1" fill="#00022a" d="M 895.5,741.5 C 913.833,741.5 932.167,741.5 950.5,741.5C 950.5,765.833 950.5,790.167 950.5,814.5C 956.5,814.5 962.5,814.5 968.5,814.5C 974.5,814.5 980.5,814.5 986.5,814.5C 986.5,790.833 986.5,767.167 986.5,743.5C 992.833,743.5 999.167,743.5 1005.5,743.5C 1005.5,749.167 1005.5,754.833 1005.5,760.5C 1005.5,778.5 1005.5,796.5 1005.5,814.5C 1011.83,814.5 1018.17,814.5 1024.5,814.5C 1024.5,820.5 1024.5,826.5 1024.5,832.5C 1024.5,833.167 1024.17,833.5 1023.5,833.5C 1018.17,833.5 1012.83,833.5 1007.5,833.5C 1000.83,833.5 994.167,833.5 987.5,833.5C 981.167,833.5 974.833,833.5 968.5,833.5C 962.5,833.5 956.5,833.5 950.5,833.5C 944.5,833.5 938.5,833.5 932.5,833.5C 932.5,809.167 932.5,784.833 932.5,760.5C 926.5,760.5 920.5,760.5 914.5,760.5C 914.5,784.833 914.5,809.167 914.5,833.5C 908.5,833.5 902.5,833.5 896.5,833.5C 890.167,833.5 883.833,833.5 877.5,833.5C 871.167,833.5 864.833,833.5 858.5,833.5C 852.5,833.5 846.5,833.5 840.5,833.5C 834.833,833.5 829.167,833.5 823.5,833.5C 822.833,833.5 822.5,833.167 822.5,832.5C 822.5,826.5 822.5,820.5 822.5,814.5C 828.5,814.5 834.5,814.5 840.5,814.5C 840.5,796.5 840.5,778.5 840.5,760.5C 840.5,755.167 840.5,749.833 840.5,744.5C 847.167,744.5 853.833,744.5 860.5,744.5C 860.5,767.833 860.5,791.167 860.5,814.5C 866.5,814.5 872.5,814.5 878.5,814.5C 884.167,814.5 889.833,814.5 895.5,814.5C 895.5,790.167 895.5,765.833 895.5,741.5 Z"/></g>
<g><path style="opacity:1" fill="#110000" d="M 803.5,742.5 C 809.833,742.5 816.167,742.5 822.5,742.5C 828.31,743.49 834.31,743.823 840.5,743.5C 840.5,743.833 840.5,744.167 840.5,744.5C 840.5,749.833 840.5,755.167 840.5,760.5C 828.167,760.5 815.833,760.5 803.5,760.5C 803.5,754.5 803.5,748.5 803.5,742.5 Z"/></g>
<g><path style="opacity:1" fill="#110000" d="M 822.5,832.5 C 822.5,833.167 822.833,833.5 823.5,833.5C 823.5,839.167 823.5,844.833 823.5,850.5C 823.5,856.833 823.5,863.167 823.5,869.5C 835.167,869.5 846.833,869.5 858.5,869.5C 858.5,857.5 858.5,845.5 858.5,833.5C 864.833,833.5 871.167,833.5 877.5,833.5C 877.5,845.5 877.5,857.5 877.5,869.5C 883.833,869.5 890.167,869.5 896.5,869.5C 896.5,857.5 896.5,845.5 896.5,833.5C 902.5,833.5 908.5,833.5 914.5,833.5C 914.826,852.076 914.493,870.576 913.5,889C 876.835,889.5 840.168,889.667 803.5,889.5C 803.5,870.5 803.5,851.5 803.5,832.5C 809.833,832.5 816.167,832.5 822.5,832.5 Z"/></g>
<g><path style="opacity:1" fill="#110000" d="M 1024.5,832.5 C 1030.5,832.5 1036.5,832.5 1042.5,832.5C 1042.5,851.167 1042.5,869.833 1042.5,888.5C 1005.83,888.5 969.167,888.5 932.5,888.5C 932.5,870.167 932.5,851.833 932.5,833.5C 938.5,833.5 944.5,833.5 950.5,833.5C 950.5,845.5 950.5,857.5 950.5,869.5C 956.5,869.5 962.5,869.5 968.5,869.5C 968.5,857.5 968.5,845.5 968.5,833.5C 974.833,833.5 981.167,833.5 987.5,833.5C 987.5,845.5 987.5,857.5 987.5,869.5C 999.5,869.5 1011.5,869.5 1023.5,869.5C 1023.5,863.5 1023.5,857.5 1023.5,851.5C 1023.5,845.5 1023.5,839.5 1023.5,833.5C 1024.17,833.5 1024.5,833.167 1024.5,832.5 Z"/></g>
<g><path style="opacity:1" fill="#545554" d="M 823.5,833.5 C 829.167,833.5 834.833,833.5 840.5,833.5C 840.5,839.167 840.5,844.833 840.5,850.5C 834.833,850.5 829.167,850.5 823.5,850.5C 823.5,844.833 823.5,839.167 823.5,833.5 Z"/></g>
<g><path style="opacity:1" fill="#727372" d="M 840.5,833.5 C 846.5,833.5 852.5,833.5 858.5,833.5C 858.5,845.5 858.5,857.5 858.5,869.5C 846.833,869.5 835.167,869.5 823.5,869.5C 823.5,863.167 823.5,856.833 823.5,850.5C 829.167,850.5 834.833,850.5 840.5,850.5C 840.5,844.833 840.5,839.167 840.5,833.5 Z"/></g>
<g><path style="opacity:1" fill="#75380d" d="M 877.5,833.5 C 883.833,833.5 890.167,833.5 896.5,833.5C 896.5,845.5 896.5,857.5 896.5,869.5C 890.167,869.5 883.833,869.5 877.5,869.5C 877.5,857.5 877.5,845.5 877.5,833.5 Z"/></g>
<g><path style="opacity:1" fill="#75380d" d="M 950.5,833.5 C 956.5,833.5 962.5,833.5 968.5,833.5C 968.5,845.5 968.5,857.5 968.5,869.5C 962.5,869.5 956.5,869.5 950.5,869.5C 950.5,857.5 950.5,845.5 950.5,833.5 Z"/></g>
<g><path style="opacity:1" fill="#727372" d="M 987.5,833.5 C 994.167,833.5 1000.83,833.5 1007.5,833.5C 1007.5,839.5 1007.5,845.5 1007.5,851.5C 1012.83,851.5 1018.17,851.5 1023.5,851.5C 1023.5,857.5 1023.5,863.5 1023.5,869.5C 1011.5,869.5 999.5,869.5 987.5,869.5C 987.5,857.5 987.5,845.5 987.5,833.5 Z"/></g>
<g><path style="opacity:1" fill="#545554" d="M 1007.5,833.5 C 1012.83,833.5 1018.17,833.5 1023.5,833.5C 1023.5,839.5 1023.5,845.5 1023.5,851.5C 1018.17,851.5 1012.83,851.5 1007.5,851.5C 1007.5,845.5 1007.5,839.5 1007.5,833.5 Z"/></g>
</svg>
