<?xml version="1.0" encoding="UTF-8"?>
<!DOCTYPE svg PUBLIC "-//W3C//DTD SVG 1.1//EN" "http://www.w3.org/Graphics/SVG/1.1/DTD/svg11.dtd">
<svg xmlns="http://www.w3.org/2000/svg" version="1.1" width="1920px" height="1958px" style="shape-rendering:geometricPrecision; text-rendering:geometricPrecision; image-rendering:optimizeQuality; fill-rule:evenodd; clip-rule:evenodd" xmlns:xlink="http://www.w3.org/1999/xlink">
<g><path style="opacity:1" fill="#4f75da" d="M -0.5,-0.5 C 639.5,-0.5 1279.5,-0.5 1919.5,-0.5C 1919.5,256.5 1919.5,513.5 1919.5,770.5C 1873.17,770.5 1826.83,770.5 1780.5,770.5C 1780.5,724.833 1780.5,679.167 1780.5,633.5C 1747.83,633.5 1715.17,633.5 1682.5,633.5C 1682.5,606.5 1682.5,579.5 1682.5,552.5C 1701.83,552.5 1721.17,552.5 1740.5,552.5C 1740.5,546.167 1740.5,539.833 1740.5,533.5C 1747.5,533.5 1754.5,533.5 1761.5,533.5C 1761.5,526.833 1761.5,520.167 1761.5,513.5C 1761.5,500.5 1761.5,487.5 1761.5,474.5C 1754.83,474.5 1748.17,474.5 1741.5,474.5C 1741.5,454.5 1741.5,434.5 1741.5,414.5C 1741.5,408.167 1741.5,401.833 1741.5,395.5C 1735.17,395.5 1728.83,395.5 1722.5,395.5C 1722.5,388.833 1722.5,382.167 1722.5,375.5C 1689.17,375.5 1655.83,375.5 1622.5,375.5C 1622.5,382.5 1622.5,389.5 1622.5,396.5C 1616.17,396.5 1609.83,396.5 1603.5,396.5C 1603.5,402.5 1603.5,408.5 1603.5,414.5C 1603.5,434.833 1603.5,455.167 1603.5,475.5C 1596.5,475.5 1589.5,475.5 1582.5,475.5C 1582.5,488.167 1582.5,500.833 1582.5,513.5C 1582.5,520.167 1582.5,526.833 1582.5,533.5C 1589.17,533.5 1595.83,533.5 1602.5,533.5C 1602.5,539.833 1602.5,546.167 1602.5,552.5C 1622.5,552.5 1642.5,552.5 1662.5,552.5C 1662.5,579.167 1662.5,605.833 1662.5,632.5C 1596.5,632.5 1530.5,632.5 1464.5,632.5C 1464.5,685.167 1464.5,737.833 1464.5,790.5C 1464.5,809.833 1464.5,829.167 1464.5,848.5C 1457.83,848.5 1451.17,848.5 1444.5,848.5C 1444.5,802.833 1444.5,757.167 1444.5,711.5C 1444.5,704.5 1444.5,697.5 1444.5,690.5C 1444.5,611.833 1444.5,533.167 1444.5,454.5C 1437.83,454.5 1431.17,454.5 1424.5,454.5C 1424.5,447.833 1424.5,441.167 1424.5,434.5C 1410.83,434.5 1397.17,434.5 1383.5,434.5C 1383.5,427.833 1383.5,421.167 1383.5,414.5C 1370.83,414.5 1358.17,414.5 1345.5,414.5C 1345.5,407.833 1345.5,401.167 1345.5,394.5C 1325.83,394.5 1306.17,394.5 1286.5,394.5C 1286.5,387.833 1286.5,381.167 1286.5,374.5C 1260.17,374.5 1233.83,374.5 1207.5,374.5C 1207.5,367.5 1207.5,360.5 1207.5,353.5C 1048.83,353.5 890.167,353.5 731.5,353.5C 731.5,360.5 731.5,367.5 731.5,374.5C 705.167,374.5 678.833,374.5 652.5,374.5C 652.5,380.833 652.5,387.167 652.5,393.5C 632.833,393.5 613.167,393.5 593.5,393.5C 593.5,400.833 593.5,408.167 593.5,415.5C 580.167,415.5 566.833,415.5 553.5,415.5C 553.5,421.5 553.5,427.5 553.5,433.5C 540.167,433.5 526.833,433.5 513.5,433.5C 513.5,440.167 513.5,446.833 513.5,453.5C 506.833,453.5 500.167,453.5 493.5,453.5C 493.5,466.833 493.5,480.167 493.5,493.5C 493.5,499.833 493.5,506.167 493.5,512.5C 493.5,526.5 493.5,540.5 493.5,554.5C 493.5,560.833 493.5,567.167 493.5,573.5C 493.5,612.5 493.5,651.5 493.5,690.5C 493.5,697.833 493.5,705.167 493.5,712.5C 493.5,732.167 493.5,751.833 493.5,771.5C 328.833,771.5 164.167,771.5 -0.5,771.5C -0.5,514.167 -0.5,256.833 -0.5,-0.5 Z"/></g>
<g><path style="opacity:1" fill="#6f3800" d="M 827.5,29.5 C 920.167,29.5 1012.83,29.5 1105.5,29.5C 1105.5,117.167 1105.5,204.833 1105.5,292.5C 1012.83,292.5 920.167,292.5 827.5,292.5C 827.5,204.833 827.5,117.167 827.5,29.5 Z"/></g>
<g><path style="opacity:1" fill="#00008e" d="M 916.5,150.5 C 916.5,149.167 916.5,147.833 916.5,146.5C 914.5,146.5 912.5,146.5 910.5,146.5C 908.597,130.967 907.931,115.301 908.5,99.5C 909.833,99.5 911.167,99.5 912.5,99.5C 912.5,98.5 912.5,97.5 912.5,96.5C 913.833,96.5 915.167,96.5 916.5,96.5C 916.5,91.8333 916.5,87.1667 916.5,82.5C 919.167,81.8333 921.833,81.1667 924.5,80.5C 923.848,76.4399 925.515,74.4399 929.5,74.5C 929.5,73.1667 929.5,71.8333 929.5,70.5C 930.833,70.5 932.167,70.5 933.5,70.5C 933.5,68.8333 933.5,67.1667 933.5,65.5C 935.833,65.5 938.167,65.5 940.5,65.5C 940.5,63.5 940.5,61.5 940.5,59.5C 942.167,59.5 943.833,59.5 945.5,59.5C 945.5,57.5 945.5,55.5 945.5,53.5C 936.833,53.5 928.167,53.5 919.5,53.5C 919.5,55.1667 919.5,56.8333 919.5,58.5C 918.167,58.5 916.833,58.5 915.5,58.5C 915.5,59.5 915.5,60.5 915.5,61.5C 911.5,61.5 907.5,61.5 903.5,61.5C 903.5,63.1667 903.5,64.8333 903.5,66.5C 901.167,66.5 898.833,66.5 896.5,66.5C 896.5,69.1667 896.5,71.8333 896.5,74.5C 893.5,74.5 890.5,74.5 887.5,74.5C 887.5,77.5 887.5,80.5 887.5,83.5C 884.833,83.5 882.167,83.5 879.5,83.5C 879.5,85.8333 879.5,88.1667 879.5,90.5C 877.5,90.5 875.5,90.5 873.5,90.5C 873.5,95.5 873.5,100.5 873.5,105.5C 871.167,105.5 868.833,105.5 866.5,105.5C 866.5,111.167 866.5,116.833 866.5,122.5C 863.833,122.5 861.167,122.5 858.5,122.5C 858.5,131.833 858.5,141.167 858.5,150.5C 850.167,150.5 841.833,150.5 833.5,150.5C 833.5,112.5 833.5,74.5 833.5,36.5C 876.833,36.5 920.167,36.5 963.5,36.5C 963.5,74.5 963.5,112.5 963.5,150.5C 947.833,150.5 932.167,150.5 916.5,150.5 Z"/></g>
<g><path style="opacity:1" fill="#00008e" d="M 1039.5,150.5 C 1039.5,149.167 1039.5,147.833 1039.5,146.5C 1038.17,146.5 1036.83,146.5 1035.5,146.5C 1035.5,147.833 1035.5,149.167 1035.5,150.5C 1014.5,150.5 993.5,150.5 972.5,150.5C 972.5,112.5 972.5,74.5 972.5,36.5C 1014.17,36.5 1055.83,36.5 1097.5,36.5C 1097.5,74.5 1097.5,112.5 1097.5,150.5C 1078.17,150.5 1058.83,150.5 1039.5,150.5 Z"/></g>
<g><path style="opacity:1" fill="#e99423" d="M 933.5,65.5 C 933.5,63.5 933.5,61.5 933.5,59.5C 928.833,59.5 924.167,59.5 919.5,59.5C 919.5,61.8333 919.5,64.1667 919.5,66.5C 914.167,66.5 908.833,66.5 903.5,66.5C 903.5,64.8333 903.5,63.1667 903.5,61.5C 907.5,61.5 911.5,61.5 915.5,61.5C 915.5,60.5 915.5,59.5 915.5,58.5C 916.833,58.5 918.167,58.5 919.5,58.5C 919.5,56.8333 919.5,55.1667 919.5,53.5C 928.167,53.5 936.833,53.5 945.5,53.5C 945.5,55.5 945.5,57.5 945.5,59.5C 943.833,59.5 942.167,59.5 940.5,59.5C 940.5,61.5 940.5,63.5 940.5,65.5C 938.167,65.5 935.833,65.5 933.5,65.5 Z"/></g>
<g><path style="opacity:1" fill="#f1d444" d="M 933.5,65.5 C 933.5,67.1667 933.5,68.8333 933.5,70.5C 932.167,70.5 930.833,70.5 929.5,70.5C 924.888,70.9012 921.888,73.2346 920.5,77.5C 919.311,78.4287 917.978,78.762 916.5,78.5C 916.5,79.8333 916.5,81.1667 916.5,82.5C 915.167,82.5 913.833,82.5 912.5,82.5C 912.5,85.5 912.5,88.5 912.5,91.5C 911.167,91.5 909.833,91.5 908.5,91.5C 908.5,94.1667 908.5,96.8333 908.5,99.5C 906.5,99.5 904.5,99.5 902.5,99.5C 902.5,116.5 902.5,133.5 902.5,150.5C 900.167,150.5 897.833,150.5 895.5,150.5C 895.5,130.5 895.5,110.5 895.5,90.5C 898.167,90.5 900.833,90.5 903.5,90.5C 903.5,88.1667 903.5,85.8333 903.5,83.5C 905.167,83.5 906.833,83.5 908.5,83.5C 908.5,81.8333 908.5,80.1667 908.5,78.5C 909.833,78.5 911.167,78.5 912.5,78.5C 912.5,77.1667 912.5,75.8333 912.5,74.5C 909.5,74.5 906.5,74.5 903.5,74.5C 903.5,71.8333 903.5,69.1667 903.5,66.5C 908.833,66.5 914.167,66.5 919.5,66.5C 919.5,64.1667 919.5,61.8333 919.5,59.5C 924.167,59.5 928.833,59.5 933.5,59.5C 933.5,61.5 933.5,63.5 933.5,65.5 Z"/></g>
<g><path style="opacity:1" fill="#e99423" d="M 903.5,66.5 C 903.5,69.1667 903.5,71.8333 903.5,74.5C 901.167,74.5 898.833,74.5 896.5,74.5C 896.5,71.8333 896.5,69.1667 896.5,66.5C 898.833,66.5 901.167,66.5 903.5,66.5 Z"/></g>
<g><path style="opacity:1" fill="#e99423" d="M 929.5,70.5 C 929.5,71.8333 929.5,73.1667 929.5,74.5C 925.515,74.4399 923.848,76.4399 924.5,80.5C 921.833,81.1667 919.167,81.8333 916.5,82.5C 916.5,81.1667 916.5,79.8333 916.5,78.5C 917.978,78.762 919.311,78.4287 920.5,77.5C 921.888,73.2346 924.888,70.9012 929.5,70.5 Z"/></g>
<g><path style="opacity:1" fill="#e99423" d="M 896.5,74.5 C 896.5,77.5 896.5,80.5 896.5,83.5C 896.167,83.5 895.833,83.5 895.5,83.5C 892.833,83.5 890.167,83.5 887.5,83.5C 887.5,80.5 887.5,77.5 887.5,74.5C 890.5,74.5 893.5,74.5 896.5,74.5 Z"/></g>
<g><path style="opacity:1" fill="#f1d644" d="M 896.5,74.5 C 898.833,74.5 901.167,74.5 903.5,74.5C 903.5,77.5 903.5,80.5 903.5,83.5C 901.167,83.5 898.833,83.5 896.5,83.5C 896.5,80.5 896.5,77.5 896.5,74.5 Z"/></g>
<g><path style="opacity:1" fill="#fbf2c1" d="M 903.5,74.5 C 906.5,74.5 909.5,74.5 912.5,74.5C 912.5,75.8333 912.5,77.1667 912.5,78.5C 911.167,78.5 909.833,78.5 908.5,78.5C 908.5,80.1667 908.5,81.8333 908.5,83.5C 906.833,83.5 905.167,83.5 903.5,83.5C 903.5,80.5 903.5,77.5 903.5,74.5 Z"/></g>
<g><path style="opacity:1" fill="#e99423" d="M 916.5,82.5 C 916.5,87.1667 916.5,91.8333 916.5,96.5C 915.167,96.5 913.833,96.5 912.5,96.5C 912.5,97.5 912.5,98.5 912.5,99.5C 911.167,99.5 909.833,99.5 908.5,99.5C 908.5,96.8333 908.5,94.1667 908.5,91.5C 909.833,91.5 911.167,91.5 912.5,91.5C 912.5,88.5 912.5,85.5 912.5,82.5C 913.833,82.5 915.167,82.5 916.5,82.5 Z"/></g>
<g><path style="opacity:1" fill="#e99423" d="M 887.5,83.5 C 887.5,85.8333 887.5,88.1667 887.5,90.5C 884.833,90.5 882.167,90.5 879.5,90.5C 879.5,88.1667 879.5,85.8333 879.5,83.5C 882.167,83.5 884.833,83.5 887.5,83.5 Z"/></g>
<g><path style="opacity:1" fill="#f1d644" d="M 887.5,83.5 C 890.167,83.5 892.833,83.5 895.5,83.5C 895.5,85.8333 895.5,88.1667 895.5,90.5C 892.833,90.5 890.167,90.5 887.5,90.5C 887.5,88.1667 887.5,85.8333 887.5,83.5 Z"/></g>
<g><path style="opacity:1" fill="#fbf2c1" d="M 895.5,83.5 C 895.833,83.5 896.167,83.5 896.5,83.5C 898.833,83.5 901.167,83.5 903.5,83.5C 903.5,85.8333 903.5,88.1667 903.5,90.5C 900.833,90.5 898.167,90.5 895.5,90.5C 895.5,88.1667 895.5,85.8333 895.5,83.5 Z"/></g>
<g><path style="opacity:1" fill="#e99423" d="M 879.5,90.5 C 879.5,95.5 879.5,100.5 879.5,105.5C 877.5,105.5 875.5,105.5 873.5,105.5C 873.5,100.5 873.5,95.5 873.5,90.5C 875.5,90.5 877.5,90.5 879.5,90.5 Z"/></g>
<g><path style="opacity:1" fill="#f1d644" d="M 879.5,90.5 C 882.167,90.5 884.833,90.5 887.5,90.5C 887.5,95.8333 887.5,101.167 887.5,106.5C 885.167,106.5 882.833,106.5 880.5,106.5C 880.5,111.833 880.5,117.167 880.5,122.5C 878.167,122.5 875.833,122.5 873.5,122.5C 873.5,116.833 873.5,111.167 873.5,105.5C 875.5,105.5 877.5,105.5 879.5,105.5C 879.5,100.5 879.5,95.5 879.5,90.5 Z"/></g>
<g><path style="opacity:1" fill="#fbf2c1" d="M 887.5,90.5 C 890.167,90.5 892.833,90.5 895.5,90.5C 895.5,110.5 895.5,130.5 895.5,150.5C 888.167,150.5 880.833,150.5 873.5,150.5C 873.5,141.167 873.5,131.833 873.5,122.5C 875.833,122.5 878.167,122.5 880.5,122.5C 880.5,117.167 880.5,111.833 880.5,106.5C 882.833,106.5 885.167,106.5 887.5,106.5C 887.5,101.167 887.5,95.8333 887.5,90.5 Z"/></g>
<g><path style="opacity:1" fill="#e99423" d="M 908.5,99.5 C 907.931,115.301 908.597,130.967 910.5,146.5C 912.5,146.5 914.5,146.5 916.5,146.5C 916.5,147.833 916.5,149.167 916.5,150.5C 911.833,150.5 907.167,150.5 902.5,150.5C 902.5,133.5 902.5,116.5 902.5,99.5C 904.5,99.5 906.5,99.5 908.5,99.5 Z"/></g>
<g><path style="opacity:1" fill="#e99423" d="M 873.5,105.5 C 873.5,111.167 873.5,116.833 873.5,122.5C 871.167,122.5 868.833,122.5 866.5,122.5C 866.5,116.833 866.5,111.167 866.5,105.5C 868.833,105.5 871.167,105.5 873.5,105.5 Z"/></g>
<g><path style="opacity:1" fill="#e99423" d="M 866.5,122.5 C 866.5,131.833 866.5,141.167 866.5,150.5C 863.833,150.5 861.167,150.5 858.5,150.5C 858.5,141.167 858.5,131.833 858.5,122.5C 861.167,122.5 863.833,122.5 866.5,122.5 Z"/></g>
<g><path style="opacity:1" fill="#f1d644" d="M 866.5,122.5 C 868.833,122.5 871.167,122.5 873.5,122.5C 873.5,131.833 873.5,141.167 873.5,150.5C 871.167,150.5 868.833,150.5 866.5,150.5C 866.5,141.167 866.5,131.833 866.5,122.5 Z"/></g>
<g><path style="opacity:1" fill="#e99423" d="M 1039.5,150.5 C 1038.17,150.5 1036.83,150.5 1035.5,150.5C 1035.5,149.167 1035.5,147.833 1035.5,146.5C 1036.83,146.5 1038.17,146.5 1039.5,146.5C 1039.5,147.833 1039.5,149.167 1039.5,150.5 Z"/></g>
<g><path style="opacity:1" fill="#00008e" d="M 865.5,160.5 C 865.5,167.5 865.5,174.5 865.5,181.5C 867.833,181.5 870.167,181.5 872.5,181.5C 872.5,186.833 872.5,192.167 872.5,197.5C 874.833,197.5 877.167,197.5 879.5,197.5C 879.5,199.833 879.5,202.167 879.5,204.5C 881.833,204.5 884.167,204.5 886.5,204.5C 886.5,207.167 886.5,209.833 886.5,212.5C 889.5,212.5 892.5,212.5 895.5,212.5C 895.5,215.167 895.5,217.833 895.5,220.5C 900.5,220.5 905.5,220.5 910.5,220.5C 910.5,223.167 910.5,225.833 910.5,228.5C 918.167,228.5 925.833,228.5 933.5,228.5C 933.5,231.167 933.5,233.833 933.5,236.5C 943.5,236.5 953.5,236.5 963.5,236.5C 963.5,252.833 963.5,269.167 963.5,285.5C 920.167,285.5 876.833,285.5 833.5,285.5C 833.5,243.833 833.5,202.167 833.5,160.5C 844.167,160.5 854.833,160.5 865.5,160.5 Z"/></g>
<g><path style="opacity:1" fill="#e99423" d="M 865.5,160.5 C 867.833,160.5 870.167,160.5 872.5,160.5C 872.5,167.5 872.5,174.5 872.5,181.5C 870.167,181.5 867.833,181.5 865.5,181.5C 865.5,174.5 865.5,167.5 865.5,160.5 Z"/></g>
<g><path style="opacity:1" fill="#f1d644" d="M 872.5,160.5 C 874.833,160.5 877.167,160.5 879.5,160.5C 879.5,165.167 879.5,169.833 879.5,174.5C 881.833,174.5 884.167,174.5 886.5,174.5C 886.5,177.167 886.5,179.833 886.5,182.5C 889.5,182.5 892.5,182.5 895.5,182.5C 895.5,185.167 895.5,187.833 895.5,190.5C 897.833,190.5 900.167,190.5 902.5,190.5C 902.5,193.167 902.5,195.833 902.5,198.5C 905.5,198.5 908.5,198.5 911.5,198.5C 911.5,200.833 911.5,203.167 911.5,205.5C 916.833,205.5 922.167,205.5 927.5,205.5C 927.5,208.5 927.5,211.5 927.5,214.5C 929.5,214.5 931.5,214.5 933.5,214.5C 933.5,216.5 933.5,218.5 933.5,220.5C 925.833,220.5 918.167,220.5 910.5,220.5C 910.5,217.833 910.5,215.167 910.5,212.5C 905.5,212.5 900.5,212.5 895.5,212.5C 895.5,209.833 895.5,207.167 895.5,204.5C 892.5,204.5 889.5,204.5 886.5,204.5C 884.167,204.5 881.833,204.5 879.5,204.5C 879.5,202.167 879.5,199.833 879.5,197.5C 879.5,192.167 879.5,186.833 879.5,181.5C 877.167,181.5 874.833,181.5 872.5,181.5C 872.5,174.5 872.5,167.5 872.5,160.5 Z"/></g>
<g><path style="opacity:1" fill="#f1d644" d="M 900.5,160.5 C 904.167,160.5 907.833,160.5 911.5,160.5C 911.5,163.833 911.5,167.167 911.5,170.5C 907.833,170.5 904.167,170.5 900.5,170.5C 900.5,167.167 900.5,163.833 900.5,160.5 Z"/></g>
<g><path style="opacity:1" fill="#e99423" d="M 911.5,160.5 C 914.167,160.5 916.833,160.5 919.5,160.5C 921.279,162.344 923.612,163.01 926.5,162.5C 926.5,164.5 926.5,166.5 926.5,168.5C 928.833,168.5 931.167,168.5 933.5,168.5C 933.5,171.167 933.5,173.833 933.5,176.5C 929.833,176.5 926.167,176.5 922.5,176.5C 922.5,174.833 922.5,173.167 922.5,171.5C 918.833,171.5 915.167,171.5 911.5,171.5C 911.5,171.167 911.5,170.833 911.5,170.5C 911.5,167.167 911.5,163.833 911.5,160.5 Z"/></g>
<g><path style="opacity:1" fill="#00008e" d="M 919.5,160.5 C 934.167,160.5 948.833,160.5 963.5,160.5C 963.5,168.167 963.5,175.833 963.5,183.5C 958.167,183.5 952.833,183.5 947.5,183.5C 947.5,181.167 947.5,178.833 947.5,176.5C 942.833,176.5 938.167,176.5 933.5,176.5C 933.5,173.833 933.5,171.167 933.5,168.5C 931.167,168.5 928.833,168.5 926.5,168.5C 926.5,166.5 926.5,164.5 926.5,162.5C 923.612,163.01 921.279,162.344 919.5,160.5 Z"/></g>
<g><path style="opacity:1" fill="#00008e" d="M 1019.5,160.5 C 1019.5,163.167 1019.5,165.833 1019.5,168.5C 1017.17,168.5 1014.83,168.5 1012.5,168.5C 1012.5,170.833 1012.5,173.167 1012.5,175.5C 1007.31,177.031 1001.97,177.697 996.5,177.5C 996.5,179.5 996.5,181.5 996.5,183.5C 988.5,183.5 980.5,183.5 972.5,183.5C 972.5,175.833 972.5,168.167 972.5,160.5C 988.167,160.5 1003.83,160.5 1019.5,160.5 Z"/></g>
<g><path style="opacity:1" fill="#e99423" d="M 1019.5,160.5 C 1022.17,160.5 1024.83,160.5 1027.5,160.5C 1027.5,163.167 1027.5,165.833 1027.5,168.5C 1024.83,168.5 1022.17,168.5 1019.5,168.5C 1019.5,165.833 1019.5,163.167 1019.5,160.5 Z"/></g>
<g><path style="opacity:1" fill="#f1d644" d="M 1027.5,160.5 C 1029.5,160.5 1031.5,160.5 1033.5,160.5C 1033.5,165.167 1033.5,169.833 1033.5,174.5C 1030.83,174.5 1028.17,174.5 1025.5,174.5C 1025.5,179.833 1025.5,185.167 1025.5,190.5C 1022.83,190.5 1020.17,190.5 1017.5,190.5C 1017.5,188.167 1017.5,185.833 1017.5,183.5C 1016.17,183.5 1014.83,183.5 1013.5,183.5C 1013.5,184.833 1013.5,186.167 1013.5,187.5C 1010.83,187.5 1008.17,187.5 1005.5,187.5C 1005.5,188.833 1005.5,190.167 1005.5,191.5C 1003.83,191.5 1002.17,191.5 1000.5,191.5C 1000.5,192.833 1000.5,194.167 1000.5,195.5C 991.294,197.267 981.961,197.933 972.5,197.5C 972.5,195.5 972.5,193.5 972.5,191.5C 980.5,191.5 988.5,191.5 996.5,191.5C 996.5,188.833 996.5,186.167 996.5,183.5C 1000.83,183.5 1005.17,183.5 1009.5,183.5C 1009.5,182.167 1009.5,180.833 1009.5,179.5C 1010.5,179.5 1011.5,179.5 1012.5,179.5C 1012.5,178.167 1012.5,176.833 1012.5,175.5C 1014.83,175.5 1017.17,175.5 1019.5,175.5C 1019.5,173.167 1019.5,170.833 1019.5,168.5C 1022.17,168.5 1024.83,168.5 1027.5,168.5C 1027.5,165.833 1027.5,163.167 1027.5,160.5 Z"/></g>
<g><path style="opacity:1" fill="#e99423" d="M 1033.5,160.5 C 1035.5,160.5 1037.5,160.5 1039.5,160.5C 1039.5,165.167 1039.5,169.833 1039.5,174.5C 1037.5,174.5 1035.5,174.5 1033.5,174.5C 1033.5,169.833 1033.5,165.167 1033.5,160.5 Z"/></g>
<g><path style="opacity:1" fill="#00008e" d="M 1039.5,160.5 C 1059.23,159.853 1078.73,160.52 1098,162.5C 1098.5,203.165 1098.67,243.832 1098.5,284.5C 1056.5,284.5 1014.5,284.5 972.5,284.5C 972.5,265.833 972.5,247.167 972.5,228.5C 976.833,228.5 981.167,228.5 985.5,228.5C 985.5,226.167 985.5,223.833 985.5,221.5C 991.167,221.5 996.833,221.5 1002.5,221.5C 1002.5,219.167 1002.5,216.833 1002.5,214.5C 1004.83,214.5 1007.17,214.5 1009.5,214.5C 1009.5,212.167 1009.5,209.833 1009.5,207.5C 1012.17,207.5 1014.83,207.5 1017.5,207.5C 1017.5,204.5 1017.5,201.5 1017.5,198.5C 1020.17,198.5 1022.83,198.5 1025.5,198.5C 1025.5,195.833 1025.5,193.167 1025.5,190.5C 1028.17,190.5 1030.83,190.5 1033.5,190.5C 1033.5,185.167 1033.5,179.833 1033.5,174.5C 1035.5,174.5 1037.5,174.5 1039.5,174.5C 1039.5,169.833 1039.5,165.167 1039.5,160.5 Z"/></g>
<g><path style="opacity:1" fill="#fbf1bb" d="M 879.5,160.5 C 886.5,160.5 893.5,160.5 900.5,160.5C 900.5,163.833 900.5,167.167 900.5,170.5C 904.167,170.5 907.833,170.5 911.5,170.5C 911.5,170.833 911.5,171.167 911.5,171.5C 911.5,173.5 911.5,175.5 911.5,177.5C 915.167,177.5 918.833,177.5 922.5,177.5C 922.5,179.5 922.5,181.5 922.5,183.5C 926.167,183.5 929.833,183.5 933.5,183.5C 933.194,186.385 933.527,189.052 934.5,191.5C 935.18,198.127 935.18,204.794 934.5,211.5C 935.5,211.5 936.5,211.5 937.5,211.5C 937.5,212.833 937.5,214.167 937.5,215.5C 946.296,215.088 954.963,215.755 963.5,217.5C 963.5,218.5 963.5,219.5 963.5,220.5C 953.5,220.5 943.5,220.5 933.5,220.5C 933.5,218.5 933.5,216.5 933.5,214.5C 931.5,214.5 929.5,214.5 927.5,214.5C 927.5,211.5 927.5,208.5 927.5,205.5C 922.167,205.5 916.833,205.5 911.5,205.5C 911.5,203.167 911.5,200.833 911.5,198.5C 908.5,198.5 905.5,198.5 902.5,198.5C 902.5,195.833 902.5,193.167 902.5,190.5C 900.167,190.5 897.833,190.5 895.5,190.5C 895.5,187.833 895.5,185.167 895.5,182.5C 892.5,182.5 889.5,182.5 886.5,182.5C 886.5,179.833 886.5,177.167 886.5,174.5C 884.167,174.5 881.833,174.5 879.5,174.5C 879.5,169.833 879.5,165.167 879.5,160.5 Z"/></g>
<g><path style="opacity:1" fill="#e99423" d="M 1019.5,168.5 C 1019.5,170.833 1019.5,173.167 1019.5,175.5C 1017.17,175.5 1014.83,175.5 1012.5,175.5C 1012.5,173.167 1012.5,170.833 1012.5,168.5C 1014.83,168.5 1017.17,168.5 1019.5,168.5 Z"/></g>
<g><path style="opacity:1" fill="#f1d644" d="M 911.5,171.5 C 915.167,171.5 918.833,171.5 922.5,171.5C 922.5,173.167 922.5,174.833 922.5,176.5C 926.167,176.5 929.833,176.5 933.5,176.5C 933.5,178.833 933.5,181.167 933.5,183.5C 929.833,183.5 926.167,183.5 922.5,183.5C 922.5,181.5 922.5,179.5 922.5,177.5C 918.833,177.5 915.167,177.5 911.5,177.5C 911.5,175.5 911.5,173.5 911.5,171.5 Z"/></g>
<g><path style="opacity:1" fill="#e99423" d="M 1033.5,174.5 C 1033.5,179.833 1033.5,185.167 1033.5,190.5C 1030.83,190.5 1028.17,190.5 1025.5,190.5C 1025.5,185.167 1025.5,179.833 1025.5,174.5C 1028.17,174.5 1030.83,174.5 1033.5,174.5 Z"/></g>
<g><path style="opacity:1" fill="#e99423" d="M 1012.5,175.5 C 1012.5,176.833 1012.5,178.167 1012.5,179.5C 1011.5,179.5 1010.5,179.5 1009.5,179.5C 1009.5,180.833 1009.5,182.167 1009.5,183.5C 1005.17,183.5 1000.83,183.5 996.5,183.5C 996.5,181.5 996.5,179.5 996.5,177.5C 1001.97,177.697 1007.31,177.031 1012.5,175.5 Z"/></g>
<g><path style="opacity:1" fill="#e99423" d="M 933.5,176.5 C 938.167,176.5 942.833,176.5 947.5,176.5C 947.5,178.833 947.5,181.167 947.5,183.5C 942.833,183.5 938.167,183.5 933.5,183.5C 933.5,181.167 933.5,178.833 933.5,176.5 Z"/></g>
<g><path style="opacity:1" fill="#e99423" d="M 872.5,181.5 C 874.833,181.5 877.167,181.5 879.5,181.5C 879.5,186.833 879.5,192.167 879.5,197.5C 877.167,197.5 874.833,197.5 872.5,197.5C 872.5,192.167 872.5,186.833 872.5,181.5 Z"/></g>
<g><path style="opacity:1" fill="#f1d644" d="M 933.5,183.5 C 938.167,183.5 942.833,183.5 947.5,183.5C 947.5,186.167 947.5,188.833 947.5,191.5C 943.167,191.5 938.833,191.5 934.5,191.5C 933.527,189.052 933.194,186.385 933.5,183.5 Z"/></g>
<g><path style="opacity:1" fill="#e99423" d="M 947.5,183.5 C 952.833,183.5 958.167,183.5 963.5,183.5C 963.5,186.167 963.5,188.833 963.5,191.5C 958.167,191.5 952.833,191.5 947.5,191.5C 947.5,188.833 947.5,186.167 947.5,183.5 Z"/></g>
<g><path style="opacity:1" fill="#e99423" d="M 972.5,183.5 C 980.5,183.5 988.5,183.5 996.5,183.5C 996.5,186.167 996.5,188.833 996.5,191.5C 988.5,191.5 980.5,191.5 972.5,191.5C 972.5,188.833 972.5,186.167 972.5,183.5 Z"/></g>
<g><path style="opacity:1" fill="#f9f085" d="M 1017.5,190.5 C 1014.83,190.5 1012.17,190.5 1009.5,190.5C 1009.5,193.167 1009.5,195.833 1009.5,198.5C 1007.17,198.5 1004.83,198.5 1002.5,198.5C 1002.5,201.5 1002.5,204.5 1002.5,207.5C 996.833,207.5 991.167,207.5 985.5,207.5C 985.5,209.833 985.5,212.167 985.5,214.5C 981.167,214.5 976.833,214.5 972.5,214.5C 972.5,208.833 972.5,203.167 972.5,197.5C 981.961,197.933 991.294,197.267 1000.5,195.5C 1000.5,194.167 1000.5,192.833 1000.5,191.5C 1002.17,191.5 1003.83,191.5 1005.5,191.5C 1005.5,190.167 1005.5,188.833 1005.5,187.5C 1008.17,187.5 1010.83,187.5 1013.5,187.5C 1013.5,186.167 1013.5,184.833 1013.5,183.5C 1014.83,183.5 1016.17,183.5 1017.5,183.5C 1017.5,185.833 1017.5,188.167 1017.5,190.5 Z"/></g>
<g><path style="opacity:1" fill="#f1d644" d="M 1017.5,190.5 C 1017.5,193.167 1017.5,195.833 1017.5,198.5C 1014.83,198.5 1012.17,198.5 1009.5,198.5C 1009.5,195.833 1009.5,193.167 1009.5,190.5C 1012.17,190.5 1014.83,190.5 1017.5,190.5 Z"/></g>
<g><path style="opacity:1" fill="#e99423" d="M 1017.5,190.5 C 1020.17,190.5 1022.83,190.5 1025.5,190.5C 1025.5,193.167 1025.5,195.833 1025.5,198.5C 1022.83,198.5 1020.17,198.5 1017.5,198.5C 1017.5,195.833 1017.5,193.167 1017.5,190.5 Z"/></g>
<g><path style="opacity:1" fill="#f9f085" d="M 934.5,191.5 C 938.833,191.5 943.167,191.5 947.5,191.5C 947.5,193.5 947.5,195.5 947.5,197.5C 952.833,197.5 958.167,197.5 963.5,197.5C 963.5,204.167 963.5,210.833 963.5,217.5C 954.963,215.755 946.296,215.088 937.5,215.5C 937.5,214.167 937.5,212.833 937.5,211.5C 936.5,211.5 935.5,211.5 934.5,211.5C 935.18,204.794 935.18,198.127 934.5,191.5 Z"/></g>
<g><path style="opacity:1" fill="#f1d644" d="M 947.5,191.5 C 952.833,191.5 958.167,191.5 963.5,191.5C 963.5,193.5 963.5,195.5 963.5,197.5C 958.167,197.5 952.833,197.5 947.5,197.5C 947.5,195.5 947.5,193.5 947.5,191.5 Z"/></g>
<g><path style="opacity:1" fill="#e99423" d="M 879.5,197.5 C 881.833,197.5 884.167,197.5 886.5,197.5C 886.5,199.833 886.5,202.167 886.5,204.5C 886.5,202.167 886.5,199.833 886.5,197.5C 884.167,197.5 881.833,197.5 879.5,197.5 Z"/></g>
<g><path style="opacity:1" fill="#f1d644" d="M 1009.5,198.5 C 1009.5,201.5 1009.5,204.5 1009.5,207.5C 1007.17,207.5 1004.83,207.5 1002.5,207.5C 1002.5,204.5 1002.5,201.5 1002.5,198.5C 1004.83,198.5 1007.17,198.5 1009.5,198.5 Z"/></g>
<g><path style="opacity:1" fill="#e99423" d="M 1009.5,198.5 C 1012.17,198.5 1014.83,198.5 1017.5,198.5C 1017.5,201.5 1017.5,204.5 1017.5,207.5C 1014.83,207.5 1012.17,207.5 1009.5,207.5C 1009.5,204.5 1009.5,201.5 1009.5,198.5 Z"/></g>
<g><path style="opacity:1" fill="#e99423" d="M 886.5,204.5 C 889.5,204.5 892.5,204.5 895.5,204.5C 895.5,207.167 895.5,209.833 895.5,212.5C 892.5,212.5 889.5,212.5 886.5,212.5C 886.5,209.833 886.5,207.167 886.5,204.5 Z"/></g>
<g><path style="opacity:1" fill="#f1d644" d="M 1002.5,207.5 C 1002.5,209.833 1002.5,212.167 1002.5,214.5C 996.833,214.5 991.167,214.5 985.5,214.5C 985.5,212.167 985.5,209.833 985.5,207.5C 991.167,207.5 996.833,207.5 1002.5,207.5 Z"/></g>
<g><path style="opacity:1" fill="#e99423" d="M 1002.5,207.5 C 1004.83,207.5 1007.17,207.5 1009.5,207.5C 1009.5,209.833 1009.5,212.167 1009.5,214.5C 1007.17,214.5 1004.83,214.5 1002.5,214.5C 1002.5,212.167 1002.5,209.833 1002.5,207.5 Z"/></g>
<g><path style="opacity:1" fill="#e99423" d="M 895.5,212.5 C 900.5,212.5 905.5,212.5 910.5,212.5C 910.5,215.167 910.5,217.833 910.5,220.5C 905.5,220.5 900.5,220.5 895.5,220.5C 895.5,217.833 895.5,215.167 895.5,212.5 Z"/></g>
<g><path style="opacity:1" fill="#f1d644" d="M 972.5,214.5 C 976.833,214.5 981.167,214.5 985.5,214.5C 985.5,216.833 985.5,219.167 985.5,221.5C 981.167,221.5 976.833,221.5 972.5,221.5C 972.5,219.167 972.5,216.833 972.5,214.5 Z"/></g>
<g><path style="opacity:1" fill="#e99423" d="M 985.5,214.5 C 991.167,214.5 996.833,214.5 1002.5,214.5C 1002.5,216.833 1002.5,219.167 1002.5,221.5C 996.833,221.5 991.167,221.5 985.5,221.5C 985.5,219.167 985.5,216.833 985.5,214.5 Z"/></g>
<g><path style="opacity:1" fill="#e99423" d="M 910.5,220.5 C 918.167,220.5 925.833,220.5 933.5,220.5C 933.5,223.167 933.5,225.833 933.5,228.5C 925.833,228.5 918.167,228.5 910.5,228.5C 910.5,225.833 910.5,223.167 910.5,220.5 Z"/></g>
<g><path style="opacity:1" fill="#f1d644" d="M 933.5,220.5 C 943.5,220.5 953.5,220.5 963.5,220.5C 963.5,223.167 963.5,225.833 963.5,228.5C 953.5,228.5 943.5,228.5 933.5,228.5C 933.5,225.833 933.5,223.167 933.5,220.5 Z"/></g>
<g><path style="opacity:1" fill="#e99423" d="M 972.5,221.5 C 976.833,221.5 981.167,221.5 985.5,221.5C 985.5,223.833 985.5,226.167 985.5,228.5C 981.167,228.5 976.833,228.5 972.5,228.5C 972.5,226.167 972.5,223.833 972.5,221.5 Z"/></g>
<g><path style="opacity:1" fill="#e99423" d="M 933.5,228.5 C 943.5,228.5 953.5,228.5 963.5,228.5C 963.5,231.167 963.5,233.833 963.5,236.5C 953.5,236.5 943.5,236.5 933.5,236.5C 933.5,233.833 933.5,231.167 933.5,228.5 Z"/></g>
<g><path style="opacity:1" fill="#eecbab" d="M 1444.5,690.5 C 1437.83,690.5 1431.17,690.5 1424.5,690.5C 1424.5,644.5 1424.5,598.5 1424.5,552.5C 1410.83,552.5 1397.17,552.5 1383.5,552.5C 1383.5,545.833 1383.5,539.167 1383.5,532.5C 1397.17,532.5 1410.83,532.5 1424.5,532.5C 1424.5,519.5 1424.5,506.5 1424.5,493.5C 1424.5,487.167 1424.5,480.833 1424.5,474.5C 1410.83,474.5 1397.17,474.5 1383.5,474.5C 1383.5,467.833 1383.5,461.167 1383.5,454.5C 1370.83,454.5 1358.17,454.5 1345.5,454.5C 1345.5,447.833 1345.5,441.167 1345.5,434.5C 1325.5,434.5 1305.5,434.5 1285.5,434.5C 1285.5,428.167 1285.5,421.833 1285.5,415.5C 1252.83,415.5 1220.17,415.5 1187.5,415.5C 1187.5,408.167 1187.5,400.833 1187.5,393.5C 1042.5,393.5 897.5,393.5 752.5,393.5C 752.5,400.833 752.5,408.167 752.5,415.5C 719.167,415.5 685.833,415.5 652.5,415.5C 652.5,421.5 652.5,427.5 652.5,433.5C 632.833,433.5 613.167,433.5 593.5,433.5C 593.5,440.167 593.5,446.833 593.5,453.5C 580.167,453.5 566.833,453.5 553.5,453.5C 553.5,460.5 553.5,467.5 553.5,474.5C 540.5,474.5 527.5,474.5 514.5,474.5C 514.5,480.833 514.5,487.167 514.5,493.5C 507.5,493.5 500.5,493.5 493.5,493.5C 493.5,480.167 493.5,466.833 493.5,453.5C 500.167,453.5 506.833,453.5 513.5,453.5C 513.5,446.833 513.5,440.167 513.5,433.5C 526.833,433.5 540.167,433.5 553.5,433.5C 553.5,427.5 553.5,421.5 553.5,415.5C 566.833,415.5 580.167,415.5 593.5,415.5C 593.5,408.167 593.5,400.833 593.5,393.5C 613.167,393.5 632.833,393.5 652.5,393.5C 652.5,387.167 652.5,380.833 652.5,374.5C 678.833,374.5 705.167,374.5 731.5,374.5C 731.5,367.5 731.5,360.5 731.5,353.5C 890.167,353.5 1048.83,353.5 1207.5,353.5C 1207.5,360.5 1207.5,367.5 1207.5,374.5C 1233.83,374.5 1260.17,374.5 1286.5,374.5C 1286.5,381.167 1286.5,387.833 1286.5,394.5C 1306.17,394.5 1325.83,394.5 1345.5,394.5C 1345.5,401.167 1345.5,407.833 1345.5,414.5C 1358.17,414.5 1370.83,414.5 1383.5,414.5C 1383.5,421.167 1383.5,427.833 1383.5,434.5C 1397.17,434.5 1410.83,434.5 1424.5,434.5C 1424.5,441.167 1424.5,447.833 1424.5,454.5C 1431.17,454.5 1437.83,454.5 1444.5,454.5C 1444.5,533.167 1444.5,611.833 1444.5,690.5 Z"/></g>
<g><path style="opacity:1" fill="#d9ad95" d="M 1741.5,414.5 C 1734.83,414.5 1728.17,414.5 1721.5,414.5C 1721.5,408.5 1721.5,402.5 1721.5,396.5C 1688.5,396.5 1655.5,396.5 1622.5,396.5C 1622.5,389.5 1622.5,382.5 1622.5,375.5C 1655.83,375.5 1689.17,375.5 1722.5,375.5C 1722.5,382.167 1722.5,388.833 1722.5,395.5C 1728.83,395.5 1735.17,395.5 1741.5,395.5C 1741.5,401.833 1741.5,408.167 1741.5,414.5 Z"/></g>
<g><path style="opacity:1" fill="#ebdac3" d="M 1187.5,415.5 C 1042.5,415.5 897.5,415.5 752.5,415.5C 752.5,408.167 752.5,400.833 752.5,393.5C 897.5,393.5 1042.5,393.5 1187.5,393.5C 1187.5,400.833 1187.5,408.167 1187.5,415.5 Z"/></g>
<g><path style="opacity:1" fill="#d9ad95" d="M 1622.5,396.5 C 1622.5,402.5 1622.5,408.5 1622.5,414.5C 1616.17,414.5 1609.83,414.5 1603.5,414.5C 1603.5,408.5 1603.5,402.5 1603.5,396.5C 1609.83,396.5 1616.17,396.5 1622.5,396.5 Z"/></g>
<g><path style="opacity:1" fill="#fee262" d="M 1622.5,396.5 C 1655.5,396.5 1688.5,396.5 1721.5,396.5C 1721.5,402.5 1721.5,408.5 1721.5,414.5C 1688.5,414.5 1655.5,414.5 1622.5,414.5C 1622.5,408.5 1622.5,402.5 1622.5,396.5 Z"/></g>
<g><path style="opacity:1" fill="#a75500" d="M 1603.5,414.5 C 1609.83,414.5 1616.17,414.5 1622.5,414.5C 1622.5,421.5 1622.5,428.5 1622.5,435.5C 1655.5,435.5 1688.5,435.5 1721.5,435.5C 1721.5,428.5 1721.5,421.5 1721.5,414.5C 1728.17,414.5 1734.83,414.5 1741.5,414.5C 1741.5,434.5 1741.5,454.5 1741.5,474.5C 1748.17,474.5 1754.83,474.5 1761.5,474.5C 1761.5,487.5 1761.5,500.5 1761.5,513.5C 1754.5,513.5 1747.5,513.5 1740.5,513.5C 1740.5,520.167 1740.5,526.833 1740.5,533.5C 1694.5,533.5 1648.5,533.5 1602.5,533.5C 1595.83,533.5 1589.17,533.5 1582.5,533.5C 1582.5,526.833 1582.5,520.167 1582.5,513.5C 1582.5,500.833 1582.5,488.167 1582.5,475.5C 1589.5,475.5 1596.5,475.5 1603.5,475.5C 1603.5,455.167 1603.5,434.833 1603.5,414.5 Z"/></g>
<g><path style="opacity:1" fill="#d9ad95" d="M 1622.5,414.5 C 1655.5,414.5 1688.5,414.5 1721.5,414.5C 1721.5,421.5 1721.5,428.5 1721.5,435.5C 1688.5,435.5 1655.5,435.5 1622.5,435.5C 1622.5,428.5 1622.5,421.5 1622.5,414.5 Z"/></g>
<g><path style="opacity:1" fill="#ebdac3" d="M 752.5,415.5 C 752.5,421.5 752.5,427.5 752.5,433.5C 719.167,433.5 685.833,433.5 652.5,433.5C 652.5,427.5 652.5,421.5 652.5,415.5C 685.833,415.5 719.167,415.5 752.5,415.5 Z"/></g>
<g><path style="opacity:1" fill="#d8ae83" d="M 752.5,415.5 C 897.5,415.5 1042.5,415.5 1187.5,415.5C 1187.5,421.833 1187.5,428.167 1187.5,434.5C 1220.17,434.5 1252.83,434.5 1285.5,434.5C 1285.5,441.167 1285.5,447.833 1285.5,454.5C 1305.5,454.5 1325.5,454.5 1345.5,454.5C 1345.5,461.167 1345.5,467.833 1345.5,474.5C 1358.17,474.5 1370.83,474.5 1383.5,474.5C 1383.5,480.833 1383.5,487.167 1383.5,493.5C 1397.17,493.5 1410.83,493.5 1424.5,493.5C 1424.5,506.5 1424.5,519.5 1424.5,532.5C 1410.83,532.5 1397.17,532.5 1383.5,532.5C 1383.5,525.833 1383.5,519.167 1383.5,512.5C 1370.5,512.5 1357.5,512.5 1344.5,512.5C 1344.5,506.5 1344.5,500.5 1344.5,494.5C 1324.83,494.5 1305.17,494.5 1285.5,494.5C 1285.5,487.833 1285.5,481.167 1285.5,474.5C 1246.17,474.5 1206.83,474.5 1167.5,474.5C 1167.5,467.5 1167.5,460.5 1167.5,453.5C 1035.17,453.5 902.833,453.5 770.5,453.5C 770.5,460.5 770.5,467.5 770.5,474.5C 731.167,474.5 691.833,474.5 652.5,474.5C 652.5,480.833 652.5,487.167 652.5,493.5C 632.833,493.5 613.167,493.5 593.5,493.5C 593.5,499.833 593.5,506.167 593.5,512.5C 580.167,512.5 566.833,512.5 553.5,512.5C 553.5,519.5 553.5,526.5 553.5,533.5C 540.5,533.5 527.5,533.5 514.5,533.5C 514.5,540.5 514.5,547.5 514.5,554.5C 507.5,554.5 500.5,554.5 493.5,554.5C 493.5,540.5 493.5,526.5 493.5,512.5C 500.5,512.5 507.5,512.5 514.5,512.5C 514.5,506.167 514.5,499.833 514.5,493.5C 527.5,493.5 540.5,493.5 553.5,493.5C 553.5,487.167 553.5,480.833 553.5,474.5C 566.833,474.5 580.167,474.5 593.5,474.5C 593.5,467.5 593.5,460.5 593.5,453.5C 613.167,453.5 632.833,453.5 652.5,453.5C 652.5,446.833 652.5,440.167 652.5,433.5C 685.833,433.5 719.167,433.5 752.5,433.5C 752.5,427.5 752.5,421.5 752.5,415.5 Z"/></g>
<g><path style="opacity:1" fill="#ebdac3" d="M 1187.5,415.5 C 1220.17,415.5 1252.83,415.5 1285.5,415.5C 1285.5,421.833 1285.5,428.167 1285.5,434.5C 1252.83,434.5 1220.17,434.5 1187.5,434.5C 1187.5,428.167 1187.5,421.833 1187.5,415.5 Z"/></g>
<g><path style="opacity:1" fill="#ebdac3" d="M 652.5,433.5 C 652.5,440.167 652.5,446.833 652.5,453.5C 632.833,453.5 613.167,453.5 593.5,453.5C 593.5,446.833 593.5,440.167 593.5,433.5C 613.167,433.5 632.833,433.5 652.5,433.5 Z"/></g>
<g><path style="opacity:1" fill="#ebdac3" d="M 1285.5,434.5 C 1305.5,434.5 1325.5,434.5 1345.5,434.5C 1345.5,441.167 1345.5,447.833 1345.5,454.5C 1325.5,454.5 1305.5,454.5 1285.5,454.5C 1285.5,447.833 1285.5,441.167 1285.5,434.5 Z"/></g>
<g><path style="opacity:1" fill="#ebdac3" d="M 593.5,453.5 C 593.5,460.5 593.5,467.5 593.5,474.5C 580.167,474.5 566.833,474.5 553.5,474.5C 553.5,467.5 553.5,460.5 553.5,453.5C 566.833,453.5 580.167,453.5 593.5,453.5 Z"/></g>
<g><path style="opacity:1" fill="#eecbac" d="M 1167.5,474.5 C 1035.17,474.5 902.833,474.5 770.5,474.5C 770.5,467.5 770.5,460.5 770.5,453.5C 902.833,453.5 1035.17,453.5 1167.5,453.5C 1167.5,460.5 1167.5,467.5 1167.5,474.5 Z"/></g>
<g><path style="opacity:1" fill="#ebdac3" d="M 1345.5,454.5 C 1358.17,454.5 1370.83,454.5 1383.5,454.5C 1383.5,461.167 1383.5,467.833 1383.5,474.5C 1370.83,474.5 1358.17,474.5 1345.5,474.5C 1345.5,467.833 1345.5,461.167 1345.5,454.5 Z"/></g>
<g><path style="opacity:1" fill="#ebdac3" d="M 553.5,474.5 C 553.5,480.833 553.5,487.167 553.5,493.5C 540.5,493.5 527.5,493.5 514.5,493.5C 514.5,487.167 514.5,480.833 514.5,474.5C 527.5,474.5 540.5,474.5 553.5,474.5 Z"/></g>
<g><path style="opacity:1" fill="#eecbac" d="M 770.5,474.5 C 770.5,480.833 770.5,487.167 770.5,493.5C 731.167,493.5 691.833,493.5 652.5,493.5C 652.5,487.167 652.5,480.833 652.5,474.5C 691.833,474.5 731.167,474.5 770.5,474.5 Z"/></g>
<g><path style="opacity:1" fill="#d8ae83" d="M 770.5,474.5 C 902.833,474.5 1035.17,474.5 1167.5,474.5C 1167.5,481.167 1167.5,487.833 1167.5,494.5C 1206.83,494.5 1246.17,494.5 1285.5,494.5C 1285.5,500.5 1285.5,506.5 1285.5,512.5C 1305.17,512.5 1324.83,512.5 1344.5,512.5C 1344.5,519.167 1344.5,525.833 1344.5,532.5C 1357.5,532.5 1370.5,532.5 1383.5,532.5C 1383.5,539.167 1383.5,545.833 1383.5,552.5C 1397.17,552.5 1410.83,552.5 1424.5,552.5C 1424.5,598.5 1424.5,644.5 1424.5,690.5C 1417.83,690.5 1411.17,690.5 1404.5,690.5C 1404.5,684.167 1404.5,677.833 1404.5,671.5C 1398.17,671.5 1391.83,671.5 1385.5,671.5C 1385.5,664.167 1385.5,656.833 1385.5,649.5C 1260.17,649.5 1134.83,649.5 1009.5,649.5C 1009.5,656.5 1009.5,663.5 1009.5,670.5C 1002.83,670.5 996.167,670.5 989.5,670.5C 989.5,678.167 989.5,685.833 989.5,693.5C 975.833,693.5 962.167,693.5 948.5,693.5C 948.5,685.833 948.5,678.167 948.5,670.5C 941.5,670.5 934.5,670.5 927.5,670.5C 927.5,664.5 927.5,658.5 927.5,652.5C 802.167,652.5 676.833,652.5 551.5,652.5C 551.5,658.167 551.5,663.833 551.5,669.5C 545.5,669.5 539.5,669.5 533.5,669.5C 533.5,676.5 533.5,683.5 533.5,690.5C 520.167,690.5 506.833,690.5 493.5,690.5C 493.5,651.5 493.5,612.5 493.5,573.5C 500.5,573.5 507.5,573.5 514.5,573.5C 514.5,567.167 514.5,560.833 514.5,554.5C 527.5,554.5 540.5,554.5 553.5,554.5C 553.5,547.5 553.5,540.5 553.5,533.5C 566.833,533.5 580.167,533.5 593.5,533.5C 593.5,526.5 593.5,519.5 593.5,512.5C 613.167,512.5 632.833,512.5 652.5,512.5C 652.5,506.167 652.5,499.833 652.5,493.5C 691.833,493.5 731.167,493.5 770.5,493.5C 770.5,487.167 770.5,480.833 770.5,474.5 Z"/></g>
<g><path style="opacity:1" fill="#eecbac" d="M 1167.5,474.5 C 1206.83,474.5 1246.17,474.5 1285.5,474.5C 1285.5,481.167 1285.5,487.833 1285.5,494.5C 1246.17,494.5 1206.83,494.5 1167.5,494.5C 1167.5,487.833 1167.5,481.167 1167.5,474.5 Z"/></g>
<g><path style="opacity:1" fill="#ebdac3" d="M 1383.5,474.5 C 1397.17,474.5 1410.83,474.5 1424.5,474.5C 1424.5,480.833 1424.5,487.167 1424.5,493.5C 1410.83,493.5 1397.17,493.5 1383.5,493.5C 1383.5,487.167 1383.5,480.833 1383.5,474.5 Z"/></g>
<g><path style="opacity:1" fill="#ebdac3" d="M 493.5,493.5 C 500.5,493.5 507.5,493.5 514.5,493.5C 514.5,499.833 514.5,506.167 514.5,512.5C 507.5,512.5 500.5,512.5 493.5,512.5C 493.5,506.167 493.5,499.833 493.5,493.5 Z"/></g>
<g><path style="opacity:1" fill="#eecbac" d="M 652.5,493.5 C 652.5,499.833 652.5,506.167 652.5,512.5C 632.833,512.5 613.167,512.5 593.5,512.5C 593.5,506.167 593.5,499.833 593.5,493.5C 613.167,493.5 632.833,493.5 652.5,493.5 Z"/></g>
<g><path style="opacity:1" fill="#eecbac" d="M 1285.5,494.5 C 1305.17,494.5 1324.83,494.5 1344.5,494.5C 1344.5,500.5 1344.5,506.5 1344.5,512.5C 1324.83,512.5 1305.17,512.5 1285.5,512.5C 1285.5,506.5 1285.5,500.5 1285.5,494.5 Z"/></g>
<g><path style="opacity:1" fill="#eecbac" d="M 593.5,512.5 C 593.5,519.5 593.5,526.5 593.5,533.5C 580.167,533.5 566.833,533.5 553.5,533.5C 553.5,526.5 553.5,519.5 553.5,512.5C 566.833,512.5 580.167,512.5 593.5,512.5 Z"/></g>
<g><path style="opacity:1" fill="#eecbac" d="M 1344.5,512.5 C 1357.5,512.5 1370.5,512.5 1383.5,512.5C 1383.5,519.167 1383.5,525.833 1383.5,532.5C 1370.5,532.5 1357.5,532.5 1344.5,532.5C 1344.5,525.833 1344.5,519.167 1344.5,512.5 Z"/></g>
<g><path style="opacity:1" fill="#fee262" d="M 1582.5,513.5 C 1589.17,513.5 1595.83,513.5 1602.5,513.5C 1602.5,520.167 1602.5,526.833 1602.5,533.5C 1602.5,526.833 1602.5,520.167 1602.5,513.5C 1595.83,513.5 1589.17,513.5 1582.5,513.5 Z"/></g>
<g><path style="opacity:1" fill="#fee262" d="M 1761.5,513.5 C 1761.5,520.167 1761.5,526.833 1761.5,533.5C 1754.5,533.5 1747.5,533.5 1740.5,533.5C 1740.5,526.833 1740.5,520.167 1740.5,513.5C 1747.5,513.5 1754.5,513.5 1761.5,513.5 Z"/></g>
<g><path style="opacity:1" fill="#eecbac" d="M 553.5,533.5 C 553.5,540.5 553.5,547.5 553.5,554.5C 540.5,554.5 527.5,554.5 514.5,554.5C 514.5,547.5 514.5,540.5 514.5,533.5C 527.5,533.5 540.5,533.5 553.5,533.5 Z"/></g>
<g><path style="opacity:1" fill="#fee262" d="M 1602.5,533.5 C 1648.5,533.5 1694.5,533.5 1740.5,533.5C 1740.5,539.833 1740.5,546.167 1740.5,552.5C 1721.17,552.5 1701.83,552.5 1682.5,552.5C 1675.83,552.5 1669.17,552.5 1662.5,552.5C 1642.5,552.5 1622.5,552.5 1602.5,552.5C 1602.5,546.167 1602.5,539.833 1602.5,533.5 Z"/></g>
<g><path style="opacity:1" fill="#523a56" d="M 1662.5,552.5 C 1669.17,552.5 1675.83,552.5 1682.5,552.5C 1682.5,579.5 1682.5,606.5 1682.5,633.5C 1682.5,646.167 1682.5,658.833 1682.5,671.5C 1682.5,683.5 1682.5,695.5 1682.5,707.5C 1675.83,707.5 1669.17,707.5 1662.5,707.5C 1662.5,695.5 1662.5,683.5 1662.5,671.5C 1662.5,658.5 1662.5,645.5 1662.5,632.5C 1662.5,605.833 1662.5,579.167 1662.5,552.5 Z"/></g>
<g><path style="opacity:1" fill="#eecbac" d="M 493.5,554.5 C 500.5,554.5 507.5,554.5 514.5,554.5C 514.5,560.833 514.5,567.167 514.5,573.5C 507.5,573.5 500.5,573.5 493.5,573.5C 493.5,567.167 493.5,560.833 493.5,554.5 Z"/></g>
<g><path style="opacity:1" fill="#efedb9" d="M 1662.5,632.5 C 1662.5,645.5 1662.5,658.5 1662.5,671.5C 1648.83,671.5 1635.17,671.5 1621.5,671.5C 1621.5,678.167 1621.5,684.833 1621.5,691.5C 1615.17,691.5 1608.83,691.5 1602.5,691.5C 1602.5,698.167 1602.5,704.833 1602.5,711.5C 1608.83,711.5 1615.17,711.5 1621.5,711.5C 1621.5,717.833 1621.5,724.167 1621.5,730.5C 1654.83,730.5 1688.17,730.5 1721.5,730.5C 1721.5,724.167 1721.5,717.833 1721.5,711.5C 1728.17,711.5 1734.83,711.5 1741.5,711.5C 1741.5,705.167 1741.5,698.833 1741.5,692.5C 1734.17,692.5 1726.83,692.5 1719.5,692.5C 1719.5,685.5 1719.5,678.5 1719.5,671.5C 1707.17,671.5 1694.83,671.5 1682.5,671.5C 1682.5,658.833 1682.5,646.167 1682.5,633.5C 1715.17,633.5 1747.83,633.5 1780.5,633.5C 1780.5,679.167 1780.5,724.833 1780.5,770.5C 1780.5,777.167 1780.5,783.833 1780.5,790.5C 1774.5,790.5 1768.5,790.5 1762.5,790.5C 1669.83,790.5 1577.17,790.5 1484.5,790.5C 1477.83,790.5 1471.17,790.5 1464.5,790.5C 1464.5,737.833 1464.5,685.167 1464.5,632.5C 1530.5,632.5 1596.5,632.5 1662.5,632.5 Z"/></g>
<g><path style="opacity:1" fill="#f1f2e9" d="M 1404.5,690.5 C 1404.5,697.5 1404.5,704.5 1404.5,711.5C 1404.5,750.833 1404.5,790.167 1404.5,829.5C 1266.17,829.5 1127.83,829.5 989.5,829.5C 989.5,790.167 989.5,750.833 989.5,711.5C 989.5,705.5 989.5,699.5 989.5,693.5C 989.5,685.833 989.5,678.167 989.5,670.5C 996.167,670.5 1002.83,670.5 1009.5,670.5C 1009.5,663.5 1009.5,656.5 1009.5,649.5C 1134.83,649.5 1260.17,649.5 1385.5,649.5C 1385.5,656.833 1385.5,664.167 1385.5,671.5C 1391.83,671.5 1398.17,671.5 1404.5,671.5C 1404.5,677.833 1404.5,684.167 1404.5,690.5 Z"/></g>
<g><path style="opacity:1" fill="#f1f2e9" d="M 948.5,693.5 C 948.5,699.5 948.5,705.5 948.5,711.5C 948.5,750.833 948.5,790.167 948.5,829.5C 810.167,829.5 671.833,829.5 533.5,829.5C 533.5,790.5 533.5,751.5 533.5,712.5C 533.5,705.167 533.5,697.833 533.5,690.5C 533.5,683.5 533.5,676.5 533.5,669.5C 539.5,669.5 545.5,669.5 551.5,669.5C 551.5,663.833 551.5,658.167 551.5,652.5C 676.833,652.5 802.167,652.5 927.5,652.5C 927.5,658.5 927.5,664.5 927.5,670.5C 934.5,670.5 941.5,670.5 948.5,670.5C 948.5,678.167 948.5,685.833 948.5,693.5 Z"/></g>
<g><path style="opacity:1" fill="#a75500" d="M 1662.5,671.5 C 1662.5,683.5 1662.5,695.5 1662.5,707.5C 1669.17,707.5 1675.83,707.5 1682.5,707.5C 1682.5,695.5 1682.5,683.5 1682.5,671.5C 1694.83,671.5 1707.17,671.5 1719.5,671.5C 1719.5,678.5 1719.5,685.5 1719.5,692.5C 1726.83,692.5 1734.17,692.5 1741.5,692.5C 1741.5,698.833 1741.5,705.167 1741.5,711.5C 1734.83,711.5 1728.17,711.5 1721.5,711.5C 1721.5,717.833 1721.5,724.167 1721.5,730.5C 1688.17,730.5 1654.83,730.5 1621.5,730.5C 1621.5,724.167 1621.5,717.833 1621.5,711.5C 1615.17,711.5 1608.83,711.5 1602.5,711.5C 1602.5,704.833 1602.5,698.167 1602.5,691.5C 1608.83,691.5 1615.17,691.5 1621.5,691.5C 1621.5,684.833 1621.5,678.167 1621.5,671.5C 1635.17,671.5 1648.83,671.5 1662.5,671.5 Z"/></g>
<g><path style="opacity:1" fill="#cc957b" d="M 493.5,690.5 C 506.833,690.5 520.167,690.5 533.5,690.5C 533.5,697.833 533.5,705.167 533.5,712.5C 520.167,712.5 506.833,712.5 493.5,712.5C 493.5,705.167 493.5,697.833 493.5,690.5 Z"/></g>
<g><path style="opacity:1" fill="#cc957b" d="M 1404.5,690.5 C 1411.17,690.5 1417.83,690.5 1424.5,690.5C 1431.17,690.5 1437.83,690.5 1444.5,690.5C 1444.5,697.5 1444.5,704.5 1444.5,711.5C 1431.17,711.5 1417.83,711.5 1404.5,711.5C 1404.5,704.5 1404.5,697.5 1404.5,690.5 Z"/></g>
<g><path style="opacity:1" fill="#cc957b" d="M 948.5,693.5 C 962.167,693.5 975.833,693.5 989.5,693.5C 989.5,699.5 989.5,705.5 989.5,711.5C 975.833,711.5 962.167,711.5 948.5,711.5C 948.5,705.5 948.5,699.5 948.5,693.5 Z"/></g>
<g><path style="opacity:1" fill="#e9ddc6" d="M 948.5,711.5 C 962.167,711.5 975.833,711.5 989.5,711.5C 989.5,750.833 989.5,790.167 989.5,829.5C 989.5,835.833 989.5,842.167 989.5,848.5C 975.833,848.5 962.167,848.5 948.5,848.5C 948.5,842.167 948.5,835.833 948.5,829.5C 948.5,790.167 948.5,750.833 948.5,711.5 Z"/></g>
<g><path style="opacity:1" fill="#e9ddc6" d="M 1404.5,711.5 C 1417.83,711.5 1431.17,711.5 1444.5,711.5C 1444.5,757.167 1444.5,802.833 1444.5,848.5C 1431.17,848.5 1417.83,848.5 1404.5,848.5C 1404.5,842.167 1404.5,835.833 1404.5,829.5C 1404.5,790.167 1404.5,750.833 1404.5,711.5 Z"/></g>
<g><path style="opacity:1" fill="#e9ddc6" d="M 493.5,712.5 C 506.833,712.5 520.167,712.5 533.5,712.5C 533.5,751.5 533.5,790.5 533.5,829.5C 533.5,835.833 533.5,842.167 533.5,848.5C 520.167,848.5 506.833,848.5 493.5,848.5C 493.5,822.833 493.5,797.167 493.5,771.5C 493.5,751.833 493.5,732.167 493.5,712.5 Z"/></g>
<g><path style="opacity:1" fill="#d9894e" d="M 1780.5,770.5 C 1826.83,770.5 1873.17,770.5 1919.5,770.5C 1919.5,1166.17 1919.5,1561.83 1919.5,1957.5C 1279.5,1957.5 639.5,1957.5 -0.5,1957.5C -0.5,1562.17 -0.5,1166.83 -0.5,771.5C 164.167,771.5 328.833,771.5 493.5,771.5C 493.5,797.167 493.5,822.833 493.5,848.5C 487.167,848.5 480.833,848.5 474.5,848.5C 474.5,882.5 474.5,916.5 474.5,950.5C 474.5,956.833 474.5,963.167 474.5,969.5C 474.5,1015.5 474.5,1061.5 474.5,1107.5C 355.5,1107.5 236.5,1107.5 117.5,1107.5C 117.5,1357.83 117.5,1608.17 117.5,1858.5C 684.833,1858.5 1252.17,1858.5 1819.5,1858.5C 1819.5,1608.17 1819.5,1357.83 1819.5,1107.5C 1701.17,1107.5 1582.83,1107.5 1464.5,1107.5C 1464.5,1074.17 1464.5,1040.83 1464.5,1007.5C 1569.83,1007.5 1675.17,1007.5 1780.5,1007.5C 1780.5,1001.17 1780.5,994.833 1780.5,988.5C 1780.5,955.167 1780.5,921.833 1780.5,888.5C 1780.5,882.167 1780.5,875.833 1780.5,869.5C 1780.5,843.167 1780.5,816.833 1780.5,790.5C 1780.5,783.833 1780.5,777.167 1780.5,770.5 Z"/></g>
<g><path style="opacity:1" fill="#d4b084" d="M 1464.5,790.5 C 1471.17,790.5 1477.83,790.5 1484.5,790.5C 1484.5,816.833 1484.5,843.167 1484.5,869.5C 1477.83,869.5 1471.17,869.5 1464.5,869.5C 1464.5,862.5 1464.5,855.5 1464.5,848.5C 1464.5,829.167 1464.5,809.833 1464.5,790.5 Z"/></g>
<g><path style="opacity:1" fill="#cd967c" d="M 1484.5,790.5 C 1577.17,790.5 1669.83,790.5 1762.5,790.5C 1762.5,816.833 1762.5,843.167 1762.5,869.5C 1669.83,869.5 1577.17,869.5 1484.5,869.5C 1484.5,843.167 1484.5,816.833 1484.5,790.5 Z"/></g>
<g><path style="opacity:1" fill="#d4b084" d="M 1762.5,790.5 C 1768.5,790.5 1774.5,790.5 1780.5,790.5C 1780.5,816.833 1780.5,843.167 1780.5,869.5C 1774.5,869.5 1768.5,869.5 1762.5,869.5C 1762.5,843.167 1762.5,816.833 1762.5,790.5 Z"/></g>
<g><path style="opacity:1" fill="#e0e1de" d="M 533.5,829.5 C 671.833,829.5 810.167,829.5 948.5,829.5C 948.5,835.833 948.5,842.167 948.5,848.5C 810.167,848.5 671.833,848.5 533.5,848.5C 533.5,842.167 533.5,835.833 533.5,829.5 Z"/></g>
<g><path style="opacity:1" fill="#e0e1de" d="M 989.5,829.5 C 1127.83,829.5 1266.17,829.5 1404.5,829.5C 1404.5,835.833 1404.5,842.167 1404.5,848.5C 1266.17,848.5 1127.83,848.5 989.5,848.5C 989.5,842.167 989.5,835.833 989.5,829.5 Z"/></g>
<g><path style="opacity:1" fill="#f1f2e9" d="M 493.5,848.5 C 506.833,848.5 520.167,848.5 533.5,848.5C 671.833,848.5 810.167,848.5 948.5,848.5C 962.167,848.5 975.833,848.5 989.5,848.5C 1127.83,848.5 1266.17,848.5 1404.5,848.5C 1417.83,848.5 1431.17,848.5 1444.5,848.5C 1451.17,848.5 1457.83,848.5 1464.5,848.5C 1464.5,855.5 1464.5,862.5 1464.5,869.5C 1464.5,875.833 1464.5,882.167 1464.5,888.5C 1464.5,909.167 1464.5,929.833 1464.5,950.5C 1134.5,950.5 804.5,950.5 474.5,950.5C 474.5,916.5 474.5,882.5 474.5,848.5C 480.833,848.5 487.167,848.5 493.5,848.5 Z"/></g>
<g><path style="opacity:1" fill="#ebcba9" d="M 1464.5,869.5 C 1471.17,869.5 1477.83,869.5 1484.5,869.5C 1577.17,869.5 1669.83,869.5 1762.5,869.5C 1768.5,869.5 1774.5,869.5 1780.5,869.5C 1780.5,875.833 1780.5,882.167 1780.5,888.5C 1675.17,888.5 1569.83,888.5 1464.5,888.5C 1464.5,882.167 1464.5,875.833 1464.5,869.5 Z"/></g>
<g><path style="opacity:1" fill="#d8ae84" d="M 1464.5,888.5 C 1569.83,888.5 1675.17,888.5 1780.5,888.5C 1780.5,921.833 1780.5,955.167 1780.5,988.5C 1675.17,988.5 1569.83,988.5 1464.5,988.5C 1464.5,982.167 1464.5,975.833 1464.5,969.5C 1464.5,963.167 1464.5,956.833 1464.5,950.5C 1464.5,929.833 1464.5,909.167 1464.5,888.5 Z"/></g>
<g><path style="opacity:1" fill="#cf977a" d="M 1583.5,909.5 C 1609.5,909.5 1635.5,909.5 1661.5,909.5C 1661.5,916.167 1661.5,922.833 1661.5,929.5C 1635.5,929.5 1609.5,929.5 1583.5,929.5C 1583.5,922.833 1583.5,916.167 1583.5,909.5 Z"/></g>
<g><path style="opacity:1" fill="#2d81ff" d="M 474.5,950.5 C 804.5,950.5 1134.5,950.5 1464.5,950.5C 1464.5,956.833 1464.5,963.167 1464.5,969.5C 1134.5,969.5 804.5,969.5 474.5,969.5C 474.5,963.167 474.5,956.833 474.5,950.5 Z"/></g>
<g><path style="opacity:1" fill="#b8dafb" d="M 474.5,969.5 C 804.5,969.5 1134.5,969.5 1464.5,969.5C 1464.5,975.833 1464.5,982.167 1464.5,988.5C 1464.5,994.833 1464.5,1001.17 1464.5,1007.5C 1464.5,1040.83 1464.5,1074.17 1464.5,1107.5C 1464.5,1173.17 1464.5,1238.83 1464.5,1304.5C 1134.5,1304.5 804.5,1304.5 474.5,1304.5C 474.5,1238.83 474.5,1173.17 474.5,1107.5C 474.5,1061.5 474.5,1015.5 474.5,969.5 Z"/></g>
<g><path style="opacity:1" fill="#402a36" d="M 1464.5,988.5 C 1569.83,988.5 1675.17,988.5 1780.5,988.5C 1780.5,994.833 1780.5,1001.17 1780.5,1007.5C 1675.17,1007.5 1569.83,1007.5 1464.5,1007.5C 1464.5,1001.17 1464.5,994.833 1464.5,988.5 Z"/></g>
<g><path style="opacity:1" fill="#e16b22" d="M 474.5,1107.5 C 474.5,1173.17 474.5,1238.83 474.5,1304.5C 474.5,1363.5 474.5,1422.5 474.5,1481.5C 480.833,1481.5 487.167,1481.5 493.5,1481.5C 493.5,1488.5 493.5,1495.5 493.5,1502.5C 493.5,1528.83 493.5,1555.17 493.5,1581.5C 493.5,1588.17 493.5,1594.83 493.5,1601.5C 810.5,1601.5 1127.5,1601.5 1444.5,1601.5C 1444.5,1594.83 1444.5,1588.17 1444.5,1581.5C 1444.5,1555.17 1444.5,1528.83 1444.5,1502.5C 1444.5,1495.5 1444.5,1488.5 1444.5,1481.5C 1451.17,1481.5 1457.83,1481.5 1464.5,1481.5C 1464.5,1422.5 1464.5,1363.5 1464.5,1304.5C 1464.5,1238.83 1464.5,1173.17 1464.5,1107.5C 1582.83,1107.5 1701.17,1107.5 1819.5,1107.5C 1819.5,1357.83 1819.5,1608.17 1819.5,1858.5C 1252.17,1858.5 684.833,1858.5 117.5,1858.5C 117.5,1608.17 117.5,1357.83 117.5,1107.5C 236.5,1107.5 355.5,1107.5 474.5,1107.5 Z"/></g>
<g><path style="opacity:1" fill="#2d81ff" d="M 474.5,1304.5 C 804.5,1304.5 1134.5,1304.5 1464.5,1304.5C 1464.5,1363.5 1464.5,1422.5 1464.5,1481.5C 1457.83,1481.5 1451.17,1481.5 1444.5,1481.5C 1127.5,1481.5 810.5,1481.5 493.5,1481.5C 487.167,1481.5 480.833,1481.5 474.5,1481.5C 474.5,1422.5 474.5,1363.5 474.5,1304.5 Z"/></g>
<g><path style="opacity:1" fill="#cd947d" d="M 493.5,1481.5 C 810.5,1481.5 1127.5,1481.5 1444.5,1481.5C 1444.5,1488.5 1444.5,1495.5 1444.5,1502.5C 1127.5,1502.5 810.5,1502.5 493.5,1502.5C 493.5,1495.5 493.5,1488.5 493.5,1481.5 Z"/></g>
<g><path style="opacity:1" fill="#d8ae83" d="M 493.5,1502.5 C 810.5,1502.5 1127.5,1502.5 1444.5,1502.5C 1444.5,1528.83 1444.5,1555.17 1444.5,1581.5C 1127.5,1581.5 810.5,1581.5 493.5,1581.5C 493.5,1555.17 493.5,1528.83 493.5,1502.5 Z"/></g>
<g><path style="opacity:1" fill="#3c1e31" d="M 493.5,1581.5 C 810.5,1581.5 1127.5,1581.5 1444.5,1581.5C 1444.5,1588.17 1444.5,1594.83 1444.5,1601.5C 1127.5,1601.5 810.5,1601.5 493.5,1601.5C 493.5,1594.83 493.5,1588.17 493.5,1581.5 Z"/></g>
</svg>
