<?xml version="1.0" encoding="UTF-8" standalone="no"?>
<!DOCTYPE svg PUBLIC "-//W3C//DTD SVG 1.1//EN" "http://www.w3.org/Graphics/SVG/1.1/DTD/svg11.dtd">
<!-- Created with Vectornator (http://vectornator.io/) -->
<svg height="100%" stroke-miterlimit="10" style="fill-rule:nonzero;clip-rule:evenodd;stroke-linecap:round;stroke-linejoin:round;" version="1.1" viewBox="0 0 360 213" width="100%" xml:space="preserve" xmlns="http://www.w3.org/2000/svg" xmlns:vectornator="http://vectornator.io" xmlns:xlink="http://www.w3.org/1999/xlink">
<defs/>
<clipPath id="ArtboardFrame">
<rect height="213" width="360" x="0" y="0"/>
</clipPath>
<g clip-path="url(#ArtboardFrame)" id="Sans-titre" vectornator:layerName="Sans titre">
<path d="M207.997 214C139.997 214 72.497 213.967 4.99729 214.097C1.57271 214.103 0.894088 213.425 0.900566 210C1.02984 141.667 1.02983 73.3333 0.900577 5.00023C0.8941 1.57571 1.57308 0.901426 4.99712 0.904766C122.33 1.0192 239.664 1.0192 356.997 0.904786C360.421 0.901447 361.1 1.57527 361.094 5.00009C360.964 73.3332 360.964 141.667 361.094 210C361.1 213.424 360.423 214.107 356.997 214.098C307.497 213.955 257.997 214 207.997 214Z" fill="#ffffff" fill-opacity="0" fill-rule="nonzero" opacity="1" stroke="none" vectornator:layerName="path"/>
<path d="M234.023 165C231.532 165 229.531 164.95 227.534 165.014C225.414 165.081 223.607 165.201 223.93 162.023C224.268 158.71 221.477 160.189 220.019 160.059C216.969 159.789 213.116 161.212 213.882 155.502C214.21 153.058 211.741 154.249 210.498 154.036C209.084 153.794 207.765 153.999 208.004 156.004C208.317 158.637 208.005 160.679 204.492 160.037C203.509 159.858 202.855 160.537 203.039 161.501C203.852 165.747 200.919 165.009 198.501 165.002C195.835 164.994 193.17 164.994 190.505 165.002C188.084 165.009 185.679 165.752 185.798 161.496C185.883 158.465 182.645 160.305 180.985 160.093C177.941 159.705 173.959 161.166 174.933 155.484C175.244 153.673 173.569 154.024 172.489 154.018C171.398 154.012 169.748 153.702 170.065 155.505C170.957 160.579 167.703 160.102 164.48 160.03C161.728 159.97 158.261 158.923 158.832 164.033C158.997 165.515 157 164.957 155.972 164.97C150.642 165.034 145.311 165.036 139.981 164.968C138.963 164.955 136.997 165.553 137.153 163.984C137.72 158.267 133.638 160.159 130.97 160.054C128.127 159.943 125.071 160.583 125.969 155.962C126.358 153.961 124.88 154 123.465 153.979C121.983 153.957 120.753 154.068 121.004 156.035C121.346 158.712 120.94 160.686 117.47 160.041C116.837 159.923 116.009 160.143 116.067 161.004C116.411 166.029 112.783 164.952 109.954 164.985C105.291 165.04 100.625 165.041 95.9621 164.967C94.9478 164.951 92.9922 165.567 93.1475 163.965C93.702 158.244 89.5903 160.093 86.9526 160.082C84.2496 160.069 82.2858 159.894 82.9893 156.441C83.0542 156.123 82.9997 155.486 82.9766 155.485C78.5572 155.268 77.4929 150.336 73.9106 149.057C72.8764 148.688 71.598 149.026 70.4328 148.995C67.4637 148.914 63.8106 149.827 61.7216 148.423C59.6792 147.05 60.7883 143.111 61.1105 140.426C61.6693 135.772 55.8957 139.927 56.0168 136.409C56.1049 133.85 56.4559 131.15 52.3986 131.983C51.9237 132.08 50.9687 131.98 50.9666 131.936C50.7774 127.983 47.6013 126.539 45.3222 124.1C44.0847 122.775 44.0601 120.581 41.3949 120.998C39.2956 121.326 38.8637 120.19 38.9783 118.386C39.0836 116.727 39.1812 115.032 38.961 113.395C38.5533 110.366 39.9842 109.925 42.6329 109.936C49.8973 109.966 49.9517 109.844 49.9693 102.848C49.9751 100.553 50.3904 99.7824 52.9645 98.5993C55.634 97.3723 57.2316 93.6416 60.8776 92.5621C61.4792 92.384 61.1306 88.5002 60.9624 86.3492C60.769 83.8756 61.3923 82.6787 64.1849 82.9459C66.826 83.1986 69.5154 82.8955 72.1742 83.0275C75.2324 83.1794 78.006 83.2665 77.0331 78.8096C76.8595 78.0142 77.0335 76.9908 78.1944 77.0632C81.2748 77.2555 83.9835 77.1647 83.1076 72.7976C83.0723 72.6217 83.7823 72.1832 84.2018 72.0596C84.6643 71.9233 85.1936 71.9802 85.6916 72.0034C90.637 72.2329 85.8621 66.4087 89.2117 66.1432C92.2512 65.9022 94.9925 66.1827 94.0305 61.7825C93.8219 60.8286 94 59.7902 94 58.7907C94 50.5242 94.0004 50.5296 102.229 49.9937C103.437 49.9151 105.219 50.4982 104.966 48.277C104.672 45.6977 105.564 44.5687 108.229 44.979C109.454 45.1677 110.228 44.5252 109.972 43.2761C108.972 38.4006 112.152 38.8889 115.235 38.9745C119.063 39.0808 122.898 39.0592 126.728 38.9811C129.748 38.9196 133.024 38.2871 132.034 43.243C131.695 44.9427 133.014 45.2029 134.246 44.9722C138.005 44.2683 138.062 46.4543 138.08 49.2604C138.096 51.7436 136.274 55.656 141.767 55.132C143.796 54.9384 142.912 57.1343 142.95 58.2632C143.004 59.9096 142.985 61.0711 145.261 61.0759C147.47 61.0805 148.305 60.4075 148.011 58.236C147.732 56.1777 148.01 54.8738 150.771 54.8965C153.419 54.9183 154.322 55.7015 154.05 58.2823C153.947 59.2563 153.442 61.1314 155.275 60.901C160.251 60.2759 158.863 63.7497 158.992 66.2795C159.043 67.2764 159 68.278 159 69.2775C159 77.2949 158.998 77.2286 166.8 77.044C168.885 76.9947 170.435 76.923 170.03 74.2014C169.891 73.2668 169.843 71.8473 171.288 72.0782C175.121 72.6911 175.17 70.4545 175.039 67.7033C174.914 65.0763 177.094 65.9944 178.3 66.0686C180.589 66.2095 181.134 65.2863 181.039 63.1833C180.89 59.8584 181.192 56.5072 180.941 53.1948C180.73 50.4215 181.852 49.7679 184.342 49.9617C186.66 50.142 189.004 50.0254 191.336 49.9936C194.284 49.9535 198.108 51.0122 197.012 45.6551C196.98 45.498 197.03 45.324 197.042 45.1578C202.242 46.1795 202.115 38.8123 206.857 38.971C211.017 39.1101 215.185 38.9802 219.35 39.0067C222.312 39.0256 226.086 38.0177 225.03 43.3601C224.852 44.2601 225.31 45.1296 226.359 44.9477C230.921 44.1573 229.94 47.3777 229.998 49.8604C230.013 50.5264 230 51.193 230 51.8593C230 60.346 229.996 60.4026 238.382 60.9546C240.135 61.0699 241.311 61.2463 241.007 63.3762C240.752 65.1598 241.262 66.0252 243.372 66.0784C245.746 66.1382 246.267 65.1281 246.002 63.1293C245.679 60.694 247.376 61.0125 248.87 60.9932C250.551 60.9715 252.417 60.6818 251.993 63.3684C251.618 65.7379 252.863 66.2235 254.872 66.02C255.686 65.9376 256.522 66.0789 257.348 66.1185C255.376 71.8071 264.895 71.4877 263.149 77.4215C262.456 79.7764 261.602 83.8639 266.875 83.0609C267.122 83.0233 267.65 83.3126 267.664 83.4818C268.364 91.8185 274.693 86.9598 278.405 87.8481C280.826 88.4271 284.86 89.4048 284.045 84.1356C284.022 83.983 284.083 83.6774 284.115 83.6762C288.212 83.5105 290.94 81.9956 290.48 77.2919C291.949 77.2098 293.426 76.9889 294.883 77.0847C296.342 77.1806 296.074 78.5108 295.964 79.3916C295.628 82.0809 296.416 83.4581 299.404 83.0352C301.278 82.7701 300.986 84.2898 300.989 85.3989C301.009 91.0625 301.013 96.7264 300.985 102.39C300.98 103.309 301.269 104.968 300.112 104.848C294.025 104.213 296.136 108.659 296.086 111.4C296.033 114.315 296.186 116.796 292.087 116.02C290.164 115.655 289.938 116.905 289.986 118.424C290.049 120.421 289.912 122.426 290.025 124.419C290.129 126.251 289.661 127.309 287.583 127.005C285.749 126.737 284.89 127.344 284.94 129.416C284.984 131.253 285.345 132.313 287.412 132.003C287.574 131.978 287.77 131.946 287.907 132.011C290.671 133.313 290.393 139.083 295.396 137.105C296.654 140.652 296.222 144.374 295.772 147.887C295.491 150.092 292.696 148.663 291.059 148.976C288.457 149.474 284.553 147.224 284.743 152.945C284.809 154.937 281.693 153.81 280.052 153.947C277.007 154.202 272.955 152.748 273.962 158.458C274.206 159.847 273.102 160.002 272.032 159.998C270.033 159.992 268.005 159.783 266.042 160.05C262.992 160.464 262.752 158.757 263.009 156.53C263.229 154.616 262.521 153.924 260.526 153.937C258.6 153.95 257.773 154.494 257.985 156.478C258.214 158.622 258.112 160.029 255.025 160.168C251.953 160.307 246.466 157.11 246.726 164.447C246.754 165.239 244.973 164.978 244.009 164.988C240.845 165.019 237.68 165 234.023 165Z" fill="#d9e7f5" fill-rule="nonzero" opacity="1" stroke="none" vectornator:layerName="path"/>
<path d="M113.296 148.011C110.63 147.957 109.965 149.221 110.002 151.192C110.036 153.023 110.002 154.857 109.941 156.688C109.873 158.76 107.227 159.461 107.021 158.83C105.683 154.733 100.185 154.868 99.2258 151.321C98.454 148.467 97.3175 147.943 94.8708 147.969C92.2046 147.998 89.2063 148.888 88.6373 144.43C88.3395 142.097 85.5491 143.398 83.9022 142.978C81.8268 142.449 78.146 144.633 78.1767 140.4C78.2044 136.589 81.6122 138.19 83.6016 138.077C86.4519 137.914 89.0716 137.968 89.079 134.063C89.0817 132.62 90.0455 132.077 91.4045 132.056C93.0105 132.03 94.043 132.723 93.9369 134.385C93.7206 137.773 95.7457 138.104 98.393 138.027C102.222 137.916 106.056 138.001 109.888 138C112.359 137.999 114.447 137.629 115.35 141.315C116.162 144.631 119.939 142.654 122.377 142.917C123.989 143.091 126.573 143.805 126.82 141.128C127.155 137.507 129.55 137.989 131.842 138.01C134.904 138.037 137.592 138.336 138.289 133.849C138.813 130.484 142.445 132.424 144.676 132.057C146.516 131.754 148.048 132.384 147.969 134.676C147.891 136.931 148.782 138.141 151.171 138.014C152.983 137.919 153.98 138.759 154.022 140.641C154.06 142.31 155.006 142.984 156.608 142.947C157.967 142.915 158.912 142.352 158.931 140.921C158.97 137.984 160.94 137.974 163.063 137.99C167.728 138.026 172.393 137.965 177.058 138.013C179.252 138.035 181.132 137.849 181.01 134.934C180.937 133.203 181.546 132.015 183.552 132.054C185.992 132.101 186.254 133.864 185.936 135.536C185.409 138.316 188.202 142.723 182.488 143.177C178.102 152.397 169.852 146.447 163.497 147.89C161.132 148.427 158.814 147.977 158.931 151.488C159.024 154.249 156.801 154.162 155.011 153.942C152.951 153.689 149.642 155.384 149.215 152C148.684 147.796 146.117 147.968 143.178 147.983C140.777 147.995 137.975 148.704 137.832 144.705C137.768 142.94 136.062 143.047 134.72 143.03C133.193 143.011 132.076 143.547 132.042 145.258C131.989 147.891 130.229 148.018 128.256 148.007C123.424 147.978 118.592 148.001 113.296 148.011Z" fill="#add7ff" fill-rule="nonzero" opacity="1" stroke="none" vectornator:layerName="path"/>
<path d="M215.535 147.823C213.71 145.628 213.717 142.134 209.627 142.771C208.223 142.99 208.036 141.382 208.082 140.152C208.137 138.705 208.982 138.124 210.332 138.038C211.975 137.934 213.888 138.137 213.943 135.673C214.076 129.694 218.618 132.369 221.338 132.139C224.793 131.846 224.195 134.931 223.92 136.836C223.152 142.15 225.481 143.668 230.375 143.053C232.835 142.744 235.366 143.017 237.864 142.977C239.01 142.959 240.619 143.072 240.703 141.611C240.959 137.14 244.147 137.997 246.842 138.022C249.616 138.047 252.39 138.329 252.091 134.156C251.991 132.76 252.938 132.104 254.327 132.062C255.907 132.015 257.034 132.621 256.925 134.309C256.678 138.125 259.174 138.354 261.805 137.945C264.575 137.514 268.645 140.068 269.226 134.198C269.624 130.181 273.523 132.486 275.837 132.072C278.182 131.652 278.989 133.084 279.026 135.346C279.089 139.106 279.741 143.055 274.434 143.871C273.863 150.183 269.001 147.435 265.722 147.941C264.762 148.089 263.878 147.756 263.233 146.722C260.017 141.562 255.328 141.382 252.052 146.36C251.291 147.517 250.494 148.031 249.268 147.976C246.959 147.872 245.858 148.874 245.983 151.22C246.081 153.064 245.16 153.979 243.311 154.035C242.46 154.06 241.428 154.279 241.313 155.191C240.496 161.698 235.511 158.161 232.355 158.897C231.088 159.192 230.096 158.299 230.075 156.878C230.043 154.749 228.897 153.995 226.931 153.876C226.374 153.842 225.382 153.251 225.38 152.912C225.338 145.302 219.476 148.828 215.535 147.823Z" fill="#add7ff" fill-rule="nonzero" opacity="1" stroke="none" vectornator:layerName="path"/>
<path d="M109.784 70.6349C109.903 68.0378 110.839 66.7251 113.202 67.0274C115.708 67.348 119.015 65.6747 120.528 68.3056C121.771 70.4679 121.434 73.5138 120.504 76.0343C120.062 77.2291 118.514 76.9764 117.372 76.9866C114.557 77.0117 111.741 77.0437 108.927 76.9793C107.36 76.9435 105.441 77.4172 105.094 74.9582C104.715 72.2774 106.561 72.0757 108.456 71.8129C108.885 71.7534 109.259 71.2999 109.784 70.6349Z" fill="#add7ff" fill-rule="nonzero" opacity="1" stroke="none" vectornator:layerName="path"/>
<path d="M208.461 83.0041C208.291 81.3559 207.109 78.8653 209.444 78.3198C212.26 77.6619 215.321 77.4516 218.147 78.5734C219.176 78.9821 218.976 80.2631 218.862 81.2349C218.725 82.4169 217.875 82.9034 216.799 82.9271C214.17 82.9851 211.539 82.9762 208.461 83.0041Z" fill="#add7ff" fill-rule="nonzero" opacity="1" stroke="none" vectornator:layerName="path"/>
<path d="M101.897 78.08C104.589 79.1528 104.524 80.9852 103.136 82.4073C102.124 83.4438 100.115 83.523 99.376 81.8416C98.5836 80.0389 98.7522 78.1719 101.897 78.08Z" fill="#add7ff" fill-rule="nonzero" opacity="1" stroke="none" vectornator:layerName="path"/>
<path d="M230.081 80.9025C230.167 77.7593 232.03 77.5837 233.837 78.3739C235.523 79.111 235.444 81.119 234.411 82.1322C232.992 83.5248 231.16 83.5889 230.081 80.9025Z" fill="#add7ff" fill-rule="nonzero" opacity="1" stroke="none" vectornator:layerName="path"/>
<path d="M207.993 82.9929C207.986 83.6441 207.982 84.3025 207.988 84.9607C208.004 86.5889 207.701 87.936 205.632 87.9494C204.085 87.9594 203.129 87.4179 203.053 85.7136C202.968 83.8237 203.858 82.9856 205.693 83.0183C206.187 83.0272 206.681 83.0103 207.594 83.0096C208.014 83.014 208 83 207.993 82.9929Z" fill="#add7ff" fill-rule="nonzero" opacity="1" stroke="none" vectornator:layerName="path"/>
<path d="M71.9967 131.571C71.3448 131.979 70.6856 131.978 70.0265 131.987C68.3922 132.009 67.0515 131.705 67.0462 129.627C67.0423 128.079 67.5697 127.123 69.2832 127.048C71.1722 126.966 72.0243 127.835 71.9816 129.682C71.9701 130.177 71.9861 130.671 71.9967 131.571Z" fill="#a2d1ff" fill-rule="nonzero" opacity="1" stroke="none" vectornator:layerName="path"/>
<path d="M149.081 129.902C149.167 126.759 151.03 126.584 152.837 127.374C154.523 128.111 154.444 130.119 153.411 131.132C151.992 132.525 150.16 132.589 149.081 129.902Z" fill="#add7ff" fill-rule="nonzero" opacity="1" stroke="none" vectornator:layerName="path"/>
<path d="M259.32 127.235C261.984 126.808 263.211 127.641 262.902 130.101C262.675 131.903 261.314 132.214 259.989 131.864C257.03 131.082 257.796 129.216 259.32 127.235Z" fill="#add7ff" fill-rule="nonzero" opacity="1" stroke="none" vectornator:layerName="path"/>
<path d="M229.919 74.0975C229.833 77.2407 227.97 77.4163 226.163 76.6261C224.477 75.889 224.556 73.881 225.589 72.8678C227.008 71.4752 228.84 71.4111 229.919 74.0975Z" fill="#add7ff" fill-rule="nonzero" opacity="1" stroke="none" vectornator:layerName="path"/>
<path d="M142.996 72.4194C143.644 72.0138 144.303 72.0186 144.961 72.0122C146.59 71.9963 147.936 72.3 147.949 74.3683C147.959 75.9153 147.417 76.871 145.713 76.9471C143.823 77.0316 142.985 76.1401 143.019 74.3056C143.028 73.8122 143.011 73.3183 142.996 72.4194Z" fill="#add7ff" fill-rule="nonzero" opacity="1" stroke="none" vectornator:layerName="path"/>
<path d="M143.007 71.993C142.356 71.9865 141.697 71.9821 141.039 71.9883C139.411 72.0036 138.064 71.701 138.051 69.6322C138.041 68.0853 138.582 67.1293 140.286 67.0527C142.176 66.9678 143.014 67.8585 142.982 69.6932C142.973 70.1866 142.99 70.6805 142.99 71.5942C142.986 72.0141 143 72 143.007 71.993Z" fill="#add7ff" fill-rule="nonzero" opacity="1" stroke="none" vectornator:layerName="path"/>
<path d="M74.7441 132.285C77.6568 132.549 77.4688 134.704 76.522 136.029C75.4368 137.547 73.5179 137.637 72.1164 135.364C72.8395 134.152 73.5386 133.213 74.7441 132.285Z" fill="#add7ff" fill-rule="nonzero" opacity="1" stroke="none" vectornator:layerName="path"/>
<path d="M74.6203 132.031C74.8886 133.525 74.2325 134.567 72.3756 134.954C72.04 134.242 72.0338 133.487 72.0158 132.354C72.004 131.976 72.0034 132.003 71.9899 132.003C72.7319 132.008 73.4874 132.012 74.6203 132.031Z" fill="#add7ff" fill-rule="nonzero" opacity="1" stroke="none" vectornator:layerName="path"/>
</g>
</svg>
