<?xml version="1.0" encoding="UTF-8"?>
<!DOCTYPE svg PUBLIC "-//W3C//DTD SVG 1.1//EN" "http://www.w3.org/Graphics/SVG/1.1/DTD/svg11.dtd">
<svg xmlns="http://www.w3.org/2000/svg" version="1.1" width="300px" height="71px" style="shape-rendering:geometricPrecision; text-rendering:geometricPrecision; image-rendering:optimizeQuality; fill-rule:evenodd; clip-rule:evenodd" xmlns:xlink="http://www.w3.org/1999/xlink">
<g><path style="opacity:1" fill="#f90000" d="M 151.5,20.5 C 143.167,20.5 134.833,20.5 126.5,20.5C 126.5,19.5 126.5,18.5 126.5,17.5C 134.833,17.5 143.167,17.5 151.5,17.5C 151.5,18.5 151.5,19.5 151.5,20.5 Z"/></g>
<g><path style="opacity:1" fill="#f90000" d="M 126.5,20.5 C 126.5,21.8333 126.5,23.1667 126.5,24.5C 126.5,25.5 126.5,26.5 126.5,27.5C 125.167,27.5 123.833,27.5 122.5,27.5C 121.5,27.5 120.5,27.5 119.5,27.5C 119.5,26.5 119.5,25.5 119.5,24.5C 120.5,24.5 121.5,24.5 122.5,24.5C 122.5,23.1667 122.5,21.8333 122.5,20.5C 123.833,20.5 125.167,20.5 126.5,20.5 Z"/></g>
<g><path style="opacity:1" fill="#f94722" d="M 126.5,20.5 C 134.833,20.5 143.167,20.5 151.5,20.5C 151.5,21.8333 151.5,23.1667 151.5,24.5C 143.167,24.5 134.833,24.5 126.5,24.5C 126.5,23.1667 126.5,21.8333 126.5,20.5 Z"/></g>
<g><path style="opacity:1" fill="#f90000" d="M 151.5,20.5 C 153.833,20.5 156.167,20.5 158.5,20.5C 158.5,21.8333 158.5,23.1667 158.5,24.5C 156.167,24.5 153.833,24.5 151.5,24.5C 151.5,23.1667 151.5,21.8333 151.5,20.5 Z"/></g>
<g><path style="opacity:1" fill="#f9ab33" d="M 126.5,24.5 C 134.833,24.5 143.167,24.5 151.5,24.5C 151.5,25.5 151.5,26.5 151.5,27.5C 145.5,27.5 139.5,27.5 133.5,27.5C 133.5,28.8333 133.5,30.1667 133.5,31.5C 132.167,31.5 130.833,31.5 129.5,31.5C 129.5,35.1667 129.5,38.8333 129.5,42.5C 130.833,42.5 132.167,42.5 133.5,42.5C 133.5,43.5 133.5,44.5 133.5,45.5C 139.5,45.5 145.5,45.5 151.5,45.5C 151.5,46.8333 151.5,48.1667 151.5,49.5C 143.167,49.5 134.833,49.5 126.5,49.5C 126.5,48.1667 126.5,46.8333 126.5,45.5C 125.167,45.5 123.833,45.5 122.5,45.5C 122.5,39.5 122.5,33.5 122.5,27.5C 123.833,27.5 125.167,27.5 126.5,27.5C 126.5,26.5 126.5,25.5 126.5,24.5 Z"/></g>
<g><path style="opacity:1" fill="#f94722" d="M 151.5,24.5 C 153.833,24.5 156.167,24.5 158.5,24.5C 158.5,25.5 158.5,26.5 158.5,27.5C 156.167,27.5 153.833,27.5 151.5,27.5C 151.5,26.5 151.5,25.5 151.5,24.5 Z"/></g>
<g><path style="opacity:1" fill="#f90000" d="M 158.5,24.5 C 160.833,24.5 163.167,24.5 165.5,24.5C 165.5,25.5 165.5,26.5 165.5,27.5C 163.167,27.5 160.833,27.5 158.5,27.5C 158.5,26.5 158.5,25.5 158.5,24.5 Z"/></g>
<g><path style="opacity:1" fill="#f90000" d="M 119.5,27.5 C 119.5,33.5 119.5,39.5 119.5,45.5C 118.167,45.5 116.833,45.5 115.5,45.5C 115.5,39.5 115.5,33.5 115.5,27.5C 116.833,27.5 118.167,27.5 119.5,27.5 Z"/></g>
<g><path style="opacity:1" fill="#f9e845" d="M 151.5,27.5 C 151.5,28.8333 151.5,30.1667 151.5,31.5C 153.833,31.5 156.167,31.5 158.5,31.5C 158.5,32.8333 158.5,34.1667 158.5,35.5C 177.167,36.1667 177.167,36.8333 158.5,37.5C 158.5,39.1667 158.5,40.8333 158.5,42.5C 156.167,42.5 153.833,42.5 151.5,42.5C 151.5,43.5 151.5,44.5 151.5,45.5C 145.5,45.5 139.5,45.5 133.5,45.5C 133.5,44.5 133.5,43.5 133.5,42.5C 132.167,42.5 130.833,42.5 129.5,42.5C 129.5,38.8333 129.5,35.1667 129.5,31.5C 130.833,31.5 132.167,31.5 133.5,31.5C 133.5,30.1667 133.5,28.8333 133.5,27.5C 139.5,27.5 145.5,27.5 151.5,27.5 Z"/></g>
<g><path style="opacity:1" fill="#f9ab33" d="M 151.5,27.5 C 153.833,27.5 156.167,27.5 158.5,27.5C 158.5,28.8333 158.5,30.1667 158.5,31.5C 156.167,31.5 153.833,31.5 151.5,31.5C 151.5,30.1667 151.5,28.8333 151.5,27.5 Z"/></g>
<g><path style="opacity:1" fill="#f94722" d="M 158.5,27.5 C 160.833,27.5 163.167,27.5 165.5,27.5C 165.5,28.8333 165.5,30.1667 165.5,31.5C 163.167,31.5 160.833,31.5 158.5,31.5C 158.5,30.1667 158.5,28.8333 158.5,27.5 Z"/></g>
<g><path style="opacity:1" fill="#f90000" d="M 165.5,27.5 C 167.833,27.5 170.167,27.5 172.5,27.5C 172.5,28.8333 172.5,30.1667 172.5,31.5C 170.167,31.5 167.833,31.5 165.5,31.5C 165.5,30.1667 165.5,28.8333 165.5,27.5 Z"/></g>
<g><path style="opacity:1" fill="#f9ab33" d="M 158.5,31.5 C 160.833,31.5 163.167,31.5 165.5,31.5C 165.5,32.5 165.5,33.5 165.5,34.5C 167.833,34.5 170.167,34.5 172.5,34.5C 173.5,34.5 174.5,34.5 175.5,34.5C 175.5,35.8333 175.5,37.1667 175.5,38.5C 172.167,38.5 168.833,38.5 165.5,38.5C 165.5,39.5 165.5,40.5 165.5,41.5C 165.5,41.8333 165.5,42.1667 165.5,42.5C 163.167,42.5 160.833,42.5 158.5,42.5C 158.5,40.8333 158.5,39.1667 158.5,37.5C 177.167,36.8333 177.167,36.1667 158.5,35.5C 158.5,34.1667 158.5,32.8333 158.5,31.5 Z"/></g>
<g><path style="opacity:1" fill="#f94722" d="M 165.5,31.5 C 167.833,31.5 170.167,31.5 172.5,31.5C 172.5,32.5 172.5,33.5 172.5,34.5C 170.167,34.5 167.833,34.5 165.5,34.5C 165.5,33.5 165.5,32.5 165.5,31.5 Z"/></g>
<g><path style="opacity:1" fill="#f90000" d="M 172.5,31.5 C 175.167,31.5 177.833,31.5 180.5,31.5C 180.5,32.5 180.5,33.5 180.5,34.5C 181.5,34.5 182.5,34.5 183.5,34.5C 183.5,35.8333 183.5,37.1667 183.5,38.5C 182.5,38.5 181.5,38.5 180.5,38.5C 180.5,39.8333 180.5,41.1667 180.5,42.5C 177.833,42.5 175.167,42.5 172.5,42.5C 172.5,43.5 172.5,44.5 172.5,45.5C 170.167,45.5 167.833,45.5 165.5,45.5C 165.5,44.5 165.5,43.5 165.5,42.5C 165.5,42.1667 165.5,41.8333 165.5,41.5C 169.842,41.2605 174.176,40.9272 178.5,40.5C 178.5,38.5 178.5,36.5 178.5,34.5C 177.5,34.5 176.5,34.5 175.5,34.5C 174.5,34.5 173.5,34.5 172.5,34.5C 172.5,33.5 172.5,32.5 172.5,31.5 Z"/></g>
<g><path style="opacity:1" fill="#f94722" d="M 175.5,34.5 C 176.5,34.5 177.5,34.5 178.5,34.5C 178.5,36.5 178.5,38.5 178.5,40.5C 174.176,40.9272 169.842,41.2605 165.5,41.5C 165.5,40.5 165.5,39.5 165.5,38.5C 168.833,38.5 172.167,38.5 175.5,38.5C 175.5,37.1667 175.5,35.8333 175.5,34.5 Z"/></g>
<g><path style="opacity:1" fill="#f9ab33" d="M 158.5,42.5 C 158.5,43.5 158.5,44.5 158.5,45.5C 156.167,45.5 153.833,45.5 151.5,45.5C 151.5,44.5 151.5,43.5 151.5,42.5C 153.833,42.5 156.167,42.5 158.5,42.5 Z"/></g>
<g><path style="opacity:1" fill="#f94722" d="M 158.5,42.5 C 160.833,42.5 163.167,42.5 165.5,42.5C 165.5,43.5 165.5,44.5 165.5,45.5C 163.167,45.5 160.833,45.5 158.5,45.5C 158.5,44.5 158.5,43.5 158.5,42.5 Z"/></g>
<g><path style="opacity:1" fill="#f94722" d="M 151.5,45.5 C 153.833,45.5 156.167,45.5 158.5,45.5C 159.234,46.7079 159.567,48.0413 159.5,49.5C 159.167,49.5 158.833,49.5 158.5,49.5C 156.167,49.5 153.833,49.5 151.5,49.5C 151.5,48.1667 151.5,46.8333 151.5,45.5 Z"/></g>
<g><path style="opacity:1" fill="#f90000" d="M 158.5,45.5 C 160.833,45.5 163.167,45.5 165.5,45.5C 165.5,46.8333 165.5,48.1667 165.5,49.5C 163.5,49.5 161.5,49.5 159.5,49.5C 159.567,48.0413 159.234,46.7079 158.5,45.5 Z"/></g>
<g><path style="opacity:1" fill="#fa4220" d="M 119.5,27.5 C 120.5,27.5 121.5,27.5 122.5,27.5C 122.5,33.5 122.5,39.5 122.5,45.5C 123.833,45.5 125.167,45.5 126.5,45.5C 126.5,46.8333 126.5,48.1667 126.5,49.5C 134.833,49.5 143.167,49.5 151.5,49.5C 151.5,50.5 151.5,51.5 151.5,52.5C 143.167,52.5 134.833,52.5 126.5,52.5C 125.167,52.5 123.833,52.5 122.5,52.5C 122.5,51.5 122.5,50.5 122.5,49.5C 121.5,49.5 120.5,49.5 119.5,49.5C 119.5,48.1667 119.5,46.8333 119.5,45.5C 119.5,39.5 119.5,33.5 119.5,27.5 Z"/></g>
<g><path style="opacity:1" fill="#f90000" d="M 151.5,49.5 C 153.833,49.5 156.167,49.5 158.5,49.5C 158.5,50.5 158.5,51.5 158.5,52.5C 156.167,52.5 153.833,52.5 151.5,52.5C 151.5,51.5 151.5,50.5 151.5,49.5 Z"/></g>
<g><path style="opacity:1" fill="#f90000" d="M 126.5,52.5 C 134.833,52.5 143.167,52.5 151.5,52.5C 151.5,53.8333 151.5,55.1667 151.5,56.5C 143.167,56.5 134.833,56.5 126.5,56.5C 126.5,55.1667 126.5,53.8333 126.5,52.5 Z"/></g>
</svg>
