<?xml version="1.0" encoding="UTF-8" standalone="no"?>
<!DOCTYPE svg PUBLIC "-//W3C//DTD SVG 1.1//EN" "http://www.w3.org/Graphics/SVG/1.1/DTD/svg11.dtd">
<!-- Created with Vectornator (http://vectornator.io/) -->
<svg height="100%" stroke-miterlimit="10" style="fill-rule:nonzero;clip-rule:evenodd;stroke-linecap:round;stroke-linejoin:round;" version="1.1" viewBox="0 0 400 400" width="100%" xml:space="preserve" xmlns="http://www.w3.org/2000/svg" xmlns:vectornator="http://vectornator.io" xmlns:xlink="http://www.w3.org/1999/xlink">
<defs/>
<clipPath id="ArtboardFrame">
<rect height="400" width="400" x="0" y="0"/>
</clipPath>
<g clip-path="url(#ArtboardFrame)" id="Sans-titre" vectornator:layerName="Sans titre">
<path d="M187 401C124.686 401 62.872 401 1.02898 401C1.02898 267.728 1.02898 134.455 1.02898 1.09147C134.231 1.09147 267.461 1.09147 400.846 1.09147C400.846 134.333 400.846 267.667 400.846 401C329.789 401 258.644 401 187 401M65.0205 256.98C65.0205 256.98 64.9516 256.98 64.9847 257.917C64.9847 262.842 64.9847 267.767 64.9847 272.552C72.9937 273.469 72.9943 273.469 72.9997 280.631C73.0016 283.241 73 285.851 73 288.604C75.931 288.895 78.1857 289.119 80.6466 289.363C80.9125 291.998 81.1525 294.376 81.3793 296.624C84.2179 296.954 86.4656 297.215 88.6542 297.469C88.9437 300.149 89.1865 302.396 89.4897 305.203C94.7823 305.203 99.6921 305.203 104.63 305.203C104.926 308.059 105.16 310.314 105.4 312.63C121.364 312.63 136.931 312.63 152.644 312.63C152.915 310.028 153.149 307.777 153.443 304.95C161.271 304.95 168.849 304.95 176.601 304.95C176.886 302.11 177.113 299.856 177.363 297.367C179.958 297.103 182.345 296.86 184.641 296.627C184.945 293.833 185.19 291.58 185.434 289.333C188.108 289.062 190.356 288.835 193.168 288.551C193.168 283.26 193.168 278.35 193.168 273.378C196.018 273.075 198.269 272.835 201.092 272.534C201.092 267.35 201.092 262.435 201.092 257.395C203.934 257.099 206.185 256.865 208.685 256.606C208.685 243.432 208.685 230.531 208.685 217.385C206.029 217.094 203.654 216.833 200.728 216.512C200.728 211.14 200.728 206.232 200.728 201.368C197.864 201.061 195.615 200.82 192.805 200.519C192.805 195.228 192.805 190.318 192.805 185.373C189.951 185.075 187.7 184.84 184.881 184.546C184.881 179.318 184.881 174.404 184.881 169.383C182.036 169.088 179.784 168.854 176.956 168.561C176.956 163.407 176.956 158.489 176.956 153.408C174.119 153.116 171.868 152.884 168.858 152.574C168.858 144.708 168.858 137.002 168.858 129.4C165.825 129.056 163.58 128.802 160.777 128.484C160.777 123.194 160.777 118.284 160.777 113.361C157.92 113.07 155.669 112.84 152.853 112.553C152.853 107.284 152.853 102.373 152.853 97.3754C150.005 97.0777 147.753 96.8423 144.919 96.546C144.919 91.3789 144.919 86.4649 144.919 81.3265C139.393 81.3265 134.493 81.3265 129.279 81.3265C129.122 84.0855 128.982 86.5408 127.966 88.9988C125.848 88.9988 123.729 88.9988 120.893 88.9988C120.893 94.5872 120.893 99.6334 120.893 104.662C117.92 104.94 115.666 105.15 112.89 105.409C112.89 110.672 112.89 115.588 112.89 120.648C110.09 120.904 107.835 121.11 104.878 121.381C104.878 126.619 104.878 131.662 104.878 136.661C101.895 136.944 99.6415 137.158 96.8675 137.421C96.8675 142.697 96.8675 147.612 96.8675 152.656C94.0661 152.913 91.8112 153.12 88.851 153.391C88.851 158.636 88.851 163.677 88.851 168.654C85.8651 168.947 83.6143 169.168 80.8455 169.44C80.8455 174.723 80.8455 179.637 80.8455 184.664C78.042 184.922 75.7871 185.129 72.8237 185.401C72.8237 190.66 72.8237 195.699 72.8237 200.643C69.8347 200.95 67.5871 201.182 64.8234 201.466C64.8234 206.751 64.8234 211.663 64.8234 216.671C62.0179 216.93 59.7632 217.138 57.1664 217.377C57.1664 228.109 57.1664 238.554 57.0535 249.845C57.0409 256.913 57.0409 256.913 65.0205 256.98Z" fill="#ffffff" fill-opacity="0" fill-rule="nonzero" opacity="1" stroke="none" vectornator:layerName="path"/>
<path d="M57.1664 248.998C57.1664 238.554 57.1664 228.109 57.1664 217.377C59.7632 217.138 62.0179 216.93 64.8234 216.671C64.8234 211.663 64.8234 206.751 64.8234 201.466C67.5871 201.182 69.8347 200.95 72.8237 200.643C72.8237 195.699 72.8237 190.66 72.8237 185.401C75.7871 185.129 78.042 184.922 80.8455 184.664C80.8455 179.637 80.8455 174.723 80.8455 169.44C83.6143 169.168 85.8651 168.947 88.851 168.654C88.851 163.677 88.851 158.636 88.851 153.391C91.8112 153.12 94.0661 152.913 96.8675 152.656C96.8675 147.612 96.8675 142.697 96.8675 137.421C99.6415 137.158 101.895 136.944 104.878 136.661C104.878 131.662 104.878 126.619 104.878 121.381C107.835 121.11 110.09 120.904 112.89 120.648C112.89 115.588 112.89 110.672 112.89 105.409C115.666 105.15 117.92 104.94 120.893 104.662C120.893 99.6334 120.893 94.5872 120.893 88.9988C123.729 88.9988 125.848 88.9988 128.454 89.4633C128.962 95.9267 129.115 101.929 128.95 107.923C128.857 111.295 129.452 113.517 133.51 113.034C136.087 112.727 137.084 114.079 137.008 116.592C136.916 119.589 136.76 122.623 137.143 125.574C137.301 126.789 138.898 128.864 139.657 128.785C144.979 128.232 145.31 131.326 145.029 135.258C144.875 137.413 144.696 139.66 145.15 141.728C145.417 142.943 146.985 144.868 147.826 144.797C152.728 144.384 153.356 147.068 153.03 150.924C152.862 152.909 153.124 154.93 152.981 156.919C152.766 159.905 153.96 161.335 157.003 160.996C160.57 160.599 161.102 162.663 161.032 165.588C160.909 170.751 160.827 175.93 161.131 181.078C161.21 182.415 162.896 184.835 163.652 184.762C168.969 184.252 169.339 187.318 169.022 191.254C168.889 192.909 169.119 194.595 168.978 196.249C168.703 199.485 169.618 201.447 173.336 201.021C176.226 200.69 177.041 202.257 177.022 204.918C176.943 215.75 177.078 226.584 176.852 237.411C176.826 238.615 174.941 240.834 174.011 240.786C169.514 240.554 168.587 242.771 168.966 246.584C169.163 248.564 168.872 250.59 169.024 252.578C169.261 255.688 168.217 257.392 164.837 257.006C161.616 256.638 160.741 258.434 160.997 261.231C161.252 264.027 159.962 265.288 157.201 264.987C153.862 264.622 152.66 266.222 152.986 269.369C153.29 272.296 151.695 273.245 149.063 272.993C146.081 272.706 144.669 273.962 145 277.006C145.333 280.063 143.894 281.292 140.925 281.007C138.281 280.753 136.687 281.731 137.019 284.642C137.439 288.321 135.536 289.094 132.273 289.049C121.943 288.908 111.609 288.945 101.278 289.027C98.511 289.048 96.6399 288.451 97.0097 285.195C97.3894 281.852 95.7649 280.662 92.6249 280.986C89.692 281.29 88.7551 279.684 89.0075 277.057C89.2948 274.068 88.0252 272.671 84.9883 273C81.9288 273.33 80.7261 271.894 80.9882 268.918C81.1047 267.595 81.0092 266.253 81.4757 264.954C86.8681 264.988 91.7947 264.988 96.8201 264.988C96.9726 262.015 97.096 259.61 97.2204 257.185C100.048 257.028 102.443 256.896 104.605 256.777C104.605 251.204 104.605 246.153 104.605 241.243C99.2705 241.243 94.3345 241.243 89.1832 241.243C89.0495 243.872 88.9273 246.275 88.7993 248.792C86.0693 248.959 83.6705 249.106 81.0798 249.265C81.0798 254.74 81.0798 259.865 80.6309 264.993C76.142 265.191 71.9441 265.705 72.7903 259.326C72.8751 258.687 71.3021 257.365 70.3248 257.15C68.6045 256.771 66.75 257.004 64.9516 256.98C64.9516 256.98 65.0205 256.98 65.014 256.567C64.9647 249.017 64.9647 249.017 57.6639 248.999C57.4981 248.998 57.3322 248.998 57.1664 248.998M121 158.602C121 156.827 121 155.053 121 153.19C123.987 153.029 126.395 152.899 128.611 152.78C128.611 147.242 128.611 142.179 128.611 137.252C123.271 137.252 118.324 137.252 113.223 137.252C113.056 139.898 112.904 142.307 112.746 144.818C110.028 144.97 107.625 145.104 104.759 145.263C104.759 153.406 104.759 161.146 104.759 169.165C101.976 169.165 99.6925 169.165 97.1949 169.165C97.0521 171.86 96.9239 174.278 96.7901 176.802C94.0563 176.964 91.6526 177.108 88.7865 177.278C88.7865 182.715 88.7865 187.794 88.7865 193.146C86.0087 193.146 83.7271 193.146 80.9591 193.146C80.9591 198.508 80.9591 203.591 80.9591 208.779C78.0738 208.958 75.6708 209.107 73.343 209.252C73.343 220.03 73.343 230.432 73.343 240.608C76.0931 240.608 78.4913 240.608 81.1875 240.608C81.1875 237.934 81.1875 235.655 81.1875 233.225C83.8961 233.054 86.3093 232.903 88.8322 232.744C88.9724 230.016 89.0962 227.606 89.2342 224.921C91.943 224.921 94.2225 224.921 96.9901 224.921C96.9901 219.554 96.9901 214.472 96.9901 208.922C99.8726 208.922 102.269 208.922 105.144 208.922C105.144 200.701 105.144 192.955 105.144 185.193C108.038 185.029 110.441 184.894 113.135 184.742C113.135 179.314 113.135 174.366 113.135 168.944C115.854 168.944 118.25 168.944 121 168.944C121 165.492 121 162.525 121 158.602Z" fill="#3d5c79" fill-rule="nonzero" opacity="1" stroke="none" vectornator:layerName="path"/>
<path d="M64.9682 257.449C66.75 257.004 68.6045 256.771 70.3248 257.15C71.3021 257.365 72.8751 258.687 72.7903 259.326C71.9441 265.705 76.142 265.191 80.5954 264.994C81.0088 264.991 81.0099 264.92 81.0099 264.92C81.0092 266.253 81.1047 267.595 80.9882 268.918C80.7261 271.894 81.9288 273.33 84.9883 273C88.0252 272.671 89.2948 274.068 89.0075 277.057C88.7551 279.684 89.692 281.29 92.6249 280.986C95.7649 280.662 97.3894 281.852 97.0097 285.195C96.6399 288.451 98.511 289.048 101.278 289.027C111.609 288.945 121.943 288.908 132.273 289.049C135.536 289.094 137.439 288.321 137.019 284.642C136.687 281.731 138.281 280.753 140.925 281.007C143.894 281.292 145.333 280.063 145 277.006C144.669 273.962 146.081 272.706 149.063 272.993C151.695 273.245 153.29 272.296 152.986 269.369C152.66 266.222 153.862 264.622 157.201 264.987C159.962 265.288 161.252 264.027 160.997 261.231C160.741 258.434 161.616 256.638 164.837 257.006C168.217 257.392 169.261 255.688 169.024 252.578C168.872 250.59 169.163 248.564 168.966 246.584C168.587 242.771 169.514 240.554 174.011 240.786C174.941 240.834 176.826 238.615 176.852 237.411C177.078 226.584 176.943 215.75 177.022 204.918C177.041 202.257 176.226 200.69 173.336 201.021C169.618 201.447 168.703 199.485 168.978 196.249C169.119 194.595 168.889 192.909 169.022 191.254C169.339 187.318 168.969 184.252 163.652 184.762C162.896 184.835 161.21 182.415 161.131 181.078C160.827 175.93 160.909 170.751 161.032 165.588C161.102 162.663 160.57 160.599 157.003 160.996C153.96 161.335 152.766 159.905 152.981 156.919C153.124 154.93 152.862 152.909 153.03 150.924C153.356 147.068 152.728 144.384 147.826 144.797C146.985 144.868 145.417 142.943 145.15 141.728C144.696 139.66 144.875 137.413 145.029 135.258C145.31 131.326 144.979 128.232 139.657 128.785C138.898 128.864 137.301 126.789 137.143 125.574C136.76 122.623 136.916 119.589 137.008 116.592C137.084 114.079 136.087 112.727 133.51 113.034C129.452 113.517 128.857 111.295 128.95 107.923C129.115 101.929 128.962 95.9267 128.892 89.4618C128.982 86.5408 129.122 84.0855 129.279 81.3265C134.493 81.3265 139.393 81.3265 144.919 81.3265C144.919 86.4649 144.919 91.3789 144.919 96.546C147.753 96.8423 150.005 97.0777 152.853 97.3754C152.853 102.373 152.853 107.284 152.853 112.553C155.669 112.84 157.92 113.07 160.777 113.361C160.777 118.284 160.777 123.194 160.777 128.484C163.58 128.802 165.825 129.056 168.858 129.4C168.858 137.002 168.858 144.708 168.858 152.574C171.868 152.884 174.119 153.116 176.956 153.408C176.956 158.489 176.956 163.407 176.956 168.561C179.784 168.854 182.036 169.088 184.881 169.383C184.881 174.404 184.881 179.318 184.881 184.546C187.7 184.84 189.951 185.075 192.805 185.373C192.805 190.318 192.805 195.228 192.805 200.519C195.615 200.82 197.864 201.061 200.728 201.368C200.728 206.232 200.728 211.14 200.728 216.512C203.654 216.833 206.029 217.094 208.685 217.385C208.685 230.531 208.685 243.432 208.685 256.606C206.185 256.865 203.934 257.099 201.092 257.395C201.092 262.435 201.092 267.35 201.092 272.534C198.269 272.835 196.018 273.075 193.168 273.378C193.168 278.35 193.168 283.26 193.168 288.551C190.356 288.835 188.108 289.062 185.434 289.333C185.19 291.58 184.945 293.833 184.641 296.627C182.345 296.86 179.958 297.103 177.363 297.367C177.113 299.856 176.886 302.11 176.601 304.95C168.849 304.95 161.271 304.95 153.443 304.95C153.149 307.777 152.915 310.028 152.644 312.63C136.931 312.63 121.364 312.63 105.4 312.63C105.16 310.314 104.926 308.059 104.63 305.203C99.6921 305.203 94.7823 305.203 89.4897 305.203C89.1865 302.396 88.9437 300.149 88.6542 297.469C86.4656 297.215 84.2179 296.954 81.3793 296.624C81.1525 294.376 80.9125 291.998 80.6466 289.363C78.1857 289.119 75.931 288.895 73 288.604C73 285.851 73.0016 283.241 72.9997 280.631C72.9943 273.469 72.9937 273.469 64.9847 272.552C64.9847 267.767 64.9847 262.842 64.9682 257.449Z" fill="#873529" fill-rule="nonzero" opacity="1" stroke="none" vectornator:layerName="path"/>
<path d="M57.11 249.422C57.3322 248.998 57.4981 248.998 57.6639 248.999C64.9647 249.017 64.9647 249.017 65.0135 256.602C57.0409 256.913 57.0409 256.913 57.11 249.422Z" fill="#873529" fill-rule="nonzero" opacity="1" stroke="none" vectornator:layerName="path"/>
<path d="M121 159.079C121 162.525 121 165.492 121 168.944C118.25 168.944 115.854 168.944 113.135 168.944C113.135 174.366 113.135 179.314 113.135 184.742C110.441 184.894 108.038 185.029 105.144 185.193C105.144 192.955 105.144 200.701 105.144 208.922C102.269 208.922 99.8726 208.922 96.9901 208.922C96.9901 214.472 96.9901 219.554 96.9901 224.921C94.2225 224.921 91.943 224.921 89.2342 224.921C89.0962 227.606 88.9724 230.016 88.8322 232.744C86.3093 232.903 83.8961 233.054 81.1875 233.225C81.1875 235.655 81.1875 237.934 81.1875 240.608C78.4913 240.608 76.0931 240.608 73.343 240.608C73.343 230.432 73.343 220.03 73.343 209.252C75.6708 209.107 78.0738 208.958 80.9591 208.779C80.9591 203.591 80.9591 198.508 80.9591 193.146C83.7271 193.146 86.0087 193.146 88.7865 193.146C88.7865 187.794 88.7865 182.715 88.7865 177.278C91.6526 177.108 94.0563 176.964 96.7901 176.802C96.9239 174.278 97.0521 171.86 97.1949 169.165C99.6925 169.165 101.976 169.165 104.759 169.165C104.759 161.146 104.759 153.406 104.759 145.263C107.625 145.104 110.028 144.97 112.746 144.818C112.904 142.307 113.056 139.898 113.223 137.252C118.324 137.252 123.271 137.252 128.611 137.252C128.611 142.179 128.611 147.242 128.611 152.78C126.395 152.899 123.987 153.029 121 153.19C121 155.053 121 156.827 121 159.079Z" fill="#ffffff" fill-rule="nonzero" opacity="1" stroke="none" vectornator:layerName="path"/>
<path d="M81.0443 264.991C81.0798 259.865 81.0798 254.74 81.0798 249.265C83.6705 249.106 86.0693 248.959 88.7993 248.792C88.9273 246.275 89.0495 243.872 89.1832 241.243C94.3345 241.243 99.2705 241.243 104.605 241.243C104.605 246.153 104.605 251.204 104.605 256.777C102.443 256.896 100.048 257.028 97.2204 257.185C97.096 259.61 96.9726 262.015 96.8201 264.988C91.7947 264.988 86.8681 264.988 81.4757 264.954C81.0099 264.92 81.0088 264.991 81.0443 264.991Z" fill="#ffffff" fill-rule="nonzero" opacity="1" stroke="none" vectornator:layerName="path"/>
</g>
</svg>
