<?xml version="1.0" encoding="UTF-8"?>
<!DOCTYPE svg PUBLIC "-//W3C//DTD SVG 1.1//EN" "http://www.w3.org/Graphics/SVG/1.1/DTD/svg11.dtd">
<svg xmlns="http://www.w3.org/2000/svg" version="1.1" width="1920px" height="473px" style="shape-rendering:geometricPrecision; text-rendering:geometricPrecision; image-rendering:optimizeQuality; fill-rule:evenodd; clip-rule:evenodd" xmlns:xlink="http://www.w3.org/1999/xlink">
<g><path style="opacity:1" fill="#0fff0e" d="M 619.5,-0.5 C 624.5,-0.5 629.5,-0.5 634.5,-0.5C 634.5,9.5 634.5,19.5 634.5,29.5C 629.5,29.5 624.5,29.5 619.5,29.5C 619.5,34.1667 619.5,38.8333 619.5,43.5C 624.5,43.5 629.5,43.5 634.5,43.5C 634.5,48.5 634.5,53.5 634.5,58.5C 639.5,58.5 644.5,58.5 649.5,58.5C 649.5,53.5 649.5,48.5 649.5,43.5C 669.167,43.5 688.833,43.5 708.5,43.5C 708.5,48.5 708.5,53.5 708.5,58.5C 723.167,58.5 737.833,58.5 752.5,58.5C 752.5,43.8333 752.5,29.1667 752.5,14.5C 757.167,14.5 761.833,14.5 766.5,14.5C 766.5,9.5 766.5,4.5 766.5,-0.5C 771.833,-0.5 777.167,-0.5 782.5,-0.5C 782.5,19.1667 782.5,38.8333 782.5,58.5C 782.5,63.1667 782.5,67.8333 782.5,72.5C 788.5,72.5 794.5,72.5 800.5,72.5C 800.5,67.8333 800.5,63.1667 800.5,58.5C 810.167,58.5 819.833,58.5 829.5,58.5C 829.5,62.1667 829.5,65.8333 829.5,69.5C 833.167,69.5 836.833,69.5 840.5,69.5C 840.5,65.8333 840.5,62.1667 840.5,58.5C 860.167,58.5 879.833,58.5 899.5,58.5C 899.5,53.5 899.5,48.5 899.5,43.5C 920.5,43.5 941.5,43.5 962.5,43.5C 962.5,38.8333 962.5,34.1667 962.5,29.5C 966.833,29.5 971.167,29.5 975.5,29.5C 975.5,33.8333 975.5,38.1667 975.5,42.5C 980.167,42.5 984.833,42.5 989.5,42.5C 989.5,47.8333 989.5,53.1667 989.5,58.5C 1009.5,58.5 1029.5,58.5 1049.5,58.5C 1049.5,63.5 1049.5,68.5 1049.5,73.5C 1063.83,73.5 1078.17,73.5 1092.5,73.5C 1092.5,64.5 1092.5,55.5 1092.5,46.5C 1098.83,46.5 1105.17,46.5 1111.5,46.5C 1111.5,41.1667 1111.5,35.8333 1111.5,30.5C 1116.83,30.5 1122.17,30.5 1127.5,30.5C 1127.5,36.1667 1127.5,41.8333 1127.5,47.5C 1122.17,47.5 1116.83,47.5 1111.5,47.5C 1111.5,51.1667 1111.5,54.8333 1111.5,58.5C 1159.17,58.5 1206.83,58.5 1254.5,58.5C 1254.5,48.8333 1254.5,39.1667 1254.5,29.5C 1259.5,29.5 1264.5,29.5 1269.5,29.5C 1269.5,24.5 1269.5,19.5 1269.5,14.5C 1274.5,14.5 1279.5,14.5 1284.5,14.5C 1284.5,29.1667 1284.5,43.8333 1284.5,58.5C 1294.17,58.5 1303.83,58.5 1313.5,58.5C 1313.5,63.1667 1313.5,67.8333 1313.5,72.5C 1318.5,72.5 1323.5,72.5 1328.5,72.5C 1328.5,62.8333 1328.5,53.1667 1328.5,43.5C 1333.5,43.5 1338.5,43.5 1343.5,43.5C 1343.5,53.5 1343.5,63.5 1343.5,73.5C 1353.17,73.5 1362.83,73.5 1372.5,73.5C 1372.5,68.5 1372.5,63.5 1372.5,58.5C 1382.17,58.5 1391.83,58.5 1401.5,58.5C 1401.5,53.1667 1401.5,47.8333 1401.5,42.5C 1406.83,42.5 1412.17,42.5 1417.5,42.5C 1417.5,47.5 1417.5,52.5 1417.5,57.5C 1426.83,57.5 1436.17,57.5 1445.5,57.5C 1445.5,52.8333 1445.5,48.1667 1445.5,43.5C 1455.83,43.5 1466.17,43.5 1476.5,43.5C 1476.5,48.5 1476.5,53.5 1476.5,58.5C 1490.83,58.5 1505.17,58.5 1519.5,58.5C 1519.75,63.5068 1520.08,68.5068 1520.5,73.5C 1525.17,73.5 1529.83,73.5 1534.5,73.5C 1534.5,63.5 1534.5,53.5 1534.5,43.5C 1539.83,43.5 1545.17,43.5 1550.5,43.5C 1550.5,53.1667 1550.5,62.8333 1550.5,72.5C 1559.83,72.5 1569.17,72.5 1578.5,72.5C 1578.5,62.8333 1578.5,53.1667 1578.5,43.5C 1583.5,43.5 1588.5,43.5 1593.5,43.5C 1593.5,38.8333 1593.5,34.1667 1593.5,29.5C 1598.83,29.5 1604.17,29.5 1609.5,29.5C 1609.5,44.1667 1609.5,58.8333 1609.5,73.5C 1619.17,73.5 1628.83,73.5 1638.5,73.5C 1643.64,74.4881 1648.97,74.8214 1654.5,74.5C 1654.5,69.1667 1654.5,63.8333 1654.5,58.5C 1659.17,58.5 1663.83,58.5 1668.5,58.5C 1668.5,53.5 1668.5,48.5 1668.5,43.5C 1673.5,43.5 1678.5,43.5 1683.5,43.5C 1683.5,48.5 1683.5,53.5 1683.5,58.5C 1688.17,58.5 1692.83,58.5 1697.5,58.5C 1697.5,63.1667 1697.5,67.8333 1697.5,72.5C 1707.5,72.5 1717.5,72.5 1727.5,72.5C 1727.5,62.8333 1727.5,53.1667 1727.5,43.5C 1732.5,43.5 1737.5,43.5 1742.5,43.5C 1742.5,38.5 1742.5,33.5 1742.5,28.5C 1747.5,28.5 1752.5,28.5 1757.5,28.5C 1757.5,33.8333 1757.5,39.1667 1757.5,44.5C 1752.5,44.5 1747.5,44.5 1742.5,44.5C 1742.5,54.1667 1742.5,63.8333 1742.5,73.5C 1767.17,73.5 1791.83,73.5 1816.5,73.5C 1816.5,68.5 1816.5,63.5 1816.5,58.5C 1842.83,58.5 1869.17,58.5 1895.5,58.5C 1895.5,63.1667 1895.5,67.8333 1895.5,72.5C 1901.17,72.5 1906.83,72.5 1912.5,72.5C 1912.5,67.8333 1912.5,63.1667 1912.5,58.5C 1914.83,58.5 1917.17,58.5 1919.5,58.5C 1919.5,68.5 1919.5,78.5 1919.5,88.5C 1899.83,88.5 1880.17,88.5 1860.5,88.5C 1850.5,88.5 1840.5,88.5 1830.5,88.5C 1830.5,93.5 1830.5,98.5 1830.5,103.5C 1811.17,103.5 1791.83,103.5 1772.5,103.5C 1767.5,103.5 1762.5,103.5 1757.5,103.5C 1757.5,98.1667 1757.5,92.8333 1757.5,87.5C 1747.5,87.5 1737.5,87.5 1727.5,87.5C 1727.5,92.5 1727.5,97.5 1727.5,102.5C 1722.5,102.5 1717.5,102.5 1712.5,102.5C 1712.5,107.167 1712.5,111.833 1712.5,116.5C 1707.69,117.487 1702.69,117.821 1697.5,117.5C 1692.83,117.5 1688.17,117.5 1683.5,117.5C 1683.5,112.5 1683.5,107.5 1683.5,102.5C 1668.83,102.5 1654.17,102.5 1639.5,102.5C 1639.5,97.5 1639.5,92.5 1639.5,87.5C 1634.17,87.5 1628.83,87.5 1623.5,87.5C 1623.5,92.8333 1623.5,98.1667 1623.5,103.5C 1613.83,103.5 1604.17,103.5 1594.5,103.5C 1594.5,98.5 1594.5,93.5 1594.5,88.5C 1589.5,88.5 1584.5,88.5 1579.5,88.5C 1564.83,88.5 1550.17,88.5 1535.5,88.5C 1515.83,88.5 1496.17,88.5 1476.5,88.5C 1471.17,88.5 1465.83,88.5 1460.5,88.5C 1436.17,88.5 1411.83,88.5 1387.5,88.5C 1387.5,93.1667 1387.5,97.8333 1387.5,102.5C 1378.5,102.5 1369.5,102.5 1360.5,102.5C 1360.5,96.5 1360.5,90.5 1360.5,84.5C 1354.5,84.5 1348.5,84.5 1342.5,84.5C 1342.5,90.5 1342.5,96.5 1342.5,102.5C 1342.5,107.5 1342.5,112.5 1342.5,117.5C 1322.83,117.5 1303.17,117.5 1283.5,117.5C 1283.5,122.5 1283.5,127.5 1283.5,132.5C 1269.17,132.5 1254.83,132.5 1240.5,132.5C 1240.5,127.5 1240.5,122.5 1240.5,117.5C 1215.83,117.5 1191.17,117.5 1166.5,117.5C 1166.5,112.833 1166.5,108.167 1166.5,103.5C 1151.83,103.5 1137.17,103.5 1122.5,103.5C 1122.5,98.5 1122.5,93.5 1122.5,88.5C 1112.5,88.5 1102.5,88.5 1092.5,88.5C 1092.5,93.5 1092.5,98.5 1092.5,103.5C 1087.5,103.5 1082.5,103.5 1077.5,103.5C 1077.5,108.167 1077.5,112.833 1077.5,117.5C 1048.17,117.5 1018.83,117.5 989.5,117.5C 989.5,112.5 989.5,107.5 989.5,102.5C 979.5,102.5 969.5,102.5 959.5,102.5C 953.833,102.5 948.167,102.5 942.5,102.5C 942.5,107.5 942.5,112.5 942.5,117.5C 933.5,117.5 924.5,117.5 915.5,117.5C 905.5,117.5 895.5,117.5 885.5,117.5C 885.5,112.833 885.5,108.167 885.5,103.5C 890.833,103.5 896.167,103.5 901.5,103.5C 901.5,98.5 901.5,93.5 901.5,88.5C 896.167,88.5 890.833,88.5 885.5,88.5C 885.5,93.1667 885.5,97.8333 885.5,102.5C 797.167,102.5 708.833,102.5 620.5,102.5C 620.5,97.5 620.5,92.5 620.5,87.5C 614.833,87.5 609.167,87.5 603.5,87.5C 603.5,92.5 603.5,97.5 603.5,102.5C 540.167,102.5 476.833,102.5 413.5,102.5C 413.5,107.5 413.5,112.5 413.5,117.5C 403.5,117.5 393.5,117.5 383.5,117.5C 383.5,112.5 383.5,107.5 383.5,102.5C 373.5,102.5 363.5,102.5 353.5,102.5C 353.5,97.8333 353.5,93.1667 353.5,88.5C 333.833,88.5 314.167,88.5 294.5,88.5C 294.5,93.5 294.5,98.5 294.5,103.5C 265.167,103.5 235.833,103.5 206.5,103.5C 206.5,108.167 206.5,112.833 206.5,117.5C 186.833,117.5 167.167,117.5 147.5,117.5C 147.5,112.833 147.5,108.167 147.5,103.5C 133.167,103.5 118.833,103.5 104.5,103.5C 104.5,98.5 104.5,93.5 104.5,88.5C 79.5,88.5 54.5,88.5 29.5,88.5C 29.5,83.5 29.5,78.5 29.5,73.5C 19.5,73.5 9.5,73.5 -0.5,73.5C -0.5,58.8333 -0.5,44.1667 -0.5,29.5C 4.5,29.5 9.5,29.5 14.5,29.5C 14.5,39.1667 14.5,48.8333 14.5,58.5C 34.1667,58.5 53.8333,58.5 73.5,58.5C 73.5,53.5 73.5,48.5 73.5,43.5C 78.5,43.5 83.5,43.5 88.5,43.5C 88.5,38.8333 88.5,34.1667 88.5,29.5C 93.1667,29.5 97.8333,29.5 102.5,29.5C 102.5,39.1667 102.5,48.8333 102.5,58.5C 117.5,58.5 132.5,58.5 147.5,58.5C 147.5,53.5 147.5,48.5 147.5,43.5C 152.167,43.5 156.833,43.5 161.5,43.5C 161.5,48.5 161.5,53.5 161.5,58.5C 176.5,58.5 191.5,58.5 206.5,58.5C 206.5,53.5 206.5,48.5 206.5,43.5C 211.5,43.5 216.5,43.5 221.5,43.5C 221.5,48.5 221.5,53.5 221.5,58.5C 226.167,58.5 230.833,58.5 235.5,58.5C 235.5,53.1667 235.5,47.8333 235.5,42.5C 240.5,42.5 245.5,42.5 250.5,42.5C 250.5,38.1667 250.5,33.8333 250.5,29.5C 255.5,29.5 260.5,29.5 265.5,29.5C 265.5,24.5 265.5,19.5 265.5,14.5C 275.167,14.5 284.833,14.5 294.5,14.5C 294.5,19.5 294.5,24.5 294.5,29.5C 289.833,29.5 285.167,29.5 280.5,29.5C 280.5,39.1667 280.5,48.8333 280.5,58.5C 295.167,58.5 309.833,58.5 324.5,58.5C 324.5,53.5 324.5,48.5 324.5,43.5C 329.5,43.5 334.5,43.5 339.5,43.5C 339.5,48.5 339.5,53.5 339.5,58.5C 349.167,58.5 358.833,58.5 368.5,58.5C 368.5,53.5 368.5,48.5 368.5,43.5C 393.167,43.5 417.833,43.5 442.5,43.5C 442.5,48.5 442.5,53.5 442.5,58.5C 447.5,58.5 452.5,58.5 457.5,58.5C 457.5,63.5 457.5,68.5 457.5,73.5C 467.167,73.5 476.833,73.5 486.5,73.5C 486.5,68.5 486.5,63.5 486.5,58.5C 491.5,58.5 496.5,58.5 501.5,58.5C 501.5,48.8333 501.5,39.1667 501.5,29.5C 506.5,29.5 511.5,29.5 516.5,29.5C 516.5,39.1667 516.5,48.8333 516.5,58.5C 541.167,58.5 565.833,58.5 590.5,58.5C 590.5,53.5 590.5,48.5 590.5,43.5C 595.5,43.5 600.5,43.5 605.5,43.5C 605.5,33.8333 605.5,24.1667 605.5,14.5C 610.167,14.5 614.833,14.5 619.5,14.5C 619.5,9.5 619.5,4.5 619.5,-0.5 Z M 102.5,58.5 C 102.5,63.1667 102.5,67.8333 102.5,72.5C 97.5,72.5 92.5,72.5 87.5,72.5C 87.5,67.8333 87.5,63.1667 87.5,58.5C 92.5,58.5 97.5,58.5 102.5,58.5 Z M 147.5,59.5 C 152.167,59.5 156.833,59.5 161.5,59.5C 161.5,63.8333 161.5,68.1667 161.5,72.5C 156.833,72.5 152.167,72.5 147.5,72.5C 147.5,68.1667 147.5,63.8333 147.5,59.5 Z M 106.5,62.5 C 118.833,62.5 131.167,62.5 143.5,62.5C 143.5,65.8333 143.5,69.1667 143.5,72.5C 131.167,72.5 118.833,72.5 106.5,72.5C 106.5,69.1667 106.5,65.8333 106.5,62.5 Z"/></g>
<g><path style="opacity:1" fill="#0fff0e" d="M 516.5,29.5 C 516.5,24.5 516.5,19.5 516.5,14.5C 521.5,14.5 526.5,14.5 531.5,14.5C 531.5,19.5 531.5,24.5 531.5,29.5C 526.5,29.5 521.5,29.5 516.5,29.5 Z"/></g>
<g><path style="opacity:1" fill="#0fff0e" d="M 161.5,43.5 C 161.5,38.8333 161.5,34.1667 161.5,29.5C 166.5,29.5 171.5,29.5 176.5,29.5C 176.5,34.1667 176.5,38.8333 176.5,43.5C 171.5,43.5 166.5,43.5 161.5,43.5 Z"/></g>
<g><path style="opacity:1" fill="#0fff0e" d="M 339.5,43.5 C 339.5,38.8333 339.5,34.1667 339.5,29.5C 344.167,29.5 348.833,29.5 353.5,29.5C 353.5,34.1667 353.5,38.8333 353.5,43.5C 348.833,43.5 344.167,43.5 339.5,43.5 Z"/></g>
<g><path style="opacity:1" fill="#0fff0e" d="M 1343.5,43.5 C 1343.5,38.8333 1343.5,34.1667 1343.5,29.5C 1348.5,29.5 1353.5,29.5 1358.5,29.5C 1358.5,34.1667 1358.5,38.8333 1358.5,43.5C 1353.5,43.5 1348.5,43.5 1343.5,43.5 Z"/></g>
<g><path style="opacity:1" fill="#0fff0e" d="M 1683.5,43.5 C 1683.5,38.8333 1683.5,34.1667 1683.5,29.5C 1688.17,29.5 1692.83,29.5 1697.5,29.5C 1697.5,34.1667 1697.5,38.8333 1697.5,43.5C 1692.83,43.5 1688.17,43.5 1683.5,43.5 Z"/></g>
<g><path style="opacity:1" fill="#a6ffa6" d="M 412.5,58.5 C 417.5,58.5 422.5,58.5 427.5,58.5C 427.5,63.5 427.5,68.5 427.5,73.5C 422.5,73.5 417.5,73.5 412.5,73.5C 412.5,68.5 412.5,63.5 412.5,58.5 Z"/></g>
<g><path style="opacity:1" fill="#a6ffa6" d="M 782.5,58.5 C 788.5,58.5 794.5,58.5 800.5,58.5C 800.5,63.1667 800.5,67.8333 800.5,72.5C 794.5,72.5 788.5,72.5 782.5,72.5C 782.5,67.8333 782.5,63.1667 782.5,58.5 Z"/></g>
<g><path style="opacity:1" fill="#a6ffa6" d="M 1654.5,58.5 C 1654.5,63.8333 1654.5,69.1667 1654.5,74.5C 1648.97,74.8214 1643.64,74.4881 1638.5,73.5C 1638.5,68.5 1638.5,63.5 1638.5,58.5C 1643.83,58.5 1649.17,58.5 1654.5,58.5 Z"/></g>
<g><path style="opacity:1" fill="#a6ffa6" d="M 1895.5,58.5 C 1901.17,58.5 1906.83,58.5 1912.5,58.5C 1912.5,63.1667 1912.5,67.8333 1912.5,72.5C 1906.83,72.5 1901.17,72.5 1895.5,72.5C 1895.5,67.8333 1895.5,63.1667 1895.5,58.5 Z"/></g>
<g><path style="opacity:1" fill="#a6ffa6" d="M 662.5,72.5 C 667.833,72.5 673.167,72.5 678.5,72.5C 678.5,77.8333 678.5,83.1667 678.5,88.5C 673.167,88.5 667.833,88.5 662.5,88.5C 662.5,83.1667 662.5,77.8333 662.5,72.5 Z"/></g>
<g><path style="opacity:1" fill="#23c73c" d="M -0.5,73.5 C 9.5,73.5 19.5,73.5 29.5,73.5C 29.5,78.5 29.5,83.5 29.5,88.5C 54.5,88.5 79.5,88.5 104.5,88.5C 104.5,93.5 104.5,98.5 104.5,103.5C 118.833,103.5 133.167,103.5 147.5,103.5C 147.5,108.167 147.5,112.833 147.5,117.5C 167.167,117.5 186.833,117.5 206.5,117.5C 206.5,112.833 206.5,108.167 206.5,103.5C 235.833,103.5 265.167,103.5 294.5,103.5C 294.5,98.5 294.5,93.5 294.5,88.5C 314.167,88.5 333.833,88.5 353.5,88.5C 353.5,93.1667 353.5,97.8333 353.5,102.5C 363.5,102.5 373.5,102.5 383.5,102.5C 383.5,107.5 383.5,112.5 383.5,117.5C 393.5,117.5 403.5,117.5 413.5,117.5C 413.5,112.5 413.5,107.5 413.5,102.5C 476.833,102.5 540.167,102.5 603.5,102.5C 603.5,97.5 603.5,92.5 603.5,87.5C 609.167,87.5 614.833,87.5 620.5,87.5C 620.5,92.5 620.5,97.5 620.5,102.5C 708.833,102.5 797.167,102.5 885.5,102.5C 885.5,97.8333 885.5,93.1667 885.5,88.5C 890.833,88.5 896.167,88.5 901.5,88.5C 901.5,93.5 901.5,98.5 901.5,103.5C 896.167,103.5 890.833,103.5 885.5,103.5C 885.5,108.167 885.5,112.833 885.5,117.5C 781.833,117.5 678.167,117.5 574.5,117.5C 574.5,122.5 574.5,127.5 574.5,132.5C 496.167,132.5 417.833,132.5 339.5,132.5C 339.5,127.5 339.5,122.5 339.5,117.5C 319.5,117.5 299.5,117.5 279.5,117.5C 279.5,122.5 279.5,127.5 279.5,132.5C 210.833,132.5 142.167,132.5 73.5,132.5C 73.5,127.5 73.5,122.5 73.5,117.5C 63.5,117.5 53.5,117.5 43.5,117.5C 43.5,112.5 43.5,107.5 43.5,102.5C 33.8333,102.5 24.1667,102.5 14.5,102.5C 14.5,97.8333 14.5,93.1667 14.5,88.5C 9.5,88.5 4.5,88.5 -0.5,88.5C -0.5,83.5 -0.5,78.5 -0.5,73.5 Z"/></g>
<g><path style="opacity:1" fill="#a6ffa6" d="M 220.5,73.5 C 225.5,73.5 230.5,73.5 235.5,73.5C 235.5,78.1667 235.5,82.8333 235.5,87.5C 230.5,87.5 225.5,87.5 220.5,87.5C 220.5,82.8333 220.5,78.1667 220.5,73.5 Z"/></g>
<g><path style="opacity:1" fill="#a6ffa6" d="M 369.5,73.5 C 374.167,73.5 378.833,73.5 383.5,73.5C 383.5,77.8333 383.5,82.1667 383.5,86.5C 378.833,86.5 374.167,86.5 369.5,86.5C 369.5,82.1667 369.5,77.8333 369.5,73.5 Z"/></g>
<g><path style="opacity:1" fill="#a6ffa6" d="M 442.5,73.5 C 447.167,73.5 451.833,73.5 456.5,73.5C 456.5,78.1667 456.5,82.8333 456.5,87.5C 451.833,87.5 447.167,87.5 442.5,87.5C 442.5,82.8333 442.5,78.1667 442.5,73.5 Z"/></g>
<g><path style="opacity:1" fill="#a6ffa6" d="M 1012.5,79.5 C 1018.5,79.5 1024.5,79.5 1030.5,79.5C 1030.5,85.5 1030.5,91.5 1030.5,97.5C 1024.17,97.5 1017.83,97.5 1011.5,97.5C 1011.21,91.4093 1011.54,85.4093 1012.5,79.5 Z"/></g>
<g><path style="opacity:1" fill="#a6ffa6" d="M 1773.5,79.5 C 1778.5,79.5 1783.5,79.5 1788.5,79.5C 1788.5,84.1667 1788.5,88.8333 1788.5,93.5C 1783.5,93.5 1778.5,93.5 1773.5,93.5C 1773.5,88.8333 1773.5,84.1667 1773.5,79.5 Z"/></g>
<g><path style="opacity:1" fill="#a6ffa6" d="M 1182.5,82.5 C 1187.5,82.5 1192.5,82.5 1197.5,82.5C 1197.5,87.8333 1197.5,93.1667 1197.5,98.5C 1192.5,98.5 1187.5,98.5 1182.5,98.5C 1182.5,93.1667 1182.5,87.8333 1182.5,82.5 Z"/></g>
<g><path style="opacity:1" fill="#a6ffa6" d="M 1360.5,102.5 C 1354.5,102.5 1348.5,102.5 1342.5,102.5C 1342.5,96.5 1342.5,90.5 1342.5,84.5C 1348.5,84.5 1354.5,84.5 1360.5,84.5C 1360.5,90.5 1360.5,96.5 1360.5,102.5 Z"/></g>
<g><path style="opacity:1" fill="#23c73c" d="M 1683.5,117.5 C 1663.5,117.5 1643.5,117.5 1623.5,117.5C 1623.5,112.833 1623.5,108.167 1623.5,103.5C 1623.5,98.1667 1623.5,92.8333 1623.5,87.5C 1628.83,87.5 1634.17,87.5 1639.5,87.5C 1639.5,92.5 1639.5,97.5 1639.5,102.5C 1654.17,102.5 1668.83,102.5 1683.5,102.5C 1683.5,107.5 1683.5,112.5 1683.5,117.5 Z"/></g>
<g><path style="opacity:1" fill="#23c73c" d="M 1757.5,103.5 C 1757.5,107.833 1757.5,112.167 1757.5,116.5C 1742.5,116.5 1727.5,116.5 1712.5,116.5C 1712.5,111.833 1712.5,107.167 1712.5,102.5C 1717.5,102.5 1722.5,102.5 1727.5,102.5C 1727.5,97.5 1727.5,92.5 1727.5,87.5C 1737.5,87.5 1747.5,87.5 1757.5,87.5C 1757.5,92.8333 1757.5,98.1667 1757.5,103.5 Z"/></g>
<g><path style="opacity:1" fill="#126a1f" d="M -0.5,88.5 C 4.5,88.5 9.5,88.5 14.5,88.5C 14.5,93.1667 14.5,97.8333 14.5,102.5C 24.1667,102.5 33.8333,102.5 43.5,102.5C 43.5,107.5 43.5,112.5 43.5,117.5C 28.8333,117.5 14.1667,117.5 -0.5,117.5C -0.5,107.833 -0.5,98.1667 -0.5,88.5 Z"/></g>
<g><path style="opacity:1" fill="#a6ffa6" d="M 176.5,88.5 C 181.5,88.5 186.5,88.5 191.5,88.5C 191.5,93.5 191.5,98.5 191.5,103.5C 186.5,103.5 181.5,103.5 176.5,103.5C 176.5,98.5 176.5,93.5 176.5,88.5 Z"/></g>
<g><path style="opacity:1" fill="#23c73c" d="M 1342.5,102.5 C 1348.5,102.5 1354.5,102.5 1360.5,102.5C 1369.5,102.5 1378.5,102.5 1387.5,102.5C 1387.5,97.8333 1387.5,93.1667 1387.5,88.5C 1411.83,88.5 1436.17,88.5 1460.5,88.5C 1460.18,93.0323 1460.52,97.3656 1461.5,101.5C 1461.5,106.5 1461.5,111.5 1461.5,116.5C 1456.5,116.5 1451.5,116.5 1446.5,116.5C 1446.5,111.833 1446.5,107.167 1446.5,102.5C 1441.83,102.5 1437.17,102.5 1432.5,102.5C 1432.5,107.5 1432.5,112.5 1432.5,117.5C 1422.5,117.5 1412.5,117.5 1402.5,117.5C 1402.5,122.5 1402.5,127.5 1402.5,132.5C 1392.5,132.5 1382.5,132.5 1372.5,132.5C 1372.5,127.5 1372.5,122.5 1372.5,117.5C 1367.83,117.5 1363.17,117.5 1358.5,117.5C 1358.5,122.5 1358.5,127.5 1358.5,132.5C 1343.5,132.5 1328.5,132.5 1313.5,132.5C 1313.5,137.5 1313.5,142.5 1313.5,147.5C 1283.83,147.5 1254.17,147.5 1224.5,147.5C 1224.5,142.833 1224.5,138.167 1224.5,133.5C 1200.5,133.5 1176.5,133.5 1152.5,133.5C 1152.5,128.167 1152.5,122.833 1152.5,117.5C 1137.5,117.5 1122.5,117.5 1107.5,117.5C 1107.5,122.5 1107.5,127.5 1107.5,132.5C 1043.5,132.5 979.5,132.5 915.5,132.5C 915.5,127.5 915.5,122.5 915.5,117.5C 924.5,117.5 933.5,117.5 942.5,117.5C 948.167,117.5 953.833,117.5 959.5,117.5C 959.5,112.5 959.5,107.5 959.5,102.5C 969.5,102.5 979.5,102.5 989.5,102.5C 989.5,107.5 989.5,112.5 989.5,117.5C 1018.83,117.5 1048.17,117.5 1077.5,117.5C 1077.5,112.833 1077.5,108.167 1077.5,103.5C 1082.5,103.5 1087.5,103.5 1092.5,103.5C 1092.5,98.5 1092.5,93.5 1092.5,88.5C 1102.5,88.5 1112.5,88.5 1122.5,88.5C 1122.5,93.5 1122.5,98.5 1122.5,103.5C 1137.17,103.5 1151.83,103.5 1166.5,103.5C 1166.5,108.167 1166.5,112.833 1166.5,117.5C 1191.17,117.5 1215.83,117.5 1240.5,117.5C 1240.5,122.5 1240.5,127.5 1240.5,132.5C 1254.83,132.5 1269.17,132.5 1283.5,132.5C 1283.5,127.5 1283.5,122.5 1283.5,117.5C 1303.17,117.5 1322.83,117.5 1342.5,117.5C 1342.5,112.5 1342.5,107.5 1342.5,102.5 Z"/></g>
<g><path style="opacity:1" fill="#a6ffa6" d="M 1460.5,88.5 C 1465.83,88.5 1471.17,88.5 1476.5,88.5C 1476.5,92.8333 1476.5,97.1667 1476.5,101.5C 1471.5,101.5 1466.5,101.5 1461.5,101.5C 1460.52,97.3656 1460.18,93.0323 1460.5,88.5 Z"/></g>
<g><path style="opacity:1" fill="#23c73c" d="M 1476.5,88.5 C 1496.17,88.5 1515.83,88.5 1535.5,88.5C 1535.5,93.1667 1535.5,97.8333 1535.5,102.5C 1525.83,102.5 1516.17,102.5 1506.5,102.5C 1506.5,107.5 1506.5,112.5 1506.5,117.5C 1496.5,117.5 1486.5,117.5 1476.5,117.5C 1476.5,112.167 1476.5,106.833 1476.5,101.5C 1476.5,97.1667 1476.5,92.8333 1476.5,88.5 Z"/></g>
<g><path style="opacity:1" fill="#126a1f" d="M 1535.5,88.5 C 1550.17,88.5 1564.83,88.5 1579.5,88.5C 1584.5,88.5 1589.5,88.5 1594.5,88.5C 1594.5,93.5 1594.5,98.5 1594.5,103.5C 1604.17,103.5 1613.83,103.5 1623.5,103.5C 1623.5,108.167 1623.5,112.833 1623.5,117.5C 1643.5,117.5 1663.5,117.5 1683.5,117.5C 1683.5,122.167 1683.5,126.833 1683.5,131.5C 1688.17,131.5 1692.83,131.5 1697.5,131.5C 1697.5,126.833 1697.5,122.167 1697.5,117.5C 1702.69,117.821 1707.69,117.487 1712.5,116.5C 1727.5,116.5 1742.5,116.5 1757.5,116.5C 1757.5,112.167 1757.5,107.833 1757.5,103.5C 1762.5,103.5 1767.5,103.5 1772.5,103.5C 1772.5,108.167 1772.5,112.833 1772.5,117.5C 1791.83,117.5 1811.17,117.5 1830.5,117.5C 1830.5,112.833 1830.5,108.167 1830.5,103.5C 1840.5,103.5 1850.5,103.5 1860.5,103.5C 1860.5,98.5 1860.5,93.5 1860.5,88.5C 1880.17,88.5 1899.83,88.5 1919.5,88.5C 1919.5,98.1667 1919.5,107.833 1919.5,117.5C 1899.83,117.5 1880.17,117.5 1860.5,117.5C 1860.5,122.5 1860.5,127.5 1860.5,132.5C 1811.17,132.5 1761.83,132.5 1712.5,132.5C 1712.5,137.5 1712.5,142.5 1712.5,147.5C 1683.17,147.5 1653.83,147.5 1624.5,147.5C 1624.5,142.5 1624.5,137.5 1624.5,132.5C 1609.5,132.5 1594.5,132.5 1579.5,132.5C 1579.5,127.5 1579.5,122.5 1579.5,117.5C 1569.83,117.5 1560.17,117.5 1550.5,117.5C 1550.5,122.5 1550.5,127.5 1550.5,132.5C 1515.83,132.5 1481.17,132.5 1446.5,132.5C 1446.5,137.5 1446.5,142.5 1446.5,147.5C 1431.83,147.5 1417.17,147.5 1402.5,147.5C 1402.5,152.5 1402.5,157.5 1402.5,162.5C 1382.83,162.5 1363.17,162.5 1343.5,162.5C 1343.5,167.167 1343.5,171.833 1343.5,176.5C 1304.17,176.5 1264.83,176.5 1225.5,176.5C 1225.5,171.833 1225.5,167.167 1225.5,162.5C 1205.83,162.5 1186.17,162.5 1166.5,162.5C 1166.5,157.5 1166.5,152.5 1166.5,147.5C 1107.17,147.5 1047.83,147.5 988.5,147.5C 988.5,152.167 988.5,156.833 988.5,161.5C 949.5,161.5 910.5,161.5 871.5,161.5C 871.5,156.833 871.5,152.167 871.5,147.5C 866.5,147.5 861.5,147.5 856.5,147.5C 856.5,142.5 856.5,137.5 856.5,132.5C 782.5,132.5 708.5,132.5 634.5,132.5C 634.5,137.167 634.5,141.833 634.5,146.5C 555.833,146.5 477.167,146.5 398.5,146.5C 398.5,151.5 398.5,156.5 398.5,161.5C 388.5,161.5 378.5,161.5 368.5,161.5C 368.5,156.833 368.5,152.167 368.5,147.5C 353.833,147.5 339.167,147.5 324.5,147.5C 324.5,142.5 324.5,137.5 324.5,132.5C 309.5,132.5 294.5,132.5 279.5,132.5C 279.5,127.5 279.5,122.5 279.5,117.5C 299.5,117.5 319.5,117.5 339.5,117.5C 339.5,122.5 339.5,127.5 339.5,132.5C 417.833,132.5 496.167,132.5 574.5,132.5C 574.5,127.5 574.5,122.5 574.5,117.5C 678.167,117.5 781.833,117.5 885.5,117.5C 895.5,117.5 905.5,117.5 915.5,117.5C 915.5,122.5 915.5,127.5 915.5,132.5C 979.5,132.5 1043.5,132.5 1107.5,132.5C 1107.5,127.5 1107.5,122.5 1107.5,117.5C 1122.5,117.5 1137.5,117.5 1152.5,117.5C 1152.5,122.833 1152.5,128.167 1152.5,133.5C 1176.5,133.5 1200.5,133.5 1224.5,133.5C 1224.5,138.167 1224.5,142.833 1224.5,147.5C 1254.17,147.5 1283.83,147.5 1313.5,147.5C 1313.5,142.5 1313.5,137.5 1313.5,132.5C 1328.5,132.5 1343.5,132.5 1358.5,132.5C 1358.5,127.5 1358.5,122.5 1358.5,117.5C 1363.17,117.5 1367.83,117.5 1372.5,117.5C 1372.5,122.5 1372.5,127.5 1372.5,132.5C 1382.5,132.5 1392.5,132.5 1402.5,132.5C 1402.5,127.5 1402.5,122.5 1402.5,117.5C 1412.5,117.5 1422.5,117.5 1432.5,117.5C 1432.5,112.5 1432.5,107.5 1432.5,102.5C 1437.17,102.5 1441.83,102.5 1446.5,102.5C 1446.5,107.167 1446.5,111.833 1446.5,116.5C 1451.5,116.5 1456.5,116.5 1461.5,116.5C 1461.5,111.5 1461.5,106.5 1461.5,101.5C 1466.5,101.5 1471.5,101.5 1476.5,101.5C 1476.5,106.833 1476.5,112.167 1476.5,117.5C 1486.5,117.5 1496.5,117.5 1506.5,117.5C 1506.5,112.5 1506.5,107.5 1506.5,102.5C 1516.17,102.5 1525.83,102.5 1535.5,102.5C 1535.5,97.8333 1535.5,93.1667 1535.5,88.5 Z"/></g>
<g><path style="opacity:1" fill="#23c73c" d="M 1579.5,88.5 C 1584.5,88.5 1589.5,88.5 1594.5,88.5C 1594.5,93.5 1594.5,98.5 1594.5,103.5C 1589.5,103.5 1584.5,103.5 1579.5,103.5C 1579.5,98.5 1579.5,93.5 1579.5,88.5 Z"/></g>
<g><path style="opacity:1" fill="#23c73c" d="M 1860.5,88.5 C 1860.5,93.5 1860.5,98.5 1860.5,103.5C 1850.5,103.5 1840.5,103.5 1830.5,103.5C 1830.5,98.5 1830.5,93.5 1830.5,88.5C 1840.5,88.5 1850.5,88.5 1860.5,88.5 Z"/></g>
<g><path style="opacity:1" fill="#a6ffa6" d="M 959.5,102.5 C 959.5,107.5 959.5,112.5 959.5,117.5C 953.833,117.5 948.167,117.5 942.5,117.5C 942.5,112.5 942.5,107.5 942.5,102.5C 948.167,102.5 953.833,102.5 959.5,102.5 Z"/></g>
<g><path style="opacity:1" fill="#23c73c" d="M 1772.5,103.5 C 1791.83,103.5 1811.17,103.5 1830.5,103.5C 1830.5,108.167 1830.5,112.833 1830.5,117.5C 1811.17,117.5 1791.83,117.5 1772.5,117.5C 1772.5,112.833 1772.5,108.167 1772.5,103.5 Z"/></g>
<g><path style="opacity:1" fill="#652a06" d="M -0.5,117.5 C 14.1667,117.5 28.8333,117.5 43.5,117.5C 43.5,127.167 43.5,136.833 43.5,146.5C 48.5,146.5 53.5,146.5 58.5,146.5C 58.5,151.5 58.5,156.5 58.5,161.5C 122.5,161.5 186.5,161.5 250.5,161.5C 250.5,156.833 250.5,152.167 250.5,147.5C 260.167,147.5 269.833,147.5 279.5,147.5C 279.5,142.5 279.5,137.5 279.5,132.5C 294.5,132.5 309.5,132.5 324.5,132.5C 324.5,137.5 324.5,142.5 324.5,147.5C 339.167,147.5 353.833,147.5 368.5,147.5C 368.5,152.167 368.5,156.833 368.5,161.5C 378.5,161.5 388.5,161.5 398.5,161.5C 398.5,156.5 398.5,151.5 398.5,146.5C 477.167,146.5 555.833,146.5 634.5,146.5C 634.5,141.833 634.5,137.167 634.5,132.5C 708.5,132.5 782.5,132.5 856.5,132.5C 856.5,137.5 856.5,142.5 856.5,147.5C 861.5,147.5 866.5,147.5 871.5,147.5C 871.5,152.167 871.5,156.833 871.5,161.5C 910.5,161.5 949.5,161.5 988.5,161.5C 988.5,156.833 988.5,152.167 988.5,147.5C 1047.83,147.5 1107.17,147.5 1166.5,147.5C 1166.5,152.5 1166.5,157.5 1166.5,162.5C 1186.17,162.5 1205.83,162.5 1225.5,162.5C 1225.5,167.167 1225.5,171.833 1225.5,176.5C 1264.83,176.5 1304.17,176.5 1343.5,176.5C 1343.5,171.833 1343.5,167.167 1343.5,162.5C 1363.17,162.5 1382.83,162.5 1402.5,162.5C 1402.5,157.5 1402.5,152.5 1402.5,147.5C 1417.17,147.5 1431.83,147.5 1446.5,147.5C 1446.5,142.5 1446.5,137.5 1446.5,132.5C 1481.17,132.5 1515.83,132.5 1550.5,132.5C 1550.5,127.5 1550.5,122.5 1550.5,117.5C 1560.17,117.5 1569.83,117.5 1579.5,117.5C 1579.5,122.5 1579.5,127.5 1579.5,132.5C 1594.5,132.5 1609.5,132.5 1624.5,132.5C 1624.5,137.5 1624.5,142.5 1624.5,147.5C 1653.83,147.5 1683.17,147.5 1712.5,147.5C 1712.5,142.5 1712.5,137.5 1712.5,132.5C 1761.83,132.5 1811.17,132.5 1860.5,132.5C 1860.5,127.5 1860.5,122.5 1860.5,117.5C 1880.17,117.5 1899.83,117.5 1919.5,117.5C 1919.5,127.167 1919.5,136.833 1919.5,146.5C 1914.5,146.5 1909.5,146.5 1904.5,146.5C 1904.5,151.833 1904.5,157.167 1904.5,162.5C 1870.17,162.846 1835.83,163.179 1801.5,163.5C 1802.23,168.13 1802.56,172.797 1802.5,177.5C 1787.5,177.5 1772.5,177.5 1757.5,177.5C 1757.5,181.833 1757.5,186.167 1757.5,190.5C 1703.5,190.5 1649.5,190.5 1595.5,190.5C 1595.5,185.833 1595.5,181.167 1595.5,176.5C 1585.17,176.5 1574.83,176.5 1564.5,176.5C 1564.5,171.5 1564.5,166.5 1564.5,161.5C 1553.5,161.5 1542.5,161.5 1531.5,161.5C 1531.5,166.5 1531.5,171.5 1531.5,176.5C 1512.83,176.5 1494.17,176.5 1475.5,176.5C 1475.5,181.167 1475.5,185.833 1475.5,190.5C 1465.17,190.5 1454.83,190.5 1444.5,190.5C 1444.5,195.5 1444.5,200.5 1444.5,205.5C 1435.5,205.881 1426.5,206.214 1417.5,206.5C 1417.5,211.5 1417.5,216.5 1417.5,221.5C 1338.17,221.844 1258.83,222.178 1179.5,222.5C 1179.5,217.5 1179.5,212.5 1179.5,207.5C 1120.53,206.512 1061.53,206.178 1002.5,206.5C 1002.5,210.5 1002.5,214.5 1002.5,218.5C 979.167,218.5 955.833,218.5 932.5,218.5C 932.5,214.167 932.5,209.833 932.5,205.5C 910.833,205.5 889.167,205.5 867.5,205.5C 867.5,200.833 867.5,196.167 867.5,191.5C 843.833,191.5 820.167,191.5 796.5,191.5C 796.5,186.833 796.5,182.167 796.5,177.5C 727.167,177.5 657.833,177.5 588.5,177.5C 588.5,181.833 588.5,186.167 588.5,190.5C 569.167,190.5 549.833,190.5 530.5,190.5C 530.5,195.5 530.5,200.5 530.5,205.5C 496.167,205.5 461.833,205.5 427.5,205.5C 427.803,210.43 427.469,215.263 426.5,220C 406.836,220.5 387.169,220.667 367.5,220.5C 367.5,215.833 367.5,211.167 367.5,206.5C 357.167,206.5 346.833,206.5 336.5,206.5C 336.5,201.5 336.5,196.5 336.5,191.5C 327.167,191.5 317.833,191.5 308.5,191.5C 308.5,186.167 308.5,180.833 308.5,175.5C 303.167,175.5 297.833,175.5 292.5,175.5C 292.5,180.5 292.5,185.5 292.5,190.5C 288.5,190.5 284.5,190.5 280.5,190.5C 280.5,194.833 280.5,199.167 280.5,203.5C 206.5,203.5 132.5,203.5 58.5,203.5C 58.5,199.167 58.5,194.833 58.5,190.5C 43.5,190.5 28.5,190.5 13.5,190.5C 13.5,184.5 13.5,178.5 13.5,172.5C 8.83333,172.5 4.16667,172.5 -0.5,172.5C -0.5,154.167 -0.5,135.833 -0.5,117.5 Z"/></g>
<g><path style="opacity:1" fill="#126a1f" d="M 43.5,117.5 C 53.5,117.5 63.5,117.5 73.5,117.5C 73.5,122.5 73.5,127.5 73.5,132.5C 142.167,132.5 210.833,132.5 279.5,132.5C 279.5,137.5 279.5,142.5 279.5,147.5C 269.833,147.5 260.167,147.5 250.5,147.5C 250.5,152.167 250.5,156.833 250.5,161.5C 186.5,161.5 122.5,161.5 58.5,161.5C 58.5,156.5 58.5,151.5 58.5,146.5C 53.5,146.5 48.5,146.5 43.5,146.5C 43.5,136.833 43.5,127.167 43.5,117.5 Z"/></g>
<g><path style="opacity:1" fill="#23c73c" d="M 1683.5,117.5 C 1688.17,117.5 1692.83,117.5 1697.5,117.5C 1697.5,122.167 1697.5,126.833 1697.5,131.5C 1692.83,131.5 1688.17,131.5 1683.5,131.5C 1683.5,126.833 1683.5,122.167 1683.5,117.5 Z"/></g>
<g><path style="opacity:1" fill="#8e3b09" d="M 1919.5,146.5 C 1919.5,228.167 1919.5,309.833 1919.5,391.5C 1918.17,417.167 1918.17,442.833 1919.5,468.5C 1919.5,469.833 1919.5,471.167 1919.5,472.5C 1279.5,472.5 639.5,472.5 -0.5,472.5C -0.5,372.5 -0.5,272.5 -0.5,172.5C 4.16667,172.5 8.83333,172.5 13.5,172.5C 13.5,178.5 13.5,184.5 13.5,190.5C 28.5,190.5 43.5,190.5 58.5,190.5C 58.5,194.833 58.5,199.167 58.5,203.5C 132.5,203.5 206.5,203.5 280.5,203.5C 280.5,199.167 280.5,194.833 280.5,190.5C 284.5,190.5 288.5,190.5 292.5,190.5C 292.5,185.5 292.5,180.5 292.5,175.5C 297.833,175.5 303.167,175.5 308.5,175.5C 308.5,180.833 308.5,186.167 308.5,191.5C 317.833,191.5 327.167,191.5 336.5,191.5C 336.5,196.5 336.5,201.5 336.5,206.5C 346.833,206.5 357.167,206.5 367.5,206.5C 367.5,211.167 367.5,215.833 367.5,220.5C 387.169,220.667 406.836,220.5 426.5,220C 427.469,215.263 427.803,210.43 427.5,205.5C 461.833,205.5 496.167,205.5 530.5,205.5C 530.5,200.5 530.5,195.5 530.5,190.5C 549.833,190.5 569.167,190.5 588.5,190.5C 588.5,186.167 588.5,181.833 588.5,177.5C 657.833,177.5 727.167,177.5 796.5,177.5C 796.5,182.167 796.5,186.833 796.5,191.5C 820.167,191.5 843.833,191.5 867.5,191.5C 867.5,196.167 867.5,200.833 867.5,205.5C 889.167,205.5 910.833,205.5 932.5,205.5C 932.5,209.833 932.5,214.167 932.5,218.5C 955.833,218.5 979.167,218.5 1002.5,218.5C 1002.5,214.5 1002.5,210.5 1002.5,206.5C 1061.53,206.178 1120.53,206.512 1179.5,207.5C 1179.5,212.5 1179.5,217.5 1179.5,222.5C 1258.83,222.178 1338.17,221.844 1417.5,221.5C 1417.5,216.5 1417.5,211.5 1417.5,206.5C 1426.5,206.214 1435.5,205.881 1444.5,205.5C 1444.5,200.5 1444.5,195.5 1444.5,190.5C 1454.83,190.5 1465.17,190.5 1475.5,190.5C 1475.5,185.833 1475.5,181.167 1475.5,176.5C 1494.17,176.5 1512.83,176.5 1531.5,176.5C 1531.5,171.5 1531.5,166.5 1531.5,161.5C 1542.5,161.5 1553.5,161.5 1564.5,161.5C 1564.5,166.5 1564.5,171.5 1564.5,176.5C 1574.83,176.5 1585.17,176.5 1595.5,176.5C 1595.5,181.167 1595.5,185.833 1595.5,190.5C 1649.5,190.5 1703.5,190.5 1757.5,190.5C 1757.5,186.167 1757.5,181.833 1757.5,177.5C 1772.5,177.5 1787.5,177.5 1802.5,177.5C 1802.56,172.797 1802.23,168.13 1801.5,163.5C 1835.83,163.179 1870.17,162.846 1904.5,162.5C 1904.5,157.167 1904.5,151.833 1904.5,146.5C 1909.5,146.5 1914.5,146.5 1919.5,146.5 Z"/></g>
<g><path style="opacity:1" fill="#4c3b0a" d="M 619.5,221.5 C 634.167,221.5 648.833,221.5 663.5,221.5C 663.5,226.167 663.5,230.833 663.5,235.5C 658.5,235.5 653.5,235.5 648.5,235.5C 648.5,245.5 648.5,255.5 648.5,265.5C 638.833,265.5 629.167,265.5 619.5,265.5C 619.5,250.833 619.5,236.167 619.5,221.5 Z"/></g>
<g><path style="opacity:1" fill="#4c3b0a" d="M 1520.5,250.5 C 1535.5,250.5 1550.5,250.5 1565.5,250.5C 1565.5,265.5 1565.5,280.5 1565.5,295.5C 1560.17,295.5 1554.83,295.5 1549.5,295.5C 1549.5,290.5 1549.5,285.5 1549.5,280.5C 1539.83,280.5 1530.17,280.5 1520.5,280.5C 1520.5,270.5 1520.5,260.5 1520.5,250.5 Z"/></g>
<g><path style="opacity:1" fill="#4c3b0a" d="M 58.5,265.5 C 63.5,265.5 68.5,265.5 73.5,265.5C 73.5,275.167 73.5,284.833 73.5,294.5C 78.5,294.5 83.5,294.5 88.5,294.5C 88.5,299.5 88.5,304.5 88.5,309.5C 73.5,309.5 58.5,309.5 43.5,309.5C 43.5,299.5 43.5,289.5 43.5,279.5C 48.5,279.5 53.5,279.5 58.5,279.5C 58.5,274.833 58.5,270.167 58.5,265.5 Z"/></g>
<g><path style="opacity:1" fill="#4c3b0a" d="M 856.5,265.5 C 866.167,265.5 875.833,265.5 885.5,265.5C 885.5,270.833 885.5,276.167 885.5,281.5C 880.833,281.5 876.167,281.5 871.5,281.5C 871.5,291.167 871.5,300.833 871.5,310.5C 866.167,310.5 860.833,310.5 855.5,310.5C 855.5,305.5 855.5,300.5 855.5,295.5C 850.833,295.5 846.167,295.5 841.5,295.5C 841.5,290.5 841.5,285.5 841.5,280.5C 846.5,280.5 851.5,280.5 856.5,280.5C 856.5,275.5 856.5,270.5 856.5,265.5 Z"/></g>
<g><path style="opacity:1" fill="#81743c" d="M 974.5,280.5 C 974.5,275.5 974.5,270.5 974.5,265.5C 984.167,265.5 993.833,265.5 1003.5,265.5C 1003.5,270.5 1003.5,275.5 1003.5,280.5C 993.833,280.5 984.167,280.5 974.5,280.5 Z"/></g>
<g><path style="opacity:1" fill="#81743c" d="M 1875.5,265.5 C 1880.17,265.5 1884.83,265.5 1889.5,265.5C 1889.5,270.5 1889.5,275.5 1889.5,280.5C 1884.83,280.5 1880.17,280.5 1875.5,280.5C 1875.5,275.5 1875.5,270.5 1875.5,265.5 Z"/></g>
<g><path style="opacity:1" fill="#81743c" d="M 147.5,280.5 C 152.5,280.5 157.5,280.5 162.5,280.5C 162.5,295.167 162.5,309.833 162.5,324.5C 147.5,324.5 132.5,324.5 117.5,324.5C 117.5,319.5 117.5,314.5 117.5,309.5C 122.5,309.5 127.5,309.5 132.5,309.5C 132.5,304.833 132.5,300.167 132.5,295.5C 137.5,295.5 142.5,295.5 147.5,295.5C 147.5,290.5 147.5,285.5 147.5,280.5 Z"/></g>
<g><path style="opacity:1" fill="#81743c" d="M 974.5,280.5 C 974.5,285.5 974.5,290.5 974.5,295.5C 964.5,295.5 954.5,295.5 944.5,295.5C 944.5,290.5 944.5,285.5 944.5,280.5C 954.5,280.5 964.5,280.5 974.5,280.5 Z"/></g>
<g><path style="opacity:1" fill="#4c3b0a" d="M 1062.5,280.5 C 1067.5,280.5 1072.5,280.5 1077.5,280.5C 1077.5,285.5 1077.5,290.5 1077.5,295.5C 1082.5,295.5 1087.5,295.5 1092.5,295.5C 1092.5,300.167 1092.5,304.833 1092.5,309.5C 1097.5,309.5 1102.5,309.5 1107.5,309.5C 1107.5,314.5 1107.5,319.5 1107.5,324.5C 1097.5,324.5 1087.5,324.5 1077.5,324.5C 1077.5,319.833 1077.5,315.167 1077.5,310.5C 1072.5,310.5 1067.5,310.5 1062.5,310.5C 1062.5,300.5 1062.5,290.5 1062.5,280.5 Z"/></g>
<g><path style="opacity:1" fill="#81743c" d="M 722.5,294.5 C 727.833,294.5 733.167,294.5 738.5,294.5C 738.5,299.833 738.5,305.167 738.5,310.5C 733.167,310.5 727.833,310.5 722.5,310.5C 722.5,305.167 722.5,299.833 722.5,294.5 Z"/></g>
<g><path style="opacity:1" fill="#4c3b0a" d="M 295.5,295.5 C 310.167,295.5 324.833,295.5 339.5,295.5C 339.5,305.5 339.5,315.5 339.5,325.5C 329.5,325.5 319.5,325.5 309.5,325.5C 309.5,320.5 309.5,315.5 309.5,310.5C 304.833,310.5 300.167,310.5 295.5,310.5C 295.5,305.5 295.5,300.5 295.5,295.5 Z"/></g>
<g><path style="opacity:1" fill="#81743c" d="M 1594.5,353.5 C 1599.5,353.5 1604.5,353.5 1609.5,353.5C 1609.5,363.5 1609.5,373.5 1609.5,383.5C 1614.5,383.5 1619.5,383.5 1624.5,383.5C 1624.5,388.5 1624.5,393.5 1624.5,398.5C 1614.5,398.5 1604.5,398.5 1594.5,398.5C 1594.5,383.5 1594.5,368.5 1594.5,353.5 Z"/></g>
<g><path style="opacity:1" fill="#81743c" d="M 1313.5,383.5 C 1308.83,383.5 1304.17,383.5 1299.5,383.5C 1299.5,378.833 1299.5,374.167 1299.5,369.5C 1304.17,369.5 1308.83,369.5 1313.5,369.5C 1313.5,374.167 1313.5,378.833 1313.5,383.5 Z"/></g>
<g><path style="opacity:1" fill="#4c3b0a" d="M 176.5,383.5 C 181.5,383.5 186.5,383.5 191.5,383.5C 191.5,388.5 191.5,393.5 191.5,398.5C 186.5,398.5 181.5,398.5 176.5,398.5C 176.5,393.5 176.5,388.5 176.5,383.5 Z"/></g>
<g><path style="opacity:1" fill="#81743c" d="M 1313.5,383.5 C 1318.5,383.5 1323.5,383.5 1328.5,383.5C 1328.5,388.5 1328.5,393.5 1328.5,398.5C 1323.5,398.5 1318.5,398.5 1313.5,398.5C 1313.5,393.5 1313.5,388.5 1313.5,383.5 Z"/></g>
<g><path style="opacity:1" fill="#81743c" d="M 1136.5,398.5 C 1141.5,398.5 1146.5,398.5 1151.5,398.5C 1151.5,408.5 1151.5,418.5 1151.5,428.5C 1146.5,428.5 1141.5,428.5 1136.5,428.5C 1136.5,418.5 1136.5,408.5 1136.5,398.5 Z"/></g>
</svg>
