<?xml version="1.0" encoding="UTF-8"?>
<!DOCTYPE svg PUBLIC "-//W3C//DTD SVG 1.1//EN" "http://www.w3.org/Graphics/SVG/1.1/DTD/svg11.dtd">
<svg xmlns="http://www.w3.org/2000/svg" version="1.1" width="300px" height="300px" style="shape-rendering:geometricPrecision; text-rendering:geometricPrecision; image-rendering:optimizeQuality; fill-rule:evenodd; clip-rule:evenodd" xmlns:xlink="http://www.w3.org/1999/xlink">
<g><path style="opacity:1" fill="#1997bc" d="M 243.5,111.5 C 237.167,111.5 230.833,111.5 224.5,111.5C 224.5,105.5 224.5,99.5 224.5,93.5C 224.5,87.5 224.5,81.5 224.5,75.5C 218.167,75.5 211.833,75.5 205.5,75.5C 199.167,75.5 192.833,75.5 186.5,75.5C 180.5,75.5 174.5,75.5 168.5,75.5C 168.5,69.1667 168.5,62.8333 168.5,56.5C 155.833,56.5 143.167,56.5 130.5,56.5C 130.5,62.5 130.5,68.5 130.5,74.5C 117.833,74.5 105.167,74.5 92.5,74.5C 92.5,80.8333 92.5,87.1667 92.5,93.5C 86.5,93.5 80.5,93.5 74.5,93.5C 74.5,105.833 74.5,118.167 74.5,130.5C 68.5,130.5 62.5,130.5 56.5,130.5C 56.5,143.167 56.5,155.833 56.5,168.5C 62.5,168.5 68.5,168.5 74.5,168.5C 74.5,174.5 74.5,180.5 74.5,186.5C 74.5,198.833 74.5,211.167 74.5,223.5C 86.8333,223.5 99.1667,223.5 111.5,223.5C 111.5,230.167 111.5,236.833 111.5,243.5C 98.8333,243.5 86.1667,243.5 73.5,243.5C 73.5,237.167 73.5,230.833 73.5,224.5C 67.5,224.5 61.5,224.5 55.5,224.5C 55.5,212.5 55.5,200.5 55.5,188.5C 49.1667,188.5 42.8333,188.5 36.5,188.5C 36.5,162.833 36.5,137.167 36.5,111.5C 42.8333,111.5 49.1667,111.5 55.5,111.5C 55.5,99.1667 55.5,86.8333 55.5,74.5C 61.8333,74.5 68.1667,74.5 74.5,74.5C 74.5,68.1667 74.5,61.8333 74.5,55.5C 86.5,55.5 98.5,55.5 110.5,55.5C 110.5,49.1667 110.5,42.8333 110.5,36.5C 136.167,36.5 161.833,36.5 187.5,36.5C 187.5,42.8333 187.5,49.1667 187.5,55.5C 199.833,55.5 212.167,55.5 224.5,55.5C 224.5,61.8333 224.5,68.1667 224.5,74.5C 230.833,74.5 237.167,74.5 243.5,74.5C 243.5,86.8333 243.5,99.1667 243.5,111.5 Z"/></g>
<g><path style="opacity:1" fill="#85e2fd" d="M 186.5,75.5 C 186.5,87.5 186.5,99.5 186.5,111.5C 180.167,111.5 173.833,111.5 167.5,111.5C 167.5,105.5 167.5,99.5 167.5,93.5C 161.5,93.5 155.5,93.5 149.5,93.5C 149.5,105.833 149.5,118.167 149.5,130.5C 143.167,130.5 136.833,130.5 130.5,130.5C 130.5,136.833 130.5,143.167 130.5,149.5C 111.833,149.5 93.1667,149.5 74.5,149.5C 74.5,155.833 74.5,162.167 74.5,168.5C 68.5,168.5 62.5,168.5 56.5,168.5C 56.5,155.833 56.5,143.167 56.5,130.5C 62.5,130.5 68.5,130.5 74.5,130.5C 74.5,118.167 74.5,105.833 74.5,93.5C 80.5,93.5 86.5,93.5 92.5,93.5C 92.5,87.1667 92.5,80.8333 92.5,74.5C 105.167,74.5 117.833,74.5 130.5,74.5C 130.5,68.5 130.5,62.5 130.5,56.5C 143.167,56.5 155.833,56.5 168.5,56.5C 168.5,62.8333 168.5,69.1667 168.5,75.5C 174.5,75.5 180.5,75.5 186.5,75.5 Z"/></g>
<g><path style="opacity:1" fill="#2cb3dc" d="M 186.5,75.5 C 192.833,75.5 199.167,75.5 205.5,75.5C 205.5,81.5 205.5,87.5 205.5,93.5C 211.833,93.5 218.167,93.5 224.5,93.5C 224.5,99.5 224.5,105.5 224.5,111.5C 217.833,111.5 211.167,111.5 204.5,111.5C 204.5,117.5 204.5,123.5 204.5,129.5C 211.167,129.5 217.833,129.5 224.5,129.5C 224.5,148.833 224.5,168.167 224.5,187.5C 224.167,187.5 223.833,187.5 223.5,187.5C 217.5,187.5 211.5,187.5 205.5,187.5C 205.5,193.167 205.5,198.833 205.5,204.5C 199.5,204.5 193.5,204.5 187.5,204.5C 187.5,210.833 187.5,217.167 187.5,223.5C 162.167,223.5 136.833,223.5 111.5,223.5C 99.1667,223.5 86.8333,223.5 74.5,223.5C 74.5,211.167 74.5,198.833 74.5,186.5C 86.8333,186.5 99.1667,186.5 111.5,186.5C 111.5,192.833 111.5,199.167 111.5,205.5C 130.5,205.5 149.5,205.5 168.5,205.5C 168.5,199.167 168.5,192.833 168.5,186.5C 174.5,186.5 180.5,186.5 186.5,186.5C 186.5,180.5 186.5,174.5 186.5,168.5C 192.833,168.5 199.167,168.5 205.5,168.5C 205.5,162.167 205.5,155.833 205.5,149.5C 199.167,149.5 192.833,149.5 186.5,149.5C 186.5,143.167 186.5,136.833 186.5,130.5C 174.167,130.5 161.833,130.5 149.5,130.5C 149.5,118.167 149.5,105.833 149.5,93.5C 155.5,93.5 161.5,93.5 167.5,93.5C 167.5,99.5 167.5,105.5 167.5,111.5C 173.833,111.5 180.167,111.5 186.5,111.5C 186.5,99.5 186.5,87.5 186.5,75.5 Z"/></g>
<g><path style="opacity:1" fill="#157290" d="M 205.5,75.5 C 211.833,75.5 218.167,75.5 224.5,75.5C 224.5,81.5 224.5,87.5 224.5,93.5C 218.167,93.5 211.833,93.5 205.5,93.5C 205.5,87.5 205.5,81.5 205.5,75.5 Z"/></g>
<g><path style="opacity:1" fill="#2cb3dc" d="M 130.5,130.5 C 124.5,130.5 118.5,130.5 112.5,130.5C 112.5,124.167 112.5,117.833 112.5,111.5C 118.5,111.5 124.5,111.5 130.5,111.5C 130.5,117.833 130.5,124.167 130.5,130.5 Z"/></g>
<g><path style="opacity:1" fill="#85e2fd" d="M 224.5,111.5 C 224.5,117.5 224.5,123.5 224.5,129.5C 217.833,129.5 211.167,129.5 204.5,129.5C 204.5,123.5 204.5,117.5 204.5,111.5C 211.167,111.5 217.833,111.5 224.5,111.5 Z"/></g>
<g><path style="opacity:1" fill="#157290" d="M 224.5,111.5 C 230.833,111.5 237.167,111.5 243.5,111.5C 243.5,136.833 243.5,162.167 243.5,187.5C 237.167,187.5 230.833,187.5 224.5,187.5C 224.5,168.167 224.5,148.833 224.5,129.5C 224.5,123.5 224.5,117.5 224.5,111.5 Z"/></g>
<g><path style="opacity:1" fill="#1997bc" d="M 243.5,111.5 C 249.833,111.5 256.167,111.5 262.5,111.5C 262.5,136.833 262.5,162.167 262.5,187.5C 256.167,187.5 249.833,187.5 243.5,187.5C 243.5,162.167 243.5,136.833 243.5,111.5 Z"/></g>
<g><path style="opacity:1" fill="#2cb3dc" d="M 130.5,130.5 C 136.833,130.5 143.167,130.5 149.5,130.5C 149.5,143.167 149.5,155.833 149.5,168.5C 143.167,168.5 136.833,168.5 130.5,168.5C 111.833,168.5 93.1667,168.5 74.5,168.5C 74.5,162.167 74.5,155.833 74.5,149.5C 93.1667,149.5 111.833,149.5 130.5,149.5C 130.5,143.167 130.5,136.833 130.5,130.5 Z"/></g>
<g><path style="opacity:1" fill="#85e2fd" d="M 149.5,130.5 C 161.833,130.5 174.167,130.5 186.5,130.5C 186.5,136.833 186.5,143.167 186.5,149.5C 192.833,149.5 199.167,149.5 205.5,149.5C 205.5,155.833 205.5,162.167 205.5,168.5C 199.167,168.5 192.833,168.5 186.5,168.5C 174.167,168.5 161.833,168.5 149.5,168.5C 149.5,155.833 149.5,143.167 149.5,130.5 Z"/></g>
<g><path style="opacity:1" fill="#85e2fd" d="M 74.5,168.5 C 93.1667,168.5 111.833,168.5 130.5,168.5C 130.5,174.5 130.5,180.5 130.5,186.5C 124.167,186.5 117.833,186.5 111.5,186.5C 99.1667,186.5 86.8333,186.5 74.5,186.5C 74.5,180.5 74.5,174.5 74.5,168.5 Z"/></g>
<g><path style="opacity:1" fill="#6ad4f4" d="M 130.5,168.5 C 136.833,168.5 143.167,168.5 149.5,168.5C 161.833,168.5 174.167,168.5 186.5,168.5C 186.5,174.5 186.5,180.5 186.5,186.5C 180.5,186.5 174.5,186.5 168.5,186.5C 168.5,192.833 168.5,199.167 168.5,205.5C 149.5,205.5 130.5,205.5 111.5,205.5C 111.5,199.167 111.5,192.833 111.5,186.5C 117.833,186.5 124.167,186.5 130.5,186.5C 130.5,180.5 130.5,174.5 130.5,168.5 Z"/></g>
<g><path style="opacity:1" fill="#157290" d="M 223.5,187.5 C 223.5,199.833 223.5,212.167 223.5,224.5C 211.5,224.5 199.5,224.5 187.5,224.5C 187.5,230.833 187.5,237.167 187.5,243.5C 162.167,243.5 136.833,243.5 111.5,243.5C 111.5,236.833 111.5,230.167 111.5,223.5C 136.833,223.5 162.167,223.5 187.5,223.5C 187.5,217.167 187.5,210.833 187.5,204.5C 193.5,204.5 199.5,204.5 205.5,204.5C 205.5,198.833 205.5,193.167 205.5,187.5C 211.5,187.5 217.5,187.5 223.5,187.5 Z"/></g>
<g><path style="opacity:1" fill="#1997bc" d="M 223.5,187.5 C 223.833,187.5 224.167,187.5 224.5,187.5C 230.833,187.5 237.167,187.5 243.5,187.5C 243.5,199.833 243.5,212.167 243.5,224.5C 237.167,224.5 230.833,224.5 224.5,224.5C 224.5,230.833 224.5,237.167 224.5,243.5C 212.167,243.5 199.833,243.5 187.5,243.5C 187.5,237.167 187.5,230.833 187.5,224.5C 199.5,224.5 211.5,224.5 223.5,224.5C 223.5,212.167 223.5,199.833 223.5,187.5 Z"/></g>
<g><path style="opacity:1" fill="#1997bc" d="M 111.5,243.5 C 136.833,243.5 162.167,243.5 187.5,243.5C 187.5,249.833 187.5,256.167 187.5,262.5C 162.167,262.5 136.833,262.5 111.5,262.5C 111.5,256.167 111.5,249.833 111.5,243.5 Z"/></g>
</svg>
