<?xml version="1.0" encoding="UTF-8" standalone="no"?>
<!DOCTYPE svg PUBLIC "-//W3C//DTD SVG 1.1//EN" "http://www.w3.org/Graphics/SVG/1.1/DTD/svg11.dtd">
<!-- Created with Vectornator (http://vectornator.io/) -->
<svg height="100%" stroke-miterlimit="10" style="fill-rule:nonzero;clip-rule:evenodd;stroke-linecap:round;stroke-linejoin:round;" version="1.1" viewBox="0 0 400 400" width="100%" xml:space="preserve" xmlns="http://www.w3.org/2000/svg" xmlns:vectornator="http://vectornator.io" xmlns:xlink="http://www.w3.org/1999/xlink">
<defs/>
<clipPath id="ArtboardFrame">
<rect height="400" width="400" x="0" y="0"/>
</clipPath>
<g clip-path="url(#ArtboardFrame)" id="Sans-titre" vectornator:layerName="Sans titre">
<path d="M363 401C242.038 401 121.575 401 1.05648 401C1.05648 267.746 1.05648 134.492 1.05648 1.11896C134.212 1.11896 267.425 1.11896 400.819 1.11896C400.819 134.333 400.819 267.667 400.819 401C388.492 401 375.996 401 363 401M75.7832 202.875C75.9879 198.386 76.2031 193.896 76.3381 189.405C76.3415 189.292 75.4612 189.153 74.3092 188.699C72.0667 183.176 69.2117 178.672 63.4029 175.582C53.2742 170.193 43.9312 172.275 36.2956 178.592C28.4449 185.088 26.5205 195.174 30.6516 204.459C32.0885 207.688 33.5263 210.479 29.4458 213.072C28.0893 213.935 27.0821 216.168 26.9008 217.878C26.5709 220.989 26.9787 224.178 27.1103 228.335C30.2545 222.228 32.6584 217.56 35.469 212.102C36.5484 214.024 36.8691 214.595 37.069 216.057C37.069 220.179 37.069 224.302 37.069 228.556C43.2264 229.272 42.6433 224.563 43.5508 220.944C51.0754 221.925 60.0692 216.963 63.8034 228.964C64.3174 228.579 64.8313 228.193 65.3452 227.808C65.5674 223.912 65.7896 220.017 66.0117 216.122C66.6167 215.978 67.2218 215.835 67.8268 215.692C70.4951 219.763 73.1634 223.834 75.8316 227.905C76.3361 227.883 76.8405 227.861 77.345 227.839C77.4393 225.319 77.8842 222.753 77.5576 220.289C76.7907 214.501 71.2925 209.424 75.0084 203.01C75.0084 203.01 74.9521 203.004 75.7832 202.875Z" fill="#ffffff" fill-opacity="0" fill-rule="nonzero" opacity="1" stroke="none" vectornator:layerName="path"/>
<path d="M37.1899 215.167C36.8691 214.595 36.5484 214.024 35.469 212.102C32.6584 217.56 30.2545 222.228 27.1103 228.335C26.9787 224.178 26.5709 220.989 26.9008 217.878C27.0821 216.168 28.0893 213.935 29.4458 213.072C33.5263 210.479 32.0885 207.688 30.6516 204.459C26.5205 195.174 28.4449 185.088 36.2956 178.592C43.9312 172.275 53.2742 170.193 63.4029 175.582C69.2117 178.672 72.0667 183.176 74.6514 189.297C74.9229 191.498 74.8524 193.103 74.7849 194.637C72.7034 195.006 70.9517 195.317 69.2 195.628C69.2304 195.927 69.2609 196.227 69.2913 196.526C71.1146 196.799 72.9378 197.072 74.9521 197.373C74.9521 199.406 74.9521 201.205 74.9521 203.004C74.9521 203.004 75.0084 203.01 74.5876 202.998C69.0649 201.856 67.1895 206.4 64.0099 208.808C62.5799 207.558 61.1324 206.293 59.2441 204.642C59.0484 207.134 58.9114 208.879 58.7794 210.56C49.8347 211.63 49.8347 211.63 48.3251 219.15C44.5853 217.812 40.8876 216.489 37.1899 215.167M54.3054 190.357C51.5616 187.489 48.6296 185.328 44.2272 186.134C40.6888 186.783 36.3204 191.023 36.1801 194.489C35.9557 200.033 38.7914 205.229 42.6517 205.741C47.1662 206.339 52.2586 206.535 54.2929 201.668C55.5817 198.585 54.6794 194.587 54.3054 190.357Z" fill="#dad3c9" fill-rule="nonzero" opacity="1" stroke="none" vectornator:layerName="path"/>
<path d="M37.1295 215.612C40.8876 216.489 44.5853 217.812 48.3251 219.15C49.8347 211.63 49.8347 211.63 58.7794 210.56C58.9114 208.879 59.0484 207.134 59.2441 204.642C61.1324 206.293 62.5799 207.558 64.0099 208.808C67.1895 206.4 69.0649 201.856 74.584 202.97C71.2925 209.424 76.7907 214.501 77.5576 220.289C77.8842 222.753 77.4393 225.319 77.345 227.839C76.8405 227.861 76.3361 227.883 75.8316 227.905C73.1634 223.834 70.4951 219.763 67.8268 215.692C67.2218 215.835 66.6167 215.978 66.0117 216.122C65.7896 220.017 65.5674 223.912 65.3452 227.808C64.8313 228.193 64.3174 228.579 63.8034 228.964C60.0692 216.963 51.0754 221.925 43.5508 220.944C42.6433 224.563 43.2264 229.272 37.069 228.556C37.069 224.302 37.069 220.179 37.1295 215.612Z" fill="#812a38" fill-rule="nonzero" opacity="1" stroke="none" vectornator:layerName="path"/>
<path d="M75.3676 202.94C74.9521 201.205 74.9521 199.406 74.9521 197.373C72.9378 197.072 71.1146 196.799 69.2913 196.526C69.2609 196.227 69.2304 195.927 69.2 195.628C70.9517 195.317 72.7034 195.006 74.7849 194.637C74.8524 193.103 74.9229 191.498 74.9933 189.46C75.4612 189.153 76.3415 189.292 76.3381 189.405C76.2031 193.896 75.9879 198.386 75.3676 202.94Z" fill="#812a38" fill-rule="nonzero" opacity="1" stroke="none" vectornator:layerName="path"/>
<path d="M54.5326 190.678C54.6794 194.587 55.5817 198.585 54.2929 201.668C52.2586 206.535 47.1662 206.339 42.6517 205.741C38.7914 205.229 35.9557 200.033 36.1801 194.489C36.3204 191.023 40.6888 186.783 44.2272 186.134C48.6296 185.328 51.5616 187.489 54.5326 190.678M39.2766 195.085C38.0855 198.676 40.1946 200.778 43.1373 200.893C45.0428 200.968 48.1515 199.234 48.6803 197.635C49.237 195.952 47.3643 193.465 46.553 191.329C44.2617 192.347 41.9703 193.364 39.2766 195.085Z" fill="#812a38" fill-rule="nonzero" opacity="1" stroke="none" vectornator:layerName="path"/>
<path d="M39.4778 194.734C41.9703 193.364 44.2617 192.347 46.553 191.329C47.3643 193.465 49.237 195.952 48.6803 197.635C48.1515 199.234 45.0428 200.968 43.1373 200.893C40.1946 200.778 38.0855 198.676 39.4778 194.734Z" fill="#000000" fill-rule="nonzero" opacity="1" stroke="none" vectornator:layerName="path"/>
</g>
</svg>
