<?xml version="1.0" encoding="UTF-8"?>
<!DOCTYPE svg PUBLIC "-//W3C//DTD SVG 1.1//EN" "http://www.w3.org/Graphics/SVG/1.1/DTD/svg11.dtd">
<svg xmlns="http://www.w3.org/2000/svg" version="1.1" width="1920px" height="1689px" style="shape-rendering:geometricPrecision; text-rendering:geometricPrecision; image-rendering:optimizeQuality; fill-rule:evenodd; clip-rule:evenodd" xmlns:xlink="http://www.w3.org/1999/xlink">
<g><path style="opacity:1" fill="#000000" d="M 965.5,1300.5 C 965.5,1311.5 965.5,1322.5 965.5,1333.5C 944.167,1333.5 922.833,1333.5 901.5,1333.5C 901.5,1344.5 901.5,1355.5 901.5,1366.5C 890.167,1366.5 878.833,1366.5 867.5,1366.5C 867.5,1377.5 867.5,1388.5 867.5,1399.5C 900.167,1399.5 932.833,1399.5 965.5,1399.5C 965.5,1388.5 965.5,1377.5 965.5,1366.5C 966.167,1366.5 966.5,1366.17 966.5,1365.5C 999.833,1365.5 1033.17,1365.5 1066.5,1365.5C 1066.5,1354.5 1066.5,1343.5 1066.5,1332.5C 1099.83,1332.5 1133.17,1332.5 1166.5,1332.5C 1166.5,1355.17 1166.5,1377.83 1166.5,1400.5C 1155.5,1400.5 1144.5,1400.5 1133.5,1400.5C 1133.5,1411.5 1133.5,1422.5 1133.5,1433.5C 1155.5,1433.5 1177.5,1433.5 1199.5,1433.5C 1199.5,1399.5 1199.5,1365.5 1199.5,1331.5C 1255.17,1331.5 1310.83,1331.5 1366.5,1331.5C 1366.5,1354.17 1366.5,1376.83 1366.5,1399.5C 1355.5,1399.5 1344.5,1399.5 1333.5,1399.5C 1333.5,1410.83 1333.5,1422.17 1333.5,1433.5C 1354.83,1433.5 1376.17,1433.5 1397.5,1433.5C 1397.5,1388.83 1397.5,1344.17 1397.5,1299.5C 1420.5,1299.5 1443.5,1299.5 1466.5,1299.5C 1477.83,1299.5 1489.17,1299.5 1500.5,1299.5C 1500.5,1288.5 1500.5,1277.5 1500.5,1266.5C 1489.17,1266.5 1477.83,1266.5 1466.5,1266.5C 1455.5,1266.5 1444.5,1266.5 1433.5,1266.5C 1433.5,1255.17 1433.5,1243.83 1433.5,1232.5C 1410.83,1232.5 1388.17,1232.5 1365.5,1232.5C 1365.5,1221.5 1365.5,1210.5 1365.5,1199.5C 1354.17,1199.5 1342.83,1199.5 1331.5,1199.5C 1331.5,1188.17 1331.5,1176.83 1331.5,1165.5C 1321.5,1165.5 1311.5,1165.5 1301.5,1165.5C 1301.5,1110.17 1301.5,1054.83 1301.5,999.5C 1289.83,999.5 1278.17,999.5 1266.5,999.5C 1255.17,999.5 1243.83,999.5 1232.5,999.5C 1232.5,1010.83 1232.5,1022.17 1232.5,1033.5C 1210.17,1033.5 1187.83,1033.5 1165.5,1033.5C 1165.5,1010.83 1165.5,988.167 1165.5,965.5C 1154.83,965.5 1144.17,965.5 1133.5,965.5C 1122.83,965.5 1112.17,965.5 1101.5,965.5C 1101.5,977.167 1101.5,988.833 1101.5,1000.5C 1089.83,1000.5 1078.17,1000.5 1066.5,1000.5C 1066.5,1011.17 1066.5,1021.83 1066.5,1032.5C 1066.17,1032.5 1065.83,1032.5 1065.5,1032.5C 1032.5,1032.5 999.5,1032.5 966.5,1032.5C 966.5,1021.5 966.5,1010.5 966.5,999.5C 999.5,999.5 1032.5,999.5 1065.5,999.5C 1065.5,987.833 1065.5,976.167 1065.5,964.5C 1077.17,964.5 1088.83,964.5 1100.5,964.5C 1100.5,953.833 1100.5,943.167 1100.5,932.5C 1133.83,932.5 1167.17,932.5 1200.5,932.5C 1200.5,954.5 1200.5,976.5 1200.5,998.5C 1210.83,998.5 1221.17,998.5 1231.5,998.5C 1231.5,987.5 1231.5,976.5 1231.5,965.5C 1265.17,965.5 1298.83,965.5 1332.5,965.5C 1332.5,1031.83 1332.5,1098.17 1332.5,1164.5C 1343.83,1164.5 1355.17,1164.5 1366.5,1164.5C 1366.5,1176.17 1366.5,1187.83 1366.5,1199.5C 1388.83,1199.5 1411.17,1199.5 1433.5,1199.5C 1433.5,1210.17 1433.5,1220.83 1433.5,1231.5C 1455.83,1231.5 1478.17,1231.5 1500.5,1231.5C 1500.5,1242.83 1500.5,1254.17 1500.5,1265.5C 1522.5,1265.5 1544.5,1265.5 1566.5,1265.5C 1566.5,1276.5 1566.5,1287.5 1566.5,1298.5C 1577.83,1298.5 1589.17,1298.5 1600.5,1298.5C 1600.5,1322.17 1600.5,1345.83 1600.5,1369.5C 1567.17,1369.5 1533.83,1369.5 1500.5,1369.5C 1500.5,1357.83 1500.5,1346.17 1500.5,1334.5C 1478.17,1334.5 1455.83,1334.5 1433.5,1334.5C 1433.5,1378.83 1433.5,1423.17 1433.5,1467.5C 1388.83,1467.5 1344.17,1467.5 1299.5,1467.5C 1299.5,1444.5 1299.5,1421.5 1299.5,1398.5C 1310.5,1398.5 1321.5,1398.5 1332.5,1398.5C 1332.5,1389.17 1332.5,1379.83 1332.5,1370.5C 1299.17,1370.5 1265.83,1370.5 1232.5,1370.5C 1232.5,1402.5 1232.5,1434.5 1232.5,1466.5C 1188.17,1466.5 1143.83,1466.5 1099.5,1466.5C 1099.5,1444.17 1099.5,1421.83 1099.5,1399.5C 1110.5,1399.5 1121.5,1399.5 1132.5,1399.5C 1132.5,1389.17 1132.5,1378.83 1132.5,1368.5C 1110.83,1368.5 1089.17,1368.5 1067.5,1368.5C 1067.5,1379.17 1067.5,1389.83 1067.5,1400.5C 1034.17,1400.5 1000.83,1400.5 967.5,1400.5C 967.5,1411.5 967.5,1422.5 967.5,1433.5C 933.833,1433.5 900.167,1433.5 866.5,1433.5C 866.5,1422.83 866.5,1412.17 866.5,1401.5C 854.833,1401.5 843.167,1401.5 831.5,1401.5C 831.5,1378.5 831.5,1355.5 831.5,1332.5C 854.167,1332.5 876.833,1332.5 899.5,1332.5C 899.5,1321.83 899.5,1311.17 899.5,1300.5C 921.5,1300.5 943.5,1300.5 965.5,1300.5 Z"/></g>
<g><path style="opacity:1" fill="#000000" d="M 966.5,999.5 C 922.167,999.5 877.833,999.5 833.5,999.5C 833.5,1010.83 833.5,1022.17 833.5,1033.5C 833.5,1044.5 833.5,1055.5 833.5,1066.5C 855.167,1066.5 876.833,1066.5 898.5,1066.5C 898.5,1077.83 898.5,1089.17 898.5,1100.5C 876.5,1100.5 854.5,1100.5 832.5,1100.5C 832.5,1089.17 832.5,1077.83 832.5,1066.5C 821.5,1066.5 810.5,1066.5 799.5,1066.5C 799.5,1044.17 799.5,1021.83 799.5,999.5C 810.5,999.5 821.5,999.5 832.5,999.5C 832.5,988.167 832.5,976.833 832.5,965.5C 877.167,965.5 921.833,965.5 966.5,965.5C 966.5,976.833 966.5,988.167 966.5,999.5 Z"/></g>
<g><path style="opacity:1" fill="#72ff88" d="M 1133.5,965.5 C 1133.5,988.167 1133.5,1010.83 1133.5,1033.5C 1144.17,1033.5 1154.83,1033.5 1165.5,1033.5C 1187.83,1033.5 1210.17,1033.5 1232.5,1033.5C 1232.5,1022.17 1232.5,1010.83 1232.5,999.5C 1243.83,999.5 1255.17,999.5 1266.5,999.5C 1266.5,1043.83 1266.5,1088.17 1266.5,1132.5C 1254.83,1132.5 1243.17,1132.5 1231.5,1132.5C 1231.5,1155.5 1231.5,1178.5 1231.5,1201.5C 1242.83,1201.5 1254.17,1201.5 1265.5,1201.5C 1265.5,1212.17 1265.5,1222.83 1265.5,1233.5C 1276.83,1233.5 1288.17,1233.5 1299.5,1233.5C 1299.5,1244.5 1299.5,1255.5 1299.5,1266.5C 1344.17,1266.5 1388.83,1266.5 1433.5,1266.5C 1444.5,1266.5 1455.5,1266.5 1466.5,1266.5C 1466.5,1277.5 1466.5,1288.5 1466.5,1299.5C 1443.5,1299.5 1420.5,1299.5 1397.5,1299.5C 1397.5,1344.17 1397.5,1388.83 1397.5,1433.5C 1376.17,1433.5 1354.83,1433.5 1333.5,1433.5C 1333.5,1422.17 1333.5,1410.83 1333.5,1399.5C 1344.5,1399.5 1355.5,1399.5 1366.5,1399.5C 1366.5,1376.83 1366.5,1354.17 1366.5,1331.5C 1310.83,1331.5 1255.17,1331.5 1199.5,1331.5C 1199.5,1365.5 1199.5,1399.5 1199.5,1433.5C 1177.5,1433.5 1155.5,1433.5 1133.5,1433.5C 1133.5,1422.5 1133.5,1411.5 1133.5,1400.5C 1144.5,1400.5 1155.5,1400.5 1166.5,1400.5C 1166.5,1377.83 1166.5,1355.17 1166.5,1332.5C 1133.17,1332.5 1099.83,1332.5 1066.5,1332.5C 1066.5,1343.5 1066.5,1354.5 1066.5,1365.5C 1033.17,1365.5 999.833,1365.5 966.5,1365.5C 966.5,1355.17 966.5,1344.83 966.5,1334.5C 988.833,1334.5 1011.17,1334.5 1033.5,1334.5C 1033.5,1323.17 1033.5,1311.83 1033.5,1300.5C 1056.5,1300.5 1079.5,1300.5 1102.5,1300.5C 1102.5,1289.83 1102.5,1279.17 1102.5,1268.5C 1113.17,1268.5 1123.83,1268.5 1134.5,1268.5C 1134.5,1257.17 1134.5,1245.83 1134.5,1234.5C 1144.83,1234.5 1155.17,1234.5 1165.5,1234.5C 1165.5,1222.5 1165.5,1210.5 1165.5,1198.5C 1154.83,1198.5 1144.17,1198.5 1133.5,1198.5C 1133.5,1187.5 1133.5,1176.5 1133.5,1165.5C 1122.17,1165.5 1110.83,1165.5 1099.5,1165.5C 1099.5,1154.83 1099.5,1144.17 1099.5,1133.5C 1077.5,1133.5 1055.5,1133.5 1033.5,1133.5C 1033.5,1122.17 1033.5,1110.83 1033.5,1099.5C 1010.83,1099.5 988.167,1099.5 965.5,1099.5C 965.5,1088.17 965.5,1076.83 965.5,1065.5C 943.167,1065.5 920.833,1065.5 898.5,1065.5C 898.5,1054.83 898.5,1044.17 898.5,1033.5C 876.833,1033.5 855.167,1033.5 833.5,1033.5C 833.5,1022.17 833.5,1010.83 833.5,999.5C 877.833,999.5 922.167,999.5 966.5,999.5C 966.5,1010.5 966.5,1021.5 966.5,1032.5C 999.5,1032.5 1032.5,1032.5 1065.5,1032.5C 1065.5,1044.17 1065.5,1055.83 1065.5,1067.5C 1077.5,1067.5 1089.5,1067.5 1101.5,1067.5C 1101.5,1055.83 1101.5,1044.17 1101.5,1032.5C 1089.83,1032.5 1078.17,1032.5 1066.5,1032.5C 1066.5,1021.83 1066.5,1011.17 1066.5,1000.5C 1078.17,1000.5 1089.83,1000.5 1101.5,1000.5C 1101.5,988.833 1101.5,977.167 1101.5,965.5C 1112.17,965.5 1122.83,965.5 1133.5,965.5 Z"/></g>
<g><path style="opacity:1" fill="#126a1f" d="M 1133.5,965.5 C 1144.17,965.5 1154.83,965.5 1165.5,965.5C 1165.5,988.167 1165.5,1010.83 1165.5,1033.5C 1154.83,1033.5 1144.17,1033.5 1133.5,1033.5C 1133.5,1010.83 1133.5,988.167 1133.5,965.5 Z"/></g>
<g><path style="opacity:1" fill="#126a1f" d="M 1266.5,999.5 C 1278.17,999.5 1289.83,999.5 1301.5,999.5C 1301.5,1054.83 1301.5,1110.17 1301.5,1165.5C 1311.5,1165.5 1321.5,1165.5 1331.5,1165.5C 1331.5,1176.83 1331.5,1188.17 1331.5,1199.5C 1342.83,1199.5 1354.17,1199.5 1365.5,1199.5C 1365.5,1210.5 1365.5,1221.5 1365.5,1232.5C 1388.17,1232.5 1410.83,1232.5 1433.5,1232.5C 1433.5,1243.83 1433.5,1255.17 1433.5,1266.5C 1388.83,1266.5 1344.17,1266.5 1299.5,1266.5C 1299.5,1255.5 1299.5,1244.5 1299.5,1233.5C 1288.17,1233.5 1276.83,1233.5 1265.5,1233.5C 1265.5,1222.83 1265.5,1212.17 1265.5,1201.5C 1254.17,1201.5 1242.83,1201.5 1231.5,1201.5C 1231.5,1178.5 1231.5,1155.5 1231.5,1132.5C 1243.17,1132.5 1254.83,1132.5 1266.5,1132.5C 1266.5,1088.17 1266.5,1043.83 1266.5,999.5 Z"/></g>
<g><path style="opacity:1" fill="#fe0000" d="M 1065.5,1032.5 C 1065.83,1032.5 1066.17,1032.5 1066.5,1032.5C 1078.17,1032.5 1089.83,1032.5 1101.5,1032.5C 1101.5,1044.17 1101.5,1055.83 1101.5,1067.5C 1089.5,1067.5 1077.5,1067.5 1065.5,1067.5C 1065.5,1055.83 1065.5,1044.17 1065.5,1032.5 Z"/></g>
<g><path style="opacity:1" fill="#deffe3" d="M 833.5,1033.5 C 855.167,1033.5 876.833,1033.5 898.5,1033.5C 898.5,1044.17 898.5,1054.83 898.5,1065.5C 920.833,1065.5 943.167,1065.5 965.5,1065.5C 965.5,1076.83 965.5,1088.17 965.5,1099.5C 988.167,1099.5 1010.83,1099.5 1033.5,1099.5C 1033.5,1110.83 1033.5,1122.17 1033.5,1133.5C 1055.5,1133.5 1077.5,1133.5 1099.5,1133.5C 1099.5,1144.17 1099.5,1154.83 1099.5,1165.5C 1110.83,1165.5 1122.17,1165.5 1133.5,1165.5C 1133.5,1176.5 1133.5,1187.5 1133.5,1198.5C 1144.17,1198.5 1154.83,1198.5 1165.5,1198.5C 1165.5,1210.5 1165.5,1222.5 1165.5,1234.5C 1155.17,1234.5 1144.83,1234.5 1134.5,1234.5C 1134.5,1245.83 1134.5,1257.17 1134.5,1268.5C 1123.83,1268.5 1113.17,1268.5 1102.5,1268.5C 1102.5,1279.17 1102.5,1289.83 1102.5,1300.5C 1079.5,1300.5 1056.5,1300.5 1033.5,1300.5C 1033.5,1311.83 1033.5,1323.17 1033.5,1334.5C 1011.17,1334.5 988.833,1334.5 966.5,1334.5C 966.5,1344.83 966.5,1355.17 966.5,1365.5C 966.5,1366.17 966.167,1366.5 965.5,1366.5C 944.167,1366.5 922.833,1366.5 901.5,1366.5C 901.5,1355.5 901.5,1344.5 901.5,1333.5C 922.833,1333.5 944.167,1333.5 965.5,1333.5C 965.5,1322.5 965.5,1311.5 965.5,1300.5C 965.5,1300.17 965.5,1299.83 965.5,1299.5C 987.833,1299.5 1010.17,1299.5 1032.5,1299.5C 1032.5,1288.5 1032.5,1277.5 1032.5,1266.5C 1054.83,1266.5 1077.17,1266.5 1099.5,1266.5C 1099.5,1255.5 1099.5,1244.5 1099.5,1233.5C 1110.5,1233.5 1121.5,1233.5 1132.5,1233.5C 1132.5,1222.17 1132.5,1210.83 1132.5,1199.5C 1121.17,1199.5 1109.83,1199.5 1098.5,1199.5C 1098.5,1188.5 1098.5,1177.5 1098.5,1166.5C 1076.5,1166.5 1054.5,1166.5 1032.5,1166.5C 1032.5,1155.83 1032.5,1145.17 1032.5,1134.5C 1010.17,1134.5 987.833,1134.5 965.5,1134.5C 964.833,1134.5 964.5,1134.17 964.5,1133.5C 964.5,1122.5 964.5,1111.5 964.5,1100.5C 942.833,1100.5 921.167,1100.5 899.5,1100.5C 899.167,1100.5 898.833,1100.5 898.5,1100.5C 898.5,1089.17 898.5,1077.83 898.5,1066.5C 876.833,1066.5 855.167,1066.5 833.5,1066.5C 833.5,1055.5 833.5,1044.5 833.5,1033.5 Z"/></g>
<g><path style="opacity:1" fill="#fe0000" d="M 1166.5,1066.5 C 1178.17,1066.5 1189.83,1066.5 1201.5,1066.5C 1201.5,1077.5 1201.5,1088.5 1201.5,1099.5C 1189.83,1099.5 1178.17,1099.5 1166.5,1099.5C 1166.5,1088.5 1166.5,1077.5 1166.5,1066.5 Z"/></g>
<g><path style="opacity:1" fill="#000000" d="M 899.5,1100.5 C 921.167,1100.5 942.833,1100.5 964.5,1100.5C 964.5,1111.5 964.5,1122.5 964.5,1133.5C 942.833,1133.5 921.167,1133.5 899.5,1133.5C 899.5,1122.5 899.5,1111.5 899.5,1100.5 Z"/></g>
<g><path style="opacity:1" fill="#000000" d="M 965.5,1134.5 C 987.833,1134.5 1010.17,1134.5 1032.5,1134.5C 1032.5,1145.17 1032.5,1155.83 1032.5,1166.5C 1010.17,1166.5 987.833,1166.5 965.5,1166.5C 965.5,1155.83 965.5,1145.17 965.5,1134.5 Z"/></g>
<g><path style="opacity:1" fill="#000000" d="M 1032.5,1166.5 C 1054.5,1166.5 1076.5,1166.5 1098.5,1166.5C 1098.5,1177.5 1098.5,1188.5 1098.5,1199.5C 1109.83,1199.5 1121.17,1199.5 1132.5,1199.5C 1132.5,1210.83 1132.5,1222.17 1132.5,1233.5C 1121.5,1233.5 1110.5,1233.5 1099.5,1233.5C 1099.5,1244.5 1099.5,1255.5 1099.5,1266.5C 1077.17,1266.5 1054.83,1266.5 1032.5,1266.5C 1032.5,1255.17 1032.5,1243.83 1032.5,1232.5C 1054.5,1232.5 1076.5,1232.5 1098.5,1232.5C 1098.5,1221.83 1098.5,1211.17 1098.5,1200.5C 1076.5,1200.5 1054.5,1200.5 1032.5,1200.5C 1032.5,1189.17 1032.5,1177.83 1032.5,1166.5 Z"/></g>
<g><path style="opacity:1" fill="#000000" d="M 1032.5,1266.5 C 1032.5,1277.5 1032.5,1288.5 1032.5,1299.5C 1010.17,1299.5 987.833,1299.5 965.5,1299.5C 965.5,1288.5 965.5,1277.5 965.5,1266.5C 987.833,1266.5 1010.17,1266.5 1032.5,1266.5 Z"/></g>
<g><path style="opacity:1" fill="#126a1f" d="M 1466.5,1266.5 C 1477.83,1266.5 1489.17,1266.5 1500.5,1266.5C 1500.5,1277.5 1500.5,1288.5 1500.5,1299.5C 1489.17,1299.5 1477.83,1299.5 1466.5,1299.5C 1466.5,1288.5 1466.5,1277.5 1466.5,1266.5 Z"/></g>
<g><path style="opacity:1" fill="#72ff88" d="M 1533.5,1299.5 C 1533.5,1310.83 1533.5,1322.17 1533.5,1333.5C 1522.83,1333.5 1512.17,1333.5 1501.5,1333.5C 1501.5,1322.17 1501.5,1310.83 1501.5,1299.5C 1512.17,1299.5 1522.83,1299.5 1533.5,1299.5 Z"/></g>
<g><path style="opacity:1" fill="#126a1f" d="M 1533.5,1299.5 C 1543.83,1299.5 1554.17,1299.5 1564.5,1299.5C 1564.5,1310.83 1564.5,1322.17 1564.5,1333.5C 1554.17,1333.5 1543.83,1333.5 1533.5,1333.5C 1533.5,1322.17 1533.5,1310.83 1533.5,1299.5 Z"/></g>
<g><path style="opacity:1" fill="#72ff88" d="M 901.5,1366.5 C 922.833,1366.5 944.167,1366.5 965.5,1366.5C 965.5,1377.5 965.5,1388.5 965.5,1399.5C 932.833,1399.5 900.167,1399.5 867.5,1399.5C 867.5,1388.5 867.5,1377.5 867.5,1366.5C 878.833,1366.5 890.167,1366.5 901.5,1366.5 Z"/></g>
</svg>
