<?xml version="1.0" encoding="UTF-8" standalone="no"?>
<!DOCTYPE svg PUBLIC "-//W3C//DTD SVG 1.1//EN" "http://www.w3.org/Graphics/SVG/1.1/DTD/svg11.dtd">
<!-- Created with Vectornator (http://vectornator.io/) -->
<svg height="100%" stroke-miterlimit="10" style="fill-rule:nonzero;clip-rule:evenodd;stroke-linecap:round;stroke-linejoin:round;" version="1.1" viewBox="0 0 1920 1120" width="100%" xml:space="preserve" xmlns="http://www.w3.org/2000/svg" xmlns:vectornator="http://vectornator.io" xmlns:xlink="http://www.w3.org/1999/xlink">
<defs/>
<clipPath id="ArtboardFrame">
<rect height="1120" width="1920" x="0" y="0"/>
</clipPath>
<g clip-path="url(#ArtboardFrame)" id="Sans-titre" vectornator:layerName="Sans titre">
<path d="M1397 1121C932.833 1121 469.167 1120.99 5.50027 1121.09C1.75181 1121.09 0.90592 1120.25 0.90693 1116.5C1.00664 746.167 1.00664 375.834 0.907056 5.50047C0.906049 1.75248 1.74943 0.906612 5.49956 0.907181C642.499 1.00386 1279.5 1.00385 1916.5 0.907401C1920.25 0.906834 1921.09 1.74825 1921.09 5.49923C1920.99 375.832 1920.99 746.166 1921.09 1116.5C1921.09 1120.25 1920.25 1121.1 1916.5 1121.09C1743.5 1120.99 1570.5 1121 1397 1121Z" fill="#ffffff" fill-opacity="0" fill-rule="nonzero" opacity="1" stroke="none" vectornator:layerName="path"/>
<path d="M284.594 250.049C289.623 249.911 294.272 249.956 298.92 249.904C302.23 249.867 304.418 251.252 304.828 254.627C305.283 258.372 307.714 259.006 310.844 258.994C319.643 258.961 328.445 259.111 337.241 258.962C341.58 258.889 344.386 259.999 344.188 265.001C344.072 267.946 345.506 269.807 348.609 269.809C352.662 269.811 354.178 271.98 354.236 275.756C354.271 278.043 355.52 279.744 357.867 279.691C363.962 279.554 364.394 283.48 364.211 288.434C366.785 291.219 369.895 289.744 372.724 289.932C375.092 290.09 377.028 289.991 377.98 292.776C378.661 294.77 380.504 295.858 382.601 296.135C387.227 296.747 391.876 296.629 396.512 296.253C397.824 296.146 399.347 295.84 399.598 294.239C399.868 292.513 398.385 291.932 397.101 291.711C394.255 291.22 392.78 289.692 392.324 286.826C391.857 283.89 389.924 282.059 387.008 281.635C383.415 281.111 382.378 278.898 382.512 275.673C382.539 275.011 382.433 274.337 382.512 273.683C383.236 267.713 381.697 262.791 376.02 259.373C375.908 254.549 376.033 250.056 375.848 245.575C375.658 240.993 377.408 238.603 382.222 239.007C383.047 239.076 383.884 239.005 384.715 239.001C394.994 238.955 395.004 238.955 394.996 228.443C394.991 222.292 394.948 216.142 394.897 209.527C392.392 207.117 392.407 204.356 392.49 201.607C392.648 196.397 390.977 192.33 385.403 191.201C383.333 190.781 382.963 189.307 382.617 187.969C381.396 183.255 378.114 181.689 373.691 181.576C372.525 181.546 371.359 181.52 370.193 181.495C362.377 181.328 360.19 177.243 364.567 170.068C374.633 169.864 384.291 169.821 394.409 169.761C396.159 168.68 397.531 167.778 399.276 167.722C401.986 167.636 404.799 167.686 406.324 170.348C407.806 172.934 407.91 175.699 405.409 178.592C403.301 188.035 404.304 197.153 404.342 206.244C404.35 208.088 405.529 209.632 407.393 209.589C413.457 209.448 414.582 213.061 414.238 218.434C416.046 220.491 416.542 222.55 416.502 224.896C416.448 228.048 416.43 231.204 416.508 234.355C416.596 237.913 416.185 241.051 411.903 241.987C410.949 242.196 410.163 242.93 409.494 243.692C405.558 248.17 407.146 262.918 412.033 266.481C413.09 267.251 413.872 268.15 414.851 269.483C420.034 269.589 424.34 269.766 424.481 276.606C424.555 280.166 428.042 279.774 430.655 279.813C433.418 279.853 435.558 279.033 435.752 275.801C435.831 274.489 435.846 273.174 435.905 271.422C435.936 270.582 436.1 270.257 436.697 269.963C446.008 269.904 455.035 269.888 464.53 269.882C469.012 272.013 467.486 275.592 466.993 278.618C466.508 281.598 463.67 281.324 461.397 281.456C459.249 281.58 457.092 281.489 454.944 281.69C451.297 282.03 448.528 283.649 447.697 287.377C446.964 290.666 444.812 291.472 441.908 291.482C439.59 291.49 437.264 291.419 434.959 291.706C430.18 292.302 428.286 294.215 427.688 298.997C427.286 302.211 427.928 305.56 426.21 308.997C422.003 311.613 417.72 313.495 417.14 319.005C416.989 320.433 415.232 320.992 413.938 321.679C411.643 322.898 410.874 324.822 413.582 326.043C417.216 327.682 417.629 330.452 417.502 333.755C417.458 334.917 417.493 336.084 417.546 337.248C417.857 344.191 419.741 346.118 426.557 346.448C428.552 346.544 430.55 346.507 432.546 346.55C435.757 346.619 437.407 348.172 437.439 351.432C437.522 359.917 437.568 368.402 437.413 376.887C437.371 379.125 436.594 380.939 434.161 381.391C429.043 382.34 427.582 385.861 427.541 390.482C427.526 392.145 427.494 393.809 427.449 395.472C427.381 398.03 426.464 399.841 423.717 400.47C419.524 401.43 417.695 404.254 417.695 408.463C417.694 412.645 419.413 415.544 423.652 416.489C426.609 417.147 427.472 419.106 427.482 421.83C427.491 424.322 427.388 426.824 427.679 429.305C428.223 433.944 430.018 435.732 434.625 436.322C435.285 436.406 435.952 436.464 436.616 436.448C447.56 436.185 446.412 437.755 446.491 446.605C446.521 449.932 446.493 453.26 446.458 456.587C446.423 459.824 444.799 461.395 441.645 461.496C441.151 461.512 440.64 461.558 440.159 461.503C433.856 460.779 428.764 462.577 425.267 468.694C423.474 469.018 421.98 469.04 420.487 469.093C416.826 469.222 414.809 467.602 414.897 463.804C414.989 459.874 413.244 458.067 409.179 458.147C404.728 458.234 404.116 460.942 404.131 464.462C404.169 473.263 404.154 482.064 404.12 490.865C404.09 498.619 403.804 498.887 395.532 499.22C392.286 501.529 389.375 502.308 386.037 499.32C385.829 496.993 385.804 495.177 385.834 493.362C385.884 490.254 384.687 488.273 381.301 488.155C378.376 488.053 376.101 487.221 376.013 483.676C375.929 480.246 377.889 479.096 380.924 478.781C384.823 478.377 384.875 475.469 384.779 472.521C384.676 469.374 382.844 468.184 379.934 468.191C378.614 468.193 377.294 468.203 375.534 468.221C372.505 470.616 369.76 471.248 366.332 468.601C365.905 468.233 365.547 468.204 365.368 468.184C361.734 466.877 362.846 463.878 362.707 460.937C368.183 457.496 371.996 453.25 375.322 447.86C377.66 444.071 385.758 446.545 387.646 450.861C388.179 452.082 388.545 453.619 390.27 453.301C391.849 453.011 392.027 451.469 392.269 450.159C392.481 449.011 392.559 447.831 392.473 446.673C392.151 442.326 392.705 438.664 398.1 437.92C399.433 437.737 400.519 436.647 400.575 435.127C400.64 433.339 399.394 432.23 397.876 431.994C394.226 431.429 392.612 429.29 391.935 425.837C391.528 423.757 389.776 422.618 387.798 421.844C381.821 419.507 380.688 415.348 384.618 409.223C384.926 407.274 385.02 405.612 385.027 403.949C385.042 400.66 386.297 398.903 389.919 399.575C393.912 400.315 395.896 398.57 395.938 394.482C395.973 391.066 398.139 389.927 401.196 389.848C404.226 389.769 405.829 388.209 405.792 385.163C405.689 376.693 406.447 368.207 405.174 359.37C402.257 355.692 400.136 351.773 396.012 349.364C395.872 346.028 395.825 343.018 395.762 339.56C392.8 337.093 392.162 334.434 392.85 330.954C394.127 324.49 393.191 322.802 387.319 320.004C385.723 319.243 384.567 318.218 384.034 316.639C382.464 311.988 379.097 310.334 374.448 310.506C372.463 310.58 370.466 310.548 368.478 310.368C367.017 310.235 365.317 309.396 365.079 308.422C363.322 301.264 356.085 299.143 351.794 294.403C348.231 290.467 342.862 288.295 339.454 283.153C337.624 280.392 333.886 278.622 332.215 274.716C330.321 270.288 321.679 270.512 318.347 274.601C317.472 275.673 317.107 277.154 315.393 277.96C311.988 278.093 308.938 278.106 305.432 278.106C301.606 275.359 299.257 271.131 294.259 270.785C292.39 265.387 288.363 262.406 283.604 259.446C281.419 258.087 281.547 253.183 284.594 250.049Z" fill="#331f07" fill-rule="nonzero" opacity="1" stroke="none" vectornator:layerName="path"/>
<path d="M425.416 468.986C424.999 467.32 425.044 465.657 425.062 463.994C425.095 460.722 426.768 459.113 430.01 459.068C433.003 459.026 435.997 458.974 438.99 458.931C442.243 458.885 443.885 457.239 443.931 453.988C444.16 437.633 445.082 438.566 431.005 438.985C426.795 439.111 424.842 437.191 425.015 432.987C425.09 431.161 424.914 429.323 425.016 427.5C425.282 422.759 424.829 418.758 418.537 418.722C416.178 418.708 415.196 416.745 415.128 414.526C415.031 411.368 415.145 408.202 414.986 405.049C414.771 400.768 415.963 397.909 420.926 397.84C423.498 397.804 424.761 396.073 424.873 393.572C424.969 391.413 425.101 389.242 424.976 387.09C424.702 382.409 425.472 378.79 431.377 378.746C433.728 378.728 434.835 376.849 434.857 374.614C434.928 367.63 434.933 360.645 434.887 353.661C434.867 350.605 433.108 349.146 430.136 349.083C427.309 349.023 424.481 349.051 421.654 348.977C415.947 348.827 415.156 348.004 415.019 342.141C414.976 340.312 414.916 338.477 415.012 336.653C415.234 332.406 414.541 329.087 409.223 328.667C406.566 328.458 406.078 326.073 406.119 323.737C406.158 321.54 406.869 319.529 409.25 319.31C413.353 318.932 414.71 316.792 415.263 312.874C416.027 307.447 420.78 309.485 424.907 309.024C427.445 313.261 430.478 316.296 434.665 318.731C444.98 319.079 444.991 319.085 444.998 329.412C445.009 345.658 445.01 361.903 445.019 378.623C446.807 380.452 447.387 382.235 447.484 384.476C447.673 388.807 447.079 393.03 446.417 397.272C446.117 399.192 445.353 400.687 443.413 401.357C438.952 402.899 437.716 406.404 437.528 410.697C437.413 413.329 438.165 416.253 435.328 418.608C435.031 420.402 435.062 421.902 435.044 423.402C435 427.102 436.779 428.959 440.513 428.95C443.346 428.943 446.181 429.083 449.012 429.019C453.251 428.923 455.062 430.993 454.989 435.137C454.912 439.468 455.01 443.803 455.038 448.609C456.5 450.34 457.381 451.82 457.417 453.85C457.536 460.618 457.547 467.383 457.416 474.151C457.385 475.762 456.867 477.084 455.479 478.621C450.182 478.966 445.238 478.981 440.296 478.916C438.032 478.886 435.523 478.337 435.415 475.745C435.138 469.082 430.872 468.647 425.416 468.986Z" fill="#0e0e06" fill-rule="nonzero" opacity="1" stroke="none" vectornator:layerName="path"/>
<path d="M364.835 169.751C365.124 178.868 365.223 178.962 374.342 179.001C376.166 179.009 377.991 179.053 379.815 179.058C382.977 179.067 384.87 180.487 384.965 183.784C385.064 187.225 386.772 188.938 390.214 189.034C393.87 189.136 394.993 191.42 394.967 194.68C394.932 199.158 394.935 203.637 394.896 208.59C389.798 209.166 385.305 209.429 384.371 202.105C383.768 197.377 378.483 199.498 374.7 199.062C372.677 199.27 371.917 198.487 371.518 197.001C370.389 192.798 367.197 191.645 363.286 191.528C360.881 191.456 358.305 191.826 356.243 189.275C355.736 188.797 355.519 188.588 355.156 188.205C352.51 184.836 349.873 181.778 346.216 179.24C345.736 178.797 345.519 178.588 345.156 178.205C342.51 174.836 339.873 171.778 336.216 169.24C335.736 168.797 335.519 168.588 335.156 168.205C332.508 166.241 332.545 163.593 332.466 160.897C332.269 154.144 331.875 153.581 325.532 151.299C324.093 150.782 322.885 149.946 322.779 148.639C322.427 144.327 319.46 141.982 316.24 139.273C310.995 138.987 306.029 138.974 301.063 138.966C297.711 138.96 295.148 138.067 295.14 134.011C295.131 129.969 297.647 129.021 301.025 129.029C302.35 129.031 303.674 129.006 305.444 128.995C309.194 126.566 312.191 123.826 314.768 120.161C322.56 120.012 325.964 116.119 325.901 108.366C328.183 105.313 330.554 104.713 333.689 107.589C337.09 109.763 341.085 107.657 343.856 110.77C336.035 115.616 337.223 123.121 337.765 130.407C338.041 134.123 341.399 135.373 343.848 137.776C345.395 141.583 344.879 145.317 345.005 149.444C347.434 153.194 350.173 156.191 353.839 158.768C354.318 159.185 354.521 159.38 354.859 159.737C357.434 163.194 360.173 166.191 363.839 168.768C364.311 169.19 364.507 169.389 364.835 169.751Z" fill="#0e0e06" fill-rule="nonzero" opacity="1" stroke="none" vectornator:layerName="path"/>
<path d="M224.785 270.14C228.059 268.83 231.148 268.783 234.632 269.768C238.21 274.936 242.738 277.192 248.734 276.545C250.598 276.343 252.307 276.907 253.817 278.742C254.318 279.185 254.52 279.38 254.859 279.737C258.633 285.475 263.962 286.867 270.284 286.56C277.525 286.208 284.8 286.792 292.036 286.047C293.405 285.906 294.546 285.888 295.109 287.817C294.812 298.989 294.812 298.995 284.208 298.998C273.57 299.001 262.931 298.927 252.294 299.021C248.155 299.057 245.061 298.26 244.847 293.245C244.713 290.114 242.469 289.09 239.666 289.076C233.35 289.042 227.034 289.075 220.718 289.038C217.114 289.017 215.101 290.571 214.971 294.343C214.925 295.654 214.525 296.953 214.151 298.631C212.848 300.279 211.489 301.408 209.731 301.431C202.81 301.52 195.888 301.586 188.965 301.423C187.574 301.39 186.811 300.459 185.44 299.51C185.056 297.821 184.964 296.499 184.997 295.18C185.088 291.501 183.753 289.144 179.695 288.938C176.448 288.773 175.037 286.871 175.144 283.685C175.259 280.285 177.317 279.089 180.355 279.076C187.622 279.044 194.889 279.061 202.63 279.07C208.406 283.749 208.542 283.746 213.237 278.246C213.79 277.599 214.387 276.901 215.199 276.898C219.85 276.88 222.109 273.502 224.785 270.14Z" fill="#0e0e06" fill-rule="nonzero" opacity="1" stroke="none" vectornator:layerName="path"/>
<path d="M425.008 309.008C425.023 304.203 425.07 299.392 425.031 294.583C425.001 290.913 426.644 288.992 430.412 289.044C432.236 289.069 434.066 288.917 435.884 289.018C440.898 289.295 445.336 289.059 445.362 282.202C445.37 280.118 447.306 279.234 449.303 279.144C451.787 279.032 454.276 279.023 456.763 279C464.495 278.927 464.836 278.593 464.998 270.343C464.998 269.892 465.005 269.425 465.015 269.192C468.574 266.163 472.236 263.739 473.359 258.647C474.018 255.66 480.505 255.713 484.63 258.617C484.933 263.215 484.901 267.534 484.982 271.851C485.057 275.914 483.422 278.27 479.086 277.881C475.402 277.551 473.979 279.191 474.008 282.785C474.038 286.506 475.211 288.796 479.364 288.974C484.322 289.186 489.341 288.358 494.623 289.899C497.605 293.116 500.462 295.633 504.494 296.937C508.251 298.151 508.659 304.035 505.326 308.719C505.018 309.037 505.001 308.991 505.025 308.991C503.533 310.809 501.618 311.568 499.231 311.498C496.596 311.42 493.947 311.378 491.315 311.519C487.176 311.742 483.951 311.019 482.86 306.173C482.044 302.547 478.021 301.902 475.383 299.327C465.336 299.016 455.594 299.016 445.377 299.019C441.293 301.745 437.601 304.386 435.217 308.805C434.982 309.055 435.003 309.003 435.029 308.992C432.169 311.751 429.126 312.566 425.393 309.357C424.993 308.993 425.002 309.002 425.008 309.008Z" fill="#0e0e06" fill-rule="nonzero" opacity="1" stroke="none" vectornator:layerName="path"/>
<path d="M405.438 178.986C404.96 170.325 404.96 170.325 395.327 169.796C394.865 167.612 394.936 165.476 394.837 163.348C394.745 161.384 393.865 159.467 391.815 159.411C385.255 159.234 384.612 155.03 385.11 149.084C387.988 146.107 390.664 146.06 393.712 148.619C394.311 149.189 394.515 149.385 394.855 149.744C397.44 152.725 399.892 155.387 404.052 155.7C407.042 155.926 407.321 158.476 407.636 160.843C407.786 161.97 407.993 163.454 409.388 163.478C411.18 163.508 411.207 161.797 411.31 160.536C411.597 157.02 411.053 153.88 407.088 152.567C406.049 152.224 404.673 152.145 404.904 150.104C405.118 146.42 404.687 143.037 405.774 139.38C411.201 134.631 415.357 135.621 417.885 141.855C420.029 147.143 428.684 148.206 432.493 143.616C433.536 142.36 434.072 140.722 435.629 139.362C443.932 138.822 443.932 138.822 445.774 129.376C449.126 126.754 451.112 123.4 453.767 120.168C459.57 118.341 465.244 119.005 470.877 119.219C473.719 119.327 474.85 121.281 474.852 123.991C474.854 126.695 473.742 128.586 470.895 128.787C467.745 129.01 464.572 129.081 461.415 128.996C457.066 128.879 454.833 130.699 455.016 135.2C455.097 137.194 454.899 139.201 455.015 141.191C455.282 145.75 454.25 149.082 448.749 149.25C446.423 149.32 445.221 151.095 445.126 153.324C444.944 157.594 442.602 159.04 438.606 159.001C424.109 158.858 424.873 158.2 425.017 172.49C425.064 177.189 423.021 179.173 418.395 179.01C414.238 178.865 410.072 178.985 405.438 178.986Z" fill="#0e0e06" fill-rule="nonzero" opacity="1" stroke="none" vectornator:layerName="path"/>
<path d="M315.409 278.206C315.032 269.284 315.273 269.035 323.928 269.004C325.927 268.997 327.929 269.084 329.926 269.013C333.716 268.879 335.981 270.324 336.066 274.425C336.122 277.166 337.61 278.741 340.38 278.974C343.376 279.226 344.897 280.861 344.975 283.829C345.067 287.318 346.853 289.006 350.311 288.985C353.569 288.965 355.782 290.145 356.059 293.766C356.275 296.586 358.032 297.88 360.723 297.957C364.159 298.056 365.939 299.708 366.031 303.19C366.128 306.864 368.416 308.002 371.694 307.969C373.859 307.948 376.031 308.096 378.191 307.983C382.684 307.749 386.166 308.512 386.207 314.183C386.226 316.803 388.244 317.888 390.666 317.943C394.824 318.038 396.081 320.434 395.991 324.165C395.88 328.828 395.89 333.493 395.797 338.635C395.746 339.113 395.32 339.03 395.108 338.984C392.373 335.148 389.545 331.664 385.192 329.215C384.944 328.98 384.997 329.003 385.008 329.03C381.43 322.171 375.422 320.676 368.316 321.456C365.075 321.812 362.796 320.67 362.373 317.046C361.902 313.014 358.126 311.932 355.38 309.415C355.056 307.66 354.96 306.171 354.978 304.683C355.028 300.712 353.004 298.958 349.138 299.031C347.154 299.069 345.161 298.906 343.182 299.016C338.564 299.274 334.9 298.531 334.737 292.7C334.672 290.386 332.869 289.248 330.662 289.119C327.163 288.914 325.184 287.395 324.926 283.685C324.5 277.582 319.086 279.694 315.409 278.206Z" fill="#0e0e06" fill-rule="nonzero" opacity="1" stroke="none" vectornator:layerName="path"/>
<path d="M185.075 299.581C194.419 299.099 203.747 299.057 213.545 299.009C214.034 306.997 214.017 314.99 214.088 322.982C214.116 326.148 213.017 328.129 209.532 328.109C206.094 328.09 204.932 329.997 204.975 333.224C205.06 339.717 204.942 346.213 204.985 352.706C205.007 356.117 204.869 358.952 200.138 359.017C195.126 359.085 194.969 356.099 195.009 352.481C195.075 346.487 194.909 340.49 195.042 334.498C195.123 330.85 193.98 328.699 189.955 328.969C186.291 329.215 184.969 327.384 185.011 323.822C185.051 320.426 186.459 318.865 189.81 319.034C193.234 319.207 195.063 317.969 195.043 314.168C195.025 310.652 193.864 308.859 190.145 308.961C182.975 309.159 185.57 303.68 185.075 299.581Z" fill="#313a25" fill-rule="nonzero" opacity="1" stroke="none" vectornator:layerName="path"/>
<path d="M384.423 408.948C384.924 410.43 385.03 411.925 385.019 413.418C384.993 416.732 386.257 418.895 389.875 418.98C393.374 419.062 394.945 420.922 395.046 424.314C395.136 427.32 396.79 428.89 399.763 428.962C403.94 429.062 405.022 431.519 404.991 435.223C404.962 438.817 403.633 440.925 399.816 441.029C396.167 441.129 395.007 443.381 395.03 446.658C395.046 448.983 394.971 451.307 394.95 453.632C394.922 456.691 393.833 458.775 390.376 458.889C387.216 458.994 385.22 457.768 385.056 454.412C384.896 451.123 383.639 449.071 379.956 449.094C376.241 449.118 375.031 451.234 375.001 454.514C374.94 461.132 370.015 459.788 365.602 459.998C360.624 457.733 363.012 453.908 363.155 450.17C363.233 447.821 364.165 446.877 366.046 446.431C370.071 445.477 371.859 442.645 372.042 438.212C372.794 430.473 372.382 423.146 372.518 415.831C372.558 413.65 372.412 411.435 374.508 409.414C377.875 409.046 380.925 409.002 384.423 408.948Z" fill="#0e0e06" fill-rule="nonzero" opacity="1" stroke="none" vectornator:layerName="path"/>
<path d="M375.792 259.424C384.721 259.032 384.955 259.262 384.999 267.932C385.009 269.765 385.059 271.598 385.037 273.431C384.995 276.777 386.322 278.884 389.935 278.991C393.125 279.086 394.895 280.637 394.989 283.908C395.081 287.085 396.596 288.884 399.88 288.987C403.358 289.096 405.032 290.824 404.895 294.369C404.745 298.216 402.259 298.971 399.11 298.969C392.944 298.965 386.778 298.98 380.612 298.95C378.373 298.939 375.828 298.716 375.392 296.107C374.666 291.767 371.952 290.848 368.237 290.906C366.882 290.928 365.589 290.564 364.433 289.163C365.718 288.902 367.217 288.896 368.71 288.977C373.153 289.219 374.932 287.1 375.031 282.703C375.202 275.072 374.272 267.406 375.792 259.424Z" fill="#0e0e06" fill-rule="nonzero" opacity="1" stroke="none" vectornator:layerName="path"/>
<path d="M484.934 258.457C482.919 258.983 480.916 259.003 478.927 259.174C476.865 259.351 475.705 260.525 475.183 262.58C473.44 269.433 473.399 269.423 465.443 268.974C465.001 267.293 464.953 265.627 464.96 263.962C464.974 261.027 463.812 259.056 460.634 259.063C456.228 259.073 454.947 256.646 454.991 252.661C455.095 243.335 455.062 234.006 455.009 224.679C454.988 221.102 456.171 218.972 460.19 219.047C463.938 219.117 465.101 221.168 465.094 224.489C465.084 229.819 465.109 235.149 465.134 240.479C465.17 248.441 465.426 248.703 473.161 248.889C474.16 248.913 475.158 248.949 476.157 248.971C485.01 249.175 485.01 249.174 484.934 258.457Z" fill="#331f07" fill-rule="nonzero" opacity="1" stroke="none" vectornator:layerName="path"/>
<path d="M284.835 249.751C284.647 254.938 284.981 259.285 291.821 259.383C294.469 259.422 294.862 262.055 295.03 264.297C295.208 266.695 296.143 268.767 298.762 268.78C304.8 268.809 305.305 272.627 304.979 277.645C304.792 278.304 304.603 278.509 304.258 278.856C300.532 281.803 288.729 282.912 284.914 280.28C284.9 277.757 284.952 275.758 284.892 273.762C284.81 271.054 283.487 269.298 280.687 269.125C277.165 268.906 275.092 267.398 274.935 263.655C274.809 260.644 273.021 259.17 270.103 259.021C266.252 258.824 265.008 256.521 265.023 253.025C265.043 248.696 264.96 244.367 264.991 239.142C267.749 235.9 270.989 236.466 274.079 236.725C275.505 236.845 276.87 237.533 277.169 239.427C277.797 243.402 280.539 245.985 283.788 248.697C284.311 249.19 284.507 249.389 284.835 249.751Z" fill="#0e0e06" fill-rule="nonzero" opacity="1" stroke="none" vectornator:layerName="path"/>
<path d="M264.944 239.061C261.576 239.08 258.261 239.043 254.491 239.005C251.814 241.404 249.425 242.081 246.352 239.355C242.584 239.008 239.205 239.014 235.361 239.023C232.148 242.126 229.104 242.057 225.479 239.506C224.825 229.029 224.825 229.029 214.463 229.009C211.806 231.425 209.429 232.075 206.374 229.361C203.863 220.849 205.162 219.049 213.331 219.014C219.938 218.985 226.546 219.042 233.629 219.073C237.678 225.922 243.726 226.832 250.688 226.638C254.942 226.519 259.656 224.944 263.806 228.712C264.318 229.185 264.521 229.38 264.859 229.737C267.612 232.379 268.21 235.094 265.521 238.514C265.106 238.894 264.998 239.005 264.944 239.061Z" fill="#0e0e06" fill-rule="nonzero" opacity="1" stroke="none" vectornator:layerName="path"/>
<path d="M415.114 269.321C405.003 267.868 404.999 267.868 405.002 257.237C405.003 253.076 405.056 248.914 405.025 244.753C405 241.499 406.082 239.254 409.715 238.951C412.835 238.69 413.906 236.661 413.943 233.807C414.003 229.147 414.082 224.487 414.204 219.348C424.993 219.274 424.998 219.274 424.997 230.311C424.997 234.633 424.955 238.956 424.958 243.278C424.961 246.547 423.755 248.791 420.153 248.971C416.338 249.162 414.99 251.39 415.03 254.911C415.083 259.565 415.073 264.219 415.114 269.321Z" fill="#0e0e06" fill-rule="nonzero" opacity="1" stroke="none" vectornator:layerName="path"/>
<path d="M315.938 139.466C320.777 138.802 325.52 138.468 325.257 145.658C325.157 148.398 327.618 148.993 329.917 148.974C333.854 148.94 335.074 151.118 334.998 154.68C334.911 158.817 334.993 162.957 335.002 167.568C331.96 168.087 328.918 168.134 325.419 168.197C324.809 168.308 324.654 168.404 324.357 168.733C324.169 173.78 324.117 178.595 324.081 183.41C324.061 186.036 323.33 187.931 320.181 188.006C316.799 188.087 315.907 186.165 315.91 183.273C315.921 168.827 315.916 154.381 315.938 139.466Z" fill="#313a25" fill-rule="nonzero" opacity="1" stroke="none" vectornator:layerName="path"/>
<path d="M373.794 438.563C373.984 439.554 373.98 440.042 373.973 440.53C373.868 448.521 373.693 448.702 365.318 449.081C362.786 451.868 359.83 451.522 356.494 451.288C349.099 451.543 348.496 451.981 346.835 458.564C346.534 459.758 345.73 460.047 344.407 460.517C341.309 461.818 338.482 461.401 335.196 461.395C331.353 461.406 327.946 461.87 324.452 459.732C322.575 456.406 321.793 453.43 324.371 450.159C327.938 449.91 331.024 449.899 334.57 449.888C335.187 449.758 335.343 449.629 335.693 449.265C335.881 446.3 335.876 443.571 335.867 440.386C335.794 439.755 335.726 439.58 335.888 439.241C345.471 439.021 354.825 438.964 364.653 438.863C367.737 436.158 370.557 435.863 373.794 438.563Z" fill="#331f07" fill-rule="nonzero" opacity="1" stroke="none" vectornator:layerName="path"/>
<path d="M505.461 309.059C504.966 307.066 504.973 305.092 504.848 303.126C504.705 300.869 503.488 299.207 501.209 299.208C495.268 299.211 494.69 295.457 495.009 290.48C499.822 290.04 504.634 290.078 509.445 290.015C512.707 289.973 514.948 291 515.168 294.673C515.319 297.195 516.698 298.673 519.249 298.816C522.823 299.017 524.204 301.065 524.115 304.389C524.016 308.092 525.746 309.889 529.482 309.941C532.478 309.982 534.039 311.562 533.977 314.656C533.912 317.861 532.017 319 529.14 319.057C526.818 319.104 524.488 318.999 522.173 319.143C517.726 319.42 515.068 318.242 514.622 313.019C514.149 307.46 509.166 309.694 505.461 309.059Z" fill="#331f07" fill-rule="nonzero" opacity="1" stroke="none" vectornator:layerName="path"/>
<path d="M435.451 139.073C435.895 140.907 435.948 142.724 435.88 144.537C435.774 147.313 434.244 148.779 431.498 148.874C428.694 148.971 425.881 148.863 423.081 149.015C418.473 149.265 415.134 148.57 414.688 142.708C414.325 137.934 409.897 139.319 406.349 139.001C405.917 130.187 406.039 130.052 414.577 129.853C415.181 129.736 415.34 129.618 415.676 129.26C415.829 126.018 415.806 123.017 415.766 119.569C415.031 117.829 413.943 116.877 413.759 115.135C412.98 107.766 416.155 105.292 423.803 108.371C424.378 116.729 424.014 124.492 424.721 132.28C425.185 137.394 426.96 139.579 432.027 139.022C433.007 138.915 434.012 139.038 435.451 139.073Z" fill="#331f07" fill-rule="nonzero" opacity="1" stroke="none" vectornator:layerName="path"/>
<path d="M264.115 228.529C257.013 228.998 249.917 229.014 242.822 228.994C234.302 228.971 233.993 228.639 234.084 219.524C245.52 218.677 246.041 220.968 245.888 206.978C245.877 205.985 245.923 204.987 246.014 203.999C246.221 201.746 247.282 200.241 249.711 200.122C252.327 199.994 253.925 201.329 253.964 203.889C254.025 207.958 255.741 209.993 259.946 210.017C262.805 210.034 263.999 211.96 264.035 214.637C264.096 219.111 264.095 223.587 264.115 228.529Z" fill="#331f07" fill-rule="nonzero" opacity="1" stroke="none" vectornator:layerName="path"/>
<path d="M475.059 299.483C476.906 299.02 478.735 299.077 480.561 299.019C483.928 298.912 486.059 300.155 485.98 303.851C485.896 307.767 488.031 309.083 491.644 309.001C495.796 308.906 499.952 308.99 504.578 308.994C505.257 318.985 505.257 318.985 495.538 318.997C494.042 318.999 492.538 319.108 491.052 318.987C487.018 318.658 484.604 319.941 484.954 324.499C485.227 328.053 483.151 328.998 479.957 329C476.691 329.002 474.98 327.879 475.016 324.386C475.097 316.241 475.041 308.095 475.059 299.483Z" fill="#313a25" fill-rule="nonzero" opacity="1" stroke="none" vectornator:layerName="path"/>
<path d="M435.469 418.921C435.033 414.081 435.072 409.259 435.045 404.438C435.028 401.408 435.894 399.145 439.412 399.044C442.456 398.957 443.619 397.336 444.163 394.412C445.055 389.618 445.007 384.825 445.022 379.554C454.97 378.894 454.972 378.894 454.977 388.564C454.98 393.365 454.82 398.172 455.014 402.965C455.178 407.027 453.924 409.322 449.441 409.042C447.354 408.911 445.646 409.437 445.079 412.04C443.557 419.018 443.465 418.998 435.469 418.921Z" fill="#313a25" fill-rule="nonzero" opacity="1" stroke="none" vectornator:layerName="path"/>
<path d="M324.378 459.213C328.076 459.012 331.141 459.035 334.668 459.082C338.143 462.934 338.556 473.833 335.48 478.572C323.955 478.944 312.804 478.966 301.654 478.978C298.254 478.981 295.179 478.552 295.146 474.055C295.113 469.594 298.087 469.022 301.543 469.021C306.037 469.019 310.53 469.007 315.49 469.002C319.231 466.369 322.59 463.8 324.378 459.213Z" fill="#0e0e06" fill-rule="nonzero" opacity="1" stroke="none" vectornator:layerName="path"/>
<path d="M514.747 221.574C514.883 232.662 514.868 243.314 515.004 253.964C515.05 257.565 513.597 259.017 509.955 259.019C506.241 259.022 504.94 257.402 504.993 253.874C505.093 247.218 504.926 240.558 505.002 233.901C505.039 230.614 503.792 228.812 500.336 229.018C496.663 229.236 494.833 227.857 494.862 223.851C494.892 219.696 497.095 218.776 500.588 218.876C503.748 218.968 506.913 218.865 510.074 218.929C511.902 218.966 513.826 218.958 514.747 221.574Z" fill="#313a25" fill-rule="nonzero" opacity="1" stroke="none" vectornator:layerName="path"/>
<path d="M284.438 279.776C290.96 278.936 297.055 278.921 303.631 279.002C304.086 287.832 304.046 287.876 295.537 288.217C283.517 289.738 271.881 288.776 260.268 288.925C254.348 289.002 255.099 284.582 255.003 280.342C264.661 279.86 274.32 279.829 284.438 279.776Z" fill="#331f07" fill-rule="nonzero" opacity="1" stroke="none" vectornator:layerName="path"/>
<path d="M455.567 478.988C455.091 469.326 455.056 459.668 455.033 449.546C459.474 449.056 463.905 448.995 468.335 449.011C474.939 449.036 474.946 449.065 474.991 455.544C474.996 456.365 474.975 457.185 474.946 458.449C474.266 459.626 473.722 460.557 472.813 460.946C468.235 462.909 467.463 466.753 467.477 471.138C467.485 473.704 468.058 476.52 465.187 478.672C461.931 478.949 458.969 478.97 455.567 478.988Z" fill="#016300" fill-rule="nonzero" opacity="1" stroke="none" vectornator:layerName="path"/>
<path d="M355.084 309.606C356.764 309.128 358.427 309.107 360.091 309.086C363.07 309.048 364.954 310.343 364.894 313.483C364.809 317.964 367.279 319.271 371.252 319.035C372.744 318.946 374.247 319.032 375.745 319.036C384.857 319.061 384.857 319.061 385.007 328.605C376.901 329.021 368.78 328.872 360.663 328.999C356.682 329.06 354.842 327.603 355.012 323.484C355.197 319.018 355.063 314.538 355.084 309.606Z" fill="#313a25" fill-rule="nonzero" opacity="1" stroke="none" vectornator:layerName="path"/>
<path d="M581.537 280.06C584.226 282.671 585.254 294.94 583.306 297.009C581.866 298.538 579.935 298.198 578.143 297.867C575.976 297.465 575.781 295.609 575.891 293.969C576.244 288.701 573.16 287.975 568.924 288.182C565.902 288.33 564.192 289.435 564.22 292.62C564.247 295.686 563.906 298.297 559.728 298.122C555.322 297.938 555.832 294.801 555.836 292.053C555.853 278.159 554.627 279.955 567.618 279.816C572.107 279.767 576.599 279.912 581.537 280.06Z" fill="#313a25" fill-rule="nonzero" opacity="1" stroke="none" vectornator:layerName="path"/>
<path d="M536.17 253.585C536.801 250.782 538.425 249.987 540.697 250.239C543.228 250.519 543.886 252.341 543.991 254.481C544.167 258.063 545.88 259.971 549.572 260.039C552.332 260.09 553.854 261.463 553.889 264.361C553.923 267.123 552.774 268.857 549.921 269.049C546.675 269.267 545.166 270.951 545.104 274.15C545.042 277.323 543.579 279.124 540.184 278.966C536.521 278.796 536.027 276.291 536.034 273.418C536.048 266.949 536.084 260.481 536.17 253.585Z" fill="#331f07" fill-rule="nonzero" opacity="1" stroke="none" vectornator:layerName="path"/>
<path d="M355.939 189.443C358.781 188.999 361.6 188.997 364.42 189.001C373.706 189.013 373.706 189.014 374.207 198.619C374.201 203.864 374.129 208.657 374.08 213.451C374.053 216.078 373.291 217.936 370.17 218.006C366.809 218.082 365.911 216.176 365.908 213.294C365.903 208.83 365.85 204.366 365.802 199.432C365.69 198.808 365.595 198.654 365.268 198.358C364.708 198.204 364.381 198.19 364.053 198.181C355.898 197.964 355.898 197.964 355.939 189.443Z" fill="#313a25" fill-rule="nonzero" opacity="1" stroke="none" vectornator:layerName="path"/>
<path d="M374.198 438.702C371.331 438.994 368.673 438.922 365.571 438.833C365.105 431.88 365.067 424.944 365.062 418.007C365.057 409.059 365.069 409.059 374.389 409.082C374.748 418.84 375.509 428.602 374.198 438.702Z" fill="#016300" fill-rule="nonzero" opacity="1" stroke="none" vectornator:layerName="path"/>
<path d="M224.529 269.885C225.363 274.95 225.035 279.421 218.15 279.331C216.543 279.31 215.547 280.698 215.092 282.252C213.783 286.732 210.164 286.07 206.888 285.799C203.262 285.5 203.02 282.733 203.092 279.492C203.538 278.583 204.155 278.155 204.374 277.576C207.281 269.883 207.267 269.876 215.574 269.871C218.403 269.87 221.232 269.877 224.529 269.885Z" fill="#331f07" fill-rule="nonzero" opacity="1" stroke="none" vectornator:layerName="path"/>
<path d="M265.543 238.916C265.071 236.199 265.036 233.504 265.002 230.35C269.643 229.904 274.284 229.932 278.925 229.925C282.424 229.92 284.087 231.663 284.079 235.134C284.069 239.443 284.104 243.753 284.114 248.53C279.221 249.265 275.174 249.164 274.543 242.359C274.096 237.537 269.125 239.501 265.543 238.916Z" fill="#331f07" fill-rule="nonzero" opacity="1" stroke="none" vectornator:layerName="path"/>
<path d="M404.459 149.778C407.81 150.471 412.06 148.7 413.291 152.49C414.772 157.045 414.545 162.035 413.28 166.733C412.729 168.778 410.582 168.975 408.662 168.765C406.535 168.532 405.164 167.198 405.221 165.165C405.359 160.242 403.283 158.066 398.262 157.595C394.429 157.235 395.199 153.51 395.003 150.338C398.004 149.866 401.009 149.834 404.459 149.778Z" fill="#331f07" fill-rule="nonzero" opacity="1" stroke="none" vectornator:layerName="path"/>
<path d="M344.115 137.529C335.175 137.921 335.027 137.773 335.003 128.752C334.994 125.615 334.987 122.478 335.006 119.341C335.053 111.58 335.343 111.289 343.504 111.029C343.998 119.695 344.059 128.378 344.115 137.529Z" fill="#331f07" fill-rule="nonzero" opacity="1" stroke="none" vectornator:layerName="path"/>
<path d="M205.967 229.475C208.366 229.011 210.743 229.014 213.565 229.013C214.029 237.007 214.049 245.006 214.064 253.005C214.069 255.783 213.452 257.979 209.968 257.963C206.458 257.947 205.936 255.684 205.935 252.941C205.934 245.275 205.941 237.609 205.967 229.475Z" fill="#313a25" fill-rule="nonzero" opacity="1" stroke="none" vectornator:layerName="path"/>
<path d="M524.099 334.283C524.107 340.732 524.1 346.713 524.1 352.694C524.1 355.579 523.727 358.06 519.887 358.003C516.36 357.95 515.912 355.679 515.91 352.967C515.904 346.653 515.904 340.34 515.91 334.026C515.912 331.31 516.37 329.043 519.894 328.996C523.322 328.951 524.107 330.978 524.099 334.283Z" fill="#313a25" fill-rule="nonzero" opacity="1" stroke="none" vectornator:layerName="path"/>
<path d="M424.201 108.591C416.314 109.227 416.314 109.227 415.8 118.666C415.425 119.107 415.1 119.088 414.775 119.078C405.163 118.772 405.163 118.772 404.916 108.683C404.761 107.002 404.935 105.968 406.412 105.633C409.519 104.928 411.512 102.673 413.761 100.175C414.634 99.7188 415.257 99.4723 415.903 99.3681C423.763 98.1005 425.763 100.209 424.201 108.591Z" fill="#0e0e06" fill-rule="nonzero" opacity="1" stroke="none" vectornator:layerName="path"/>
<path d="M343.822 459.346C343.967 457.893 343.952 456.914 343.978 455.936C344.136 449.934 344.954 449.097 350.782 449.001C351.923 448.982 353.064 449.038 354.667 449.082C358.143 452.934 358.556 463.833 355.48 468.572C352.089 468.956 349.074 468.986 345.611 469.019C340.612 466.61 342.759 463.117 343.822 459.346Z" fill="#0e0e06" fill-rule="nonzero" opacity="1" stroke="none" vectornator:layerName="path"/>
<path d="M326.463 99.381C323.901 98.9687 321.755 98.9824 319.616 98.8738C316.625 98.722 315.166 97.0783 315.145 94.0882C315.124 91.1503 316.413 89.3347 319.452 89.1592C321.919 89.0168 324.396 88.997 326.869 89.0148C334.636 89.0706 335.699 90.4008 334.232 98.6265C331.902 101.202 329.607 102.558 326.463 99.381Z" fill="#0e0e06" fill-rule="nonzero" opacity="1" stroke="none" vectornator:layerName="path"/>
<path d="M385.636 498.952C388.611 498.91 391.392 499.011 394.634 499.172C395.077 504.331 394.934 509.433 395.081 514.527C395.196 518.509 392.939 519.005 389.728 519.028C386.469 519.052 384.719 517.985 384.931 514.498C385.02 513.025 384.893 511.54 384.836 509.621C382.563 506.53 381.551 503.773 384.448 500.266C384.985 499.546 385.197 499.306 385.636 498.952Z" fill="#016300" fill-rule="nonzero" opacity="1" stroke="none" vectornator:layerName="path"/>
<path d="M344.99 479.481C356.324 478.948 354.849 478.362 354.996 488.839C355.017 490.337 354.887 491.844 355.012 493.331C355.336 497.177 354.161 499.124 349.781 499.084C345.461 499.043 344.879 496.839 344.979 493.396C345.108 488.905 345.015 484.408 344.99 479.481Z" fill="#016300" fill-rule="nonzero" opacity="1" stroke="none" vectornator:layerName="path"/>
<path d="M465.346 478.938C464.931 474.442 465.247 469.937 464.933 465.477C464.576 460.41 466.593 458.37 471.551 458.98C472.367 459.08 473.209 458.962 474.483 458.919C474.951 462.519 475.001 466.145 474.993 469.772C474.973 478.603 474.595 478.969 465.346 478.938Z" fill="#0e0e06" fill-rule="nonzero" opacity="1" stroke="none" vectornator:layerName="path"/>
<path d="M343.524 458.914C345.764 461.786 344.644 465.055 345.124 468.578C345.104 472.06 345.043 475.097 344.973 478.592C344.963 479.049 345 479.011 345.019 478.992C342.026 478.971 339.014 478.969 335.553 478.946C335.092 472.625 335.08 466.324 335.098 459.564C337.781 459.056 340.432 459.007 343.524 458.914Z" fill="#016300" fill-rule="nonzero" opacity="1" stroke="none" vectornator:layerName="path"/>
<path d="M355.542 468.946C355.092 462.625 355.08 456.324 355.098 449.564C358.081 449.094 361.033 449.083 364.428 449.089C364.942 452.433 365.013 455.76 365.124 459.543C365.143 462.415 365.12 464.832 365.143 467.706C362.225 469.647 359.054 468.752 355.542 468.946Z" fill="#016300" fill-rule="nonzero" opacity="1" stroke="none" vectornator:layerName="path"/>
<path d="M384.947 149.057C383.418 149.06 381.943 148.962 380.467 148.963C376.805 148.964 375.016 147.139 375.062 143.503C375.119 138.924 374.541 134.317 375.772 129.391C378.159 126.69 380.58 125.956 383.705 128.622C385.312 132.257 384.914 135.658 385.002 139.458C387.619 142.381 388.201 145.096 385.523 148.513C385.109 148.891 385.001 149.002 384.947 149.057Z" fill="#0e0e06" fill-rule="nonzero" opacity="1" stroke="none" vectornator:layerName="path"/>
<path d="M482.47 218.919C478.227 219.007 474.42 219.071 470.615 219.029C467.642 218.996 465.998 217.537 466.023 214.426C466.049 211.264 467.852 209.992 470.762 209.954C474.238 209.91 477.715 209.903 481.19 209.955C483.292 209.986 485.282 210.506 485.769 212.907C486.296 215.511 486.082 217.942 482.47 218.919Z" fill="#331f07" fill-rule="nonzero" opacity="1" stroke="none" vectornator:layerName="path"/>
<path d="M365.91 468.681C368.663 468.193 371.42 468.152 374.636 468.172C375.071 473.509 375.002 478.786 375.04 484.062C375.062 487.085 373.494 488.037 370.7 488.055C367.802 488.074 365.902 487.357 365.95 483.967C366.022 479.022 365.935 474.075 365.91 468.681Z" fill="#016300" fill-rule="nonzero" opacity="1" stroke="none" vectornator:layerName="path"/>
<path d="M254.114 278.554C250.471 278.997 246.832 279.016 243.194 278.992C235.515 278.942 235.163 278.58 235.003 270.342C238.652 269.885 242.302 269.856 245.951 269.879C253.671 269.928 253.985 270.255 254.114 278.554Z" fill="#331f07" fill-rule="nonzero" opacity="1" stroke="none" vectornator:layerName="path"/>
<path d="M245.942 239.47C248.356 239.003 250.747 239.003 253.588 239.003C254.04 243.961 254.057 248.921 254.043 253.88C254.036 256.402 252.982 257.922 250.221 257.993C247.287 258.068 245.954 256.668 245.949 253.824C245.94 249.195 245.93 244.566 245.942 239.47Z" fill="#313a25" fill-rule="nonzero" opacity="1" stroke="none" vectornator:layerName="path"/>
<path d="M489.199 190.175C491.633 190.038 493.397 190.688 493.732 192.839C494.423 197.272 494.572 201.796 493.684 206.186C493.075 209.195 488.935 209.911 486.957 207.622C484.572 204.86 485.864 192.651 489.199 190.175Z" fill="#331f07" fill-rule="nonzero" opacity="1" stroke="none" vectornator:layerName="path"/>
<path d="M413.533 99.8929C413.824 107.582 413.761 107.645 405.351 108.195C403.241 108.161 401.573 108.124 399.914 107.981C397.615 107.784 396.189 106.619 396.125 104.185C396.055 101.509 397.533 100.12 400.071 100.035C404.399 99.8901 408.733 99.9264 413.533 99.8929Z" fill="#331f07" fill-rule="nonzero" opacity="1" stroke="none" vectornator:layerName="path"/>
<path d="M414.808 516.571C412.629 520.3 409.444 519.044 406.743 518.52C404.448 518.076 405.141 515.62 404.965 513.894C404.595 510.259 406.257 508.92 409.872 508.954C413.273 508.986 415.364 509.816 414.978 513.675C414.895 514.495 414.911 515.325 414.808 516.571Z" fill="#016300" fill-rule="nonzero" opacity="1" stroke="none" vectornator:layerName="path"/>
<path d="M515.732 280.858C519.198 278.57 522.498 277.66 524.642 281.751C525.598 283.575 525.54 286.063 523.847 287.758C522.001 289.608 519.57 289.34 517.369 288.573C515.088 287.777 515.037 285.624 515.105 283.608C515.133 282.8 515.368 281.999 515.732 280.858Z" fill="#331f07" fill-rule="nonzero" opacity="1" stroke="none" vectornator:layerName="path"/>
<path d="M414.958 493.128C414.717 495.552 415.703 498.252 412.587 498.753C410.351 499.113 407.649 499.809 405.945 498.017C404.115 496.092 404.638 493.233 405.343 490.911C406.182 488.147 408.878 489.133 410.9 488.996C413.468 488.822 415.051 489.874 414.958 493.128Z" fill="#016300" fill-rule="nonzero" opacity="1" stroke="none" vectornator:layerName="path"/>
<path d="M324.514 449.739C324.89 452.642 324.927 455.362 324.988 458.535C325.011 458.988 324.999 459 324.993 459.006C322.432 461.911 319.619 462.159 316.086 459.49C313.794 450.076 315.703 447.936 324.514 449.739Z" fill="#0e0e06" fill-rule="nonzero" opacity="1" stroke="none" vectornator:layerName="path"/>
<path d="M395.795 349.409C404.783 349.026 404.887 349.13 405.026 358.538C404.377 358.985 403.72 358.996 403.064 358.988C395.33 358.9 394.274 357.585 395.795 349.409Z" fill="#0e0e06" fill-rule="nonzero" opacity="1" stroke="none" vectornator:layerName="path"/>
<path d="M435.432 309.036C434.988 308.727 434.997 308.4 435.001 308.072C435.119 299.08 435.119 299.08 444.462 299.023C444.909 299.188 444.919 299.354 444.922 299.52C445.081 308.879 445.081 308.879 435.432 309.036Z" fill="#313a25" fill-rule="nonzero" opacity="1" stroke="none" vectornator:layerName="path"/>
<path d="M225.078 239.585C228.065 239.108 231.037 239.069 234.453 239.028C234.918 240.341 234.899 241.657 234.967 242.968C235.15 246.5 234.522 249.009 230.004 249.011C225.493 249.013 224.84 246.52 225.033 242.98C225.086 241.997 225.055 241.009 225.078 239.585Z" fill="#313a25" fill-rule="nonzero" opacity="1" stroke="none" vectornator:layerName="path"/>
<path d="M384.966 329.43C385.271 328.989 385.599 329.001 385.926 329.006C394.969 329.155 394.969 329.155 394.91 338.495C394.731 338.94 394.566 338.944 394.401 338.945C385.145 338.991 385.145 338.991 384.966 329.43Z" fill="#313a25" fill-rule="nonzero" opacity="1" stroke="none" vectornator:layerName="path"/>
<path d="M425 309.441C428.042 308.995 431.09 308.998 434.597 308.991C435.016 312.012 434.978 315.043 434.921 318.526C434.576 318.978 434.25 318.978 433.923 318.976C425.103 318.933 425.103 318.933 425 309.441Z" fill="#313a25" fill-rule="nonzero" opacity="1" stroke="none" vectornator:layerName="path"/>
<path d="M384.372 499.826C384.839 502.627 384.87 505.436 384.854 508.713C383.154 509.145 381.5 509.106 379.846 509.07C376.968 509.007 375.095 507.88 375.022 504.688C374.943 501.268 376.818 499.959 379.967 499.922C381.29 499.906 382.613 499.864 384.372 499.826Z" fill="#331f07" fill-rule="nonzero" opacity="1" stroke="none" vectornator:layerName="path"/>
<path d="M315.672 459.591C318.435 459.088 321.253 459.027 324.529 458.989C324.981 459.662 324.979 460.312 324.969 460.962C324.856 468.46 324.535 468.776 316.399 468.996C315.879 466.014 315.804 463.024 315.672 459.591Z" fill="#331f07" fill-rule="nonzero" opacity="1" stroke="none" vectornator:layerName="path"/>
<path d="M345.939 179.443C354.884 179.058 354.884 179.058 355.001 187.594C354.675 188.055 354.348 188.08 354.021 188.084C345.974 188.176 345.897 188.097 345.939 179.443Z" fill="#313a25" fill-rule="nonzero" opacity="1" stroke="none" vectornator:layerName="path"/>
<path d="M314.555 119.886C314.924 128.676 314.778 128.838 306.341 128.997C305.915 120.169 306.054 120.015 314.555 119.886Z" fill="#331f07" fill-rule="nonzero" opacity="1" stroke="none" vectornator:layerName="path"/>
<path d="M385.551 148.912C385.073 146.199 385.037 143.507 385 140.357C393.814 139.917 393.982 140.069 394.106 148.558C391.398 148.978 388.695 148.956 385.551 148.912Z" fill="#331f07" fill-rule="nonzero" opacity="1" stroke="none" vectornator:layerName="path"/>
<path d="M354.114 158.555C345.324 158.924 345.162 158.778 345.003 150.341C353.831 149.915 353.985 150.054 354.114 158.555Z" fill="#331f07" fill-rule="nonzero" opacity="1" stroke="none" vectornator:layerName="path"/>
<path d="M364.114 168.555C355.324 168.924 355.162 168.778 355.003 160.341C363.831 159.915 363.985 160.054 364.114 168.555Z" fill="#331f07" fill-rule="nonzero" opacity="1" stroke="none" vectornator:layerName="path"/>
<path d="M335.939 169.443C344.884 169.058 344.884 169.058 345.001 177.594C344.675 178.055 344.348 178.08 344.021 178.084C335.974 178.176 335.897 178.097 335.939 169.443Z" fill="#313a25" fill-rule="nonzero" opacity="1" stroke="none" vectornator:layerName="path"/>
<path d="M453.568 119.895C453.915 128.496 453.776 128.671 446.338 128.997C445.916 120.366 446.067 120.176 453.568 119.895Z" fill="#331f07" fill-rule="nonzero" opacity="1" stroke="none" vectornator:layerName="path"/>
<path d="M384.106 128.558C381.672 129 379.242 129 376.356 129C375.917 127.524 375.901 126.046 375.96 124.571C376.065 121.949 377.081 120.098 380.05 120.124C383.041 120.15 383.944 122.084 384.05 124.67C384.096 125.818 384.092 126.967 384.106 128.558Z" fill="#331f07" fill-rule="nonzero" opacity="1" stroke="none" vectornator:layerName="path"/>
<path d="M326.035 99.4584C328.43 99.0068 330.816 99.0039 333.655 99.0019C334.112 101.701 334.116 104.4 334.114 107.548C331.716 107.996 329.324 107.995 326.488 107.992C326.038 105.296 326.032 102.602 326.035 99.4584Z" fill="#331f07" fill-rule="nonzero" opacity="1" stroke="none" vectornator:layerName="path"/>
<path d="M436.844 269.905C436.756 270.167 436.531 270.414 436.113 270.822C435.834 270.367 435.981 269.92 436.844 269.905Z" fill="#0e0e06" fill-rule="nonzero" opacity="1" stroke="none" vectornator:layerName="path"/>
<path d="M415.708 129.154C415.703 129.239 415.529 129.436 415.176 129.733C415.195 129.659 415.376 129.47 415.708 129.154Z" fill="#0e0e06" fill-rule="nonzero" opacity="1" stroke="none" vectornator:layerName="path"/>
<path d="M335.736 449.166C335.73 449.253 335.55 449.455 335.189 449.762C335.207 449.684 335.393 449.489 335.736 449.166Z" fill="#0e0e06" fill-rule="nonzero" opacity="1" stroke="none" vectornator:layerName="path"/>
<path d="M365.156 198.345C365.271 198.301 365.464 198.444 365.7 198.802C365.61 198.806 365.44 198.643 365.156 198.345Z" fill="#0e0e06" fill-rule="nonzero" opacity="1" stroke="none" vectornator:layerName="path"/>
<path d="M336.06 439.176C336.118 439.077 335.995 439.506 335.929 439.719C335.86 439.701 335.906 439.482 336.06 439.176Z" fill="#0e0e06" fill-rule="nonzero" opacity="1" stroke="none" vectornator:layerName="path"/>
<path d="M324.344 168.844C324.3 168.729 324.443 168.535 324.803 168.298C324.806 168.389 324.643 168.559 324.344 168.844Z" fill="#0e0e06" fill-rule="nonzero" opacity="1" stroke="none" vectornator:layerName="path"/>
</g>
</svg>
