<?xml version="1.0" encoding="UTF-8"?>
<!DOCTYPE svg PUBLIC "-//W3C//DTD SVG 1.1//EN" "http://www.w3.org/Graphics/SVG/1.1/DTD/svg11.dtd">
<svg xmlns="http://www.w3.org/2000/svg" version="1.1" width="800px" height="26400px" style="shape-rendering:geometricPrecision; text-rendering:geometricPrecision; image-rendering:optimizeQuality; fill-rule:evenodd; clip-rule:evenodd" xmlns:xlink="http://www.w3.org/1999/xlink">
<g><path style="opacity:1" fill="#000000" d="M 101.5,89.5 C 109.167,89.5 116.833,89.5 124.5,89.5C 124.5,95.8333 124.5,102.167 124.5,108.5C 116.833,108.5 109.167,108.5 101.5,108.5C 101.5,102.167 101.5,95.8333 101.5,89.5 Z"/></g>
<g><path style="opacity:1" fill="#000000" d="M 101.5,889.5 C 120.167,889.5 138.833,889.5 157.5,889.5C 157.5,895.833 157.5,902.167 157.5,908.5C 138.833,908.5 120.167,908.5 101.5,908.5C 101.5,902.167 101.5,895.833 101.5,889.5 Z"/></g>
<g><path style="opacity:1" fill="#000000" d="M 101.5,1689.5 C 132.833,1689.5 164.167,1689.5 195.5,1689.5C 195.5,1695.83 195.5,1702.17 195.5,1708.5C 164.167,1708.5 132.833,1708.5 101.5,1708.5C 101.5,1702.17 101.5,1695.83 101.5,1689.5 Z"/></g>
<g><path style="opacity:1" fill="#000000" d="M 101.5,2489.5 C 132.833,2489.5 164.167,2489.5 195.5,2489.5C 195.5,2502.17 195.5,2514.83 195.5,2527.5C 189.167,2527.5 182.833,2527.5 176.5,2527.5C 176.5,2521.17 176.5,2514.83 176.5,2508.5C 151.5,2508.5 126.5,2508.5 101.5,2508.5C 101.5,2502.17 101.5,2495.83 101.5,2489.5 Z"/></g>
<g><path style="opacity:1" fill="#000000" d="M 176.5,3327.5 C 176.5,3321.17 176.5,3314.83 176.5,3308.5C 151.5,3308.5 126.5,3308.5 101.5,3308.5C 101.5,3302.17 101.5,3295.83 101.5,3289.5C 132.833,3289.5 164.167,3289.5 195.5,3289.5C 195.5,3302.17 195.5,3314.83 195.5,3327.5C 189.167,3327.5 182.833,3327.5 176.5,3327.5 Z"/></g>
<g><path style="opacity:1" fill="#000000" d="M 176.5,3327.5 C 176.5,3333.83 176.5,3340.17 176.5,3346.5C 170.167,3346.5 163.833,3346.5 157.5,3346.5C 157.5,3340.17 157.5,3333.83 157.5,3327.5C 163.833,3327.5 170.167,3327.5 176.5,3327.5 Z"/></g>
<g><path style="opacity:1" fill="#000000" d="M 176.5,4127.5 C 176.5,4121.17 176.5,4114.83 176.5,4108.5C 151.5,4108.5 126.5,4108.5 101.5,4108.5C 101.5,4102.17 101.5,4095.83 101.5,4089.5C 132.833,4089.5 164.167,4089.5 195.5,4089.5C 195.5,4102.17 195.5,4114.83 195.5,4127.5C 189.167,4127.5 182.833,4127.5 176.5,4127.5 Z"/></g>
<g><path style="opacity:1" fill="#000000" d="M 176.5,4127.5 C 176.5,4133.83 176.5,4140.17 176.5,4146.5C 170.167,4146.5 163.833,4146.5 157.5,4146.5C 157.5,4140.17 157.5,4133.83 157.5,4127.5C 163.833,4127.5 170.167,4127.5 176.5,4127.5 Z"/></g>
<g><path style="opacity:1" fill="#000000" d="M 157.5,4146.5 C 157.5,4152.5 157.5,4158.5 157.5,4164.5C 151.5,4164.5 145.5,4164.5 139.5,4164.5C 139.5,4158.5 139.5,4152.5 139.5,4146.5C 145.5,4146.5 151.5,4146.5 157.5,4146.5 Z"/></g>
<g><path style="opacity:1" fill="#000000" d="M 176.5,4927.5 C 176.5,4921.17 176.5,4914.83 176.5,4908.5C 151.5,4908.5 126.5,4908.5 101.5,4908.5C 101.5,4902.17 101.5,4895.83 101.5,4889.5C 132.833,4889.5 164.167,4889.5 195.5,4889.5C 195.5,4902.17 195.5,4914.83 195.5,4927.5C 189.167,4927.5 182.833,4927.5 176.5,4927.5 Z"/></g>
<g><path style="opacity:1" fill="#000000" d="M 176.5,4927.5 C 176.5,4933.83 176.5,4940.17 176.5,4946.5C 170.167,4946.5 163.833,4946.5 157.5,4946.5C 157.5,4940.17 157.5,4933.83 157.5,4927.5C 163.833,4927.5 170.167,4927.5 176.5,4927.5 Z"/></g>
<g><path style="opacity:1" fill="#000000" d="M 157.5,4946.5 C 157.5,4952.5 157.5,4958.5 157.5,4964.5C 151.5,4964.5 145.5,4964.5 139.5,4964.5C 139.5,4958.5 139.5,4952.5 139.5,4946.5C 145.5,4946.5 151.5,4946.5 157.5,4946.5 Z"/></g>
<g><path style="opacity:1" fill="#000000" d="M 139.5,4964.5 C 139.5,4970.17 139.5,4975.83 139.5,4981.5C 133.167,4981.5 126.833,4981.5 120.5,4981.5C 120.5,4975.83 120.5,4970.17 120.5,4964.5C 126.833,4964.5 133.167,4964.5 139.5,4964.5 Z"/></g>
<g><path style="opacity:1" fill="#000000" d="M 176.5,5727.5 C 176.5,5721.17 176.5,5714.83 176.5,5708.5C 151.5,5708.5 126.5,5708.5 101.5,5708.5C 101.5,5702.17 101.5,5695.83 101.5,5689.5C 132.833,5689.5 164.167,5689.5 195.5,5689.5C 195.5,5702.17 195.5,5714.83 195.5,5727.5C 189.167,5727.5 182.833,5727.5 176.5,5727.5 Z"/></g>
<g><path style="opacity:1" fill="#000000" d="M 176.5,5727.5 C 176.5,5733.83 176.5,5740.17 176.5,5746.5C 170.167,5746.5 163.833,5746.5 157.5,5746.5C 157.5,5740.17 157.5,5733.83 157.5,5727.5C 163.833,5727.5 170.167,5727.5 176.5,5727.5 Z"/></g>
<g><path style="opacity:1" fill="#000000" d="M 157.5,5746.5 C 157.5,5752.5 157.5,5758.5 157.5,5764.5C 151.5,5764.5 145.5,5764.5 139.5,5764.5C 139.5,5758.5 139.5,5752.5 139.5,5746.5C 145.5,5746.5 151.5,5746.5 157.5,5746.5 Z"/></g>
<g><path style="opacity:1" fill="#000000" d="M 139.5,5764.5 C 139.5,5770.17 139.5,5775.83 139.5,5781.5C 133.167,5781.5 126.833,5781.5 120.5,5781.5C 120.5,5775.83 120.5,5770.17 120.5,5764.5C 126.833,5764.5 133.167,5764.5 139.5,5764.5 Z"/></g>
<g><path style="opacity:1" fill="#000000" d="M 120.5,5781.5 C 120.5,5790.5 120.5,5799.5 120.5,5808.5C 114.167,5808.5 107.833,5808.5 101.5,5808.5C 101.5,5799.5 101.5,5790.5 101.5,5781.5C 107.833,5781.5 114.167,5781.5 120.5,5781.5 Z"/></g>
<g><path style="opacity:1" fill="#000000" d="M 176.5,6527.5 C 176.5,6521.17 176.5,6514.83 176.5,6508.5C 151.5,6508.5 126.5,6508.5 101.5,6508.5C 101.5,6502.17 101.5,6495.83 101.5,6489.5C 132.833,6489.5 164.167,6489.5 195.5,6489.5C 195.5,6502.17 195.5,6514.83 195.5,6527.5C 189.167,6527.5 182.833,6527.5 176.5,6527.5 Z"/></g>
<g><path style="opacity:1" fill="#000000" d="M 176.5,6527.5 C 176.5,6533.83 176.5,6540.17 176.5,6546.5C 170.167,6546.5 163.833,6546.5 157.5,6546.5C 157.5,6540.17 157.5,6533.83 157.5,6527.5C 163.833,6527.5 170.167,6527.5 176.5,6527.5 Z"/></g>
<g><path style="opacity:1" fill="#000000" d="M 157.5,6546.5 C 157.5,6552.5 157.5,6558.5 157.5,6564.5C 151.5,6564.5 145.5,6564.5 139.5,6564.5C 139.5,6558.5 139.5,6552.5 139.5,6546.5C 145.5,6546.5 151.5,6546.5 157.5,6546.5 Z"/></g>
<g><path style="opacity:1" fill="#000000" d="M 139.5,6564.5 C 139.5,6570.17 139.5,6575.83 139.5,6581.5C 133.167,6581.5 126.833,6581.5 120.5,6581.5C 120.5,6575.83 120.5,6570.17 120.5,6564.5C 126.833,6564.5 133.167,6564.5 139.5,6564.5 Z"/></g>
<g><path style="opacity:1" fill="#000000" d="M 120.5,6581.5 C 120.5,6584.5 120.5,6587.5 120.5,6590.5C 127.5,6590.5 134.5,6590.5 141.5,6590.5C 141.5,6596.5 141.5,6602.5 141.5,6608.5C 128.167,6608.5 114.833,6608.5 101.5,6608.5C 101.5,6599.5 101.5,6590.5 101.5,6581.5C 107.833,6581.5 114.167,6581.5 120.5,6581.5 Z"/></g>
<g><path style="opacity:1" fill="#000000" d="M 176.5,7327.5 C 176.5,7321.17 176.5,7314.83 176.5,7308.5C 151.5,7308.5 126.5,7308.5 101.5,7308.5C 101.5,7302.17 101.5,7295.83 101.5,7289.5C 132.833,7289.5 164.167,7289.5 195.5,7289.5C 195.5,7302.17 195.5,7314.83 195.5,7327.5C 189.167,7327.5 182.833,7327.5 176.5,7327.5 Z"/></g>
<g><path style="opacity:1" fill="#000000" d="M 176.5,7327.5 C 176.5,7333.83 176.5,7340.17 176.5,7346.5C 170.167,7346.5 163.833,7346.5 157.5,7346.5C 157.5,7340.17 157.5,7333.83 157.5,7327.5C 163.833,7327.5 170.167,7327.5 176.5,7327.5 Z"/></g>
<g><path style="opacity:1" fill="#000000" d="M 157.5,7346.5 C 157.5,7352.5 157.5,7358.5 157.5,7364.5C 151.5,7364.5 145.5,7364.5 139.5,7364.5C 139.5,7358.5 139.5,7352.5 139.5,7346.5C 145.5,7346.5 151.5,7346.5 157.5,7346.5 Z"/></g>
<g><path style="opacity:1" fill="#000000" d="M 139.5,7364.5 C 139.5,7370.17 139.5,7375.83 139.5,7381.5C 133.167,7381.5 126.833,7381.5 120.5,7381.5C 120.5,7375.83 120.5,7370.17 120.5,7364.5C 126.833,7364.5 133.167,7364.5 139.5,7364.5 Z"/></g>
<g><path style="opacity:1" fill="#000000" d="M 120.5,7381.5 C 120.5,7384.5 120.5,7387.5 120.5,7390.5C 135.5,7390.5 150.5,7390.5 165.5,7390.5C 165.5,7396.5 165.5,7402.5 165.5,7408.5C 144.167,7408.5 122.833,7408.5 101.5,7408.5C 101.5,7399.5 101.5,7390.5 101.5,7381.5C 107.833,7381.5 114.167,7381.5 120.5,7381.5 Z"/></g>
<g><path style="opacity:1" fill="#000000" d="M 176.5,8127.5 C 176.5,8121.17 176.5,8114.83 176.5,8108.5C 151.5,8108.5 126.5,8108.5 101.5,8108.5C 101.5,8102.17 101.5,8095.83 101.5,8089.5C 132.833,8089.5 164.167,8089.5 195.5,8089.5C 195.5,8102.17 195.5,8114.83 195.5,8127.5C 189.167,8127.5 182.833,8127.5 176.5,8127.5 Z"/></g>
<g><path style="opacity:1" fill="#000000" d="M 176.5,8127.5 C 176.5,8133.83 176.5,8140.17 176.5,8146.5C 170.167,8146.5 163.833,8146.5 157.5,8146.5C 157.5,8140.17 157.5,8133.83 157.5,8127.5C 163.833,8127.5 170.167,8127.5 176.5,8127.5 Z"/></g>
<g><path style="opacity:1" fill="#000000" d="M 157.5,8146.5 C 157.5,8152.5 157.5,8158.5 157.5,8164.5C 151.5,8164.5 145.5,8164.5 139.5,8164.5C 139.5,8158.5 139.5,8152.5 139.5,8146.5C 145.5,8146.5 151.5,8146.5 157.5,8146.5 Z"/></g>
<g><path style="opacity:1" fill="#000000" d="M 139.5,8164.5 C 139.5,8170.17 139.5,8175.83 139.5,8181.5C 133.167,8181.5 126.833,8181.5 120.5,8181.5C 120.5,8175.83 120.5,8170.17 120.5,8164.5C 126.833,8164.5 133.167,8164.5 139.5,8164.5 Z"/></g>
<g><path style="opacity:1" fill="#000000" d="M 120.5,8181.5 C 120.5,8184.5 120.5,8187.5 120.5,8190.5C 145.833,8190.5 171.167,8190.5 196.5,8190.5C 196.5,8196.5 196.5,8202.5 196.5,8208.5C 164.833,8208.5 133.167,8208.5 101.5,8208.5C 101.5,8199.5 101.5,8190.5 101.5,8181.5C 107.833,8181.5 114.167,8181.5 120.5,8181.5 Z"/></g>
<g><path style="opacity:1" fill="#000000" d="M 176.5,8927.5 C 176.5,8921.17 176.5,8914.83 176.5,8908.5C 151.5,8908.5 126.5,8908.5 101.5,8908.5C 101.5,8902.17 101.5,8895.83 101.5,8889.5C 132.833,8889.5 164.167,8889.5 195.5,8889.5C 195.5,8902.17 195.5,8914.83 195.5,8927.5C 189.167,8927.5 182.833,8927.5 176.5,8927.5 Z"/></g>
<g><path style="opacity:1" fill="#000000" d="M 176.5,8927.5 C 176.5,8933.83 176.5,8940.17 176.5,8946.5C 170.167,8946.5 163.833,8946.5 157.5,8946.5C 157.5,8940.17 157.5,8933.83 157.5,8927.5C 163.833,8927.5 170.167,8927.5 176.5,8927.5 Z"/></g>
<g><path style="opacity:1" fill="#000000" d="M 157.5,8946.5 C 157.5,8952.5 157.5,8958.5 157.5,8964.5C 151.5,8964.5 145.5,8964.5 139.5,8964.5C 139.5,8958.5 139.5,8952.5 139.5,8946.5C 145.5,8946.5 151.5,8946.5 157.5,8946.5 Z"/></g>
<g><path style="opacity:1" fill="#000000" d="M 139.5,8964.5 C 139.5,8970.17 139.5,8975.83 139.5,8981.5C 133.167,8981.5 126.833,8981.5 120.5,8981.5C 120.5,8975.83 120.5,8970.17 120.5,8964.5C 126.833,8964.5 133.167,8964.5 139.5,8964.5 Z"/></g>
<g><path style="opacity:1" fill="#000000" d="M 120.5,8981.5 C 120.5,8984.5 120.5,8987.5 120.5,8990.5C 145.833,8990.5 171.167,8990.5 196.5,8990.5C 196.5,8996.5 196.5,9002.5 196.5,9008.5C 164.833,9008.5 133.167,9008.5 101.5,9008.5C 101.5,8999.5 101.5,8990.5 101.5,8981.5C 107.833,8981.5 114.167,8981.5 120.5,8981.5 Z"/></g>
<g><path style="opacity:1" fill="#000000" d="M 203.5,9011.5 C 211.167,9011.5 218.833,9011.5 226.5,9011.5C 226.5,9017.83 226.5,9024.17 226.5,9030.5C 218.833,9030.5 211.167,9030.5 203.5,9030.5C 203.5,9024.17 203.5,9017.83 203.5,9011.5 Z"/></g>
<g><path style="opacity:1" fill="#000000" d="M 176.5,9727.5 C 176.5,9721.17 176.5,9714.83 176.5,9708.5C 151.5,9708.5 126.5,9708.5 101.5,9708.5C 101.5,9702.17 101.5,9695.83 101.5,9689.5C 132.833,9689.5 164.167,9689.5 195.5,9689.5C 195.5,9702.17 195.5,9714.83 195.5,9727.5C 189.167,9727.5 182.833,9727.5 176.5,9727.5 Z"/></g>
<g><path style="opacity:1" fill="#000000" d="M 176.5,9727.5 C 176.5,9733.83 176.5,9740.17 176.5,9746.5C 170.167,9746.5 163.833,9746.5 157.5,9746.5C 157.5,9740.17 157.5,9733.83 157.5,9727.5C 163.833,9727.5 170.167,9727.5 176.5,9727.5 Z"/></g>
<g><path style="opacity:1" fill="#000000" d="M 157.5,9746.5 C 157.5,9752.5 157.5,9758.5 157.5,9764.5C 151.5,9764.5 145.5,9764.5 139.5,9764.5C 139.5,9758.5 139.5,9752.5 139.5,9746.5C 145.5,9746.5 151.5,9746.5 157.5,9746.5 Z"/></g>
<g><path style="opacity:1" fill="#000000" d="M 139.5,9764.5 C 139.5,9770.17 139.5,9775.83 139.5,9781.5C 133.167,9781.5 126.833,9781.5 120.5,9781.5C 120.5,9775.83 120.5,9770.17 120.5,9764.5C 126.833,9764.5 133.167,9764.5 139.5,9764.5 Z"/></g>
<g><path style="opacity:1" fill="#000000" d="M 120.5,9781.5 C 120.5,9784.5 120.5,9787.5 120.5,9790.5C 145.833,9790.5 171.167,9790.5 196.5,9790.5C 196.5,9796.5 196.5,9802.5 196.5,9808.5C 164.833,9808.5 133.167,9808.5 101.5,9808.5C 101.5,9799.5 101.5,9790.5 101.5,9781.5C 107.833,9781.5 114.167,9781.5 120.5,9781.5 Z"/></g>
<g><path style="opacity:1" fill="#000000" d="M 203.5,9811.5 C 222.167,9811.5 240.833,9811.5 259.5,9811.5C 259.5,9817.83 259.5,9824.17 259.5,9830.5C 240.833,9830.5 222.167,9830.5 203.5,9830.5C 203.5,9824.17 203.5,9817.83 203.5,9811.5 Z"/></g>
<g><path style="opacity:1" fill="#000000" d="M 176.5,10527.5 C 176.5,10521.2 176.5,10514.8 176.5,10508.5C 151.5,10508.5 126.5,10508.5 101.5,10508.5C 101.5,10502.2 101.5,10495.8 101.5,10489.5C 132.833,10489.5 164.167,10489.5 195.5,10489.5C 195.5,10502.2 195.5,10514.8 195.5,10527.5C 189.167,10527.5 182.833,10527.5 176.5,10527.5 Z"/></g>
<g><path style="opacity:1" fill="#000000" d="M 176.5,10527.5 C 176.5,10533.8 176.5,10540.2 176.5,10546.5C 170.167,10546.5 163.833,10546.5 157.5,10546.5C 157.5,10540.2 157.5,10533.8 157.5,10527.5C 163.833,10527.5 170.167,10527.5 176.5,10527.5 Z"/></g>
<g><path style="opacity:1" fill="#000000" d="M 157.5,10546.5 C 157.5,10552.5 157.5,10558.5 157.5,10564.5C 151.5,10564.5 145.5,10564.5 139.5,10564.5C 139.5,10558.5 139.5,10552.5 139.5,10546.5C 145.5,10546.5 151.5,10546.5 157.5,10546.5 Z"/></g>
<g><path style="opacity:1" fill="#000000" d="M 139.5,10564.5 C 139.5,10570.2 139.5,10575.8 139.5,10581.5C 133.167,10581.5 126.833,10581.5 120.5,10581.5C 120.5,10575.8 120.5,10570.2 120.5,10564.5C 126.833,10564.5 133.167,10564.5 139.5,10564.5 Z"/></g>
<g><path style="opacity:1" fill="#000000" d="M 120.5,10581.5 C 120.5,10584.5 120.5,10587.5 120.5,10590.5C 145.833,10590.5 171.167,10590.5 196.5,10590.5C 196.5,10596.5 196.5,10602.5 196.5,10608.5C 164.833,10608.5 133.167,10608.5 101.5,10608.5C 101.5,10599.5 101.5,10590.5 101.5,10581.5C 107.833,10581.5 114.167,10581.5 120.5,10581.5 Z"/></g>
<g><path style="opacity:1" fill="#000000" d="M 203.5,10611.5 C 235.167,10611.5 266.833,10611.5 298.5,10611.5C 298.5,10617.8 298.5,10624.2 298.5,10630.5C 266.833,10630.5 235.167,10630.5 203.5,10630.5C 203.5,10624.2 203.5,10617.8 203.5,10611.5 Z"/></g>
<g><path style="opacity:1" fill="#000000" d="M 176.5,11327.5 C 176.5,11321.2 176.5,11314.8 176.5,11308.5C 151.5,11308.5 126.5,11308.5 101.5,11308.5C 101.5,11302.2 101.5,11295.8 101.5,11289.5C 132.833,11289.5 164.167,11289.5 195.5,11289.5C 195.5,11302.2 195.5,11314.8 195.5,11327.5C 189.167,11327.5 182.833,11327.5 176.5,11327.5 Z"/></g>
<g><path style="opacity:1" fill="#000000" d="M 176.5,11327.5 C 176.5,11333.8 176.5,11340.2 176.5,11346.5C 170.167,11346.5 163.833,11346.5 157.5,11346.5C 157.5,11340.2 157.5,11333.8 157.5,11327.5C 163.833,11327.5 170.167,11327.5 176.5,11327.5 Z"/></g>
<g><path style="opacity:1" fill="#000000" d="M 157.5,11346.5 C 157.5,11352.5 157.5,11358.5 157.5,11364.5C 151.5,11364.5 145.5,11364.5 139.5,11364.5C 139.5,11358.5 139.5,11352.5 139.5,11346.5C 145.5,11346.5 151.5,11346.5 157.5,11346.5 Z"/></g>
<g><path style="opacity:1" fill="#000000" d="M 139.5,11364.5 C 139.5,11370.2 139.5,11375.8 139.5,11381.5C 133.167,11381.5 126.833,11381.5 120.5,11381.5C 120.5,11375.8 120.5,11370.2 120.5,11364.5C 126.833,11364.5 133.167,11364.5 139.5,11364.5 Z"/></g>
<g><path style="opacity:1" fill="#000000" d="M 120.5,11381.5 C 120.5,11384.5 120.5,11387.5 120.5,11390.5C 145.833,11390.5 171.167,11390.5 196.5,11390.5C 196.5,11396.5 196.5,11402.5 196.5,11408.5C 164.833,11408.5 133.167,11408.5 101.5,11408.5C 101.5,11399.5 101.5,11390.5 101.5,11381.5C 107.833,11381.5 114.167,11381.5 120.5,11381.5 Z"/></g>
<g><path style="opacity:1" fill="#000000" d="M 203.5,11411.5 C 235.167,11411.5 266.833,11411.5 298.5,11411.5C 298.5,11424.2 298.5,11436.8 298.5,11449.5C 292.167,11449.5 285.833,11449.5 279.5,11449.5C 279.5,11443.2 279.5,11436.8 279.5,11430.5C 254.167,11430.5 228.833,11430.5 203.5,11430.5C 203.5,11424.2 203.5,11417.8 203.5,11411.5 Z"/></g>
<g><path style="opacity:1" fill="#000000" d="M 176.5,12127.5 C 176.5,12121.2 176.5,12114.8 176.5,12108.5C 151.5,12108.5 126.5,12108.5 101.5,12108.5C 101.5,12102.2 101.5,12095.8 101.5,12089.5C 132.833,12089.5 164.167,12089.5 195.5,12089.5C 195.5,12102.2 195.5,12114.8 195.5,12127.5C 189.167,12127.5 182.833,12127.5 176.5,12127.5 Z"/></g>
<g><path style="opacity:1" fill="#000000" d="M 176.5,12127.5 C 176.5,12133.8 176.5,12140.2 176.5,12146.5C 170.167,12146.5 163.833,12146.5 157.5,12146.5C 157.5,12140.2 157.5,12133.8 157.5,12127.5C 163.833,12127.5 170.167,12127.5 176.5,12127.5 Z"/></g>
<g><path style="opacity:1" fill="#000000" d="M 157.5,12146.5 C 157.5,12152.5 157.5,12158.5 157.5,12164.5C 151.5,12164.5 145.5,12164.5 139.5,12164.5C 139.5,12158.5 139.5,12152.5 139.5,12146.5C 145.5,12146.5 151.5,12146.5 157.5,12146.5 Z"/></g>
<g><path style="opacity:1" fill="#000000" d="M 139.5,12164.5 C 139.5,12170.2 139.5,12175.8 139.5,12181.5C 133.167,12181.5 126.833,12181.5 120.5,12181.5C 120.5,12175.8 120.5,12170.2 120.5,12164.5C 126.833,12164.5 133.167,12164.5 139.5,12164.5 Z"/></g>
<g><path style="opacity:1" fill="#000000" d="M 120.5,12181.5 C 120.5,12184.5 120.5,12187.5 120.5,12190.5C 145.833,12190.5 171.167,12190.5 196.5,12190.5C 196.5,12196.5 196.5,12202.5 196.5,12208.5C 164.833,12208.5 133.167,12208.5 101.5,12208.5C 101.5,12199.5 101.5,12190.5 101.5,12181.5C 107.833,12181.5 114.167,12181.5 120.5,12181.5 Z"/></g>
<g><path style="opacity:1" fill="#000000" d="M 279.5,12249.5 C 279.5,12243.2 279.5,12236.8 279.5,12230.5C 254.167,12230.5 228.833,12230.5 203.5,12230.5C 203.5,12224.2 203.5,12217.8 203.5,12211.5C 235.167,12211.5 266.833,12211.5 298.5,12211.5C 298.5,12224.2 298.5,12236.8 298.5,12249.5C 292.167,12249.5 285.833,12249.5 279.5,12249.5 Z"/></g>
<g><path style="opacity:1" fill="#000000" d="M 279.5,12249.5 C 279.5,12255.8 279.5,12262.2 279.5,12268.5C 273.167,12268.5 266.833,12268.5 260.5,12268.5C 260.5,12262.2 260.5,12255.8 260.5,12249.5C 266.833,12249.5 273.167,12249.5 279.5,12249.5 Z"/></g>
<g><path style="opacity:1" fill="#000000" d="M 176.5,12927.5 C 176.5,12921.2 176.5,12914.8 176.5,12908.5C 151.5,12908.5 126.5,12908.5 101.5,12908.5C 101.5,12902.2 101.5,12895.8 101.5,12889.5C 132.833,12889.5 164.167,12889.5 195.5,12889.5C 195.5,12902.2 195.5,12914.8 195.5,12927.5C 189.167,12927.5 182.833,12927.5 176.5,12927.5 Z"/></g>
<g><path style="opacity:1" fill="#000000" d="M 176.5,12927.5 C 176.5,12933.8 176.5,12940.2 176.5,12946.5C 170.167,12946.5 163.833,12946.5 157.5,12946.5C 157.5,12940.2 157.5,12933.8 157.5,12927.5C 163.833,12927.5 170.167,12927.5 176.5,12927.5 Z"/></g>
<g><path style="opacity:1" fill="#000000" d="M 157.5,12946.5 C 157.5,12952.5 157.5,12958.5 157.5,12964.5C 151.5,12964.5 145.5,12964.5 139.5,12964.5C 139.5,12958.5 139.5,12952.5 139.5,12946.5C 145.5,12946.5 151.5,12946.5 157.5,12946.5 Z"/></g>
<g><path style="opacity:1" fill="#000000" d="M 139.5,12964.5 C 139.5,12970.2 139.5,12975.8 139.5,12981.5C 133.167,12981.5 126.833,12981.5 120.5,12981.5C 120.5,12975.8 120.5,12970.2 120.5,12964.5C 126.833,12964.5 133.167,12964.5 139.5,12964.5 Z"/></g>
<g><path style="opacity:1" fill="#000000" d="M 120.5,12981.5 C 120.5,12984.5 120.5,12987.5 120.5,12990.5C 145.833,12990.5 171.167,12990.5 196.5,12990.5C 196.5,12996.5 196.5,13002.5 196.5,13008.5C 164.833,13008.5 133.167,13008.5 101.5,13008.5C 101.5,12999.5 101.5,12990.5 101.5,12981.5C 107.833,12981.5 114.167,12981.5 120.5,12981.5 Z"/></g>
<g><path style="opacity:1" fill="#000000" d="M 279.5,13049.5 C 279.5,13043.2 279.5,13036.8 279.5,13030.5C 254.167,13030.5 228.833,13030.5 203.5,13030.5C 203.5,13024.2 203.5,13017.8 203.5,13011.5C 235.167,13011.5 266.833,13011.5 298.5,13011.5C 298.5,13024.2 298.5,13036.8 298.5,13049.5C 292.167,13049.5 285.833,13049.5 279.5,13049.5 Z"/></g>
<g><path style="opacity:1" fill="#000000" d="M 279.5,13049.5 C 279.5,13055.8 279.5,13062.2 279.5,13068.5C 273.167,13068.5 266.833,13068.5 260.5,13068.5C 260.5,13062.2 260.5,13055.8 260.5,13049.5C 266.833,13049.5 273.167,13049.5 279.5,13049.5 Z"/></g>
<g><path style="opacity:1" fill="#000000" d="M 260.5,13068.5 C 260.5,13074.8 260.5,13081.2 260.5,13087.5C 254.167,13087.5 247.833,13087.5 241.5,13087.5C 241.5,13081.2 241.5,13074.8 241.5,13068.5C 247.833,13068.5 254.167,13068.5 260.5,13068.5 Z"/></g>
<g><path style="opacity:1" fill="#000000" d="M 176.5,13727.5 C 176.5,13721.2 176.5,13714.8 176.5,13708.5C 151.5,13708.5 126.5,13708.5 101.5,13708.5C 101.5,13702.2 101.5,13695.8 101.5,13689.5C 132.833,13689.5 164.167,13689.5 195.5,13689.5C 195.5,13702.2 195.5,13714.8 195.5,13727.5C 189.167,13727.5 182.833,13727.5 176.5,13727.5 Z"/></g>
<g><path style="opacity:1" fill="#000000" d="M 176.5,13727.5 C 176.5,13733.8 176.5,13740.2 176.5,13746.5C 170.167,13746.5 163.833,13746.5 157.5,13746.5C 157.5,13740.2 157.5,13733.8 157.5,13727.5C 163.833,13727.5 170.167,13727.5 176.5,13727.5 Z"/></g>
<g><path style="opacity:1" fill="#000000" d="M 157.5,13746.5 C 157.5,13752.5 157.5,13758.5 157.5,13764.5C 151.5,13764.5 145.5,13764.5 139.5,13764.5C 139.5,13758.5 139.5,13752.5 139.5,13746.5C 145.5,13746.5 151.5,13746.5 157.5,13746.5 Z"/></g>
<g><path style="opacity:1" fill="#000000" d="M 139.5,13764.5 C 139.5,13770.2 139.5,13775.8 139.5,13781.5C 133.167,13781.5 126.833,13781.5 120.5,13781.5C 120.5,13775.8 120.5,13770.2 120.5,13764.5C 126.833,13764.5 133.167,13764.5 139.5,13764.5 Z"/></g>
<g><path style="opacity:1" fill="#000000" d="M 120.5,13781.5 C 120.5,13784.5 120.5,13787.5 120.5,13790.5C 145.833,13790.5 171.167,13790.5 196.5,13790.5C 196.5,13796.5 196.5,13802.5 196.5,13808.5C 164.833,13808.5 133.167,13808.5 101.5,13808.5C 101.5,13799.5 101.5,13790.5 101.5,13781.5C 107.833,13781.5 114.167,13781.5 120.5,13781.5 Z"/></g>
<g><path style="opacity:1" fill="#000000" d="M 279.5,13849.5 C 279.5,13843.2 279.5,13836.8 279.5,13830.5C 254.167,13830.5 228.833,13830.5 203.5,13830.5C 203.5,13824.2 203.5,13817.8 203.5,13811.5C 235.167,13811.5 266.833,13811.5 298.5,13811.5C 298.5,13824.2 298.5,13836.8 298.5,13849.5C 292.167,13849.5 285.833,13849.5 279.5,13849.5 Z"/></g>
<g><path style="opacity:1" fill="#000000" d="M 279.5,13849.5 C 279.5,13855.8 279.5,13862.2 279.5,13868.5C 273.167,13868.5 266.833,13868.5 260.5,13868.5C 260.5,13862.2 260.5,13855.8 260.5,13849.5C 266.833,13849.5 273.167,13849.5 279.5,13849.5 Z"/></g>
<g><path style="opacity:1" fill="#000000" d="M 260.5,13868.5 C 260.5,13874.8 260.5,13881.2 260.5,13887.5C 254.167,13887.5 247.833,13887.5 241.5,13887.5C 241.5,13881.2 241.5,13874.8 241.5,13868.5C 247.833,13868.5 254.167,13868.5 260.5,13868.5 Z"/></g>
<g><path style="opacity:1" fill="#000000" d="M 241.5,13887.5 C 241.5,13893.8 241.5,13900.2 241.5,13906.5C 235.167,13906.5 228.833,13906.5 222.5,13906.5C 222.5,13900.2 222.5,13893.8 222.5,13887.5C 228.833,13887.5 235.167,13887.5 241.5,13887.5 Z"/></g>
<g><path style="opacity:1" fill="#000000" d="M 176.5,14527.5 C 176.5,14521.2 176.5,14514.8 176.5,14508.5C 151.5,14508.5 126.5,14508.5 101.5,14508.5C 101.5,14502.2 101.5,14495.8 101.5,14489.5C 132.833,14489.5 164.167,14489.5 195.5,14489.5C 195.5,14502.2 195.5,14514.8 195.5,14527.5C 189.167,14527.5 182.833,14527.5 176.5,14527.5 Z"/></g>
<g><path style="opacity:1" fill="#000000" d="M 176.5,14527.5 C 176.5,14533.8 176.5,14540.2 176.5,14546.5C 170.167,14546.5 163.833,14546.5 157.5,14546.5C 157.5,14540.2 157.5,14533.8 157.5,14527.5C 163.833,14527.5 170.167,14527.5 176.5,14527.5 Z"/></g>
<g><path style="opacity:1" fill="#000000" d="M 157.5,14546.5 C 157.5,14552.5 157.5,14558.5 157.5,14564.5C 151.5,14564.5 145.5,14564.5 139.5,14564.5C 139.5,14558.5 139.5,14552.5 139.5,14546.5C 145.5,14546.5 151.5,14546.5 157.5,14546.5 Z"/></g>
<g><path style="opacity:1" fill="#000000" d="M 139.5,14564.5 C 139.5,14570.2 139.5,14575.8 139.5,14581.5C 133.167,14581.5 126.833,14581.5 120.5,14581.5C 120.5,14575.8 120.5,14570.2 120.5,14564.5C 126.833,14564.5 133.167,14564.5 139.5,14564.5 Z"/></g>
<g><path style="opacity:1" fill="#000000" d="M 120.5,14581.5 C 120.5,14584.5 120.5,14587.5 120.5,14590.5C 145.833,14590.5 171.167,14590.5 196.5,14590.5C 196.5,14596.5 196.5,14602.5 196.5,14608.5C 164.833,14608.5 133.167,14608.5 101.5,14608.5C 101.5,14599.5 101.5,14590.5 101.5,14581.5C 107.833,14581.5 114.167,14581.5 120.5,14581.5 Z"/></g>
<g><path style="opacity:1" fill="#000000" d="M 279.5,14649.5 C 279.5,14643.2 279.5,14636.8 279.5,14630.5C 254.167,14630.5 228.833,14630.5 203.5,14630.5C 203.5,14624.2 203.5,14617.8 203.5,14611.5C 235.167,14611.5 266.833,14611.5 298.5,14611.5C 298.5,14624.2 298.5,14636.8 298.5,14649.5C 292.167,14649.5 285.833,14649.5 279.5,14649.5 Z"/></g>
<g><path style="opacity:1" fill="#000000" d="M 279.5,14649.5 C 279.5,14655.8 279.5,14662.2 279.5,14668.5C 273.167,14668.5 266.833,14668.5 260.5,14668.5C 260.5,14662.2 260.5,14655.8 260.5,14649.5C 266.833,14649.5 273.167,14649.5 279.5,14649.5 Z"/></g>
<g><path style="opacity:1" fill="#000000" d="M 260.5,14668.5 C 260.5,14674.8 260.5,14681.2 260.5,14687.5C 254.167,14687.5 247.833,14687.5 241.5,14687.5C 241.5,14681.2 241.5,14674.8 241.5,14668.5C 247.833,14668.5 254.167,14668.5 260.5,14668.5 Z"/></g>
<g><path style="opacity:1" fill="#000000" d="M 241.5,14687.5 C 241.5,14693.8 241.5,14700.2 241.5,14706.5C 235.167,14706.5 228.833,14706.5 222.5,14706.5C 222.5,14700.2 222.5,14693.8 222.5,14687.5C 228.833,14687.5 235.167,14687.5 241.5,14687.5 Z"/></g>
<g><path style="opacity:1" fill="#000000" d="M 222.5,14706.5 C 222.5,14715.5 222.5,14724.5 222.5,14733.5C 216.167,14733.5 209.833,14733.5 203.5,14733.5C 203.5,14724.5 203.5,14715.5 203.5,14706.5C 209.833,14706.5 216.167,14706.5 222.5,14706.5 Z"/></g>
<g><path style="opacity:1" fill="#000000" d="M 176.5,15327.5 C 176.5,15321.2 176.5,15314.8 176.5,15308.5C 151.5,15308.5 126.5,15308.5 101.5,15308.5C 101.5,15302.2 101.5,15295.8 101.5,15289.5C 132.833,15289.5 164.167,15289.5 195.5,15289.5C 195.5,15302.2 195.5,15314.8 195.5,15327.5C 189.167,15327.5 182.833,15327.5 176.5,15327.5 Z"/></g>
<g><path style="opacity:1" fill="#000000" d="M 176.5,15327.5 C 176.5,15333.8 176.5,15340.2 176.5,15346.5C 170.167,15346.5 163.833,15346.5 157.5,15346.5C 157.5,15340.2 157.5,15333.8 157.5,15327.5C 163.833,15327.5 170.167,15327.5 176.5,15327.5 Z"/></g>
<g><path style="opacity:1" fill="#000000" d="M 157.5,15346.5 C 157.5,15352.5 157.5,15358.5 157.5,15364.5C 151.5,15364.5 145.5,15364.5 139.5,15364.5C 139.5,15358.5 139.5,15352.5 139.5,15346.5C 145.5,15346.5 151.5,15346.5 157.5,15346.5 Z"/></g>
<g><path style="opacity:1" fill="#000000" d="M 139.5,15364.5 C 139.5,15370.2 139.5,15375.8 139.5,15381.5C 133.167,15381.5 126.833,15381.5 120.5,15381.5C 120.5,15375.8 120.5,15370.2 120.5,15364.5C 126.833,15364.5 133.167,15364.5 139.5,15364.5 Z"/></g>
<g><path style="opacity:1" fill="#000000" d="M 120.5,15381.5 C 120.5,15384.5 120.5,15387.5 120.5,15390.5C 145.833,15390.5 171.167,15390.5 196.5,15390.5C 196.5,15396.5 196.5,15402.5 196.5,15408.5C 164.833,15408.5 133.167,15408.5 101.5,15408.5C 101.5,15399.5 101.5,15390.5 101.5,15381.5C 107.833,15381.5 114.167,15381.5 120.5,15381.5 Z"/></g>
<g><path style="opacity:1" fill="#000000" d="M 279.5,15449.5 C 279.5,15443.2 279.5,15436.8 279.5,15430.5C 254.167,15430.5 228.833,15430.5 203.5,15430.5C 203.5,15424.2 203.5,15417.8 203.5,15411.5C 235.167,15411.5 266.833,15411.5 298.5,15411.5C 298.5,15424.2 298.5,15436.8 298.5,15449.5C 292.167,15449.5 285.833,15449.5 279.5,15449.5 Z"/></g>
<g><path style="opacity:1" fill="#000000" d="M 279.5,15449.5 C 279.5,15455.8 279.5,15462.2 279.5,15468.5C 273.167,15468.5 266.833,15468.5 260.5,15468.5C 260.5,15462.2 260.5,15455.8 260.5,15449.5C 266.833,15449.5 273.167,15449.5 279.5,15449.5 Z"/></g>
<g><path style="opacity:1" fill="#000000" d="M 260.5,15468.5 C 260.5,15474.8 260.5,15481.2 260.5,15487.5C 254.167,15487.5 247.833,15487.5 241.5,15487.5C 241.5,15481.2 241.5,15474.8 241.5,15468.5C 247.833,15468.5 254.167,15468.5 260.5,15468.5 Z"/></g>
<g><path style="opacity:1" fill="#000000" d="M 241.5,15487.5 C 241.5,15493.8 241.5,15500.2 241.5,15506.5C 235.167,15506.5 228.833,15506.5 222.5,15506.5C 222.5,15500.2 222.5,15493.8 222.5,15487.5C 228.833,15487.5 235.167,15487.5 241.5,15487.5 Z"/></g>
<g><path style="opacity:1" fill="#000000" d="M 222.5,15506.5 C 222.5,15509.5 222.5,15512.5 222.5,15515.5C 229.5,15515.5 236.5,15515.5 243.5,15515.5C 243.5,15521.5 243.5,15527.5 243.5,15533.5C 230.167,15533.5 216.833,15533.5 203.5,15533.5C 203.5,15524.5 203.5,15515.5 203.5,15506.5C 209.833,15506.5 216.167,15506.5 222.5,15506.5 Z"/></g>
<g><path style="opacity:1" fill="#000000" d="M 176.5,16127.5 C 176.5,16121.2 176.5,16114.8 176.5,16108.5C 151.5,16108.5 126.5,16108.5 101.5,16108.5C 101.5,16102.2 101.5,16095.8 101.5,16089.5C 132.833,16089.5 164.167,16089.5 195.5,16089.5C 195.5,16102.2 195.5,16114.8 195.5,16127.5C 189.167,16127.5 182.833,16127.5 176.5,16127.5 Z"/></g>
<g><path style="opacity:1" fill="#000000" d="M 176.5,16127.5 C 176.5,16133.8 176.5,16140.2 176.5,16146.5C 170.167,16146.5 163.833,16146.5 157.5,16146.5C 157.5,16140.2 157.5,16133.8 157.5,16127.5C 163.833,16127.5 170.167,16127.5 176.5,16127.5 Z"/></g>
<g><path style="opacity:1" fill="#000000" d="M 157.5,16146.5 C 157.5,16152.5 157.5,16158.5 157.5,16164.5C 151.5,16164.5 145.5,16164.5 139.5,16164.5C 139.5,16158.5 139.5,16152.5 139.5,16146.5C 145.5,16146.5 151.5,16146.5 157.5,16146.5 Z"/></g>
<g><path style="opacity:1" fill="#000000" d="M 139.5,16164.5 C 139.5,16170.2 139.5,16175.8 139.5,16181.5C 133.167,16181.5 126.833,16181.5 120.5,16181.5C 120.5,16175.8 120.5,16170.2 120.5,16164.5C 126.833,16164.5 133.167,16164.5 139.5,16164.5 Z"/></g>
<g><path style="opacity:1" fill="#000000" d="M 120.5,16181.5 C 120.5,16184.5 120.5,16187.5 120.5,16190.5C 145.833,16190.5 171.167,16190.5 196.5,16190.5C 196.5,16196.5 196.5,16202.5 196.5,16208.5C 164.833,16208.5 133.167,16208.5 101.5,16208.5C 101.5,16199.5 101.5,16190.5 101.5,16181.5C 107.833,16181.5 114.167,16181.5 120.5,16181.5 Z"/></g>
<g><path style="opacity:1" fill="#000000" d="M 279.5,16249.5 C 279.5,16243.2 279.5,16236.8 279.5,16230.5C 254.167,16230.5 228.833,16230.5 203.5,16230.5C 203.5,16224.2 203.5,16217.8 203.5,16211.5C 235.167,16211.5 266.833,16211.5 298.5,16211.5C 298.5,16224.2 298.5,16236.8 298.5,16249.5C 292.167,16249.5 285.833,16249.5 279.5,16249.5 Z"/></g>
<g><path style="opacity:1" fill="#000000" d="M 279.5,16249.5 C 279.5,16255.8 279.5,16262.2 279.5,16268.5C 273.167,16268.5 266.833,16268.5 260.5,16268.5C 260.5,16262.2 260.5,16255.8 260.5,16249.5C 266.833,16249.5 273.167,16249.5 279.5,16249.5 Z"/></g>
<g><path style="opacity:1" fill="#000000" d="M 260.5,16268.5 C 260.5,16274.8 260.5,16281.2 260.5,16287.5C 254.167,16287.5 247.833,16287.5 241.5,16287.5C 241.5,16281.2 241.5,16274.8 241.5,16268.5C 247.833,16268.5 254.167,16268.5 260.5,16268.5 Z"/></g>
<g><path style="opacity:1" fill="#000000" d="M 241.5,16287.5 C 241.5,16293.8 241.5,16300.2 241.5,16306.5C 235.167,16306.5 228.833,16306.5 222.5,16306.5C 222.5,16300.2 222.5,16293.8 222.5,16287.5C 228.833,16287.5 235.167,16287.5 241.5,16287.5 Z"/></g>
<g><path style="opacity:1" fill="#000000" d="M 222.5,16306.5 C 222.5,16309.5 222.5,16312.5 222.5,16315.5C 237.5,16315.5 252.5,16315.5 267.5,16315.5C 267.5,16321.5 267.5,16327.5 267.5,16333.5C 246.167,16333.5 224.833,16333.5 203.5,16333.5C 203.5,16324.5 203.5,16315.5 203.5,16306.5C 209.833,16306.5 216.167,16306.5 222.5,16306.5 Z"/></g>
<g><path style="opacity:1" fill="#000000" d="M 176.5,16927.5 C 176.5,16921.2 176.5,16914.8 176.5,16908.5C 151.5,16908.5 126.5,16908.5 101.5,16908.5C 101.5,16902.2 101.5,16895.8 101.5,16889.5C 132.833,16889.5 164.167,16889.5 195.5,16889.5C 195.5,16902.2 195.5,16914.8 195.5,16927.5C 189.167,16927.5 182.833,16927.5 176.5,16927.5 Z"/></g>
<g><path style="opacity:1" fill="#000000" d="M 176.5,16927.5 C 176.5,16933.8 176.5,16940.2 176.5,16946.5C 170.167,16946.5 163.833,16946.5 157.5,16946.5C 157.5,16940.2 157.5,16933.8 157.5,16927.5C 163.833,16927.5 170.167,16927.5 176.5,16927.5 Z"/></g>
<g><path style="opacity:1" fill="#000000" d="M 157.5,16946.5 C 157.5,16952.5 157.5,16958.5 157.5,16964.5C 151.5,16964.5 145.5,16964.5 139.5,16964.5C 139.5,16958.5 139.5,16952.5 139.5,16946.5C 145.5,16946.5 151.5,16946.5 157.5,16946.5 Z"/></g>
<g><path style="opacity:1" fill="#000000" d="M 139.5,16964.5 C 139.5,16970.2 139.5,16975.8 139.5,16981.5C 133.167,16981.5 126.833,16981.5 120.5,16981.5C 120.5,16975.8 120.5,16970.2 120.5,16964.5C 126.833,16964.5 133.167,16964.5 139.5,16964.5 Z"/></g>
<g><path style="opacity:1" fill="#000000" d="M 120.5,16981.5 C 120.5,16984.5 120.5,16987.5 120.5,16990.5C 145.833,16990.5 171.167,16990.5 196.5,16990.5C 196.5,16996.5 196.5,17002.5 196.5,17008.5C 164.833,17008.5 133.167,17008.5 101.5,17008.5C 101.5,16999.5 101.5,16990.5 101.5,16981.5C 107.833,16981.5 114.167,16981.5 120.5,16981.5 Z"/></g>
<g><path style="opacity:1" fill="#000000" d="M 279.5,17049.5 C 279.5,17043.2 279.5,17036.8 279.5,17030.5C 254.167,17030.5 228.833,17030.5 203.5,17030.5C 203.5,17024.2 203.5,17017.8 203.5,17011.5C 235.167,17011.5 266.833,17011.5 298.5,17011.5C 298.5,17024.2 298.5,17036.8 298.5,17049.5C 292.167,17049.5 285.833,17049.5 279.5,17049.5 Z"/></g>
<g><path style="opacity:1" fill="#000000" d="M 279.5,17049.5 C 279.5,17055.8 279.5,17062.2 279.5,17068.5C 273.167,17068.5 266.833,17068.5 260.5,17068.5C 260.5,17062.2 260.5,17055.8 260.5,17049.5C 266.833,17049.5 273.167,17049.5 279.5,17049.5 Z"/></g>
<g><path style="opacity:1" fill="#000000" d="M 260.5,17068.5 C 260.5,17074.8 260.5,17081.2 260.5,17087.5C 254.167,17087.5 247.833,17087.5 241.5,17087.5C 241.5,17081.2 241.5,17074.8 241.5,17068.5C 247.833,17068.5 254.167,17068.5 260.5,17068.5 Z"/></g>
<g><path style="opacity:1" fill="#000000" d="M 241.5,17087.5 C 241.5,17093.8 241.5,17100.2 241.5,17106.5C 235.167,17106.5 228.833,17106.5 222.5,17106.5C 222.5,17100.2 222.5,17093.8 222.5,17087.5C 228.833,17087.5 235.167,17087.5 241.5,17087.5 Z"/></g>
<g><path style="opacity:1" fill="#000000" d="M 222.5,17106.5 C 222.5,17109.5 222.5,17112.5 222.5,17115.5C 237.5,17115.5 252.5,17115.5 267.5,17115.5C 267.5,17121.5 267.5,17127.5 267.5,17133.5C 246.167,17133.5 224.833,17133.5 203.5,17133.5C 203.5,17124.5 203.5,17115.5 203.5,17106.5C 209.833,17106.5 216.167,17106.5 222.5,17106.5 Z"/></g>
<g><path style="opacity:1" fill="#000000" d="M 176.5,17727.5 C 176.5,17721.2 176.5,17714.8 176.5,17708.5C 151.5,17708.5 126.5,17708.5 101.5,17708.5C 101.5,17702.2 101.5,17695.8 101.5,17689.5C 132.833,17689.5 164.167,17689.5 195.5,17689.5C 195.5,17702.2 195.5,17714.8 195.5,17727.5C 189.167,17727.5 182.833,17727.5 176.5,17727.5 Z"/></g>
<g><path style="opacity:1" fill="#000000" d="M 176.5,17727.5 C 176.5,17733.8 176.5,17740.2 176.5,17746.5C 170.167,17746.5 163.833,17746.5 157.5,17746.5C 157.5,17740.2 157.5,17733.8 157.5,17727.5C 163.833,17727.5 170.167,17727.5 176.5,17727.5 Z"/></g>
<g><path style="opacity:1" fill="#000000" d="M 157.5,17746.5 C 157.5,17752.5 157.5,17758.5 157.5,17764.5C 151.5,17764.5 145.5,17764.5 139.5,17764.5C 139.5,17758.5 139.5,17752.5 139.5,17746.5C 145.5,17746.5 151.5,17746.5 157.5,17746.5 Z"/></g>
<g><path style="opacity:1" fill="#000000" d="M 139.5,17764.5 C 139.5,17770.2 139.5,17775.8 139.5,17781.5C 133.167,17781.5 126.833,17781.5 120.5,17781.5C 120.5,17775.8 120.5,17770.2 120.5,17764.5C 126.833,17764.5 133.167,17764.5 139.5,17764.5 Z"/></g>
<g><path style="opacity:1" fill="#000000" d="M 120.5,17781.5 C 120.5,17784.5 120.5,17787.5 120.5,17790.5C 145.833,17790.5 171.167,17790.5 196.5,17790.5C 196.5,17796.5 196.5,17802.5 196.5,17808.5C 164.833,17808.5 133.167,17808.5 101.5,17808.5C 101.5,17799.5 101.5,17790.5 101.5,17781.5C 107.833,17781.5 114.167,17781.5 120.5,17781.5 Z"/></g>
<g><path style="opacity:1" fill="#000000" d="M 279.5,17849.5 C 279.5,17843.2 279.5,17836.8 279.5,17830.5C 254.167,17830.5 228.833,17830.5 203.5,17830.5C 203.5,17824.2 203.5,17817.8 203.5,17811.5C 235.167,17811.5 266.833,17811.5 298.5,17811.5C 298.5,17824.2 298.5,17836.8 298.5,17849.5C 292.167,17849.5 285.833,17849.5 279.5,17849.5 Z"/></g>
<g><path style="opacity:1" fill="#000000" d="M 279.5,17849.5 C 279.5,17855.8 279.5,17862.2 279.5,17868.5C 273.167,17868.5 266.833,17868.5 260.5,17868.5C 260.5,17862.2 260.5,17855.8 260.5,17849.5C 266.833,17849.5 273.167,17849.5 279.5,17849.5 Z"/></g>
<g><path style="opacity:1" fill="#000000" d="M 260.5,17868.5 C 260.5,17874.8 260.5,17881.2 260.5,17887.5C 254.167,17887.5 247.833,17887.5 241.5,17887.5C 241.5,17881.2 241.5,17874.8 241.5,17868.5C 247.833,17868.5 254.167,17868.5 260.5,17868.5 Z"/></g>
<g><path style="opacity:1" fill="#000000" d="M 241.5,17887.5 C 241.5,17893.8 241.5,17900.2 241.5,17906.5C 235.167,17906.5 228.833,17906.5 222.5,17906.5C 222.5,17900.2 222.5,17893.8 222.5,17887.5C 228.833,17887.5 235.167,17887.5 241.5,17887.5 Z"/></g>
<g><path style="opacity:1" fill="#000000" d="M 222.5,17906.5 C 222.5,17909.5 222.5,17912.5 222.5,17915.5C 247.833,17915.5 273.167,17915.5 298.5,17915.5C 298.5,17921.5 298.5,17927.5 298.5,17933.5C 266.833,17933.5 235.167,17933.5 203.5,17933.5C 203.5,17924.5 203.5,17915.5 203.5,17906.5C 209.833,17906.5 216.167,17906.5 222.5,17906.5 Z"/></g>
<g><path style="opacity:1" fill="#000000" d="M 176.5,18527.5 C 176.5,18521.2 176.5,18514.8 176.5,18508.5C 151.5,18508.5 126.5,18508.5 101.5,18508.5C 101.5,18502.2 101.5,18495.8 101.5,18489.5C 132.833,18489.5 164.167,18489.5 195.5,18489.5C 195.5,18502.2 195.5,18514.8 195.5,18527.5C 189.167,18527.5 182.833,18527.5 176.5,18527.5 Z"/></g>
<g><path style="opacity:1" fill="#000000" d="M 176.5,18527.5 C 176.5,18533.8 176.5,18540.2 176.5,18546.5C 170.167,18546.5 163.833,18546.5 157.5,18546.5C 157.5,18540.2 157.5,18533.8 157.5,18527.5C 163.833,18527.5 170.167,18527.5 176.5,18527.5 Z"/></g>
<g><path style="opacity:1" fill="#000000" d="M 157.5,18546.5 C 157.5,18552.5 157.5,18558.5 157.5,18564.5C 151.5,18564.5 145.5,18564.5 139.5,18564.5C 139.5,18558.5 139.5,18552.5 139.5,18546.5C 145.5,18546.5 151.5,18546.5 157.5,18546.5 Z"/></g>
<g><path style="opacity:1" fill="#000000" d="M 139.5,18564.5 C 139.5,18570.2 139.5,18575.8 139.5,18581.5C 133.167,18581.5 126.833,18581.5 120.5,18581.5C 120.5,18575.8 120.5,18570.2 120.5,18564.5C 126.833,18564.5 133.167,18564.5 139.5,18564.5 Z"/></g>
<g><path style="opacity:1" fill="#000000" d="M 120.5,18581.5 C 120.5,18584.5 120.5,18587.5 120.5,18590.5C 145.833,18590.5 171.167,18590.5 196.5,18590.5C 196.5,18596.5 196.5,18602.5 196.5,18608.5C 164.833,18608.5 133.167,18608.5 101.5,18608.5C 101.5,18599.5 101.5,18590.5 101.5,18581.5C 107.833,18581.5 114.167,18581.5 120.5,18581.5 Z"/></g>
<g><path style="opacity:1" fill="#000000" d="M 279.5,18649.5 C 279.5,18643.2 279.5,18636.8 279.5,18630.5C 254.167,18630.5 228.833,18630.5 203.5,18630.5C 203.5,18624.2 203.5,18617.8 203.5,18611.5C 235.167,18611.5 266.833,18611.5 298.5,18611.5C 298.5,18624.2 298.5,18636.8 298.5,18649.5C 292.167,18649.5 285.833,18649.5 279.5,18649.5 Z"/></g>
<g><path style="opacity:1" fill="#000000" d="M 279.5,18649.5 C 279.5,18655.8 279.5,18662.2 279.5,18668.5C 273.167,18668.5 266.833,18668.5 260.5,18668.5C 260.5,18662.2 260.5,18655.8 260.5,18649.5C 266.833,18649.5 273.167,18649.5 279.5,18649.5 Z"/></g>
<g><path style="opacity:1" fill="#000000" d="M 260.5,18668.5 C 260.5,18674.8 260.5,18681.2 260.5,18687.5C 254.167,18687.5 247.833,18687.5 241.5,18687.5C 241.5,18681.2 241.5,18674.8 241.5,18668.5C 247.833,18668.5 254.167,18668.5 260.5,18668.5 Z"/></g>
<g><path style="opacity:1" fill="#000000" d="M 241.5,18687.5 C 241.5,18693.8 241.5,18700.2 241.5,18706.5C 235.167,18706.5 228.833,18706.5 222.5,18706.5C 222.5,18700.2 222.5,18693.8 222.5,18687.5C 228.833,18687.5 235.167,18687.5 241.5,18687.5 Z"/></g>
<g><path style="opacity:1" fill="#000000" d="M 222.5,18706.5 C 222.5,18709.5 222.5,18712.5 222.5,18715.5C 247.833,18715.5 273.167,18715.5 298.5,18715.5C 298.5,18721.5 298.5,18727.5 298.5,18733.5C 266.833,18733.5 235.167,18733.5 203.5,18733.5C 203.5,18724.5 203.5,18715.5 203.5,18706.5C 209.833,18706.5 216.167,18706.5 222.5,18706.5 Z"/></g>
<g><path style="opacity:1" fill="#000000" d="M 305.5,18737.5 C 324.167,18737.5 342.833,18737.5 361.5,18737.5C 361.5,18743.8 361.5,18750.2 361.5,18756.5C 342.833,18756.5 324.167,18756.5 305.5,18756.5C 305.5,18750.2 305.5,18743.8 305.5,18737.5 Z"/></g>
<g><path style="opacity:1" fill="#000000" d="M 176.5,19327.5 C 176.5,19321.2 176.5,19314.8 176.5,19308.5C 151.5,19308.5 126.5,19308.5 101.5,19308.5C 101.5,19302.2 101.5,19295.8 101.5,19289.5C 132.833,19289.5 164.167,19289.5 195.5,19289.5C 195.5,19302.2 195.5,19314.8 195.5,19327.5C 189.167,19327.5 182.833,19327.5 176.5,19327.5 Z"/></g>
<g><path style="opacity:1" fill="#000000" d="M 176.5,19327.5 C 176.5,19333.8 176.5,19340.2 176.5,19346.5C 170.167,19346.5 163.833,19346.5 157.5,19346.5C 157.5,19340.2 157.5,19333.8 157.5,19327.5C 163.833,19327.5 170.167,19327.5 176.5,19327.5 Z"/></g>
<g><path style="opacity:1" fill="#000000" d="M 157.5,19346.5 C 157.5,19352.5 157.5,19358.5 157.5,19364.5C 151.5,19364.5 145.5,19364.5 139.5,19364.5C 139.5,19358.5 139.5,19352.5 139.5,19346.5C 145.5,19346.5 151.5,19346.5 157.5,19346.5 Z"/></g>
<g><path style="opacity:1" fill="#000000" d="M 139.5,19364.5 C 139.5,19370.2 139.5,19375.8 139.5,19381.5C 133.167,19381.5 126.833,19381.5 120.5,19381.5C 120.5,19375.8 120.5,19370.2 120.5,19364.5C 126.833,19364.5 133.167,19364.5 139.5,19364.5 Z"/></g>
<g><path style="opacity:1" fill="#000000" d="M 120.5,19381.5 C 120.5,19384.5 120.5,19387.5 120.5,19390.5C 145.833,19390.5 171.167,19390.5 196.5,19390.5C 196.5,19396.5 196.5,19402.5 196.5,19408.5C 164.833,19408.5 133.167,19408.5 101.5,19408.5C 101.5,19399.5 101.5,19390.5 101.5,19381.5C 107.833,19381.5 114.167,19381.5 120.5,19381.5 Z"/></g>
<g><path style="opacity:1" fill="#000000" d="M 279.5,19449.5 C 279.5,19443.2 279.5,19436.8 279.5,19430.5C 254.167,19430.5 228.833,19430.5 203.5,19430.5C 203.5,19424.2 203.5,19417.8 203.5,19411.5C 235.167,19411.5 266.833,19411.5 298.5,19411.5C 298.5,19424.2 298.5,19436.8 298.5,19449.5C 292.167,19449.5 285.833,19449.5 279.5,19449.5 Z"/></g>
<g><path style="opacity:1" fill="#000000" d="M 279.5,19449.5 C 279.5,19455.8 279.5,19462.2 279.5,19468.5C 273.167,19468.5 266.833,19468.5 260.5,19468.5C 260.5,19462.2 260.5,19455.8 260.5,19449.5C 266.833,19449.5 273.167,19449.5 279.5,19449.5 Z"/></g>
<g><path style="opacity:1" fill="#000000" d="M 260.5,19468.5 C 260.5,19474.8 260.5,19481.2 260.5,19487.5C 254.167,19487.5 247.833,19487.5 241.5,19487.5C 241.5,19481.2 241.5,19474.8 241.5,19468.5C 247.833,19468.5 254.167,19468.5 260.5,19468.5 Z"/></g>
<g><path style="opacity:1" fill="#000000" d="M 241.5,19487.5 C 241.5,19493.8 241.5,19500.2 241.5,19506.5C 235.167,19506.5 228.833,19506.5 222.5,19506.5C 222.5,19500.2 222.5,19493.8 222.5,19487.5C 228.833,19487.5 235.167,19487.5 241.5,19487.5 Z"/></g>
<g><path style="opacity:1" fill="#000000" d="M 222.5,19506.5 C 222.5,19509.5 222.5,19512.5 222.5,19515.5C 247.833,19515.5 273.167,19515.5 298.5,19515.5C 298.5,19521.5 298.5,19527.5 298.5,19533.5C 266.833,19533.5 235.167,19533.5 203.5,19533.5C 203.5,19524.5 203.5,19515.5 203.5,19506.5C 209.833,19506.5 216.167,19506.5 222.5,19506.5 Z"/></g>
<g><path style="opacity:1" fill="#000000" d="M 305.5,19537.5 C 337.167,19537.5 368.833,19537.5 400.5,19537.5C 400.5,19543.8 400.5,19550.2 400.5,19556.5C 368.833,19556.5 337.167,19556.5 305.5,19556.5C 305.5,19550.2 305.5,19543.8 305.5,19537.5 Z"/></g>
<g><path style="opacity:1" fill="#000000" d="M 176.5,20127.5 C 176.5,20121.2 176.5,20114.8 176.5,20108.5C 151.5,20108.5 126.5,20108.5 101.5,20108.5C 101.5,20102.2 101.5,20095.8 101.5,20089.5C 132.833,20089.5 164.167,20089.5 195.5,20089.5C 195.5,20102.2 195.5,20114.8 195.5,20127.5C 189.167,20127.5 182.833,20127.5 176.5,20127.5 Z"/></g>
<g><path style="opacity:1" fill="#000000" d="M 176.5,20127.5 C 176.5,20133.8 176.5,20140.2 176.5,20146.5C 170.167,20146.5 163.833,20146.5 157.5,20146.5C 157.5,20140.2 157.5,20133.8 157.5,20127.5C 163.833,20127.5 170.167,20127.5 176.5,20127.5 Z"/></g>
<g><path style="opacity:1" fill="#000000" d="M 157.5,20146.5 C 157.5,20152.5 157.5,20158.5 157.5,20164.5C 151.5,20164.5 145.5,20164.5 139.5,20164.5C 139.5,20158.5 139.5,20152.5 139.5,20146.5C 145.5,20146.5 151.5,20146.5 157.5,20146.5 Z"/></g>
<g><path style="opacity:1" fill="#000000" d="M 139.5,20164.5 C 139.5,20170.2 139.5,20175.8 139.5,20181.5C 133.167,20181.5 126.833,20181.5 120.5,20181.5C 120.5,20175.8 120.5,20170.2 120.5,20164.5C 126.833,20164.5 133.167,20164.5 139.5,20164.5 Z"/></g>
<g><path style="opacity:1" fill="#000000" d="M 120.5,20181.5 C 120.5,20184.5 120.5,20187.5 120.5,20190.5C 145.833,20190.5 171.167,20190.5 196.5,20190.5C 196.5,20196.5 196.5,20202.5 196.5,20208.5C 164.833,20208.5 133.167,20208.5 101.5,20208.5C 101.5,20199.5 101.5,20190.5 101.5,20181.5C 107.833,20181.5 114.167,20181.5 120.5,20181.5 Z"/></g>
<g><path style="opacity:1" fill="#000000" d="M 279.5,20249.5 C 279.5,20243.2 279.5,20236.8 279.5,20230.5C 254.167,20230.5 228.833,20230.5 203.5,20230.5C 203.5,20224.2 203.5,20217.8 203.5,20211.5C 235.167,20211.5 266.833,20211.5 298.5,20211.5C 298.5,20224.2 298.5,20236.8 298.5,20249.5C 292.167,20249.5 285.833,20249.5 279.5,20249.5 Z"/></g>
<g><path style="opacity:1" fill="#000000" d="M 279.5,20249.5 C 279.5,20255.8 279.5,20262.2 279.5,20268.5C 273.167,20268.5 266.833,20268.5 260.5,20268.5C 260.5,20262.2 260.5,20255.8 260.5,20249.5C 266.833,20249.5 273.167,20249.5 279.5,20249.5 Z"/></g>
<g><path style="opacity:1" fill="#000000" d="M 260.5,20268.5 C 260.5,20274.8 260.5,20281.2 260.5,20287.5C 254.167,20287.5 247.833,20287.5 241.5,20287.5C 241.5,20281.2 241.5,20274.8 241.5,20268.5C 247.833,20268.5 254.167,20268.5 260.5,20268.5 Z"/></g>
<g><path style="opacity:1" fill="#000000" d="M 241.5,20287.5 C 241.5,20293.8 241.5,20300.2 241.5,20306.5C 235.167,20306.5 228.833,20306.5 222.5,20306.5C 222.5,20300.2 222.5,20293.8 222.5,20287.5C 228.833,20287.5 235.167,20287.5 241.5,20287.5 Z"/></g>
<g><path style="opacity:1" fill="#000000" d="M 222.5,20306.5 C 222.5,20309.5 222.5,20312.5 222.5,20315.5C 247.833,20315.5 273.167,20315.5 298.5,20315.5C 298.5,20321.5 298.5,20327.5 298.5,20333.5C 266.833,20333.5 235.167,20333.5 203.5,20333.5C 203.5,20324.5 203.5,20315.5 203.5,20306.5C 209.833,20306.5 216.167,20306.5 222.5,20306.5 Z"/></g>
<g><path style="opacity:1" fill="#000000" d="M 305.5,20337.5 C 337.167,20337.5 368.833,20337.5 400.5,20337.5C 400.5,20350.2 400.5,20362.8 400.5,20375.5C 394.167,20375.5 387.833,20375.5 381.5,20375.5C 381.5,20369.2 381.5,20362.8 381.5,20356.5C 356.167,20356.5 330.833,20356.5 305.5,20356.5C 305.5,20350.2 305.5,20343.8 305.5,20337.5 Z"/></g>
<g><path style="opacity:1" fill="#000000" d="M 176.5,20927.5 C 176.5,20921.2 176.5,20914.8 176.5,20908.5C 151.5,20908.5 126.5,20908.5 101.5,20908.5C 101.5,20902.2 101.5,20895.8 101.5,20889.5C 132.833,20889.5 164.167,20889.5 195.5,20889.5C 195.5,20902.2 195.5,20914.8 195.5,20927.5C 189.167,20927.5 182.833,20927.5 176.5,20927.5 Z"/></g>
<g><path style="opacity:1" fill="#000000" d="M 176.5,20927.5 C 176.5,20933.8 176.5,20940.2 176.5,20946.5C 170.167,20946.5 163.833,20946.5 157.5,20946.5C 157.5,20940.2 157.5,20933.8 157.5,20927.5C 163.833,20927.5 170.167,20927.5 176.5,20927.5 Z"/></g>
<g><path style="opacity:1" fill="#000000" d="M 157.5,20946.5 C 157.5,20952.5 157.5,20958.5 157.5,20964.5C 151.5,20964.5 145.5,20964.5 139.5,20964.5C 139.5,20958.5 139.5,20952.5 139.5,20946.5C 145.5,20946.5 151.5,20946.5 157.5,20946.5 Z"/></g>
<g><path style="opacity:1" fill="#000000" d="M 139.5,20964.5 C 139.5,20970.2 139.5,20975.8 139.5,20981.5C 133.167,20981.5 126.833,20981.5 120.5,20981.5C 120.5,20975.8 120.5,20970.2 120.5,20964.5C 126.833,20964.5 133.167,20964.5 139.5,20964.5 Z"/></g>
<g><path style="opacity:1" fill="#000000" d="M 120.5,20981.5 C 120.5,20984.5 120.5,20987.5 120.5,20990.5C 145.833,20990.5 171.167,20990.5 196.5,20990.5C 196.5,20996.5 196.5,21002.5 196.5,21008.5C 164.833,21008.5 133.167,21008.5 101.5,21008.5C 101.5,20999.5 101.5,20990.5 101.5,20981.5C 107.833,20981.5 114.167,20981.5 120.5,20981.5 Z"/></g>
<g><path style="opacity:1" fill="#000000" d="M 279.5,21049.5 C 279.5,21043.2 279.5,21036.8 279.5,21030.5C 254.167,21030.5 228.833,21030.5 203.5,21030.5C 203.5,21024.2 203.5,21017.8 203.5,21011.5C 235.167,21011.5 266.833,21011.5 298.5,21011.5C 298.5,21024.2 298.5,21036.8 298.5,21049.5C 292.167,21049.5 285.833,21049.5 279.5,21049.5 Z"/></g>
<g><path style="opacity:1" fill="#000000" d="M 279.5,21049.5 C 279.5,21055.8 279.5,21062.2 279.5,21068.5C 273.167,21068.5 266.833,21068.5 260.5,21068.5C 260.5,21062.2 260.5,21055.8 260.5,21049.5C 266.833,21049.5 273.167,21049.5 279.5,21049.5 Z"/></g>
<g><path style="opacity:1" fill="#000000" d="M 260.5,21068.5 C 260.5,21074.8 260.5,21081.2 260.5,21087.5C 254.167,21087.5 247.833,21087.5 241.5,21087.5C 241.5,21081.2 241.5,21074.8 241.5,21068.5C 247.833,21068.5 254.167,21068.5 260.5,21068.5 Z"/></g>
<g><path style="opacity:1" fill="#000000" d="M 241.5,21087.5 C 241.5,21093.8 241.5,21100.2 241.5,21106.5C 235.167,21106.5 228.833,21106.5 222.5,21106.5C 222.5,21100.2 222.5,21093.8 222.5,21087.5C 228.833,21087.5 235.167,21087.5 241.5,21087.5 Z"/></g>
<g><path style="opacity:1" fill="#000000" d="M 222.5,21106.5 C 222.5,21109.5 222.5,21112.5 222.5,21115.5C 247.833,21115.5 273.167,21115.5 298.5,21115.5C 298.5,21121.5 298.5,21127.5 298.5,21133.5C 266.833,21133.5 235.167,21133.5 203.5,21133.5C 203.5,21124.5 203.5,21115.5 203.5,21106.5C 209.833,21106.5 216.167,21106.5 222.5,21106.5 Z"/></g>
<g><path style="opacity:1" fill="#000000" d="M 381.5,21175.5 C 381.5,21169.2 381.5,21162.8 381.5,21156.5C 356.167,21156.5 330.833,21156.5 305.5,21156.5C 305.5,21150.2 305.5,21143.8 305.5,21137.5C 337.167,21137.5 368.833,21137.5 400.5,21137.5C 400.5,21150.2 400.5,21162.8 400.5,21175.5C 394.167,21175.5 387.833,21175.5 381.5,21175.5 Z"/></g>
<g><path style="opacity:1" fill="#000000" d="M 381.5,21175.5 C 381.5,21181.8 381.5,21188.2 381.5,21194.5C 375.167,21194.5 368.833,21194.5 362.5,21194.5C 362.5,21188.2 362.5,21181.8 362.5,21175.5C 368.833,21175.5 375.167,21175.5 381.5,21175.5 Z"/></g>
<g><path style="opacity:1" fill="#000000" d="M 176.5,21727.5 C 176.5,21721.2 176.5,21714.8 176.5,21708.5C 151.5,21708.5 126.5,21708.5 101.5,21708.5C 101.5,21702.2 101.5,21695.8 101.5,21689.5C 132.833,21689.5 164.167,21689.5 195.5,21689.5C 195.5,21702.2 195.5,21714.8 195.5,21727.5C 189.167,21727.5 182.833,21727.5 176.5,21727.5 Z"/></g>
<g><path style="opacity:1" fill="#000000" d="M 176.5,21727.5 C 176.5,21733.8 176.5,21740.2 176.5,21746.5C 170.167,21746.5 163.833,21746.5 157.5,21746.5C 157.5,21740.2 157.5,21733.8 157.5,21727.5C 163.833,21727.5 170.167,21727.5 176.5,21727.5 Z"/></g>
<g><path style="opacity:1" fill="#000000" d="M 157.5,21746.5 C 157.5,21752.5 157.5,21758.5 157.5,21764.5C 151.5,21764.5 145.5,21764.5 139.5,21764.5C 139.5,21758.5 139.5,21752.5 139.5,21746.5C 145.5,21746.5 151.5,21746.5 157.5,21746.5 Z"/></g>
<g><path style="opacity:1" fill="#000000" d="M 139.5,21764.5 C 139.5,21770.2 139.5,21775.8 139.5,21781.5C 133.167,21781.5 126.833,21781.5 120.5,21781.5C 120.5,21775.8 120.5,21770.2 120.5,21764.5C 126.833,21764.5 133.167,21764.5 139.5,21764.5 Z"/></g>
<g><path style="opacity:1" fill="#000000" d="M 120.5,21781.5 C 120.5,21784.5 120.5,21787.5 120.5,21790.5C 145.833,21790.5 171.167,21790.5 196.5,21790.5C 196.5,21796.5 196.5,21802.5 196.5,21808.5C 164.833,21808.5 133.167,21808.5 101.5,21808.5C 101.5,21799.5 101.5,21790.5 101.5,21781.5C 107.833,21781.5 114.167,21781.5 120.5,21781.5 Z"/></g>
<g><path style="opacity:1" fill="#000000" d="M 279.5,21849.5 C 279.5,21843.2 279.5,21836.8 279.5,21830.5C 254.167,21830.5 228.833,21830.5 203.5,21830.5C 203.5,21824.2 203.5,21817.8 203.5,21811.5C 235.167,21811.5 266.833,21811.5 298.5,21811.5C 298.5,21824.2 298.5,21836.8 298.5,21849.5C 292.167,21849.5 285.833,21849.5 279.5,21849.5 Z"/></g>
<g><path style="opacity:1" fill="#000000" d="M 279.5,21849.5 C 279.5,21855.8 279.5,21862.2 279.5,21868.5C 273.167,21868.5 266.833,21868.5 260.5,21868.5C 260.5,21862.2 260.5,21855.8 260.5,21849.5C 266.833,21849.5 273.167,21849.5 279.5,21849.5 Z"/></g>
<g><path style="opacity:1" fill="#000000" d="M 260.5,21868.5 C 260.5,21874.8 260.5,21881.2 260.5,21887.5C 254.167,21887.5 247.833,21887.5 241.5,21887.5C 241.5,21881.2 241.5,21874.8 241.5,21868.5C 247.833,21868.5 254.167,21868.5 260.5,21868.5 Z"/></g>
<g><path style="opacity:1" fill="#000000" d="M 241.5,21887.5 C 241.5,21893.8 241.5,21900.2 241.5,21906.5C 235.167,21906.5 228.833,21906.5 222.5,21906.5C 222.5,21900.2 222.5,21893.8 222.5,21887.5C 228.833,21887.5 235.167,21887.5 241.5,21887.5 Z"/></g>
<g><path style="opacity:1" fill="#000000" d="M 222.5,21906.5 C 222.5,21909.5 222.5,21912.5 222.5,21915.5C 247.833,21915.5 273.167,21915.5 298.5,21915.5C 298.5,21921.5 298.5,21927.5 298.5,21933.5C 266.833,21933.5 235.167,21933.5 203.5,21933.5C 203.5,21924.5 203.5,21915.5 203.5,21906.5C 209.833,21906.5 216.167,21906.5 222.5,21906.5 Z"/></g>
<g><path style="opacity:1" fill="#000000" d="M 381.5,21975.5 C 381.5,21969.2 381.5,21962.8 381.5,21956.5C 356.167,21956.5 330.833,21956.5 305.5,21956.5C 305.5,21950.2 305.5,21943.8 305.5,21937.5C 337.167,21937.5 368.833,21937.5 400.5,21937.5C 400.5,21950.2 400.5,21962.8 400.5,21975.5C 394.167,21975.5 387.833,21975.5 381.5,21975.5 Z"/></g>
<g><path style="opacity:1" fill="#000000" d="M 381.5,21975.5 C 381.5,21981.8 381.5,21988.2 381.5,21994.5C 375.167,21994.5 368.833,21994.5 362.5,21994.5C 362.5,21988.2 362.5,21981.8 362.5,21975.5C 368.833,21975.5 375.167,21975.5 381.5,21975.5 Z"/></g>
<g><path style="opacity:1" fill="#000000" d="M 362.5,21994.5 C 362.5,22000.8 362.5,22007.2 362.5,22013.5C 356.167,22013.5 349.833,22013.5 343.5,22013.5C 343.5,22007.2 343.5,22000.8 343.5,21994.5C 349.833,21994.5 356.167,21994.5 362.5,21994.5 Z"/></g>
<g><path style="opacity:1" fill="#000000" d="M 176.5,22527.5 C 176.5,22521.2 176.5,22514.8 176.5,22508.5C 151.5,22508.5 126.5,22508.5 101.5,22508.5C 101.5,22502.2 101.5,22495.8 101.5,22489.5C 132.833,22489.5 164.167,22489.5 195.5,22489.5C 195.5,22502.2 195.5,22514.8 195.5,22527.5C 189.167,22527.5 182.833,22527.5 176.5,22527.5 Z"/></g>
<g><path style="opacity:1" fill="#000000" d="M 176.5,22527.5 C 176.5,22533.8 176.5,22540.2 176.5,22546.5C 170.167,22546.5 163.833,22546.5 157.5,22546.5C 157.5,22540.2 157.5,22533.8 157.5,22527.5C 163.833,22527.5 170.167,22527.5 176.5,22527.5 Z"/></g>
<g><path style="opacity:1" fill="#000000" d="M 157.5,22546.5 C 157.5,22552.5 157.5,22558.5 157.5,22564.5C 151.5,22564.5 145.5,22564.5 139.5,22564.5C 139.5,22558.5 139.5,22552.5 139.5,22546.5C 145.5,22546.5 151.5,22546.5 157.5,22546.5 Z"/></g>
<g><path style="opacity:1" fill="#000000" d="M 139.5,22564.5 C 139.5,22570.2 139.5,22575.8 139.5,22581.5C 133.167,22581.5 126.833,22581.5 120.5,22581.5C 120.5,22575.8 120.5,22570.2 120.5,22564.5C 126.833,22564.5 133.167,22564.5 139.5,22564.5 Z"/></g>
<g><path style="opacity:1" fill="#000000" d="M 120.5,22581.5 C 120.5,22584.5 120.5,22587.5 120.5,22590.5C 145.833,22590.5 171.167,22590.5 196.5,22590.5C 196.5,22596.5 196.5,22602.5 196.5,22608.5C 164.833,22608.5 133.167,22608.5 101.5,22608.5C 101.5,22599.5 101.5,22590.5 101.5,22581.5C 107.833,22581.5 114.167,22581.5 120.5,22581.5 Z"/></g>
<g><path style="opacity:1" fill="#000000" d="M 279.5,22649.5 C 279.5,22643.2 279.5,22636.8 279.5,22630.5C 254.167,22630.5 228.833,22630.5 203.5,22630.5C 203.5,22624.2 203.5,22617.8 203.5,22611.5C 235.167,22611.5 266.833,22611.5 298.5,22611.5C 298.5,22624.2 298.5,22636.8 298.5,22649.5C 292.167,22649.5 285.833,22649.5 279.5,22649.5 Z"/></g>
<g><path style="opacity:1" fill="#000000" d="M 279.5,22649.5 C 279.5,22655.8 279.5,22662.2 279.5,22668.5C 273.167,22668.5 266.833,22668.5 260.5,22668.5C 260.5,22662.2 260.5,22655.8 260.5,22649.5C 266.833,22649.5 273.167,22649.5 279.5,22649.5 Z"/></g>
<g><path style="opacity:1" fill="#000000" d="M 260.5,22668.5 C 260.5,22674.8 260.5,22681.2 260.5,22687.5C 254.167,22687.5 247.833,22687.5 241.5,22687.5C 241.5,22681.2 241.5,22674.8 241.5,22668.5C 247.833,22668.5 254.167,22668.5 260.5,22668.5 Z"/></g>
<g><path style="opacity:1" fill="#000000" d="M 241.5,22687.5 C 241.5,22693.8 241.5,22700.2 241.5,22706.5C 235.167,22706.5 228.833,22706.5 222.5,22706.5C 222.5,22700.2 222.5,22693.8 222.5,22687.5C 228.833,22687.5 235.167,22687.5 241.5,22687.5 Z"/></g>
<g><path style="opacity:1" fill="#000000" d="M 222.5,22706.5 C 222.5,22709.5 222.5,22712.5 222.5,22715.5C 247.833,22715.5 273.167,22715.5 298.5,22715.5C 298.5,22721.5 298.5,22727.5 298.5,22733.5C 266.833,22733.5 235.167,22733.5 203.5,22733.5C 203.5,22724.5 203.5,22715.5 203.5,22706.5C 209.833,22706.5 216.167,22706.5 222.5,22706.5 Z"/></g>
<g><path style="opacity:1" fill="#000000" d="M 381.5,22775.5 C 381.5,22769.2 381.5,22762.8 381.5,22756.5C 356.167,22756.5 330.833,22756.5 305.5,22756.5C 305.5,22750.2 305.5,22743.8 305.5,22737.5C 337.167,22737.5 368.833,22737.5 400.5,22737.5C 400.5,22750.2 400.5,22762.8 400.5,22775.5C 394.167,22775.5 387.833,22775.5 381.5,22775.5 Z"/></g>
<g><path style="opacity:1" fill="#000000" d="M 381.5,22775.5 C 381.5,22781.8 381.5,22788.2 381.5,22794.5C 375.167,22794.5 368.833,22794.5 362.5,22794.5C 362.5,22788.2 362.5,22781.8 362.5,22775.5C 368.833,22775.5 375.167,22775.5 381.5,22775.5 Z"/></g>
<g><path style="opacity:1" fill="#000000" d="M 362.5,22794.5 C 362.5,22800.8 362.5,22807.2 362.5,22813.5C 356.167,22813.5 349.833,22813.5 343.5,22813.5C 343.5,22807.2 343.5,22800.8 343.5,22794.5C 349.833,22794.5 356.167,22794.5 362.5,22794.5 Z"/></g>
<g><path style="opacity:1" fill="#000000" d="M 343.5,22813.5 C 343.5,22819.8 343.5,22826.2 343.5,22832.5C 337.167,22832.5 330.833,22832.5 324.5,22832.5C 324.5,22826.2 324.5,22819.8 324.5,22813.5C 330.833,22813.5 337.167,22813.5 343.5,22813.5 Z"/></g>
<g><path style="opacity:1" fill="#000000" d="M 176.5,23327.5 C 176.5,23321.2 176.5,23314.8 176.5,23308.5C 151.5,23308.5 126.5,23308.5 101.5,23308.5C 101.5,23302.2 101.5,23295.8 101.5,23289.5C 132.833,23289.5 164.167,23289.5 195.5,23289.5C 195.5,23302.2 195.5,23314.8 195.5,23327.5C 189.167,23327.5 182.833,23327.5 176.5,23327.5 Z"/></g>
<g><path style="opacity:1" fill="#000000" d="M 176.5,23327.5 C 176.5,23333.8 176.5,23340.2 176.5,23346.5C 170.167,23346.5 163.833,23346.5 157.5,23346.5C 157.5,23340.2 157.5,23333.8 157.5,23327.5C 163.833,23327.5 170.167,23327.5 176.5,23327.5 Z"/></g>
<g><path style="opacity:1" fill="#000000" d="M 157.5,23346.5 C 157.5,23352.5 157.5,23358.5 157.5,23364.5C 151.5,23364.5 145.5,23364.5 139.5,23364.5C 139.5,23358.5 139.5,23352.5 139.5,23346.5C 145.5,23346.5 151.5,23346.5 157.5,23346.5 Z"/></g>
<g><path style="opacity:1" fill="#000000" d="M 139.5,23364.5 C 139.5,23370.2 139.5,23375.8 139.5,23381.5C 133.167,23381.5 126.833,23381.5 120.5,23381.5C 120.5,23375.8 120.5,23370.2 120.5,23364.5C 126.833,23364.5 133.167,23364.5 139.5,23364.5 Z"/></g>
<g><path style="opacity:1" fill="#000000" d="M 120.5,23381.5 C 120.5,23384.5 120.5,23387.5 120.5,23390.5C 145.833,23390.5 171.167,23390.5 196.5,23390.5C 196.5,23396.5 196.5,23402.5 196.5,23408.5C 164.833,23408.5 133.167,23408.5 101.5,23408.5C 101.5,23399.5 101.5,23390.5 101.5,23381.5C 107.833,23381.5 114.167,23381.5 120.5,23381.5 Z"/></g>
<g><path style="opacity:1" fill="#000000" d="M 279.5,23449.5 C 279.5,23443.2 279.5,23436.8 279.5,23430.5C 254.167,23430.5 228.833,23430.5 203.5,23430.5C 203.5,23424.2 203.5,23417.8 203.5,23411.5C 235.167,23411.5 266.833,23411.5 298.5,23411.5C 298.5,23424.2 298.5,23436.8 298.5,23449.5C 292.167,23449.5 285.833,23449.5 279.5,23449.5 Z"/></g>
<g><path style="opacity:1" fill="#000000" d="M 279.5,23449.5 C 279.5,23455.8 279.5,23462.2 279.5,23468.5C 273.167,23468.5 266.833,23468.5 260.5,23468.5C 260.5,23462.2 260.5,23455.8 260.5,23449.5C 266.833,23449.5 273.167,23449.5 279.5,23449.5 Z"/></g>
<g><path style="opacity:1" fill="#000000" d="M 260.5,23468.5 C 260.5,23474.8 260.5,23481.2 260.5,23487.5C 254.167,23487.5 247.833,23487.5 241.5,23487.5C 241.5,23481.2 241.5,23474.8 241.5,23468.5C 247.833,23468.5 254.167,23468.5 260.5,23468.5 Z"/></g>
<g><path style="opacity:1" fill="#000000" d="M 241.5,23487.5 C 241.5,23493.8 241.5,23500.2 241.5,23506.5C 235.167,23506.5 228.833,23506.5 222.5,23506.5C 222.5,23500.2 222.5,23493.8 222.5,23487.5C 228.833,23487.5 235.167,23487.5 241.5,23487.5 Z"/></g>
<g><path style="opacity:1" fill="#000000" d="M 222.5,23506.5 C 222.5,23509.5 222.5,23512.5 222.5,23515.5C 247.833,23515.5 273.167,23515.5 298.5,23515.5C 298.5,23521.5 298.5,23527.5 298.5,23533.5C 266.833,23533.5 235.167,23533.5 203.5,23533.5C 203.5,23524.5 203.5,23515.5 203.5,23506.5C 209.833,23506.5 216.167,23506.5 222.5,23506.5 Z"/></g>
<g><path style="opacity:1" fill="#000000" d="M 381.5,23575.5 C 381.5,23569.2 381.5,23562.8 381.5,23556.5C 356.167,23556.5 330.833,23556.5 305.5,23556.5C 305.5,23550.2 305.5,23543.8 305.5,23537.5C 337.167,23537.5 368.833,23537.5 400.5,23537.5C 400.5,23550.2 400.5,23562.8 400.5,23575.5C 394.167,23575.5 387.833,23575.5 381.5,23575.5 Z"/></g>
<g><path style="opacity:1" fill="#000000" d="M 381.5,23575.5 C 381.5,23581.8 381.5,23588.2 381.5,23594.5C 375.167,23594.5 368.833,23594.5 362.5,23594.5C 362.5,23588.2 362.5,23581.8 362.5,23575.5C 368.833,23575.5 375.167,23575.5 381.5,23575.5 Z"/></g>
<g><path style="opacity:1" fill="#000000" d="M 362.5,23594.5 C 362.5,23600.8 362.5,23607.2 362.5,23613.5C 356.167,23613.5 349.833,23613.5 343.5,23613.5C 343.5,23607.2 343.5,23600.8 343.5,23594.5C 349.833,23594.5 356.167,23594.5 362.5,23594.5 Z"/></g>
<g><path style="opacity:1" fill="#000000" d="M 343.5,23613.5 C 343.5,23619.8 343.5,23626.2 343.5,23632.5C 337.167,23632.5 330.833,23632.5 324.5,23632.5C 324.5,23626.2 324.5,23619.8 324.5,23613.5C 330.833,23613.5 337.167,23613.5 343.5,23613.5 Z"/></g>
<g><path style="opacity:1" fill="#000000" d="M 324.5,23632.5 C 324.5,23641.5 324.5,23650.5 324.5,23659.5C 318.167,23659.5 311.833,23659.5 305.5,23659.5C 305.5,23650.5 305.5,23641.5 305.5,23632.5C 311.833,23632.5 318.167,23632.5 324.5,23632.5 Z"/></g>
<g><path style="opacity:1" fill="#000000" d="M 176.5,24127.5 C 176.5,24121.2 176.5,24114.8 176.5,24108.5C 151.5,24108.5 126.5,24108.5 101.5,24108.5C 101.5,24102.2 101.5,24095.8 101.5,24089.5C 132.833,24089.5 164.167,24089.5 195.5,24089.5C 195.5,24102.2 195.5,24114.8 195.5,24127.5C 189.167,24127.5 182.833,24127.5 176.5,24127.5 Z"/></g>
<g><path style="opacity:1" fill="#000000" d="M 176.5,24127.5 C 176.5,24133.8 176.5,24140.2 176.5,24146.5C 170.167,24146.5 163.833,24146.5 157.5,24146.5C 157.5,24140.2 157.5,24133.8 157.5,24127.5C 163.833,24127.5 170.167,24127.5 176.5,24127.5 Z"/></g>
<g><path style="opacity:1" fill="#000000" d="M 157.5,24146.5 C 157.5,24152.5 157.5,24158.5 157.5,24164.5C 151.5,24164.5 145.5,24164.5 139.5,24164.5C 139.5,24158.5 139.5,24152.5 139.5,24146.5C 145.5,24146.5 151.5,24146.5 157.5,24146.5 Z"/></g>
<g><path style="opacity:1" fill="#000000" d="M 139.5,24164.5 C 139.5,24170.2 139.5,24175.8 139.5,24181.5C 133.167,24181.5 126.833,24181.5 120.5,24181.5C 120.5,24175.8 120.5,24170.2 120.5,24164.5C 126.833,24164.5 133.167,24164.5 139.5,24164.5 Z"/></g>
<g><path style="opacity:1" fill="#000000" d="M 120.5,24181.5 C 120.5,24184.5 120.5,24187.5 120.5,24190.5C 145.833,24190.5 171.167,24190.5 196.5,24190.5C 196.5,24196.5 196.5,24202.5 196.5,24208.5C 164.833,24208.5 133.167,24208.5 101.5,24208.5C 101.5,24199.5 101.5,24190.5 101.5,24181.5C 107.833,24181.5 114.167,24181.5 120.5,24181.5 Z"/></g>
<g><path style="opacity:1" fill="#000000" d="M 279.5,24249.5 C 279.5,24243.2 279.5,24236.8 279.5,24230.5C 254.167,24230.5 228.833,24230.5 203.5,24230.5C 203.5,24224.2 203.5,24217.8 203.5,24211.5C 235.167,24211.5 266.833,24211.5 298.5,24211.5C 298.5,24224.2 298.5,24236.8 298.5,24249.5C 292.167,24249.5 285.833,24249.5 279.5,24249.5 Z"/></g>
<g><path style="opacity:1" fill="#000000" d="M 279.5,24249.5 C 279.5,24255.8 279.5,24262.2 279.5,24268.5C 273.167,24268.5 266.833,24268.5 260.5,24268.5C 260.5,24262.2 260.5,24255.8 260.5,24249.5C 266.833,24249.5 273.167,24249.5 279.5,24249.5 Z"/></g>
<g><path style="opacity:1" fill="#000000" d="M 260.5,24268.5 C 260.5,24274.8 260.5,24281.2 260.5,24287.5C 254.167,24287.5 247.833,24287.5 241.5,24287.5C 241.5,24281.2 241.5,24274.8 241.5,24268.5C 247.833,24268.5 254.167,24268.5 260.5,24268.5 Z"/></g>
<g><path style="opacity:1" fill="#000000" d="M 241.5,24287.5 C 241.5,24293.8 241.5,24300.2 241.5,24306.5C 235.167,24306.5 228.833,24306.5 222.5,24306.5C 222.5,24300.2 222.5,24293.8 222.5,24287.5C 228.833,24287.5 235.167,24287.5 241.5,24287.5 Z"/></g>
<g><path style="opacity:1" fill="#000000" d="M 222.5,24306.5 C 222.5,24309.5 222.5,24312.5 222.5,24315.5C 247.833,24315.5 273.167,24315.5 298.5,24315.5C 298.5,24321.5 298.5,24327.5 298.5,24333.5C 266.833,24333.5 235.167,24333.5 203.5,24333.5C 203.5,24324.5 203.5,24315.5 203.5,24306.5C 209.833,24306.5 216.167,24306.5 222.5,24306.5 Z"/></g>
<g><path style="opacity:1" fill="#000000" d="M 381.5,24375.5 C 381.5,24369.2 381.5,24362.8 381.5,24356.5C 356.167,24356.5 330.833,24356.5 305.5,24356.5C 305.5,24350.2 305.5,24343.8 305.5,24337.5C 337.167,24337.5 368.833,24337.5 400.5,24337.5C 400.5,24350.2 400.5,24362.8 400.5,24375.5C 394.167,24375.5 387.833,24375.5 381.5,24375.5 Z"/></g>
<g><path style="opacity:1" fill="#000000" d="M 381.5,24375.5 C 381.5,24381.8 381.5,24388.2 381.5,24394.5C 375.167,24394.5 368.833,24394.5 362.5,24394.5C 362.5,24388.2 362.5,24381.8 362.5,24375.5C 368.833,24375.5 375.167,24375.5 381.5,24375.5 Z"/></g>
<g><path style="opacity:1" fill="#000000" d="M 362.5,24394.5 C 362.5,24400.8 362.5,24407.2 362.5,24413.5C 356.167,24413.5 349.833,24413.5 343.5,24413.5C 343.5,24407.2 343.5,24400.8 343.5,24394.5C 349.833,24394.5 356.167,24394.5 362.5,24394.5 Z"/></g>
<g><path style="opacity:1" fill="#000000" d="M 343.5,24413.5 C 343.5,24419.8 343.5,24426.2 343.5,24432.5C 337.167,24432.5 330.833,24432.5 324.5,24432.5C 324.5,24426.2 324.5,24419.8 324.5,24413.5C 330.833,24413.5 337.167,24413.5 343.5,24413.5 Z"/></g>
<g><path style="opacity:1" fill="#000000" d="M 324.5,24432.5 C 324.5,24435.5 324.5,24438.5 324.5,24441.5C 331.5,24441.5 338.5,24441.5 345.5,24441.5C 345.5,24447.5 345.5,24453.5 345.5,24459.5C 332.167,24459.5 318.833,24459.5 305.5,24459.5C 305.5,24450.5 305.5,24441.5 305.5,24432.5C 311.833,24432.5 318.167,24432.5 324.5,24432.5 Z"/></g>
<g><path style="opacity:1" fill="#000000" d="M 176.5,24927.5 C 176.5,24921.2 176.5,24914.8 176.5,24908.5C 151.5,24908.5 126.5,24908.5 101.5,24908.5C 101.5,24902.2 101.5,24895.8 101.5,24889.5C 132.833,24889.5 164.167,24889.5 195.5,24889.5C 195.5,24902.2 195.5,24914.8 195.5,24927.5C 189.167,24927.5 182.833,24927.5 176.5,24927.5 Z"/></g>
<g><path style="opacity:1" fill="#000000" d="M 176.5,24927.5 C 176.5,24933.8 176.5,24940.2 176.5,24946.5C 170.167,24946.5 163.833,24946.5 157.5,24946.5C 157.5,24940.2 157.5,24933.8 157.5,24927.5C 163.833,24927.5 170.167,24927.5 176.5,24927.5 Z"/></g>
<g><path style="opacity:1" fill="#000000" d="M 157.5,24946.5 C 157.5,24952.5 157.5,24958.5 157.5,24964.5C 151.5,24964.5 145.5,24964.5 139.5,24964.5C 139.5,24958.5 139.5,24952.5 139.5,24946.5C 145.5,24946.5 151.5,24946.5 157.5,24946.5 Z"/></g>
<g><path style="opacity:1" fill="#000000" d="M 139.5,24964.5 C 139.5,24970.2 139.5,24975.8 139.5,24981.5C 133.167,24981.5 126.833,24981.5 120.5,24981.5C 120.5,24975.8 120.5,24970.2 120.5,24964.5C 126.833,24964.5 133.167,24964.5 139.5,24964.5 Z"/></g>
<g><path style="opacity:1" fill="#000000" d="M 120.5,24981.5 C 120.5,24984.5 120.5,24987.5 120.5,24990.5C 145.833,24990.5 171.167,24990.5 196.5,24990.5C 196.5,24996.5 196.5,25002.5 196.5,25008.5C 164.833,25008.5 133.167,25008.5 101.5,25008.5C 101.5,24999.5 101.5,24990.5 101.5,24981.5C 107.833,24981.5 114.167,24981.5 120.5,24981.5 Z"/></g>
<g><path style="opacity:1" fill="#000000" d="M 279.5,25049.5 C 279.5,25043.2 279.5,25036.8 279.5,25030.5C 254.167,25030.5 228.833,25030.5 203.5,25030.5C 203.5,25024.2 203.5,25017.8 203.5,25011.5C 235.167,25011.5 266.833,25011.5 298.5,25011.5C 298.5,25024.2 298.5,25036.8 298.5,25049.5C 292.167,25049.5 285.833,25049.5 279.5,25049.5 Z"/></g>
<g><path style="opacity:1" fill="#000000" d="M 279.5,25049.5 C 279.5,25055.8 279.5,25062.2 279.5,25068.5C 273.167,25068.5 266.833,25068.5 260.5,25068.5C 260.5,25062.2 260.5,25055.8 260.5,25049.5C 266.833,25049.5 273.167,25049.5 279.5,25049.5 Z"/></g>
<g><path style="opacity:1" fill="#000000" d="M 260.5,25068.5 C 260.5,25074.8 260.5,25081.2 260.5,25087.5C 254.167,25087.5 247.833,25087.5 241.5,25087.5C 241.5,25081.2 241.5,25074.8 241.5,25068.5C 247.833,25068.5 254.167,25068.5 260.5,25068.5 Z"/></g>
<g><path style="opacity:1" fill="#000000" d="M 241.5,25087.5 C 241.5,25093.8 241.5,25100.2 241.5,25106.5C 235.167,25106.5 228.833,25106.5 222.5,25106.5C 222.5,25100.2 222.5,25093.8 222.5,25087.5C 228.833,25087.5 235.167,25087.5 241.5,25087.5 Z"/></g>
<g><path style="opacity:1" fill="#000000" d="M 222.5,25106.5 C 222.5,25109.5 222.5,25112.5 222.5,25115.5C 247.833,25115.5 273.167,25115.5 298.5,25115.5C 298.5,25121.5 298.5,25127.5 298.5,25133.5C 266.833,25133.5 235.167,25133.5 203.5,25133.5C 203.5,25124.5 203.5,25115.5 203.5,25106.5C 209.833,25106.5 216.167,25106.5 222.5,25106.5 Z"/></g>
<g><path style="opacity:1" fill="#000000" d="M 381.5,25175.5 C 381.5,25169.2 381.5,25162.8 381.5,25156.5C 356.167,25156.5 330.833,25156.5 305.5,25156.5C 305.5,25150.2 305.5,25143.8 305.5,25137.5C 337.167,25137.5 368.833,25137.5 400.5,25137.5C 400.5,25150.2 400.5,25162.8 400.5,25175.5C 394.167,25175.5 387.833,25175.5 381.5,25175.5 Z"/></g>
<g><path style="opacity:1" fill="#000000" d="M 381.5,25175.5 C 381.5,25181.8 381.5,25188.2 381.5,25194.5C 375.167,25194.5 368.833,25194.5 362.5,25194.5C 362.5,25188.2 362.5,25181.8 362.5,25175.5C 368.833,25175.5 375.167,25175.5 381.5,25175.5 Z"/></g>
<g><path style="opacity:1" fill="#000000" d="M 362.5,25194.5 C 362.5,25200.8 362.5,25207.2 362.5,25213.5C 356.167,25213.5 349.833,25213.5 343.5,25213.5C 343.5,25207.2 343.5,25200.8 343.5,25194.5C 349.833,25194.5 356.167,25194.5 362.5,25194.5 Z"/></g>
<g><path style="opacity:1" fill="#000000" d="M 343.5,25213.5 C 343.5,25219.8 343.5,25226.2 343.5,25232.5C 337.167,25232.5 330.833,25232.5 324.5,25232.5C 324.5,25226.2 324.5,25219.8 324.5,25213.5C 330.833,25213.5 337.167,25213.5 343.5,25213.5 Z"/></g>
<g><path style="opacity:1" fill="#000000" d="M 324.5,25232.5 C 324.5,25235.5 324.5,25238.5 324.5,25241.5C 339.5,25241.5 354.5,25241.5 369.5,25241.5C 369.5,25247.5 369.5,25253.5 369.5,25259.5C 348.167,25259.5 326.833,25259.5 305.5,25259.5C 305.5,25250.5 305.5,25241.5 305.5,25232.5C 311.833,25232.5 318.167,25232.5 324.5,25232.5 Z"/></g>
<g><path style="opacity:1" fill="#000000" d="M 176.5,25727.5 C 176.5,25721.2 176.5,25714.8 176.5,25708.5C 151.5,25708.5 126.5,25708.5 101.5,25708.5C 101.5,25702.2 101.5,25695.8 101.5,25689.5C 132.833,25689.5 164.167,25689.5 195.5,25689.5C 195.5,25702.2 195.5,25714.8 195.5,25727.5C 189.167,25727.5 182.833,25727.5 176.5,25727.5 Z"/></g>
<g><path style="opacity:1" fill="#000000" d="M 176.5,25727.5 C 176.5,25733.8 176.5,25740.2 176.5,25746.5C 170.167,25746.5 163.833,25746.5 157.5,25746.5C 157.5,25740.2 157.5,25733.8 157.5,25727.5C 163.833,25727.5 170.167,25727.5 176.5,25727.5 Z"/></g>
<g><path style="opacity:1" fill="#000000" d="M 157.5,25746.5 C 157.5,25752.5 157.5,25758.5 157.5,25764.5C 151.5,25764.5 145.5,25764.5 139.5,25764.5C 139.5,25758.5 139.5,25752.5 139.5,25746.5C 145.5,25746.5 151.5,25746.5 157.5,25746.5 Z"/></g>
<g><path style="opacity:1" fill="#000000" d="M 139.5,25764.5 C 139.5,25770.2 139.5,25775.8 139.5,25781.5C 133.167,25781.5 126.833,25781.5 120.5,25781.5C 120.5,25775.8 120.5,25770.2 120.5,25764.5C 126.833,25764.5 133.167,25764.5 139.5,25764.5 Z"/></g>
<g><path style="opacity:1" fill="#000000" d="M 120.5,25781.5 C 120.5,25784.5 120.5,25787.5 120.5,25790.5C 145.833,25790.5 171.167,25790.5 196.5,25790.5C 196.5,25796.5 196.5,25802.5 196.5,25808.5C 164.833,25808.5 133.167,25808.5 101.5,25808.5C 101.5,25799.5 101.5,25790.5 101.5,25781.5C 107.833,25781.5 114.167,25781.5 120.5,25781.5 Z"/></g>
<g><path style="opacity:1" fill="#000000" d="M 279.5,25849.5 C 279.5,25843.2 279.5,25836.8 279.5,25830.5C 254.167,25830.5 228.833,25830.5 203.5,25830.5C 203.5,25824.2 203.5,25817.8 203.5,25811.5C 235.167,25811.5 266.833,25811.5 298.5,25811.5C 298.5,25824.2 298.5,25836.8 298.5,25849.5C 292.167,25849.5 285.833,25849.5 279.5,25849.5 Z"/></g>
<g><path style="opacity:1" fill="#000000" d="M 279.5,25849.5 C 279.5,25855.8 279.5,25862.2 279.5,25868.5C 273.167,25868.5 266.833,25868.5 260.5,25868.5C 260.5,25862.2 260.5,25855.8 260.5,25849.5C 266.833,25849.5 273.167,25849.5 279.5,25849.5 Z"/></g>
<g><path style="opacity:1" fill="#000000" d="M 260.5,25868.5 C 260.5,25874.8 260.5,25881.2 260.5,25887.5C 254.167,25887.5 247.833,25887.5 241.5,25887.5C 241.5,25881.2 241.5,25874.8 241.5,25868.5C 247.833,25868.5 254.167,25868.5 260.5,25868.5 Z"/></g>
<g><path style="opacity:1" fill="#000000" d="M 241.5,25887.5 C 241.5,25893.8 241.5,25900.2 241.5,25906.5C 235.167,25906.5 228.833,25906.5 222.5,25906.5C 222.5,25900.2 222.5,25893.8 222.5,25887.5C 228.833,25887.5 235.167,25887.5 241.5,25887.5 Z"/></g>
<g><path style="opacity:1" fill="#000000" d="M 222.5,25906.5 C 222.5,25909.5 222.5,25912.5 222.5,25915.5C 247.833,25915.5 273.167,25915.5 298.5,25915.5C 298.5,25921.5 298.5,25927.5 298.5,25933.5C 266.833,25933.5 235.167,25933.5 203.5,25933.5C 203.5,25924.5 203.5,25915.5 203.5,25906.5C 209.833,25906.5 216.167,25906.5 222.5,25906.5 Z"/></g>
<g><path style="opacity:1" fill="#000000" d="M 381.5,25975.5 C 381.5,25969.2 381.5,25962.8 381.5,25956.5C 356.167,25956.5 330.833,25956.5 305.5,25956.5C 305.5,25950.2 305.5,25943.8 305.5,25937.5C 337.167,25937.5 368.833,25937.5 400.5,25937.5C 400.5,25950.2 400.5,25962.8 400.5,25975.5C 394.167,25975.5 387.833,25975.5 381.5,25975.5 Z"/></g>
<g><path style="opacity:1" fill="#000000" d="M 381.5,25975.5 C 381.5,25981.8 381.5,25988.2 381.5,25994.5C 375.167,25994.5 368.833,25994.5 362.5,25994.5C 362.5,25988.2 362.5,25981.8 362.5,25975.5C 368.833,25975.5 375.167,25975.5 381.5,25975.5 Z"/></g>
<g><path style="opacity:1" fill="#000000" d="M 362.5,25994.5 C 362.5,26000.8 362.5,26007.2 362.5,26013.5C 356.167,26013.5 349.833,26013.5 343.5,26013.5C 343.5,26007.2 343.5,26000.8 343.5,25994.5C 349.833,25994.5 356.167,25994.5 362.5,25994.5 Z"/></g>
<g><path style="opacity:1" fill="#000000" d="M 343.5,26013.5 C 343.5,26019.8 343.5,26026.2 343.5,26032.5C 337.167,26032.5 330.833,26032.5 324.5,26032.5C 324.5,26026.2 324.5,26019.8 324.5,26013.5C 330.833,26013.5 337.167,26013.5 343.5,26013.5 Z"/></g>
<g><path style="opacity:1" fill="#000000" d="M 324.5,26032.5 C 324.5,26035.5 324.5,26038.5 324.5,26041.5C 349.833,26041.5 375.167,26041.5 400.5,26041.5C 400.5,26047.5 400.5,26053.5 400.5,26059.5C 368.833,26059.5 337.167,26059.5 305.5,26059.5C 305.5,26050.5 305.5,26041.5 305.5,26032.5C 311.833,26032.5 318.167,26032.5 324.5,26032.5 Z"/></g>
</svg>
